<?xml version="1.0" encoding="utf-8"?>
<!-- Generator: Adobe Illustrator 16.0.0, SVG Export Plug-In . SVG Version: 6.00 Build 0)  -->
<!DOCTYPE svg PUBLIC "-//W3C//DTD SVG 1.1//EN" "http://www.w3.org/Graphics/SVG/1.1/DTD/svg11.dtd">
<svg version="1.1" id="Capa_1" xmlns="http://www.w3.org/2000/svg" xmlns:xlink="http://www.w3.org/1999/xlink" x="0px" y="0px"
	 width="595.28px" height="841.89px" viewBox="0 0 595.28 841.89" enable-background="new 0 0 595.28 841.89" xml:space="preserve">
<line fill="none" stroke="#DC5D4B" stroke-width="4" stroke-miterlimit="10" x1="307.124" y1="212.929" x2="322.5" y2="202.757"/>
<line fill="none" stroke="#C2B028" stroke-width="4" stroke-miterlimit="10" x1="285.785" y1="145.771" x2="235.968" y2="208.853"/>
<line fill="none" stroke="#EC729F" stroke-width="4" stroke-miterlimit="10" x1="190.56" y1="333.933" x2="244.589" y2="331.417"/>
<path fill-rule="evenodd" clip-rule="evenodd" fill="#C2B028" d="M148.184,644.486c-3.615,0.002-6.479-3.354-6.457-7.566
	c0.021-4.225,2.909-7.396,6.626-7.281c3.519,0.107,6.229,3.229,6.281,7.235C154.687,640.995,151.731,644.486,148.184,644.486z
	 M145.557,633.903c0.357,1.607,5.093-3.058,2.296,2.376c-0.465,0.904,0.6,1.221,0.979,1.786c0.484,0.721,0.535,1.416-0.051,2.066
	c-0.455,0.504-0.953,0.455-1.466,0.042c-0.642-0.517-1.435-1.41-1.91,0.033c-0.361,1.094,0.572,1.621,1.284,2.075
	c1.069,0.687,2.124,0.516,3.128-0.222c1.191-0.875,1.569-2.128,1.274-3.654c-0.194-1.004-0.992-1.781-0.484-3.052
	c0.737-1.847-0.233-3.063-1.695-3.574C147.282,631.211,145.911,631.699,145.557,633.903z"/>
<path fill-rule="evenodd" clip-rule="evenodd" fill="#2380C2" d="M261.025,592.681c-3.955-0.251-7.001-3.535-6.834-7.37
	c0.173-4.005,3.722-7.145,7.857-6.954c4.187,0.193,7.205,3.54,6.957,7.713C268.757,590.225,265.455,592.96,261.025,592.681z
	 M262.052,587.946c0.784-1.007,1.711-2.024,2.431-3.168c0.912-1.446,0.92-2.94-0.535-4.112c-1.57-1.266-3.21-1.041-4.729,0.11
	c-0.637,0.483-1.064,1.22-0.418,1.961c0.555,0.638,1.111,0.146,1.566-0.252c0.615-0.539,1.232-1.024,1.965-0.227
	c0.635,0.692,0.382,1.448-0.074,2.094c-0.441,0.623-1.021,1.151-1.525,1.732c-0.973,1.126-2.9,2.073-2.159,3.713
	c0.755,1.671,2.782,0.659,4.244,0.806c0.708,0.071,1.6,0.17,1.973-0.736C264.779,587.985,262.551,589.363,262.052,587.946z"/>
<path fill-rule="evenodd" clip-rule="evenodd" fill="#8F368C" d="M576.878,549.199c0.748,1.462,0.857,3.072-0.299,4.194
	c-8.81,8.511-22.913,8.638-31.936,0.368c-9.569-8.757-10.64-23.441-2.434-33.247c8.102-9.678,23.338-11.323,33.235-3.584
	c9.932,7.756,12.192,21.077,5.236,31.44c-0.881,1.317-2.486,1.57-4.068,1.099c-1.15-11.318-6.594-21.169-11.123-31.256
	c-2.135-4.747-7.509-5.041-9.54-0.559c-4.453,9.805-10.219,19.454-10.501,31.578c2.606-0.702,4.35-0.661,5.334-1.513
	c9.713-8.407,9.765-8.539,19.144-0.311C572.143,549.354,574.3,549.619,576.878,549.199z"/>
<path fill-rule="evenodd" clip-rule="evenodd" fill="#23A568" d="M480.656,543.662c-0.259,13.344-11.004,23.538-24.292,23.032
	c-12.619-0.479-22.7-10.763-22.784-23.246c-0.096-13.029,10.891-24.117,23.763-23.988
	C470.507,519.584,480.909,530.391,480.656,543.662z M466.631,537.896c0.495-7.909-2.419-11.909-8.844-12.281
	c-6.447-0.365-11.556,4.124-10.222,10.954c0.945,4.826-0.923,8.596-1.204,12.86c-0.506,7.532,4.422,12.033,11.955,11.448
	c6.756-0.534,10.604-5.142,9.867-12.028C467.79,545.147,463.587,541.975,466.631,537.896z"/>
<path fill-rule="evenodd" clip-rule="evenodd" fill="#F5F3EF" d="M443.096,573.552c1.18,2.396,1.065,2.896-1.006,4.395
	c-0.708,0.107-1.469-0.141-2.136,0.293c-0.253,0.349-0.507,0.696-0.761,1.046c-0.157-0.425-0.061-1.026-0.755-1.073
	c0.001-0.332,0.003-0.664,0.004-0.996c0.248-0.021,0.496-0.043,0.745-0.064c-0.847-2.72,0.768-3.878,2.963-4.667
	c0.146,0.141,0.293,0.28,0.438,0.421c0.189,0.22,0.379,0.438,0.568,0.658L443.096,573.552z"/>
<path fill-rule="evenodd" clip-rule="evenodd" fill="#F5F3EF" d="M130.98,496.777c-1.959-2.492-1.956-2.529,0.491-5.675
	c0.638-0.06,1.28-0.132,1.671,0.554c0.272,0.313,0.611,0.478,1.03,0.466l-0.04-0.015c1.119,2.206,0.184,3.816-1.51,5.207
	C132.002,497.358,131.37,497.438,130.98,496.777z"/>
<path fill-rule="evenodd" clip-rule="evenodd" fill="#F5F3EF" d="M518.797,701.994c-0.132,0.093-0.319,0.156-0.386,0.283
	c-1.346,2.566-1.343,2.567-4.291,2.247c0.001,0,0.023,0.046,0.023,0.046c-0.083-0.334-0.348-0.459-0.638-0.556
	c-0.674-0.328-0.989-0.862-0.926-1.613c0.138-0.092,0.364-0.157,0.4-0.279c0.662-2.217,2.274-2.604,4.279-2.259l-0.024-0.041
	c0.058,0.377,0.337,0.494,0.659,0.561C518.546,700.724,518.864,701.251,518.797,701.994z"/>
<path fill-rule="evenodd" clip-rule="evenodd" fill="#F5F3EF" d="M89.385,454.745c0.308-0.146,0.633-0.264,0.919-0.442
	c2.089-1.309,2.826-1.176,4.237,0.769c0.143,0.196,0.338,0.354,0.509,0.53c0.543,0.389,0.435,0.725-0.082,1.029
	c-2.408,2.467-3.433,2.38-5.692-0.487C89.245,455.672,89.142,455.195,89.385,454.745z"/>
<path fill-rule="evenodd" clip-rule="evenodd" fill="#F5F3EF" d="M547.431,580.174c0.216,0.27,0.475,0.516,0.641,0.813
	c1.302,2.32,0.232,3.831-2.824,4.006c-0.002,0.001-0.103,0.071-0.1,0.071c-1.92-2.312-1.908-2.902,0.172-4.887
	c0.311-0.296,0.276-0.582,0.19-0.918C546.298,579.255,547.065,579.292,547.431,580.174z"/>
<path fill-rule="evenodd" clip-rule="evenodd" fill="#F5F3EF" d="M179.542,509.327c0.001,0.084-0.017,0.177,0.008,0.253
	c1.077,3.252,0.296,4.36-3.127,4.435l0.023,0.043c-0.143-0.159-0.286-0.317-0.428-0.477c-0.446-0.021-0.877-0.077-1.15-0.497
	c0.104-0.126,0.296-0.25,0.299-0.379c0.077-3.175,0.297-3.436,3.353-3.87l-0.028-0.042c0.187,0.533,0.625,0.57,1.09,0.553
	L179.542,509.327z"/>
<path fill-rule="evenodd" clip-rule="evenodd" fill="#D1CECF" d="M529.554,554.929l0.029,0.081
	c-0.172,0.151-0.344,0.302-0.517,0.452c-0.289-0.252-0.579-0.505-0.869-0.757c0.028-0.189,0.058-0.38,0.086-0.57
	c0.173,0.035,0.345,0.069,0.518,0.104C529.051,554.469,529.303,554.698,529.554,554.929z"/>
<path fill-rule="evenodd" clip-rule="evenodd" fill="#8F368C" d="M498.577,465.003c-0.615-0.137-0.772-0.54-0.646-1.108
	C498.442,464.092,498.381,464.622,498.577,465.003z"/>
<path fill-rule="evenodd" clip-rule="evenodd" fill="#23A568" d="M304.362,445.676c-0.517-0.192-0.925-0.443-0.585-1.094
	C304.224,444.813,304.216,445.285,304.362,445.676z"/>
<path fill-rule="evenodd" clip-rule="evenodd" fill="#8F368C" d="M514.648,525.515c0.338,0.152,0.627,0.477,0.273,0.706
	c-0.309,0.201-0.515-0.224-0.585-0.557C514.441,525.624,514.547,525.573,514.648,525.515z"/>
<path fill-rule="evenodd" clip-rule="evenodd" fill="#787475" d="M542.406,572.476c0.208-0.012,0.415-0.022,0.623-0.033
	c0.15,0.311-0.031,0.483-0.29,0.509C542.431,572.98,542.35,572.753,542.406,572.476z"/>
<path fill-rule="evenodd" clip-rule="evenodd" fill="#2380C2" d="M215.03,577.168c0.586,0.264,0.485,0.822,0.56,1.306
	C215.345,578.063,214.741,577.807,215.03,577.168z"/>
<path fill-rule="evenodd" clip-rule="evenodd" fill="#23A568" d="M443.157,573.563c-0.189-0.22-0.379-0.438-0.568-0.658
	C442.77,573.132,443.157,573.18,443.157,573.563z"/>
<path fill-rule="evenodd" clip-rule="evenodd" fill="#C2B028" d="M176.018,513.581c0.143,0.159,0.285,0.317,0.428,0.477
	C176.129,514.055,176.082,513.811,176.018,513.581z"/>
<path fill-rule="evenodd" clip-rule="evenodd" fill="#787475" d="M531.853,587.111c-0.175-0.003-0.35-0.005-0.524-0.008
	c-0.001-0.248,0.066-0.466,0.365-0.38C531.776,586.747,531.801,586.976,531.853,587.111z"/>
<path fill-rule="evenodd" clip-rule="evenodd" fill="#C2B028" d="M490.188,666.95c0.11-0.02,0.222-0.021,0.332-0.005
	C490.415,667.317,490.305,667.324,490.188,666.95z"/>
<path fill-rule="evenodd" clip-rule="evenodd" fill="#F5F3EF" d="M216.586,579.438c0.114,0.11,0.227,0.22,0.339,0.329
	C216.775,579.696,216.663,579.586,216.586,579.438z"/>
<path fill-rule="evenodd" clip-rule="evenodd" fill="#C2B028" d="M517.895,700.383c-0.322-0.066-0.602-0.184-0.659-0.561
	C517.628,699.807,517.726,700.137,517.895,700.383z"/>
<path fill-rule="evenodd" clip-rule="evenodd" fill="#C2B028" d="M513.506,704.015c0.29,0.097,0.555,0.222,0.638,0.556
	C513.758,704.583,513.669,704.256,513.506,704.015z"/>
<path fill-rule="evenodd" clip-rule="evenodd" fill="#2380C2" d="M220.283,575.649c-0.482-0.232-0.336-0.456,0.01-0.676
	C220.29,575.198,220.287,575.424,220.283,575.649z"/>
<path fill-rule="evenodd" clip-rule="evenodd" fill="#FEFEFE" d="M84.565,517.698c1.347,0.023,2.375,1.144,2.329,2.537
	c-0.043,1.283-1.01,2.214-2.329,2.241c-1.387,0.028-2.532-1.047-2.521-2.367C82.054,518.811,83.241,517.676,84.565,517.698z"/>
<path fill-rule="evenodd" clip-rule="evenodd" fill="#F5F3EF" d="M127.223,636.279c-1.395,0.049-2.535-0.984-2.571-2.331
	c-0.036-1.348,1.045-2.481,2.403-2.52c1.365-0.039,2.542,1.028,2.589,2.347C129.69,635.112,128.609,636.23,127.223,636.279z"/>
<path fill-rule="evenodd" clip-rule="evenodd" fill="#FEFEFE" d="M411.957,579.916c-0.035,0.439-0.131,0.867-0.552,1.09
	c-0.546,0.29-0.893,1.252-1.711,0.665c-0.649-0.466-0.517-1.24-0.368-1.891c0.142-0.628,0.509-1.108,1.286-0.674
	c0.367,0.205,0.747,0.389,1.12,0.582C411.801,579.771,411.876,579.847,411.957,579.916z"/>
<path fill-rule="evenodd" clip-rule="evenodd" fill="#F5F3EF" d="M143.506,644.746c0.222-1.221,1.082-1.491,2.104-1.176
	c0.917,0.283,1.525,0.957,1.063,1.979c-0.318,0.704,0.182,1.135,0.303,1.69c0.185,0.846-0.052,1.54-0.799,2.024
	c-0.629,0.408-1.291,0.503-1.961,0.123c-0.446-0.252-1.031-0.544-0.805-1.149c0.298-0.8,0.795-0.305,1.197-0.019
	c0.322,0.229,0.634,0.256,0.919-0.023c0.367-0.36,0.335-0.745,0.032-1.145c-0.238-0.313-0.905-0.488-0.614-0.989
	C146.7,643.053,143.73,645.637,143.506,644.746z"/>
<path fill-rule="evenodd" clip-rule="evenodd" fill="#F5F3EF" d="M236.311,582.925c0.275,0.802,1.501,0.022,1.508,1.087
	c-0.205,0.513-0.696,0.457-1.086,0.417c-0.805-0.083-1.921,0.489-2.336-0.456c-0.408-0.928,0.653-1.464,1.188-2.101
	c0.277-0.329,0.597-0.628,0.839-0.98c0.251-0.365,0.391-0.793,0.041-1.185c-0.404-0.451-0.744-0.177-1.082,0.128
	c-0.25,0.226-0.557,0.504-0.862,0.143c-0.356-0.419-0.121-0.836,0.23-1.109c0.836-0.651,1.739-0.778,2.604-0.063
	c0.801,0.663,0.796,1.509,0.294,2.327C237.253,581.779,236.742,582.355,236.311,582.925z"/>
<path fill-rule="evenodd" clip-rule="evenodd" fill="#FEFEFE" d="M524.144,527.381c-0.368,0.322-0.687,0.802-1.234,0.759
	c-0.581-0.047-0.467-0.571-0.452-0.951c0.021-0.52,0.313-0.734,0.821-0.552C523.654,526.772,524.088,526.858,524.144,527.381z"/>
<path fill-rule="evenodd" clip-rule="evenodd" fill="#F5F3EF" d="M576.878,549.199c-2.578,0.42-4.735,0.155-6.951-1.789
	c-9.379-8.229-9.431-8.097-19.144,0.311c-0.984,0.852-2.728,0.811-5.334,1.513c0.282-12.124,6.048-21.773,10.501-31.578
	c2.031-4.482,7.405-4.188,9.54,0.559c4.529,10.087,9.973,19.938,11.123,31.256L576.878,549.199z M560.467,526.54
	c-2.848,2.37-5,5.092-2.732,8.659c1.162,1.824,3.814,1.687,5.155,0.023C565.899,531.494,563.148,528.996,560.467,526.54z"/>
<path fill-rule="evenodd" clip-rule="evenodd" fill="#FEFEFE" d="M316.247,513.16c0.158-0.339,0.181-0.458,0.223-0.465
	c0.769-0.133,1.546-0.741,2.299,0c0.057,0.056-0.025,0.363-0.129,0.451C317.891,513.771,317.124,513.584,316.247,513.16z"/>
<path fill-rule="evenodd" clip-rule="evenodd" fill="#FEFEFE" d="M548.771,571.589c0.346,0.441,0.794,1.117,0.183,1.342
	c-0.801,0.294-0.375-0.565-0.442-0.927C548.49,571.893,548.668,571.744,548.771,571.589z"/>
<path fill-rule="evenodd" clip-rule="evenodd" fill="#FEFEFE" d="M528.283,554.135c-0.028,0.19-0.058,0.381-0.086,0.57
	c-0.373-0.039-0.84,0.123-0.987-0.413c-0.034-0.125,0.013-0.351,0.104-0.418C527.724,553.568,528.036,553.763,528.283,554.135z"/>
<path fill-rule="evenodd" clip-rule="evenodd" fill="#FEFEFE" d="M527.544,555.653c0.287,0.104,0.678,0.153,0.617,0.622
	c-0.036,0.271-0.229,0.418-0.521,0.416c-0.458-0.002-0.581-0.356-0.618-0.685C526.989,555.729,527.239,555.618,527.544,555.653z"/>
<path fill-rule="evenodd" clip-rule="evenodd" fill="#D1CECF" d="M529.583,555.01c0.232,0.26,0.483,0.551,0.056,0.805
	c-0.089,0.053-0.376-0.227-0.571-0.353C529.239,555.312,529.411,555.161,529.583,555.01z"/>
<path fill-rule="evenodd" clip-rule="evenodd" fill="#D1CECF" d="M535.998,570.38c0.441,0.139,1.027-0.121,1.284,0.521
	c0.169,0.423,0.155,0.791-0.091,1.178c-0.155,0.244-0.364,0.348-0.612,0.278c-0.503-0.139-0.525-0.58-0.546-0.999
	c-0.017-0.331-0.012-0.663-0.017-0.995L535.998,570.38z"/>
<path fill-rule="evenodd" clip-rule="evenodd" fill="#C2B028" d="M133.143,491.656c0.374,0.089,0.774,0.117,1.03,0.466
	C133.754,492.134,133.415,491.97,133.143,491.656z"/>
<path fill-rule="evenodd" clip-rule="evenodd" fill="#C2B028" d="M178.491,508.793c0.39,0.133,0.852,0.122,1.09,0.553
	C179.115,509.363,178.677,509.326,178.491,508.793z"/>
<path fill-rule="evenodd" clip-rule="evenodd" fill="#ABA7A8" d="M194.654,530.176c0.144,0.089,0.287,0.179,0.431,0.269
	c-0.436,0.388-0.279-0.194-0.435-0.267L194.654,530.176z"/>
<path fill-rule="evenodd" clip-rule="evenodd" fill="#ABA7A8" d="M331.285,535.974c-0.08,0.256-0.259,0.411-0.516,0.348
	c-0.087-0.021-0.19-0.254-0.172-0.371c0.042-0.258,0.254-0.409,0.508-0.358C331.188,535.608,331.228,535.841,331.285,535.974z"/>
<path fill-rule="evenodd" clip-rule="evenodd" fill="#D1CECF" d="M540.56,588.055c-0.076,0.361-0.295,0.566-0.665,0.609
	c-0.466,0.054-0.852-0.061-0.832-0.604c0.012-0.318,0.158-0.657,0.583-0.668C540.111,587.381,540.412,587.616,540.56,588.055z"/>
<path fill-rule="evenodd" clip-rule="evenodd" fill="#F5F3EF" d="M436.297,579.371c-0.027,0.251-0.055,0.503-0.082,0.755
	c-0.312,0.048-0.676,0.27-0.89-0.118c-0.171-0.309-0.14-0.739,0.114-0.936C435.754,578.828,436.02,579.224,436.297,579.371z"/>
<path fill-rule="evenodd" clip-rule="evenodd" fill="#F5F3EF" d="M231.832,429.985c-0.073-0.17-0.059-0.332,0.044-0.485
	c0.044,0.119,0.104,0.234,0.124,0.357C232.005,429.89,231.891,429.942,231.832,429.985z"/>
<path fill-rule="evenodd" clip-rule="evenodd" fill="#F5F3EF" d="M221.174,505.575c-0.16-0.201-0.062-0.347,0.103-0.479
	C221.299,505.269,221.265,505.428,221.174,505.575z"/>
<path fill-rule="evenodd" clip-rule="evenodd" fill="#F5F3EF" d="M225.724,431.642c0.145,0.381,0.042,0.708-0.218,1
	C225.466,432.283,225.478,431.938,225.724,431.642z"/>
<path fill-rule="evenodd" clip-rule="evenodd" fill="#F5F3EF" d="M216.242,498.5c0.207,0.343,0.073,0.628-0.156,0.895
	C216.138,499.097,216.19,498.798,216.242,498.5z"/>
<path fill-rule="evenodd" clip-rule="evenodd" fill="#FEFEFE" d="M163.378,497.86c-0.171,0.187-0.324,0.396-0.518,0.555
	c-0.437,0.357-1.057,0.448-1.395,0.105c-0.48-0.485,0.118-0.899,0.423-1.255c0.496-0.58,1.035-0.958,1.501,0.05
	C163.386,497.497,163.382,497.679,163.378,497.86z"/>
<path fill-rule="evenodd" clip-rule="evenodd" fill="#EC729F" d="M560.467,526.54c2.682,2.456,5.433,4.954,2.423,8.683
	c-1.341,1.663-3.993,1.801-5.155-0.023C555.467,531.632,557.619,528.91,560.467,526.54z"/>
<path fill-rule="evenodd" clip-rule="evenodd" fill="#23A568" d="M456.505,545.896c3.178-0.051,4.866,1.598,4.917,4.225
	c0.056,2.616-1.632,4.501-4.395,4.489c-2.075-0.005-3.409-1.406-3.617-3.595C453.157,548.394,453.854,546.379,456.505,545.896z"/>
<path fill-rule="evenodd" clip-rule="evenodd" fill="#83C8BA" d="M457.259,538.987c-2.133,0.09-3.55-1.052-3.871-3.179
	c-0.314-2.087,0.63-3.77,2.802-4.214c2.357-0.483,3.601,1.114,3.955,3.1C460.51,536.748,459.47,538.295,457.259,538.987z"/>
<path fill-rule="evenodd" clip-rule="evenodd" fill="#FEFEFE" d="M225.636,469.683c0.037,1.243-0.927,2.338-2.147,2.441
	c-1.247,0.105-2.764-1.329-2.718-2.569c0.039-1.046,1.306-2.241,2.424-2.289C224.581,467.208,225.593,468.21,225.636,469.683z"/>
<path fill-rule="evenodd" clip-rule="evenodd" fill="#F5F3EF" d="M225.26,501.008c0.393,0.064,0.742,0.125,0.681,0.582
	c-0.034,0.256-0.195,0.437-0.494,0.438c-0.343,0.002-0.687-0.036-0.764-0.434C224.589,501.107,225.046,501.15,225.26,501.008z"/>
<path fill-rule="evenodd" clip-rule="evenodd" fill="#D1CECF" d="M173.42,427.56c0.06,0,0.135-0.023,0.172,0.004
	c0.148,0.111,0.114,0.24-0.098,0.335c-0.024,0.011-0.129-0.104-0.155-0.174C173.324,427.684,173.392,427.612,173.42,427.56z"/>
<line fill="none" stroke="#23A568" stroke-width="4" stroke-miterlimit="10" x1="330.042" y1="543.085" x2="442.086" y2="577.947"/>
<line fill="none" stroke="#C2B028" stroke-width="4" stroke-miterlimit="10" x1="151.788" y1="502.659" x2="129.643" y2="633.775"/>
<line fill="none" stroke="#2380C2" stroke-width="4" stroke-miterlimit="10" x1="216.417" y1="528.282" x2="220.313" y2="574.108"/>
<line fill="none" stroke="#DBCE85" stroke-width="4" stroke-miterlimit="10" x1="217.108" y1="525.233" x2="318.229" y2="539.834"/>
<line fill="none" stroke="#EF8239" stroke-width="4" stroke-miterlimit="10" x1="90.313" y1="489.1" x2="84.856" y2="522.477"/>
<line fill="none" stroke="#EF8239" stroke-width="4" stroke-miterlimit="10" x1="91.217" y1="405.706" x2="91.769" y2="478.959"/>
<line fill="none" stroke="#EC729F" stroke-width="4" stroke-miterlimit="10" x1="87.269" y1="400.902" x2="58.345" y2="410.85"/>
<line fill="none" stroke="#EF8239" stroke-width="4" stroke-miterlimit="10" x1="79.974" y1="234.213" x2="91.557" y2="399.693"/>
<line fill="none" stroke="#2380C2" stroke-width="4" stroke-miterlimit="10" x1="77.308" y1="231.021" x2="17.64" y2="228.816"/>
<line fill="none" stroke="#FEDC32" stroke-width="4" stroke-miterlimit="10" x1="372.995" y1="278.65" x2="410.301" y2="362.633"/>
<line fill="none" stroke="#FEDC32" stroke-width="4" stroke-miterlimit="10" x1="302.145" y1="245.353" x2="373.155" y2="272.849"/>
<line fill="none" stroke="#FEDC32" stroke-width="4" stroke-miterlimit="10" x1="230.897" y1="202.046" x2="291.078" y2="241.57"/>
<line fill="none" stroke="#23A568" stroke-width="4" stroke-miterlimit="10" x1="474.433" y1="168.972" x2="379.091" y2="274.37"/>
<line fill="none" stroke="#EC729F" stroke-width="4" stroke-miterlimit="10" x1="299.646" y1="322.43" x2="408.108" y2="368.479"/>
<line fill="none" stroke="#8F368C" stroke-width="4" stroke-miterlimit="10" x1="416.059" y1="369.224" x2="545.773" y2="581.839"/>
<line fill="none" stroke="#C2B028" stroke-width="4" stroke-miterlimit="10" x1="181.933" y1="393.433" x2="152.717" y2="496.571"/>
<line fill="none" stroke="#2380C2" stroke-width="4" stroke-miterlimit="10" x1="237.389" y1="389.053" x2="218.224" y2="523.356"/>
<line fill="none" stroke="#683C11" stroke-width="4" stroke-miterlimit="10" x1="280.81" y1="386.341" x2="411.187" y2="370.643"/>
<line fill="none" stroke="#82C8BA" stroke-width="4" stroke-miterlimit="10" x1="278.893" y1="331.86" x2="276.176" y2="380.379"/>
<line fill="none" stroke="#23A568" stroke-width="4" stroke-miterlimit="10" x1="296.426" y1="315.432" x2="369.043" y2="278.034"/>
<line fill="none" stroke="#2380C2" stroke-width="4" stroke-miterlimit="10" x1="84.604" y1="231.022" x2="202.076" y2="297.92"/>
<line fill="none" stroke="#EC729F" stroke-width="4" stroke-miterlimit="10" x1="195.706" y1="333.011" x2="94.324" y2="399.688"/>
<line fill="none" stroke="#C2B028" stroke-width="4" stroke-miterlimit="10" x1="202.187" y1="300.93" x2="184.674" y2="387.616"/>
<line fill="none" stroke="#683C11" stroke-width="4" stroke-miterlimit="10" x1="94.324" y1="399.688" x2="178.964" y2="390.546"/>
<line fill="none" stroke="#2380C2" stroke-width="4" stroke-miterlimit="10" x1="242.668" y1="335.976" x2="235.546" y2="382.061"/>
<line fill="none" stroke="#82C8BA" stroke-width="4" stroke-miterlimit="10" x1="284.451" y1="296.083" x2="277.448" y2="326.706"/>
<line fill="none" stroke="#82C8BA" stroke-width="4" stroke-miterlimit="10" x1="284.272" y1="287.609" x2="294.398" y2="248.372"/>
<line fill="none" stroke="#23A568" stroke-width="4" stroke-miterlimit="10" x1="228.974" y1="277.188" x2="282.846" y2="291.824"/>
<line fill="none" stroke="#82C8BA" stroke-width="4" stroke-miterlimit="10" x1="297.931" y1="242.602" x2="313.991" y2="195.197"/>
<line fill="none" stroke="#EF8239" stroke-width="4" stroke-miterlimit="10" x1="73.577" y1="109.504" x2="82.879" y2="228.101"/>
<line fill="none" stroke="#C2B028" stroke-width="4" stroke-miterlimit="10" x1="236.492" y1="205.032" x2="213.138" y2="273.063"/>
<line fill="none" stroke="#23A568" stroke-width="4" stroke-miterlimit="10" x1="220.953" y1="333.332" x2="234.52" y2="382.061"/>
<line fill="none" stroke="#683C11" stroke-width="4" stroke-miterlimit="10" x1="232.747" y1="384.713" x2="184.428" y2="389.754"/>
<line fill="none" stroke="#DBCE85" stroke-width="4" stroke-miterlimit="10" x1="155" y1="503.447" x2="214.237" y2="525.233"/>
<line fill="none" stroke="#DBCE85" stroke-width="4" stroke-miterlimit="10" x1="92.319" y1="483.78" x2="147.513" y2="497.389"/>
<line fill="none" stroke="#683C11" stroke-width="4" stroke-miterlimit="10" x1="276.373" y1="386.179" x2="238.531" y2="384.983"/>
<line fill="none" stroke="#23A568" stroke-width="4" stroke-miterlimit="10" x1="280.32" y1="402.118" x2="235.486" y2="387.553"/>
<line fill="none" stroke="#83C8BA" stroke-width="4" stroke-miterlimit="10" x1="276.867" y1="383.253" x2="277.486" y2="396.222"/>
<line fill="none" stroke="#23A568" stroke-width="4" stroke-miterlimit="10" x1="224.308" y1="305.768" x2="221.761" y2="329.531"/>
<line fill="none" stroke="#23A568" stroke-width="4" stroke-miterlimit="10" x1="227.84" y1="278.951" x2="225.293" y2="302.714"/>
<line fill="none" stroke="#C2B028" stroke-width="4" stroke-miterlimit="10" x1="210.059" y1="276.579" x2="200.862" y2="298.638"/>
<line fill="none" stroke="#2380C2" stroke-width="4" stroke-miterlimit="10" x1="223.117" y1="301.825" x2="246.391" y2="329.527"/>
<line fill="none" stroke="#23A568" stroke-width="4" stroke-miterlimit="10" x1="178.902" y1="269.752" x2="211.474" y2="273.947"/>
<line fill="none" stroke="#23A568" stroke-width="4" stroke-miterlimit="10" x1="214.665" y1="276.231" x2="223.935" y2="277.424"/>
<line fill="none" stroke="#EC729F" stroke-width="4" stroke-miterlimit="10" x1="247.646" y1="331.523" x2="277.448" y2="326.706"/>
<line fill="none" stroke="#EC729F" stroke-width="4" stroke-miterlimit="10" x1="281.647" y1="327.755" x2="296.822" y2="322.938"/>
<line fill="none" stroke="#23A568" stroke-width="4" stroke-miterlimit="10" x1="285.785" y1="295.441" x2="293.851" y2="317.14"/>
<line fill="none" stroke="#2380C2" stroke-width="4" stroke-miterlimit="10" x1="208.026" y1="298.736" x2="220.727" y2="302.349"/>
<line fill="none" stroke="#DBCE85" stroke-width="4" stroke-miterlimit="10" x1="322.756" y1="545.897" x2="513.01" y2="701.963"/>
<line fill="none" stroke="#23A568" stroke-width="4" stroke-miterlimit="10" x1="280.32" y1="402.761" x2="322.087" y2="540.459"/>
<g>
	<g>
		<path fill-rule="evenodd" clip-rule="evenodd" d="M83.747,533.3c-0.414,0-0.828,0-1.241,0c-0.429-0.076-0.866-0.122-1.284-0.236
			c-3.102-0.844-5.082-2.822-5.925-5.924c-0.114-0.42-0.16-0.856-0.237-1.285c0-0.414,0-0.827,0-1.241
			c0.027-0.163,0.059-0.326,0.082-0.491c0.442-3.216,2.777-5.859,5.918-6.678c0.474-0.124,0.964-0.187,1.446-0.277
			c0.414,0,0.827,0,1.241,0c0.436,0.079,0.881,0.125,1.307,0.242c3.088,0.852,5.064,2.826,5.902,5.92
			c0.113,0.418,0.16,0.855,0.236,1.284c0,0.414,0,0.827,0,1.241c-0.027,0.163-0.061,0.326-0.082,0.49
			c-0.42,3.183-2.781,5.865-5.895,6.673C84.735,533.143,84.237,533.208,83.747,533.3z M83.132,531.823
			c3.623-0.004,6.594-2.979,6.584-6.594c-0.01-3.633-2.979-6.595-6.594-6.584c-3.632,0.01-6.588,2.971-6.584,6.594
			C76.542,528.863,79.509,531.826,83.132,531.823z"/>
		<path fill-rule="evenodd" clip-rule="evenodd" fill="#FFFFFF" d="M83.132,531.823c-3.623,0.003-6.59-2.96-6.594-6.584
			c-0.004-3.623,2.952-6.584,6.584-6.594c3.616-0.011,6.584,2.951,6.594,6.584C89.726,528.844,86.755,531.819,83.132,531.823z"/>
	</g>
	
		<text transform="matrix(1 0 0 1 79.519 529.6924)" stroke="#000000" stroke-miterlimit="10" font-family="'GreekC'" font-size="12">b</text>
</g>
<g>
	<g>
		<path fill-rule="evenodd" clip-rule="evenodd" d="M128.156,645.126c-0.414,0-0.828,0-1.241,0
			c-0.429-0.076-0.866-0.122-1.284-0.236c-3.102-0.844-5.082-2.822-5.925-5.924c-0.114-0.42-0.16-0.856-0.237-1.285
			c0-0.414,0-0.827,0-1.241c0.027-0.163,0.059-0.326,0.082-0.491c0.442-3.216,2.777-5.859,5.918-6.678
			c0.474-0.124,0.964-0.187,1.446-0.277c0.414,0,0.827,0,1.241,0c0.436,0.079,0.881,0.125,1.307,0.242
			c3.088,0.852,5.064,2.826,5.902,5.92c0.113,0.418,0.16,0.855,0.236,1.284c0,0.414,0,0.827,0,1.241
			c-0.027,0.163-0.061,0.326-0.082,0.49c-0.42,3.183-2.781,5.865-5.895,6.673C129.145,644.969,128.646,645.034,128.156,645.126z
			 M127.541,643.649c3.623-0.004,6.594-2.979,6.584-6.594c-0.01-3.633-2.979-6.595-6.594-6.584c-3.632,0.01-6.588,2.971-6.584,6.594
			C120.951,640.689,123.918,643.652,127.541,643.649z"/>
		<path fill-rule="evenodd" clip-rule="evenodd" fill="#FFFFFF" d="M127.541,643.649c-3.623,0.003-6.59-2.96-6.594-6.584
			c-0.004-3.623,2.952-6.584,6.584-6.594c3.616-0.011,6.584,2.951,6.594,6.584C134.135,640.67,131.164,643.646,127.541,643.649z"/>
	</g>
	
		<text transform="matrix(1 0 0 1 121.9282 640.5186)" stroke="#000000" stroke-miterlimit="10" font-family="'GreekC'" font-size="12">a</text>
</g>
<g>
	<g>
		<path fill-rule="evenodd" clip-rule="evenodd" d="M215.991,534.489c-0.414,0-0.828,0-1.241,0
			c-0.429-0.076-0.866-0.122-1.284-0.236c-3.102-0.844-5.082-2.822-5.925-5.924c-0.114-0.42-0.16-0.856-0.237-1.285
			c0-0.414,0-0.827,0-1.241c0.027-0.163,0.059-0.326,0.082-0.491c0.442-3.216,2.777-5.859,5.918-6.678
			c0.474-0.124,0.964-0.187,1.446-0.277c0.414,0,0.827,0,1.241,0c0.436,0.079,0.881,0.125,1.307,0.242
			c3.088,0.852,5.064,2.826,5.902,5.92c0.113,0.418,0.16,0.855,0.236,1.284c0,0.414,0,0.827,0,1.241
			c-0.027,0.163-0.061,0.326-0.082,0.49c-0.42,3.183-2.781,5.865-5.895,6.673C216.979,534.332,216.481,534.397,215.991,534.489z
			 M215.376,533.013c3.623-0.004,6.594-2.979,6.584-6.594c-0.01-3.633-2.979-6.595-6.594-6.584c-3.632,0.01-6.588,2.971-6.584,6.594
			C208.786,530.053,211.753,533.016,215.376,533.013z"/>
		<path fill-rule="evenodd" clip-rule="evenodd" fill="#FFFFFF" d="M215.376,533.013c-3.623,0.003-6.59-2.96-6.594-6.584
			c-0.004-3.623,2.952-6.584,6.584-6.594c3.616-0.011,6.584,2.951,6.594,6.584C221.97,530.033,218.999,533.009,215.376,533.013z"/>
	</g>
	<text transform="matrix(1 0 0 1 211.7632 530.8818)" font-family="'MyriadPro-Regular'" font-size="12">R</text>
</g>
<g>
	<g>
		<path fill-rule="evenodd" clip-rule="evenodd" d="M546.394,588.465c-0.414,0-0.827,0-1.241,0
			c-0.429-0.076-0.865-0.122-1.284-0.236c-3.103-0.844-5.081-2.822-5.925-5.924c-0.113-0.42-0.16-0.856-0.236-1.285
			c0-0.414,0-0.827,0-1.241c0.027-0.163,0.059-0.326,0.081-0.491c0.442-3.216,2.777-5.859,5.918-6.678
			c0.474-0.124,0.964-0.187,1.446-0.277c0.414,0,0.827,0,1.241,0c0.437,0.079,0.881,0.125,1.307,0.242
			c3.088,0.852,5.064,2.826,5.902,5.92c0.113,0.418,0.16,0.855,0.236,1.284c0,0.414,0,0.827,0,1.241
			c-0.027,0.163-0.061,0.326-0.082,0.49c-0.42,3.183-2.781,5.865-5.895,6.673C547.382,588.308,546.883,588.373,546.394,588.465z
			 M545.778,586.988c3.623-0.004,6.594-2.979,6.584-6.594c-0.01-3.633-2.979-6.595-6.595-6.584c-3.631,0.01-6.588,2.971-6.584,6.594
			C539.188,584.028,542.155,586.991,545.778,586.988z"/>
		<path fill-rule="evenodd" clip-rule="evenodd" fill="#FFFFFF" d="M545.778,586.988c-3.623,0.003-6.591-2.96-6.595-6.584
			c-0.004-3.623,2.953-6.584,6.584-6.594c3.616-0.011,6.585,2.951,6.595,6.584C552.372,584.009,549.401,586.984,545.778,586.988z"/>
	</g>
	
		<text transform="matrix(1 0 0 1 542.166 584.8574)" stroke="#000000" stroke-miterlimit="10" font-family="'GreekC'" font-size="12">l</text>
</g>
<g>
	<g>
		<path fill-rule="evenodd" clip-rule="evenodd" d="M412.577,376.545c-0.414,0-0.827,0-1.241,0
			c-0.429-0.076-0.865-0.122-1.284-0.236c-3.103-0.844-5.081-2.822-5.925-5.924c-0.113-0.42-0.16-0.856-0.236-1.285
			c0-0.414,0-0.827,0-1.241c0.027-0.163,0.059-0.326,0.081-0.491c0.442-3.216,2.777-5.859,5.918-6.678
			c0.474-0.124,0.964-0.187,1.446-0.277c0.414,0,0.827,0,1.241,0c0.437,0.079,0.881,0.125,1.307,0.242
			c3.088,0.852,5.064,2.826,5.902,5.92c0.113,0.418,0.16,0.855,0.236,1.284c0,0.414,0,0.827,0,1.241
			c-0.027,0.163-0.061,0.326-0.082,0.49c-0.42,3.183-2.781,5.865-5.895,6.673C413.565,376.388,413.066,376.453,412.577,376.545z
			 M411.962,375.068c3.623-0.004,6.594-2.979,6.584-6.594c-0.01-3.633-2.979-6.595-6.595-6.584c-3.631,0.01-6.588,2.971-6.584,6.594
			C405.371,372.108,408.339,375.071,411.962,375.068z"/>
		<path fill-rule="evenodd" clip-rule="evenodd" fill="#FFFFFF" d="M411.962,375.068c-3.623,0.003-6.591-2.96-6.595-6.584
			c-0.004-3.623,2.953-6.584,6.584-6.594c3.616-0.011,6.585,2.951,6.595,6.584C418.556,372.089,415.585,375.064,411.962,375.068z"/>
	</g>
	
		<text transform="matrix(1 0 0 1 407.3496 372.9375)" stroke="#000000" stroke-miterlimit="10" font-family="'GreekC'" font-size="12">w</text>
</g>
<g>
	<g>
		<path fill-rule="evenodd" clip-rule="evenodd" d="M52.908,418.917c-0.414,0-0.828,0-1.241,0c-0.429-0.076-0.866-0.122-1.284-0.236
			c-3.102-0.844-5.082-2.822-5.925-5.924c-0.114-0.42-0.16-0.856-0.237-1.285c0-0.414,0-0.827,0-1.241
			c0.027-0.163,0.059-0.326,0.082-0.491c0.442-3.216,2.777-5.859,5.918-6.678c0.474-0.124,0.964-0.187,1.446-0.277
			c0.414,0,0.827,0,1.241,0c0.436,0.079,0.881,0.125,1.307,0.242c3.088,0.852,5.064,2.826,5.902,5.92
			c0.113,0.418,0.16,0.855,0.236,1.284c0,0.414,0,0.827,0,1.241c-0.027,0.163-0.061,0.326-0.082,0.49
			c-0.42,3.183-2.781,5.865-5.895,6.673C53.896,418.759,53.398,418.825,52.908,418.917z M52.293,417.44
			c3.623-0.004,6.594-2.979,6.584-6.594c-0.01-3.633-2.979-6.595-6.594-6.584c-3.632,0.01-6.588,2.971-6.584,6.594
			C45.703,414.48,48.67,417.443,52.293,417.44z"/>
		<path fill-rule="evenodd" clip-rule="evenodd" fill="#FFFFFF" d="M52.293,417.44c-3.623,0.003-6.59-2.96-6.594-6.584
			c-0.004-3.623,2.952-6.584,6.584-6.594c3.616-0.011,6.584,2.951,6.594,6.584C58.887,414.46,55.916,417.436,52.293,417.44z"/>
	</g>
	
		<text transform="matrix(1 0 0 1 47.6802 413.3091)" stroke="#000000" stroke-miterlimit="10" font-family="'GreekC'" font-size="12">g</text>
</g>
<g>
	<g>
		<path fill-rule="evenodd" clip-rule="evenodd" d="M15.408,236.883c-0.414,0-0.828,0-1.241,0c-0.429-0.076-0.866-0.122-1.284-0.236
			c-3.102-0.844-5.082-2.822-5.925-5.924c-0.114-0.42-0.16-0.856-0.237-1.285c0-0.414,0-0.827,0-1.241
			c0.027-0.163,0.059-0.326,0.082-0.491c0.442-3.216,2.777-5.859,5.918-6.678c0.474-0.124,0.964-0.187,1.446-0.277
			c0.414,0,0.827,0,1.241,0c0.436,0.079,0.881,0.125,1.307,0.242c3.088,0.852,5.064,2.826,5.902,5.92
			c0.113,0.418,0.16,0.855,0.236,1.284c0,0.414,0,0.827,0,1.241c-0.027,0.163-0.061,0.326-0.082,0.49
			c-0.42,3.183-2.781,5.865-5.895,6.673C16.396,236.726,15.898,236.791,15.408,236.883z M14.793,235.406
			c3.623-0.004,6.594-2.979,6.584-6.594c-0.01-3.633-2.979-6.595-6.594-6.584c-3.632,0.01-6.588,2.971-6.584,6.594
			C8.203,232.446,11.17,235.409,14.793,235.406z"/>
		<path fill-rule="evenodd" clip-rule="evenodd" fill="#FFFFFF" d="M14.793,235.406c-3.623,0.003-6.59-2.96-6.594-6.584
			c-0.004-3.623,2.952-6.584,6.584-6.594c3.616-0.011,6.584,2.951,6.594,6.584C21.387,232.427,18.416,235.402,14.793,235.406z"/>
	</g>
	
		<text transform="matrix(1 0 0 1 11.1802 231.2754)" stroke="#000000" stroke-miterlimit="10" font-family="'GreekC'" font-size="12">e</text>
</g>
<g>
	<g>
		<path fill-rule="evenodd" clip-rule="evenodd" d="M81.594,241.279c-0.414,0-0.827,0-1.241,0c-0.429-0.076-0.866-0.122-1.284-0.236
			c-3.102-0.844-5.082-2.822-5.925-5.924c-0.114-0.42-0.16-0.856-0.237-1.285c0-0.414,0-0.827,0-1.241
			c0.027-0.163,0.059-0.326,0.082-0.491c0.442-3.216,2.777-5.859,5.918-6.678c0.474-0.124,0.964-0.187,1.446-0.277
			c0.414,0,0.827,0,1.241,0c0.437,0.079,0.881,0.125,1.307,0.242c3.088,0.852,5.064,2.826,5.902,5.92
			c0.113,0.418,0.16,0.855,0.236,1.284c0,0.414,0,0.827,0,1.241c-0.027,0.163-0.061,0.326-0.082,0.49
			c-0.42,3.183-2.781,5.865-5.895,6.673C82.583,241.122,82.083,241.188,81.594,241.279z M80.979,239.803
			c3.623-0.004,6.594-2.979,6.584-6.594c-0.01-3.633-2.979-6.595-6.595-6.584c-3.631,0.01-6.587,2.971-6.583,6.594
			C74.389,236.843,77.356,239.806,80.979,239.803z"/>
		<path fill-rule="evenodd" clip-rule="evenodd" fill="#FFFFFF" d="M80.979,239.803c-3.623,0.003-6.59-2.96-6.594-6.584
			c-0.004-3.623,2.952-6.584,6.583-6.594c3.616-0.011,6.585,2.951,6.595,6.584C87.573,236.823,84.602,239.799,80.979,239.803z"/>
	</g>
	<text transform="matrix(1 0 0 1 77.3662 237.6719)" font-family="'MyriadPro-Regular'" font-size="12">E</text>
</g>
<path fill-rule="evenodd" clip-rule="evenodd" fill="#EF8239" d="M35.663,526.687c-0.031-3.62,3.913-6.688,8.623-6.71
	c4.652-0.022,8.553,3.079,8.493,6.754c-0.056,3.495-3.712,6.332-8.291,6.435C39.719,533.27,35.694,530.315,35.663,526.687z
	 M48.81,522.425c-2.242-0.108-3.499-0.29-4.724-0.196c-1.294,0.1-3.533-0.647-3.643,0.781c-0.114,1.49,2.272,0.637,3.447,1.047
	c0.418,0.146,0.632,0.269,0.262,1.281c-0.513,1.249-2.251,2.974-2.219,5.138c0.007,0.449,0.261,0.764,0.833,0.91
	c0.657,0.168,1.152-0.137,1.247-0.511C44.736,528.021,46.601,525.511,48.81,522.425z"/>
<path fill-rule="evenodd" clip-rule="evenodd" fill="#DBCE85" d="M437.013,701.633c-0.166-10.523,7.491-13.965,15.579-15.401
	c8.496-1.505,17.36-1.286,21.364,9.042c-4.418-0.907-8.898-2.694-13.235-0.058c-1.114,0.679-2.148,2.178-2.384,3.453
	c-0.351,1.85,1.441,2.113,2.884,2.487c7.548,1.97,7.502,1.953,3.326,7.324c-3.143,4.05-9.151,6.611-7.612,13.315
	c4.895,1.81,9.468,1.31,13.96,0.815c2.263-0.246,3.963-2.872,2.085-4.102c-4.584-3.004-4.366-5.359-0.942-9.07
	c3.872-4.205,2.901-9.393,1.672-14.413c7.508,7.589,9.162,15.126,5.216,23.73c-4.417,9.64-14.033,15.005-24.644,13.77
	c-10.064-1.177-18.216-8.151-20.043-17.819c-0.879-4.652-2.705-9.938,2.924-13.355c9.456,3.659,3.82,15.107,10.973,22.421
	c3.578-10.852,2.699-19.629,1.234-28.643C442.901,694.711,440.707,699.496,437.013,701.633z"/>
<path fill-rule="evenodd" clip-rule="evenodd" fill="#F5F3EF" d="M473.709,695.026c1.229,5.021,2.2,10.208-1.672,14.413
	c-3.424,3.711-3.642,6.066,0.942,9.07c1.878,1.229,0.178,3.855-2.085,4.102c-4.492,0.494-9.065,0.994-13.96-0.815
	c-1.539-6.704,4.47-9.266,7.612-13.315c4.176-5.371,4.222-5.354-3.326-7.324c-1.442-0.374-3.234-0.638-2.884-2.487
	c0.235-1.275,1.27-2.774,2.384-3.453c4.337-2.637,8.817-0.85,13.235,0.058L473.709,695.026z"/>
<path fill-rule="evenodd" clip-rule="evenodd" fill="#F5F3EF" d="M437.013,701.633c3.694-2.137,5.889-6.922,12.356-6.503
	c1.465,9.014,2.344,17.791-1.234,28.643c-7.152-7.313-1.517-18.762-10.973-22.421C437.162,701.357,437.013,701.633,437.013,701.633z
	"/>
<path fill-rule="evenodd" clip-rule="evenodd" fill="#EC729F" d="M30.043,341.771c12.959-0.35,25.631,11.589,25.807,24.326
	c0.198,13.706-10.693,24.645-24.738,24.837c-13.382,0.182-23.891-9.764-24.372-23.073C6.23,353.734,16.594,342.13,30.043,341.771z
	 M19.899,359.872c8.22,2.5,10.161,8.042,9.232,15.131c-0.263,2.003-0.082,4.257,0.619,6.126c0.427,1.139,2.144,2.26,3.439,2.487
	c1.425,0.251,3.353-0.613,3.469-2.33c0.783-11.02,2.5-22.133-1.541-33.535C28.834,350.592,25.269,354.989,19.899,359.872z"/>
<path fill-rule="evenodd" clip-rule="evenodd" fill="#683C11" d="M110.489,403.844c1.021,0.192,2.056,0.302,3.057,0.593
	c2.768,0.804,4.772,3.925,4.784,7.334c0.012,3.395-2.061,6.594-4.764,7.357c-2.927,0.826-5.646-0.591-7.05-3.675
	c-1.375-3.017-0.916-6.894,1.199-9.222c0.84-0.926,1.856-1.613,2.791-2.407C110.505,403.825,110.489,403.844,110.489,403.844z
	 M112.655,414.289c-0.219,1.115-0.899,0.959-1.526,0.808c-0.607-0.146-1.387-0.663-1.56,0.452c-0.121,0.785,0.452,1.418,1.167,1.641
	c1.716,0.535,3.201-0.294,3.783-2.305c0.578-2.001,0.595-4.068,0.071-6.116c-0.447-1.75-1.445-2.606-2.931-2.548
	c-1.502,0.061-2.49,1.024-2.704,2.838c-0.22,1.866,0.121,3.483,1.808,4.238C111.398,413.582,112.412,412.869,112.655,414.289z"/>
<path fill-rule="evenodd" clip-rule="evenodd" fill="#83C8BA" d="M298.315,402.167c-3.495-0.091-6.329-2.989-6.348-6.492
	c-0.021-3.68,2.938-6.586,6.679-6.56c3.833,0.027,6.567,2.846,6.486,6.688C305.054,399.587,302.183,402.268,298.315,402.167z
	 M301.686,397.333c-0.849-1.237-0.687-2.682-0.731-4.098c-0.027-0.817,0.184-1.851-0.817-2.197
	c-1.188-0.411-1.699,0.625-2.271,1.412c-0.247,0.342-0.455,0.715-0.674,1.079c-0.784,1.302-2.185,2.422-1.809,4.133
	c0.355,1.616,2.327,0.47,3.116,1.573c0.502,0.7,1.123,1.512,1.989,0.727C301.183,399.333,301.73,398.445,301.686,397.333z"/>
<path fill-rule="evenodd" clip-rule="evenodd" fill="#23A568" d="M401.633,154.286c18.877-6.986,29.999-0.691,32.86,18.6
	c-2.83,0.329-5.66,0.657-8.484,0.986c-0.61-0.608-1.718-1.177-1.77-1.829c-1.194-14.842-1.174-14.848-16.083-15.153
	c-2.235-0.044-4.465-0.054-6.699-0.08l0.186,0.191C401.498,156.096,401.498,155.191,401.633,154.286z"/>
<path fill-rule="evenodd" clip-rule="evenodd" fill="#D1CECF" d="M426.004,173.872c2.829-0.329,5.659-0.657,8.489-0.986
	c-1.801,14.219-7.248,20.74-19.39,22.09c-5.97,0.665-12.115,0.285-13.481-7.721c0,0-0.119,0.116-0.119,0.114
	c4.046,0.075,8.097,0.302,12.142,0.194C425.113,187.257,425.771,186.476,426.004,173.872z"/>
<path fill-rule="evenodd" clip-rule="evenodd" fill="#D1CECF" d="M401.622,187.255c-9.073-3.327-10.435-5.618-9.86-16.609
	c5.489,5.794,7.113,0.595,9.214-3.241c0.176,6.656,0.352,13.311,0.527,19.966L401.622,187.255z"/>
<path fill-rule="evenodd" clip-rule="evenodd" fill="#23A568" d="M400.976,167.405c-2.101,3.836-3.725,9.035-9.214,3.241
	c0.471-5.595,2.375-10.463,7.066-13.914c0.937,0.091,1.873,0.181,2.814,0.269l-0.186-0.191
	C401.296,160.341,401.136,163.874,400.976,167.405z"/>
<path fill-rule="evenodd" clip-rule="evenodd" fill="#D1CECF" d="M401.643,157.001c-0.941-0.088-1.878-0.178-2.814-0.269
	c0.279-1.567,1.227-2.372,2.805-2.447C401.498,155.191,401.498,156.096,401.643,157.001z"/>
<path fill-rule="evenodd" clip-rule="evenodd" fill="#F5F3EF" d="M400.976,167.405c0.16-3.531,0.32-7.064,0.481-10.595
	c2.234,0.026,4.464,0.036,6.699,0.08c14.909,0.305,14.889,0.311,16.083,15.153c0.052,0.651,1.159,1.221,1.77,1.829
	c-0.238,12.604-0.896,13.386-12.364,13.691c-4.045,0.108-8.096-0.119-12.142-0.194C401.327,180.716,401.151,174.061,400.976,167.405
	z M413.334,184.148c3.321-0.409,6.555-1.505,6.255-5.424c-0.29-3.792-3.605-4.715-6.948-4.708c-3.063,0.01-5.11,1.376-5.24,4.715
	C407.24,182.852,409.661,184.192,413.334,184.148z M412.91,162.351c-2.338,0.122-5.593-0.339-5.629,3.593
	c-0.03,2.662,2.09,3.787,4.62,3.758c2.814-0.028,5.814-0.538,6.068-3.89C418.187,163,415.595,162.452,412.91,162.351z"/>
<path fill-rule="evenodd" clip-rule="evenodd" fill="#D1CECF" d="M413.334,184.141c-3.673,0.051-6.094-1.289-5.934-5.409
	c0.13-3.339,2.178-4.705,5.24-4.715c3.343-0.008,6.658,0.916,6.948,4.708C419.889,182.643,416.655,183.739,413.334,184.141z"/>
<path fill-rule="evenodd" clip-rule="evenodd" fill="#23A568" d="M412.91,162.351c2.685,0.101,5.276,0.649,5.06,3.461
	c-0.254,3.353-3.254,3.862-6.068,3.89c-2.53,0.029-4.65-1.097-4.62-3.758C407.317,162.012,410.572,162.472,412.91,162.351z"/>
<line fill="none" stroke="#D1CECF" stroke-width="2" stroke-miterlimit="10" x1="175.294" y1="270.751" x2="207.867" y2="274.946"/>
<g>
	<g>
		<path fill-rule="evenodd" clip-rule="evenodd" d="M173.958,275.425c-0.414,0-0.828,0-1.241,0
			c-0.429-0.076-0.866-0.122-1.284-0.236c-3.102-0.844-5.082-2.822-5.925-5.924c-0.114-0.42-0.16-0.856-0.237-1.285
			c0-0.414,0-0.827,0-1.241c0.027-0.163,0.059-0.326,0.082-0.491c0.442-3.216,2.777-5.859,5.918-6.678
			c0.474-0.124,0.964-0.187,1.446-0.277c0.414,0,0.827,0,1.241,0c0.436,0.079,0.881,0.125,1.307,0.242
			c3.088,0.852,5.064,2.826,5.902,5.92c0.113,0.418,0.16,0.855,0.236,1.284c0,0.414,0,0.827,0,1.241
			c-0.027,0.163-0.061,0.326-0.082,0.49c-0.42,3.183-2.781,5.865-5.895,6.673C174.946,275.268,174.448,275.333,173.958,275.425z
			 M173.343,273.949c3.623-0.004,6.594-2.979,6.584-6.594c-0.01-3.633-2.979-6.595-6.594-6.584c-3.632,0.01-6.588,2.971-6.584,6.594
			C166.752,270.989,169.72,273.952,173.343,273.949z"/>
		<path fill-rule="evenodd" clip-rule="evenodd" fill="#FFFFFF" d="M173.343,273.949c-3.623,0.003-6.59-2.96-6.594-6.584
			c-0.004-3.623,2.952-6.584,6.584-6.594c3.616-0.011,6.584,2.951,6.594,6.584C179.937,270.969,176.966,273.945,173.343,273.949z"/>
	</g>
	
		<text transform="matrix(1 0 0 1 169.73 271.8179)" stroke="#000000" stroke-miterlimit="10" font-family="'GreekC'" font-size="12">d</text>
</g>
<line fill="none" stroke="#D1CECF" stroke-width="2" stroke-miterlimit="10" x1="214.611" y1="277.854" x2="227.84" y2="279.951"/>
<line fill="none" stroke="#D1CECF" stroke-width="2" stroke-miterlimit="10" x1="228.303" y1="279.917" x2="278.893" y2="292.148"/>
<line fill="none" stroke="#D1CECF" stroke-width="2" stroke-miterlimit="10" x1="285.722" y1="297.961" x2="292.661" y2="318.332"/>
<line fill="none" stroke="#D1CECF" stroke-width="2" stroke-miterlimit="10" x1="299.646" y1="315.676" x2="371.334" y2="279.95"/>
<line fill="none" stroke="#D1CECF" stroke-width="2" stroke-miterlimit="10" x1="379.585" y1="276.824" x2="474.435" y2="171.228"/>
<g>
	<g>
		<path fill-rule="evenodd" clip-rule="evenodd" d="M475.054,174.837c-0.414,0-0.827,0-1.241,0
			c-0.429-0.076-0.865-0.122-1.284-0.236c-3.103-0.844-5.081-2.822-5.925-5.924c-0.113-0.42-0.16-0.856-0.236-1.285
			c0-0.414,0-0.827,0-1.241c0.027-0.163,0.059-0.326,0.081-0.491c0.442-3.216,2.777-5.859,5.918-6.678
			c0.474-0.124,0.964-0.187,1.446-0.277c0.414,0,0.827,0,1.241,0c0.437,0.079,0.881,0.125,1.307,0.242
			c3.088,0.852,5.064,2.826,5.902,5.92c0.113,0.418,0.16,0.855,0.236,1.284c0,0.414,0,0.827,0,1.241
			c-0.027,0.163-0.061,0.326-0.082,0.49c-0.42,3.183-2.781,5.865-5.895,6.673C476.042,174.68,475.543,174.745,475.054,174.837z
			 M474.438,173.36c3.623-0.004,6.594-2.979,6.584-6.594c-0.01-3.633-2.979-6.595-6.595-6.584c-3.631,0.01-6.588,2.971-6.584,6.594
			C467.848,170.4,470.815,173.363,474.438,173.36z"/>
		<path fill-rule="evenodd" clip-rule="evenodd" fill="#FFFFFF" d="M474.438,173.36c-3.623,0.003-6.591-2.96-6.595-6.584
			c-0.004-3.623,2.953-6.584,6.584-6.594c3.616-0.011,6.585,2.951,6.595,6.584C481.032,170.381,478.062,173.356,474.438,173.36z"/>
	</g>
	
		<text transform="matrix(1 0 0 1 470.8262 171.2295)" stroke="#000000" stroke-miterlimit="10" font-family="'GreekC'" font-size="12">k</text>
</g>
<path fill-rule="evenodd" clip-rule="evenodd" fill="#FEDC32" d="M442.999,344.99c-0.036,4.05-3.678,6.952-8.591,6.848
	c-4.83-0.102-8.568-3.276-8.394-7.123c0.167-3.644,3.996-6.647,8.471-6.649C439.422,338.065,443.036,341.005,442.999,344.99z
	 M438.184,340.59c-1.707-0.755-3.393-0.699-4.909-0.358c-2.185,0.492-2.023,2.243-2.169,3.598c-0.205,1.918,1.609,1.38,2.999,1.348
	c1.613-0.037,2.368,0.702,1.98,1.93c-0.343,1.091-1.388,1.168-2.533,0.719c-0.324-0.127-0.612-0.35-0.951-0.406
	c-0.525-0.089-1.199-0.057-1.362,0.394c-0.122,0.337,0.035,0.868,0.318,1.15c1.186,1.181,2.844,1.146,4.459,0.844
	c1.831-0.343,2.498-1.453,2.721-2.878c0.404-2.563-1.915-3.48-4.246-4.295C435.477,341.411,437.639,342.492,438.184,340.59z"/>
<line fill="none" stroke="#DC5D4B" stroke-width="4" stroke-miterlimit="10" x1="55.852" y1="129.639" x2="269.253" y2="168.555"/>
<line fill="none" stroke="#DC5D4B" stroke-width="4" stroke-miterlimit="10" x1="264.481" y1="168.337" x2="309.444" y2="214.418"/>
<g>
	<g>
		<path fill-rule="evenodd" clip-rule="evenodd" d="M74.198,139.183c-0.414,0-0.828,0-1.241,0c-0.429-0.076-0.866-0.122-1.284-0.236
			c-3.102-0.844-5.082-2.822-5.925-5.924c-0.114-0.42-0.16-0.856-0.237-1.285c0-0.414,0-0.827,0-1.241
			c0.027-0.163,0.059-0.326,0.082-0.491c0.442-3.216,2.777-5.859,5.918-6.678c0.474-0.124,0.964-0.187,1.446-0.277
			c0.414,0,0.827,0,1.241,0c0.436,0.079,0.881,0.125,1.307,0.242c3.088,0.852,5.064,2.826,5.902,5.92
			c0.113,0.418,0.16,0.855,0.236,1.284c0,0.414,0,0.827,0,1.241c-0.027,0.163-0.061,0.326-0.082,0.49
			c-0.42,3.183-2.781,5.865-5.895,6.673C75.187,139.026,74.688,139.091,74.198,139.183z M73.583,137.707
			c3.623-0.004,6.594-2.979,6.584-6.594c-0.01-3.633-2.979-6.595-6.594-6.584c-3.632,0.01-6.588,2.971-6.584,6.594
			C66.993,134.747,69.96,137.709,73.583,137.707z"/>
		<path fill-rule="evenodd" clip-rule="evenodd" fill="#FFFFFF" d="M73.583,137.707c-3.623,0.003-6.59-2.96-6.594-6.584
			c-0.004-3.623,2.952-6.584,6.584-6.594c3.616-0.011,6.584,2.951,6.594,6.584C80.177,134.727,77.206,137.703,73.583,137.707z"/>
	</g>
</g>
<line fill="none" stroke="#FEDC32" stroke-width="4" stroke-miterlimit="10" x1="208.587" y1="123" x2="236.492" y2="205.032"/>
<g>
	<g>
		<path fill-rule="evenodd" clip-rule="evenodd" d="M209.209,131.066c-0.414,0-0.828,0-1.241,0
			c-0.429-0.076-0.866-0.122-1.284-0.236c-3.102-0.844-5.082-2.822-5.925-5.924c-0.114-0.42-0.16-0.856-0.237-1.285
			c0-0.414,0-0.827,0-1.241c0.027-0.163,0.059-0.326,0.082-0.491c0.442-3.216,2.777-5.859,5.918-6.678
			c0.474-0.124,0.964-0.187,1.446-0.277c0.414,0,0.827,0,1.241,0c0.436,0.079,0.881,0.125,1.307,0.242
			c3.088,0.852,5.064,2.826,5.902,5.92c0.113,0.418,0.16,0.855,0.236,1.284c0,0.414,0,0.827,0,1.241
			c-0.027,0.163-0.061,0.326-0.082,0.49c-0.42,3.183-2.781,5.865-5.895,6.673C210.197,130.909,209.699,130.975,209.209,131.066z
			 M208.594,129.59c3.623-0.004,6.594-2.979,6.584-6.594c-0.01-3.633-2.979-6.595-6.594-6.584c-3.632,0.01-6.588,2.971-6.584,6.594
			C202.003,126.63,204.971,129.593,208.594,129.59z"/>
		<path fill-rule="evenodd" clip-rule="evenodd" fill="#FFFFFF" d="M208.594,129.59c-3.623,0.003-6.59-2.96-6.594-6.584
			c-0.004-3.623,2.952-6.584,6.584-6.594c3.616-0.011,6.584,2.951,6.594,6.584C215.188,126.61,212.217,129.586,208.594,129.59z"/>
	</g>
</g>
<g>
	<g>
		<path fill-rule="evenodd" clip-rule="evenodd" d="M287.583,153.838c-0.414,0-0.828,0-1.241,0
			c-0.429-0.076-0.866-0.122-1.284-0.236c-3.102-0.844-5.082-2.822-5.925-5.924c-0.114-0.42-0.16-0.856-0.237-1.285
			c0-0.414,0-0.827,0-1.241c0.027-0.163,0.059-0.326,0.082-0.491c0.442-3.216,2.777-5.859,5.918-6.678
			c0.474-0.124,0.964-0.187,1.446-0.277c0.414,0,0.827,0,1.241,0c0.436,0.079,0.881,0.125,1.307,0.242
			c3.088,0.852,5.065,2.826,5.903,5.92c0.113,0.418,0.16,0.855,0.236,1.284c0,0.414,0,0.827,0,1.241
			c-0.027,0.163-0.061,0.326-0.082,0.49c-0.42,3.183-2.781,5.865-5.895,6.673C288.572,153.681,288.073,153.746,287.583,153.838z
			 M286.968,152.361c3.624-0.004,6.594-2.979,6.584-6.594c-0.01-3.633-2.979-6.595-6.595-6.584c-3.632,0.01-6.588,2.971-6.584,6.594
			C280.378,149.401,283.345,152.364,286.968,152.361z"/>
		<path fill-rule="evenodd" clip-rule="evenodd" fill="#FFFFFF" d="M286.968,152.361c-3.623,0.003-6.59-2.96-6.594-6.584
			c-0.004-3.623,2.952-6.584,6.584-6.594c3.616-0.011,6.585,2.951,6.595,6.584C293.563,149.382,290.592,152.357,286.968,152.361z"/>
	</g>
</g>
<path fill-rule="evenodd" clip-rule="evenodd" fill="#DC5D4B" d="M33.921,172.763c-10.751,0.043-19.074-8.19-19.133-18.925
	c-0.056-10.618,8.382-19.294,18.882-19.412c10.373-0.115,19.099,8.613,19.162,19.165C52.894,164.331,44.62,172.72,33.921,172.763z
	 M24.996,155.682c0.165,1.05,0.188,3.957,1.129,6.529c1.767,4.83,7.351,6.92,11.921,4.891c4.941-2.194,6.085-8.654,2.862-14.513
	c-0.875-1.59-4.996-1.247-2.5-5.104c2.964-4.586,1.339-7.267-3.557-7.28C28.356,140.187,25.082,144.755,24.996,155.682z"/>
<path fill-rule="evenodd" clip-rule="evenodd" fill="#F5F3EF" d="M24.996,155.682c0.086-10.927,3.36-15.495,9.855-15.477
	c4.896,0.014,6.521,2.694,3.557,7.28c-2.496,3.857,1.625,3.514,2.5,5.104c3.224,5.859,2.079,12.319-2.862,14.513
	c-4.57,2.029-10.154-0.061-11.921-4.891C25.184,159.639,25.161,156.732,24.996,155.682z M37.664,158.483
	c-0.166-1.636-0.324-3.955-2.799-4.229c-3.131-0.348-4.047,2.072-4.034,4.602c0.014,2.147,1.319,3.941,3.563,4.041
	C36.892,163.008,37.6,161.053,37.664,158.483z"/>
<path fill-rule="evenodd" clip-rule="evenodd" d="M205.435,123.004c0.047-1.092,0.1-2.177,0.534-3.193
	c0.774-1.811,2.984-2.378,4.453-1.136c0.671,0.567,0.951,1.355,1.105,2.189c0.297,1.603,0.308,3.207-0.121,4.788
	c-0.272,1.004-0.803,1.854-1.856,2.177c-1.368,0.421-2.89,0.064-3.583-1.601C205.535,125.191,205.483,124.096,205.435,123.004z
	 M206.687,122.478c1.285,0,2.531,0,3.787,0c-0.012-0.941-0.077-1.832-0.538-2.632c-0.628-1.091-2.055-1.095-2.685-0.006
	C206.782,120.649,206.731,121.552,206.687,122.478z M206.718,123.551c0.023,0.973,0.077,1.894,0.583,2.706
	c0.608,0.98,1.927,0.998,2.557,0.035c0.541-0.825,0.616-1.763,0.618-2.741C209.216,123.551,207.994,123.551,206.718,123.551z"/>
<text transform="matrix(1 0 0 1 282.8462 149.0967)" stroke="#000000" stroke-miterlimit="10" font-family="'GreekC'" font-size="12">y</text>
<g>
	<g>
		<path fill-rule="evenodd" clip-rule="evenodd" d="M152.408,509.585c-0.414,0-0.828,0-1.241,0
			c-0.429-0.076-0.866-0.122-1.284-0.236c-3.102-0.844-5.082-2.822-5.925-5.924c-0.114-0.42-0.16-0.856-0.237-1.285
			c0-0.414,0-0.827,0-1.241c0.027-0.163,0.059-0.326,0.082-0.491c0.442-3.216,2.777-5.859,5.918-6.678
			c0.474-0.124,0.964-0.187,1.446-0.277c0.414,0,0.827,0,1.241,0c0.436,0.079,0.881,0.125,1.307,0.242
			c3.088,0.852,5.064,2.826,5.902,5.92c0.113,0.418,0.16,0.855,0.236,1.284c0,0.414,0,0.827,0,1.241
			c-0.027,0.163-0.061,0.326-0.082,0.49c-0.42,3.183-2.781,5.865-5.895,6.673C153.396,509.428,152.898,509.493,152.408,509.585z
			 M151.793,508.108c3.623-0.004,6.594-2.979,6.584-6.594c-0.01-3.633-2.979-6.595-6.594-6.584c-3.632,0.01-6.588,2.971-6.584,6.594
			C145.203,505.148,148.17,508.111,151.793,508.108z"/>
		<path fill-rule="evenodd" clip-rule="evenodd" fill="#FFFFFF" d="M151.793,508.108c-3.623,0.003-6.59-2.96-6.594-6.584
			c-0.004-3.623,2.952-6.584,6.584-6.594c3.616-0.011,6.584,2.951,6.594,6.584C158.387,505.129,155.416,508.104,151.793,508.108z"/>
	</g>
	<text transform="matrix(1 0 0 1 148.1802 505.9775)" font-family="'MyriadPro-Regular'" font-size="12">A</text>
</g>
<g>
	<g>
		<path fill-rule="evenodd" clip-rule="evenodd" d="M92.177,491.848c-0.414,0-0.828,0-1.241,0c-0.429-0.076-0.866-0.123-1.284-0.236
			c-3.102-0.844-5.082-2.822-5.925-5.924c-0.114-0.42-0.16-0.857-0.237-1.285c0-0.414,0-0.828,0-1.242
			c0.027-0.162,0.059-0.326,0.082-0.49c0.442-3.217,2.777-5.859,5.918-6.678c0.474-0.125,0.964-0.188,1.446-0.277
			c0.414,0,0.827,0,1.241,0c0.436,0.078,0.881,0.125,1.307,0.242c3.088,0.852,5.064,2.826,5.902,5.92
			c0.113,0.418,0.16,0.855,0.236,1.283c0,0.414,0,0.828,0,1.242c-0.027,0.162-0.061,0.326-0.082,0.49
			c-0.42,3.182-2.781,5.865-5.895,6.672C93.166,491.689,92.667,491.756,92.177,491.848z M91.562,490.371
			c3.623-0.004,6.594-2.98,6.584-6.594c-0.01-3.633-2.979-6.596-6.594-6.584c-3.632,0.01-6.588,2.971-6.584,6.594
			S87.939,490.373,91.562,490.371z"/>
		<path fill-rule="evenodd" clip-rule="evenodd" fill="#FFFFFF" d="M91.562,490.371c-3.623,0.002-6.59-2.961-6.594-6.584
			s2.952-6.584,6.584-6.594c3.616-0.012,6.584,2.951,6.594,6.584C98.156,487.391,95.185,490.367,91.562,490.371z"/>
	</g>
	<text transform="matrix(1 0 0 1 87.9492 488.2402)" font-family="'MyriadPro-Regular'" font-size="12">B</text>
</g>
<g>
	<g>
		<path fill-rule="evenodd" clip-rule="evenodd" d="M92.178,408.969c-0.414,0-0.828,0-1.241,0c-0.429-0.076-0.866-0.122-1.284-0.236
			c-3.102-0.844-5.082-2.822-5.925-5.924c-0.114-0.42-0.16-0.856-0.237-1.285c0-0.414,0-0.827,0-1.241
			c0.027-0.163,0.059-0.326,0.082-0.491c0.442-3.216,2.777-5.859,5.918-6.678c0.474-0.124,0.964-0.187,1.446-0.277
			c0.414,0,0.827,0,1.241,0c0.436,0.079,0.881,0.125,1.307,0.242c3.088,0.852,5.064,2.826,5.902,5.92
			c0.113,0.418,0.16,0.855,0.236,1.284c0,0.414,0,0.827,0,1.241c-0.027,0.163-0.061,0.326-0.082,0.49
			c-0.42,3.183-2.781,5.865-5.895,6.673C93.166,408.812,92.667,408.877,92.178,408.969z M91.563,407.492
			c3.623-0.004,6.594-2.979,6.584-6.594c-0.01-3.633-2.979-6.595-6.594-6.584c-3.632,0.01-6.588,2.971-6.584,6.594
			C84.972,404.532,87.939,407.495,91.563,407.492z"/>
		<path fill-rule="evenodd" clip-rule="evenodd" fill="#FFFFFF" d="M91.563,407.492c-3.623,0.003-6.59-2.96-6.594-6.584
			c-0.004-3.623,2.952-6.584,6.584-6.594c3.616-0.011,6.584,2.951,6.594,6.584C98.156,404.513,95.186,407.488,91.563,407.492z"/>
	</g>
	<text transform="matrix(1 0 0 1 87.9497 405.3613)" font-family="'MyriadPro-Regular'" font-size="12">C</text>
</g>
<text transform="matrix(1 0 0 1 68.9888 132.4258)" stroke="#000000" stroke-miterlimit="10" font-family="'GreekC'" font-size="12">f</text>
<g>
	<g>
		<path fill-rule="evenodd" clip-rule="evenodd" d="M212.095,282.437c-0.414,0-0.828,0-1.241,0
			c-0.429-0.076-0.866-0.122-1.284-0.236c-3.102-0.844-5.082-2.822-5.925-5.924c-0.114-0.42-0.16-0.856-0.237-1.285
			c0-0.414,0-0.827,0-1.241c0.027-0.163,0.059-0.326,0.082-0.491c0.442-3.216,2.777-5.859,5.918-6.678
			c0.474-0.124,0.964-0.187,1.446-0.277c0.414,0,0.827,0,1.241,0c0.436,0.079,0.881,0.125,1.307,0.242
			c3.088,0.852,5.064,2.826,5.902,5.92c0.113,0.418,0.16,0.855,0.236,1.284c0,0.414,0,0.827,0,1.241
			c-0.027,0.163-0.061,0.326-0.082,0.49c-0.42,3.183-2.781,5.865-5.895,6.673C213.083,282.279,212.584,282.345,212.095,282.437z
			 M211.479,280.96c3.623-0.004,6.594-2.979,6.584-6.594c-0.01-3.633-2.979-6.595-6.594-6.584c-3.632,0.01-6.588,2.971-6.584,6.594
			C204.889,278,207.856,280.963,211.479,280.96z"/>
		<path fill-rule="evenodd" clip-rule="evenodd" fill="#FFFFFF" d="M211.479,280.96c-3.623,0.003-6.59-2.96-6.594-6.584
			c-0.004-3.623,2.952-6.584,6.584-6.594c3.616-0.011,6.584,2.951,6.594,6.584C218.073,277.98,215.103,280.956,211.479,280.96z"/>
	</g>
	<text transform="matrix(1 0 0 1 207.8667 278.8291)" font-family="'MyriadPro-Regular'" font-size="12">D</text>
</g>
<g>
	<g>
		<path fill-rule="evenodd" clip-rule="evenodd" d="M221.348,167.405c-0.414,0-0.828,0-1.241,0
			c-0.429-0.076-0.866-0.122-1.284-0.236c-3.102-0.844-5.082-2.822-5.925-5.924c-0.114-0.42-0.16-0.856-0.237-1.285
			c0-0.414,0-0.827,0-1.241c0.027-0.163,0.059-0.326,0.082-0.491c0.442-3.216,2.777-5.859,5.918-6.678
			c0.474-0.124,0.964-0.187,1.446-0.277c0.414,0,0.827,0,1.241,0c0.436,0.079,0.881,0.125,1.307,0.242
			c3.088,0.852,5.064,2.826,5.902,5.92c0.113,0.418,0.16,0.855,0.236,1.284c0,0.414,0,0.827,0,1.241
			c-0.027,0.163-0.061,0.326-0.082,0.49c-0.42,3.183-2.781,5.865-5.895,6.673C222.336,167.248,221.837,167.313,221.348,167.405z
			 M220.732,165.929c3.623-0.004,6.594-2.979,6.584-6.594c-0.01-3.633-2.979-6.595-6.594-6.584c-3.632,0.01-6.588,2.971-6.584,6.594
			C214.142,162.969,217.109,165.932,220.732,165.929z"/>
		<path fill-rule="evenodd" clip-rule="evenodd" fill="#FFFFFF" d="M220.732,165.929c-3.623,0.003-6.59-2.96-6.594-6.584
			c-0.004-3.623,2.952-6.584,6.584-6.594c3.616-0.011,6.584,2.951,6.594,6.584C227.326,162.949,224.355,165.925,220.732,165.929z"/>
	</g>
	<text transform="matrix(1 0 0 1 217.1196 163.7979)"><tspan x="0" y="0" font-family="'MyriadPro-Regular'" font-size="12">T</tspan><tspan x="5.964" y="0" font-family="'MyriadPro-Regular'" font-size="12" letter-spacing="27">	</tspan></text>
</g>
<g>
	<g>
		<path fill-rule="evenodd" clip-rule="evenodd" d="M267.506,180.267c-0.414,0-0.828,0-1.241,0
			c-0.429-0.076-0.866-0.122-1.284-0.236c-3.102-0.844-5.082-2.822-5.925-5.924c-0.114-0.42-0.16-0.856-0.237-1.285
			c0-0.414,0-0.827,0-1.241c0.027-0.163,0.059-0.326,0.082-0.491c0.442-3.216,2.777-5.859,5.918-6.678
			c0.474-0.124,0.964-0.187,1.446-0.277c0.414,0,0.827,0,1.241,0c0.436,0.079,0.881,0.125,1.307,0.242
			c3.088,0.852,5.064,2.826,5.902,5.92c0.113,0.418,0.16,0.855,0.236,1.284c0,0.414,0,0.827,0,1.241
			c-0.027,0.163-0.061,0.326-0.082,0.49c-0.42,3.183-2.781,5.865-5.895,6.673C268.494,180.11,267.996,180.175,267.506,180.267z
			 M266.891,178.791c3.623-0.004,6.594-2.979,6.584-6.594c-0.01-3.633-2.979-6.595-6.594-6.584c-3.632,0.01-6.588,2.971-6.584,6.594
			C260.3,175.831,263.268,178.793,266.891,178.791z"/>
		<path fill-rule="evenodd" clip-rule="evenodd" fill="#FFFFFF" d="M266.891,178.791c-3.623,0.003-6.59-2.96-6.594-6.584
			c-0.004-3.623,2.952-6.584,6.584-6.594c3.616-0.011,6.584,2.951,6.594,6.584C273.484,175.811,270.514,178.787,266.891,178.791z"/>
	</g>
	<text transform="matrix(1 0 0 1 263.2778 176.6597)" font-family="'MyriadPro-Regular'" font-size="12">Y</text>
</g>
<g>
	<g>
		<path fill-rule="evenodd" clip-rule="evenodd" d="M322.708,551.151c-0.414,0-0.827,0-1.241,0
			c-0.429-0.076-0.865-0.122-1.284-0.236c-3.103-0.844-5.081-2.822-5.925-5.924c-0.113-0.42-0.16-0.856-0.236-1.285
			c0-0.414,0-0.827,0-1.241c0.027-0.163,0.059-0.326,0.081-0.491c0.442-3.216,2.777-5.859,5.918-6.678
			c0.474-0.124,0.964-0.187,1.446-0.277c0.414,0,0.827,0,1.241,0c0.437,0.079,0.881,0.125,1.307,0.242
			c3.088,0.852,5.064,2.826,5.902,5.92c0.113,0.418,0.16,0.855,0.236,1.284c0,0.414,0,0.827,0,1.241
			c-0.027,0.163-0.061,0.326-0.082,0.49c-0.42,3.183-2.781,5.865-5.895,6.673C323.696,550.994,323.197,551.06,322.708,551.151z
			 M322.093,549.675c3.623-0.004,6.594-2.979,6.584-6.594c-0.01-3.633-2.979-6.595-6.595-6.584c-3.631,0.01-6.588,2.971-6.584,6.594
			C315.502,546.715,318.47,549.678,322.093,549.675z"/>
		<path fill-rule="evenodd" clip-rule="evenodd" fill="#FFFFFF" d="M322.093,549.675c-3.623,0.003-6.591-2.96-6.595-6.584
			c-0.004-3.623,2.953-6.584,6.584-6.594c3.616-0.011,6.585,2.951,6.595,6.584C328.687,546.695,325.716,549.671,322.093,549.675z"/>
	</g>
	<text transform="matrix(1 0 0 1 317.4805 547.5439)" font-family="'MyriadPro-Regular'" font-size="12">M</text>
</g>
<g>
	<g>
		<path fill-rule="evenodd" clip-rule="evenodd" d="M310.065,216.919c-0.414,0-0.827,0-1.241,0
			c-0.429-0.076-0.865-0.122-1.284-0.236c-3.103-0.844-5.081-2.822-5.925-5.924c-0.113-0.42-0.16-0.856-0.236-1.285
			c0-0.414,0-0.827,0-1.241c0.027-0.163,0.059-0.326,0.081-0.491c0.442-3.216,2.777-5.859,5.918-6.678
			c0.474-0.124,0.964-0.187,1.446-0.277c0.414,0,0.827,0,1.241,0c0.437,0.079,0.881,0.125,1.307,0.242
			c3.088,0.852,5.064,2.826,5.902,5.92c0.113,0.418,0.16,0.855,0.236,1.284c0,0.414,0,0.827,0,1.241
			c-0.027,0.163-0.061,0.326-0.082,0.49c-0.42,3.183-2.781,5.865-5.895,6.673C311.054,216.762,310.555,216.828,310.065,216.919z
			 M309.45,215.443c3.623-0.004,6.594-2.979,6.584-6.594c-0.01-3.633-2.979-6.595-6.595-6.584c-3.631,0.01-6.588,2.971-6.584,6.594
			C302.859,212.483,305.827,215.446,309.45,215.443z"/>
		<path fill-rule="evenodd" clip-rule="evenodd" fill="#FFFFFF" d="M309.45,215.443c-3.623,0.003-6.591-2.96-6.595-6.584
			c-0.004-3.623,2.953-6.584,6.584-6.594c3.616-0.011,6.585,2.951,6.595,6.584C316.044,212.463,313.073,215.439,309.45,215.443z"/>
	</g>
	
		<text transform="matrix(1 0 0 1 304.8379 212.312)" stroke="#000000" stroke-miterlimit="10" font-family="'GreekC'" font-size="12">s</text>
</g>
<g>
	<g>
		<path fill-rule="evenodd" clip-rule="evenodd" d="M295.65,251.679c-0.414,0-0.828,0-1.241,0c-0.429-0.076-0.866-0.122-1.284-0.236
			c-3.102-0.844-5.082-2.822-5.925-5.924c-0.114-0.42-0.16-0.856-0.237-1.285c0-0.414,0-0.827,0-1.241
			c0.027-0.163,0.059-0.326,0.082-0.491c0.442-3.216,2.777-5.859,5.918-6.678c0.474-0.124,0.964-0.187,1.446-0.277
			c0.414,0,0.827,0,1.241,0c0.436,0.079,0.881,0.125,1.307,0.242c3.088,0.852,5.064,2.826,5.902,5.92
			c0.113,0.418,0.16,0.855,0.236,1.284c0,0.414,0,0.827,0,1.241c-0.027,0.163-0.061,0.326-0.082,0.49
			c-0.42,3.183-2.781,5.865-5.895,6.673C296.639,251.522,296.14,251.587,295.65,251.679z M295.035,250.203
			c3.623-0.004,6.594-2.979,6.584-6.594c-0.01-3.633-2.979-6.595-6.594-6.584c-3.632,0.01-6.588,2.971-6.584,6.594
			C288.445,247.243,291.412,250.206,295.035,250.203z"/>
		<path fill-rule="evenodd" clip-rule="evenodd" fill="#FFFFFF" d="M295.035,250.203c-3.623,0.003-6.59-2.96-6.594-6.584
			c-0.004-3.623,2.952-6.584,6.584-6.594c3.616-0.011,6.584,2.951,6.594,6.584C301.629,247.223,298.658,250.199,295.035,250.203z"/>
	</g>
	<text transform="matrix(1 0 0 1 291.4224 248.0718)" font-family="'MyriadPro-Regular'" font-size="12">S</text>
</g>
<g>
	<g>
		<path fill-rule="evenodd" clip-rule="evenodd" d="M373.776,283.492c-0.414,0-0.827,0-1.241,0
			c-0.429-0.076-0.865-0.122-1.284-0.236c-3.103-0.844-5.081-2.822-5.925-5.924c-0.113-0.42-0.16-0.856-0.236-1.285
			c0-0.414,0-0.827,0-1.241c0.027-0.163,0.059-0.326,0.081-0.491c0.442-3.216,2.777-5.859,5.918-6.678
			c0.474-0.124,0.964-0.187,1.446-0.277c0.414,0,0.827,0,1.241,0c0.437,0.079,0.881,0.125,1.307,0.242
			c3.088,0.852,5.064,2.826,5.902,5.92c0.113,0.418,0.16,0.855,0.236,1.284c0,0.414,0,0.827,0,1.241
			c-0.027,0.163-0.061,0.326-0.082,0.49c-0.42,3.183-2.781,5.865-5.895,6.673C374.765,283.335,374.266,283.4,373.776,283.492z
			 M373.161,282.016c3.623-0.004,6.594-2.979,6.584-6.594c-0.01-3.633-2.979-6.595-6.595-6.584c-3.631,0.01-6.588,2.971-6.584,6.594
			C366.57,279.056,369.538,282.019,373.161,282.016z"/>
		<path fill-rule="evenodd" clip-rule="evenodd" fill="#FFFFFF" d="M373.161,282.016c-3.623,0.003-6.591-2.96-6.595-6.584
			c-0.004-3.623,2.953-6.584,6.584-6.594c3.616-0.011,6.585,2.951,6.595,6.584C379.755,279.036,376.784,282.012,373.161,282.016z"/>
	</g>
	<text transform="matrix(1 0 0 1 369.5488 279.8848)" font-family="'MyriadPro-Regular'" font-size="12">F</text>
</g>
<g>
	<g>
		<path fill-rule="evenodd" clip-rule="evenodd" d="M299.172,326.398c-0.414,0-0.827,0-1.241,0
			c-0.429-0.076-0.865-0.122-1.284-0.236c-3.103-0.844-5.081-2.822-5.925-5.924c-0.113-0.42-0.16-0.856-0.236-1.285
			c0-0.414,0-0.827,0-1.241c0.027-0.163,0.059-0.326,0.081-0.491c0.442-3.216,2.777-5.859,5.918-6.678
			c0.474-0.124,0.964-0.187,1.446-0.277c0.414,0,0.827,0,1.241,0c0.438,0.079,0.881,0.125,1.307,0.242
			c3.088,0.852,5.064,2.826,5.902,5.92c0.113,0.418,0.16,0.855,0.236,1.284c0,0.414,0,0.827,0,1.241
			c-0.027,0.163-0.061,0.326-0.082,0.49c-0.42,3.183-2.781,5.865-5.895,6.673C300.16,326.241,299.662,326.307,299.172,326.398z
			 M298.557,324.922c3.623-0.004,6.593-2.979,6.583-6.594c-0.01-3.633-2.979-6.595-6.594-6.584c-3.631,0.01-6.588,2.971-6.584,6.594
			C291.966,321.962,294.934,324.925,298.557,324.922z"/>
		<path fill-rule="evenodd" clip-rule="evenodd" fill="#FFFFFF" d="M298.557,324.922c-3.623,0.003-6.591-2.96-6.595-6.584
			c-0.004-3.623,2.953-6.584,6.584-6.594c3.616-0.011,6.584,2.951,6.594,6.584C305.15,321.942,302.18,324.918,298.557,324.922z"/>
	</g>
	<text transform="matrix(1 0 0 1 294.9443 322.791)" font-family="'MyriadPro-Regular'" font-size="12">G</text>
</g>
<g>
	<g>
		<path fill-rule="evenodd" clip-rule="evenodd" d="M280.547,410.693c-0.414,0-0.827,0-1.241,0
			c-0.429-0.076-0.865-0.122-1.284-0.236c-3.103-0.844-5.081-2.822-5.925-5.924c-0.113-0.42-0.16-0.856-0.236-1.285
			c0-0.414,0-0.827,0-1.241c0.027-0.163,0.059-0.326,0.081-0.491c0.442-3.216,2.777-5.859,5.918-6.678
			c0.474-0.124,0.964-0.187,1.446-0.277c0.414,0,0.827,0,1.241,0c0.437,0.079,0.881,0.125,1.307,0.242
			c3.088,0.852,5.064,2.826,5.902,5.92c0.113,0.418,0.16,0.855,0.236,1.284c0,0.414,0,0.827,0,1.241
			c-0.027,0.163-0.061,0.326-0.082,0.49c-0.42,3.183-2.781,5.865-5.895,6.673C281.535,410.536,281.036,410.602,280.547,410.693z
			 M279.932,409.217c3.623-0.004,6.594-2.979,6.584-6.594c-0.01-3.633-2.979-6.595-6.595-6.584c-3.631,0.01-6.588,2.971-6.584,6.594
			C273.341,406.257,276.309,409.22,279.932,409.217z"/>
		<path fill-rule="evenodd" clip-rule="evenodd" fill="#FFFFFF" d="M279.932,409.217c-3.623,0.003-6.591-2.96-6.595-6.584
			c-0.004-3.623,2.953-6.584,6.584-6.594c3.616-0.011,6.585,2.951,6.595,6.584C286.525,406.237,283.555,409.213,279.932,409.217z"/>
	</g>
	<text transform="matrix(1 0 0 1 276.3188 407.0859)" font-family="'MyriadPro-Regular'" font-size="12">H</text>
</g>
<g>
	<g>
		<path fill-rule="evenodd" clip-rule="evenodd" d="M237.113,394.246c-0.414,0-0.827,0-1.241,0
			c-0.429-0.076-0.865-0.122-1.284-0.236c-3.103-0.844-5.081-2.822-5.925-5.924c-0.113-0.42-0.16-0.856-0.236-1.285
			c0-0.414,0-0.827,0-1.241c0.027-0.163,0.059-0.326,0.081-0.491c0.442-3.216,2.777-5.859,5.918-6.678
			c0.474-0.124,0.964-0.187,1.446-0.277c0.414,0,0.827,0,1.241,0c0.437,0.079,0.881,0.125,1.307,0.242
			c3.088,0.852,5.064,2.826,5.902,5.92c0.113,0.418,0.16,0.855,0.236,1.284c0,0.414,0,0.827,0,1.241
			c-0.027,0.163-0.061,0.326-0.082,0.49c-0.42,3.183-2.781,5.865-5.895,6.673C238.101,394.088,237.602,394.154,237.113,394.246z
			 M236.498,392.769c3.623-0.004,6.594-2.979,6.584-6.594c-0.01-3.633-2.979-6.595-6.595-6.584c-3.631,0.01-6.588,2.971-6.584,6.594
			C229.907,389.809,232.875,392.772,236.498,392.769z"/>
		<path fill-rule="evenodd" clip-rule="evenodd" fill="#FFFFFF" d="M236.498,392.769c-3.623,0.003-6.591-2.96-6.595-6.584
			c-0.004-3.623,2.953-6.584,6.584-6.594c3.616-0.011,6.585,2.951,6.595,6.584C243.091,389.79,240.121,392.765,236.498,392.769z"/>
	</g>
	<text transform="matrix(1 0 0 1 232.8848 390.6382)" font-family="'MyriadPro-Regular'" font-size="12">I</text>
</g>
<g>
	<g>
		<path fill-rule="evenodd" clip-rule="evenodd" d="M182.554,397.119c-0.414,0-0.827,0-1.241,0
			c-0.429-0.076-0.865-0.122-1.284-0.236c-3.103-0.844-5.081-2.822-5.925-5.924c-0.113-0.42-0.16-0.856-0.236-1.285
			c0-0.414,0-0.827,0-1.241c0.027-0.163,0.059-0.326,0.081-0.491c0.442-3.216,2.777-5.859,5.918-6.678
			c0.474-0.124,0.964-0.187,1.446-0.277c0.414,0,0.827,0,1.241,0c0.437,0.079,0.881,0.125,1.307,0.242
			c3.088,0.852,5.064,2.826,5.902,5.92c0.113,0.418,0.16,0.855,0.236,1.284c0,0.414,0,0.827,0,1.241
			c-0.027,0.163-0.061,0.326-0.082,0.49c-0.42,3.183-2.781,5.865-5.895,6.673C183.542,396.962,183.043,397.027,182.554,397.119z
			 M181.938,395.643c3.623-0.004,6.594-2.979,6.584-6.594c-0.01-3.633-2.979-6.595-6.595-6.584c-3.631,0.01-6.588,2.971-6.584,6.594
			C175.348,392.683,178.315,395.646,181.938,395.643z"/>
		<path fill-rule="evenodd" clip-rule="evenodd" fill="#FFFFFF" d="M181.938,395.643c-3.623,0.003-6.591-2.96-6.595-6.584
			c-0.004-3.623,2.953-6.584,6.584-6.594c3.616-0.011,6.585,2.951,6.595,6.584C188.532,392.663,185.562,395.639,181.938,395.643z"/>
	</g>
	<text transform="matrix(1 0 0 1 178.3257 393.5117)" font-family="'MyriadPro-Regular'" font-size="12">J</text>
</g>
<g>
	<g>
		<path fill-rule="evenodd" clip-rule="evenodd" d="M196.326,344.042c-0.414,0-0.827,0-1.241,0
			c-0.429-0.076-0.865-0.122-1.284-0.236c-3.103-0.844-5.081-2.822-5.925-5.924c-0.113-0.42-0.16-0.856-0.236-1.285
			c0-0.414,0-0.827,0-1.241c0.027-0.163,0.059-0.326,0.081-0.491c0.442-3.216,2.777-5.859,5.918-6.678
			c0.474-0.124,0.964-0.187,1.446-0.277c0.414,0,0.827,0,1.241,0c0.437,0.079,0.881,0.125,1.307,0.242
			c3.088,0.852,5.064,2.826,5.902,5.92c0.113,0.418,0.16,0.855,0.236,1.284c0,0.414,0,0.827,0,1.241
			c-0.027,0.163-0.061,0.326-0.082,0.49c-0.42,3.183-2.781,5.865-5.895,6.673C197.314,343.885,196.815,343.951,196.326,344.042z
			 M195.711,342.566c3.623-0.004,6.594-2.979,6.584-6.594c-0.01-3.633-2.979-6.595-6.595-6.584c-3.631,0.01-6.588,2.971-6.584,6.594
			C189.12,339.606,192.088,342.569,195.711,342.566z"/>
		<path fill-rule="evenodd" clip-rule="evenodd" fill="#FFFFFF" d="M195.711,342.566c-3.623,0.003-6.591-2.96-6.595-6.584
			c-0.004-3.623,2.953-6.584,6.584-6.594c3.616-0.011,6.585,2.951,6.595,6.584C202.305,339.586,199.334,342.562,195.711,342.566z"/>
	</g>
	<text transform="matrix(1 0 0 1 192.0981 340.4351)" font-family="'MyriadPro-Regular'" font-size="12">L</text>
</g>
<g>
	<g>
		<path fill-rule="evenodd" clip-rule="evenodd" d="M204.392,306.705c-0.414,0-0.827,0-1.241,0
			c-0.429-0.076-0.865-0.122-1.284-0.236c-3.103-0.844-5.081-2.822-5.925-5.924c-0.113-0.42-0.16-0.856-0.236-1.285
			c0-0.414,0-0.827,0-1.241c0.027-0.163,0.059-0.326,0.081-0.491c0.442-3.216,2.777-5.859,5.918-6.678
			c0.474-0.124,0.964-0.187,1.446-0.277c0.414,0,0.827,0,1.241,0c0.437,0.079,0.881,0.125,1.307,0.242
			c3.088,0.852,5.064,2.826,5.902,5.92c0.113,0.418,0.16,0.855,0.236,1.284c0,0.414,0,0.827,0,1.241
			c-0.027,0.163-0.061,0.326-0.082,0.49c-0.42,3.183-2.781,5.865-5.895,6.673C205.38,306.547,204.881,306.613,204.392,306.705z
			 M203.777,305.228c3.623-0.004,6.594-2.979,6.584-6.594c-0.01-3.633-2.979-6.595-6.595-6.584c-3.631,0.01-6.588,2.971-6.584,6.594
			C197.186,302.268,200.154,305.231,203.777,305.228z"/>
		<path fill-rule="evenodd" clip-rule="evenodd" fill="#FFFFFF" d="M203.777,305.228c-3.623,0.003-6.591-2.96-6.595-6.584
			c-0.004-3.623,2.953-6.584,6.584-6.594c3.616-0.011,6.585,2.951,6.595,6.584C210.371,302.249,207.4,305.224,203.777,305.228z"/>
	</g>
	<text transform="matrix(1 0 0 1 200.1641 303.0972)" font-family="'MyriadPro-Regular'" font-size="12">O</text>
</g>
<g>
	<g>
		<path fill-rule="evenodd" clip-rule="evenodd" d="M230.327,287.017c-0.414,0-0.827,0-1.241,0
			c-0.429-0.076-0.865-0.122-1.284-0.236c-3.103-0.844-5.081-2.822-5.925-5.924c-0.113-0.42-0.16-0.856-0.236-1.285
			c0-0.414,0-0.827,0-1.241c0.027-0.163,0.059-0.326,0.081-0.491c0.442-3.216,2.777-5.859,5.918-6.678
			c0.474-0.124,0.964-0.187,1.446-0.277c0.414,0,0.827,0,1.241,0c0.437,0.079,0.881,0.125,1.307,0.242
			c3.088,0.852,5.064,2.826,5.902,5.92c0.113,0.418,0.16,0.855,0.236,1.284c0,0.414,0,0.827,0,1.241
			c-0.027,0.163-0.061,0.326-0.082,0.49c-0.42,3.183-2.781,5.865-5.895,6.673C231.315,286.86,230.816,286.925,230.327,287.017z
			 M229.711,285.541c3.623-0.004,6.594-2.979,6.584-6.594c-0.01-3.633-2.979-6.595-6.595-6.584c-3.631,0.01-6.588,2.971-6.584,6.594
			C223.121,282.581,226.088,285.543,229.711,285.541z"/>
		<path fill-rule="evenodd" clip-rule="evenodd" fill="#FFFFFF" d="M229.711,285.541c-3.623,0.003-6.591-2.96-6.595-6.584
			c-0.004-3.623,2.953-6.584,6.584-6.594c3.616-0.011,6.585,2.951,6.595,6.584C236.305,282.561,233.334,285.537,229.711,285.541z"/>
	</g>
	<text transform="matrix(1 0 0 1 226.0986 283.4097)" font-family="'MyriadPro-Regular'" font-size="12">P</text>
</g>
<g>
	<g>
		<path fill-rule="evenodd" clip-rule="evenodd" d="M284.623,300.316c-0.414,0-0.827,0-1.241,0
			c-0.429-0.076-0.865-0.122-1.284-0.236c-3.103-0.844-5.081-2.822-5.925-5.924c-0.113-0.42-0.16-0.856-0.236-1.285
			c0-0.414,0-0.827,0-1.241c0.027-0.163,0.059-0.326,0.081-0.491c0.442-3.216,2.777-5.859,5.918-6.678
			c0.474-0.124,0.964-0.187,1.446-0.277c0.414,0,0.827,0,1.241,0c0.437,0.079,0.881,0.125,1.307,0.242
			c3.088,0.852,5.064,2.826,5.902,5.92c0.113,0.418,0.16,0.855,0.236,1.284c0,0.414,0,0.827,0,1.241
			c-0.027,0.163-0.061,0.326-0.082,0.49c-0.42,3.183-2.781,5.865-5.895,6.673C285.611,300.159,285.112,300.225,284.623,300.316z
			 M284.007,298.84c3.623-0.004,6.594-2.979,6.584-6.594c-0.01-3.633-2.979-6.595-6.595-6.584c-3.631,0.01-6.588,2.971-6.584,6.594
			C277.417,295.88,280.384,298.843,284.007,298.84z"/>
		<path fill-rule="evenodd" clip-rule="evenodd" fill="#FFFFFF" d="M284.007,298.84c-3.623,0.003-6.591-2.96-6.595-6.584
			c-0.004-3.623,2.953-6.584,6.584-6.594c3.616-0.011,6.585,2.951,6.595,6.584C290.601,295.86,287.63,298.836,284.007,298.84z"/>
	</g>
	<text transform="matrix(1 0 0 1 280.3945 296.709)" font-family="'MyriadPro-Regular'" font-size="12">Q</text>
</g>
<g>
	<g>
		<path fill-rule="evenodd" clip-rule="evenodd" d="M279.188,335.822c-0.414,0-0.827,0-1.241,0
			c-0.429-0.076-0.865-0.122-1.284-0.236c-3.103-0.844-5.081-2.822-5.925-5.924c-0.113-0.42-0.16-0.856-0.236-1.285
			c0-0.414,0-0.827,0-1.241c0.027-0.163,0.059-0.326,0.081-0.491c0.442-3.216,2.777-5.859,5.918-6.678
			c0.474-0.124,0.964-0.187,1.446-0.277c0.414,0,0.827,0,1.241,0c0.437,0.079,0.881,0.125,1.307,0.242
			c3.088,0.852,5.064,2.826,5.902,5.92c0.113,0.418,0.16,0.855,0.236,1.284c0,0.414,0,0.827,0,1.241
			c-0.027,0.163-0.061,0.326-0.082,0.49c-0.42,3.183-2.781,5.865-5.895,6.673C280.176,335.665,279.677,335.73,279.188,335.822z
			 M278.572,334.345c3.623-0.004,6.594-2.979,6.584-6.594c-0.01-3.633-2.979-6.595-6.595-6.584c-3.631,0.01-6.588,2.971-6.584,6.594
			C271.981,331.385,274.949,334.348,278.572,334.345z"/>
		<path fill-rule="evenodd" clip-rule="evenodd" fill="#FFFFFF" d="M278.572,334.345c-3.623,0.003-6.591-2.96-6.595-6.584
			c-0.004-3.623,2.953-6.584,6.584-6.594c3.616-0.011,6.585,2.951,6.595,6.584C285.166,331.366,282.195,334.341,278.572,334.345z"/>
	</g>
	<text transform="matrix(1 0 0 1 274.9595 332.2144)" font-family="'MyriadPro-Regular'" font-size="12">U</text>
</g>
<g>
	<g>
		<path fill-rule="evenodd" clip-rule="evenodd" d="M278.155,389.053c-0.414,0-0.827,0-1.241,0
			c-0.429-0.076-0.865-0.122-1.284-0.236c-3.103-0.844-5.081-2.822-5.925-5.924c-0.113-0.42-0.16-0.856-0.236-1.285
			c0-0.414,0-0.827,0-1.241c0.027-0.163,0.059-0.326,0.081-0.491c0.442-3.216,2.777-5.859,5.918-6.678
			c0.474-0.124,0.964-0.187,1.446-0.277c0.414,0,0.827,0,1.241,0c0.437,0.079,0.881,0.125,1.307,0.242
			c3.088,0.852,5.064,2.826,5.902,5.92c0.113,0.418,0.16,0.855,0.236,1.284c0,0.414,0,0.827,0,1.241
			c-0.027,0.163-0.061,0.326-0.082,0.49c-0.42,3.183-2.781,5.865-5.895,6.673C279.144,388.896,278.645,388.961,278.155,389.053z
			 M277.54,387.576c3.623-0.004,6.594-2.979,6.584-6.594c-0.01-3.633-2.979-6.595-6.595-6.584c-3.631,0.01-6.588,2.971-6.584,6.594
			C270.949,384.616,273.917,387.579,277.54,387.576z"/>
		<path fill-rule="evenodd" clip-rule="evenodd" fill="#FFFFFF" d="M277.54,387.576c-3.623,0.003-6.591-2.96-6.595-6.584
			c-0.004-3.623,2.953-6.584,6.584-6.594c3.616-0.011,6.585,2.951,6.595,6.584C284.134,384.597,281.163,387.572,277.54,387.576z"/>
	</g>
	<text transform="matrix(1 0 0 1 273.9272 385.4453)" font-family="'MyriadPro-Regular'" font-size="12">V</text>
</g>
<g>
	<g>
		<path fill-rule="evenodd" clip-rule="evenodd" d="M245.21,339.483c-0.414,0-0.827,0-1.241,0c-0.429-0.076-0.865-0.122-1.284-0.236
			c-3.103-0.844-5.081-2.822-5.925-5.924c-0.113-0.42-0.16-0.856-0.236-1.285c0-0.414,0-0.827,0-1.241
			c0.027-0.163,0.059-0.326,0.081-0.491c0.442-3.216,2.777-5.859,5.918-6.678c0.474-0.124,0.964-0.187,1.446-0.277
			c0.414,0,0.827,0,1.241,0c0.437,0.079,0.881,0.125,1.307,0.242c3.088,0.852,5.064,2.826,5.902,5.92
			c0.113,0.418,0.16,0.855,0.236,1.284c0,0.414,0,0.827,0,1.241c-0.027,0.163-0.061,0.326-0.082,0.49
			c-0.42,3.183-2.781,5.865-5.895,6.673C246.198,339.326,245.699,339.391,245.21,339.483z M244.595,338.006
			c3.623-0.004,6.594-2.979,6.584-6.594c-0.01-3.633-2.979-6.595-6.595-6.584c-3.631,0.01-6.588,2.971-6.584,6.594
			C238.004,335.046,240.972,338.009,244.595,338.006z"/>
		<path fill-rule="evenodd" clip-rule="evenodd" fill="#FFFFFF" d="M244.595,338.006c-3.623,0.003-6.591-2.96-6.595-6.584
			c-0.004-3.623,2.953-6.584,6.584-6.594c3.616-0.011,6.585,2.951,6.595,6.584C251.188,335.027,248.218,338.002,244.595,338.006z"/>
	</g>
	<text transform="matrix(1 0 0 1 240.9819 335.8755)" font-family="'MyriadPro-Regular'" font-size="12">X</text>
</g>
<g>
	<g>
		<path fill-rule="evenodd" clip-rule="evenodd" d="M226.109,313.294c-0.414,0-0.827,0-1.241,0
			c-0.429-0.076-0.865-0.122-1.284-0.236c-3.103-0.844-5.081-2.822-5.925-5.924c-0.113-0.42-0.16-0.856-0.236-1.285
			c0-0.414,0-0.827,0-1.241c0.027-0.163,0.059-0.326,0.081-0.491c0.442-3.216,2.777-5.859,5.918-6.678
			c0.474-0.124,0.964-0.187,1.446-0.277c0.414,0,0.827,0,1.241,0c0.437,0.079,0.881,0.125,1.307,0.242
			c3.088,0.852,5.064,2.826,5.902,5.92c0.113,0.418,0.16,0.855,0.236,1.284c0,0.414,0,0.827,0,1.241
			c-0.027,0.163-0.061,0.326-0.082,0.49c-0.42,3.183-2.781,5.865-5.895,6.673C227.097,313.137,226.598,313.203,226.109,313.294z
			 M225.494,311.818c3.623-0.004,6.594-2.979,6.584-6.594c-0.01-3.633-2.979-6.595-6.595-6.584c-3.631,0.01-6.588,2.971-6.584,6.594
			C218.903,308.858,221.871,311.821,225.494,311.818z"/>
		<path fill-rule="evenodd" clip-rule="evenodd" fill="#FFFFFF" d="M225.494,311.818c-3.623,0.003-6.591-2.96-6.595-6.584
			c-0.004-3.623,2.953-6.584,6.584-6.594c3.616-0.011,6.585,2.951,6.595,6.584C232.087,308.838,229.117,311.814,225.494,311.818z"/>
	</g>
	<text transform="matrix(1 0 0 1 221.8809 309.687)" font-family="'MyriadPro-Regular'" font-size="12">Z</text>
</g>
<g>
	<g>
		<path fill-rule="evenodd" clip-rule="evenodd" d="M237.113,213.098c-0.414,0-0.827,0-1.241,0
			c-0.429-0.076-0.865-0.122-1.284-0.236c-3.103-0.844-5.081-2.822-5.925-5.924c-0.113-0.42-0.16-0.856-0.236-1.285
			c0-0.414,0-0.827,0-1.241c0.027-0.163,0.059-0.326,0.081-0.491c0.442-3.216,2.777-5.859,5.918-6.678
			c0.474-0.124,0.964-0.187,1.446-0.277c0.414,0,0.827,0,1.241,0c0.437,0.079,0.881,0.125,1.307,0.242
			c3.088,0.852,5.064,2.826,5.902,5.92c0.113,0.418,0.16,0.855,0.236,1.284c0,0.414,0,0.827,0,1.241
			c-0.027,0.163-0.061,0.326-0.082,0.49c-0.42,3.183-2.781,5.865-5.895,6.673C238.101,212.941,237.602,213.006,237.113,213.098z
			 M236.498,211.622c3.623-0.004,6.594-2.979,6.584-6.594c-0.01-3.633-2.979-6.595-6.595-6.584c-3.631,0.01-6.588,2.971-6.584,6.594
			C229.907,208.662,232.875,211.625,236.498,211.622z"/>
		<path fill-rule="evenodd" clip-rule="evenodd" fill="#FFFFFF" d="M236.498,211.622c-3.623,0.003-6.591-2.96-6.595-6.584
			c-0.004-3.623,2.953-6.584,6.584-6.594c3.616-0.011,6.585,2.951,6.595,6.584C243.091,208.642,240.121,211.618,236.498,211.622z"/>
	</g>
	<text transform="matrix(1 0 0 1 232.8848 209.4907)" font-family="'MyriadPro-Regular'" font-size="12">N</text>
</g>
<g>
	<g>
		<path fill-rule="evenodd" clip-rule="evenodd" d="M222.26,337.598c-0.414,0-0.827,0-1.241,0c-0.429-0.076-0.865-0.122-1.284-0.236
			c-3.103-0.844-5.081-2.822-5.925-5.924c-0.113-0.42-0.16-0.856-0.236-1.285c0-0.414,0-0.827,0-1.241
			c0.027-0.163,0.059-0.326,0.081-0.491c0.442-3.216,2.777-5.859,5.918-6.678c0.474-0.124,0.964-0.187,1.446-0.277
			c0.414,0,0.827,0,1.241,0c0.437,0.079,0.881,0.125,1.307,0.242c3.088,0.852,5.064,2.826,5.902,5.92
			c0.113,0.418,0.16,0.855,0.236,1.284c0,0.414,0,0.827,0,1.241c-0.027,0.163-0.061,0.326-0.082,0.49
			c-0.42,3.183-2.781,5.865-5.895,6.673C223.249,337.44,222.75,337.506,222.26,337.598z M221.645,336.121
			c3.623-0.004,6.594-2.979,6.584-6.594c-0.01-3.633-2.979-6.595-6.595-6.584c-3.631,0.01-6.588,2.971-6.584,6.594
			C215.054,333.161,218.022,336.124,221.645,336.121z"/>
		<path fill-rule="evenodd" clip-rule="evenodd" fill="#FFFFFF" d="M221.645,336.121c-3.623,0.003-6.591-2.96-6.595-6.584
			c-0.004-3.623,2.953-6.584,6.584-6.594c3.616-0.011,6.585,2.951,6.595,6.584C228.239,333.142,225.268,336.117,221.645,336.121z"/>
	</g>
	<text transform="matrix(1 0 0 1 218.0322 333.9902)" font-family="'MyriadPro-Regular'" font-size="12">W</text>
</g>
<text transform="matrix(1 0 0 1 105.7339 659.2852)" font-family="'MyriadPro-Regular'" font-size="7">Universidad</text>
<text transform="matrix(1 0 0 1 207.5713 592.5713)" font-family="'MyriadPro-Regular'" font-size="7">Taxquea</text>
<text transform="matrix(1 0 0 1 505.7139 723.7139)" font-family="'MyriadPro-Regular'" font-size="7">Tlhuac</text>
<text transform="matrix(1 0 0 1 538.5713 598.2861)" font-family="'MyriadPro-Regular'" font-size="7">La Paz</text>
<text transform="matrix(1 0 0 1 427.0098 598.2861)" font-family="'MyriadPro-Regular'" font-size="7">Const. de 1917</text>
<text transform="matrix(1 0 0 1 426.0088 372.9375)" font-family="'MyriadPro-Regular'" font-size="7">Pantitln</text>
<g>
	<g>
		<path fill-rule="evenodd" clip-rule="evenodd" d="M221.39,583.951c-0.414,0-0.828,0-1.241,0c-0.429-0.076-0.866-0.122-1.284-0.236
			c-3.102-0.844-5.082-2.822-5.925-5.924c-0.114-0.42-0.16-0.856-0.237-1.285c0-0.414,0-0.827,0-1.241
			c0.027-0.163,0.059-0.326,0.082-0.491c0.442-3.216,2.777-5.859,5.918-6.678c0.474-0.124,0.964-0.187,1.446-0.277
			c0.414,0,0.827,0,1.241,0c0.436,0.079,0.881,0.125,1.307,0.242c3.088,0.852,5.064,2.826,5.902,5.92
			c0.113,0.418,0.16,0.855,0.236,1.284c0,0.414,0,0.827,0,1.241c-0.027,0.163-0.061,0.326-0.082,0.49
			c-0.42,3.183-2.781,5.865-5.895,6.673C222.378,583.794,221.88,583.859,221.39,583.951z M220.774,582.475
			c3.623-0.004,6.594-2.979,6.584-6.594c-0.01-3.633-2.979-6.595-6.594-6.584c-3.632,0.01-6.588,2.971-6.584,6.594
			C214.184,579.515,217.151,582.478,220.774,582.475z"/>
		<path fill-rule="evenodd" clip-rule="evenodd" fill="#FFFFFF" d="M220.774,582.475c-3.623,0.003-6.59-2.96-6.594-6.584
			c-0.004-3.623,2.952-6.584,6.584-6.594c3.616-0.011,6.584,2.951,6.594,6.584C227.368,579.495,224.397,582.471,220.774,582.475z"/>
	</g>
	
		<text transform="matrix(1 0 0 1 217.6558 577.3438)" stroke="#000000" stroke-miterlimit="10" font-family="'GreekC'" font-size="12">r</text>
</g>
<g>
	<g>
		<path fill-rule="evenodd" clip-rule="evenodd" d="M444.47,587.834c-0.414,0-0.828,0-1.241,0c-0.429-0.076-0.866-0.122-1.284-0.236
			c-3.102-0.844-5.082-2.822-5.925-5.924c-0.114-0.42-0.159-0.856-0.237-1.285c0-0.414,0-0.827,0-1.241
			c0.027-0.163,0.06-0.326,0.082-0.491c0.442-3.216,2.777-5.859,5.918-6.678c0.474-0.124,0.964-0.187,1.446-0.277
			c0.413,0,0.827,0,1.241,0c0.436,0.079,0.881,0.125,1.307,0.242c3.088,0.852,5.064,2.826,5.902,5.92
			c0.113,0.418,0.16,0.855,0.236,1.284c0,0.414,0,0.827,0,1.241c-0.027,0.163-0.061,0.326-0.082,0.49
			c-0.42,3.183-2.781,5.865-5.895,6.673C445.458,587.677,444.96,587.742,444.47,587.834z M443.854,586.357
			c3.623-0.004,6.594-2.979,6.584-6.594c-0.01-3.633-2.979-6.595-6.594-6.584c-3.633,0.01-6.588,2.971-6.584,6.594
			C437.265,583.397,440.231,586.36,443.854,586.357z"/>
		<path fill-rule="evenodd" clip-rule="evenodd" fill="#FFFFFF" d="M443.854,586.357c-3.623,0.003-6.59-2.96-6.594-6.584
			c-0.004-3.623,2.951-6.584,6.584-6.594c3.615-0.011,6.584,2.951,6.594,6.584C450.448,583.378,447.478,586.354,443.854,586.357z"/>
	</g>
	
		<text transform="matrix(1 0 0 1 439.7363 582.2266)" stroke="#000000" stroke-miterlimit="10" font-family="'GreekC'" font-size="12">m</text>
</g>
<text transform="matrix(1 0 0 1 330.1533 536.9199)" font-family="'MyriadPro-Regular'" font-size="7">Atlalilco</text>
<text transform="matrix(1 0 0 1 223.437 521.9229)" font-family="'MyriadPro-Regular'" font-size="7">Ermita</text>
<text transform="matrix(1 0 0 1 161.2856 498.9473)" font-family="'MyriadPro-Regular'" font-size="7">Zapata</text>
<text transform="matrix(1 0 0 1 54.333 540.459)" font-family="'MyriadPro-Regular'" font-size="7">Barranca del Muerto</text>
<text transform="matrix(1 0 0 1 56.2881 483.7803)" font-family="'MyriadPro-Regular'" font-size="7">Mixcoac</text>
<text transform="matrix(1 0 0 1 33.6665 428.667)" font-family="'MyriadPro-Regular'" font-size="7">Observatorio</text>
<text transform="matrix(1 0 0 1 56.2881 392.769)" font-family="'MyriadPro-Regular'" font-size="7">Tacubaya</text>
<text transform="matrix(1 0 0 1 7.77 242.6021)"><tspan x="0" y="0" font-family="'MyriadPro-Regular'" font-size="7">Cuatro</tspan><tspan x="-2.835" y="8.4" font-family="'MyriadPro-Regular'" font-size="7">Caminos</tspan></text>
<text transform="matrix(1 0 0 1 89.3984 228.8174)" font-family="'MyriadPro-Regular'" font-size="7">Tacuba</text>
<text transform="matrix(1 0 0 1 83.6216 129.5898)" font-family="'MyriadPro-Regular'" font-size="7">El Rosario</text>
<text transform="matrix(1 0 0 1 218.5142 124.5288)" font-family="'MyriadPro-Regular'" font-size="7">Politcnico</text>
<text transform="matrix(1 0 0 1 182.1367 167.874)"><tspan x="0" y="0" font-family="'MyriadPro-Regular'" font-size="7">Instituto </tspan><tspan x="-4.7" y="8.4" font-family="'MyriadPro-Regular'" font-size="7">del petrleo</tspan></text>
<text transform="matrix(1 0 0 1 268.855 136.0044)" font-family="'MyriadPro-Regular'" font-size="7">Indios Verdes</text>
<text transform="matrix(1 0 0 1 278.1787 167.4048)"><tspan x="0" y="0" font-family="'MyriadPro-Regular'" font-size="7">Desportivo </tspan><tspan x="-1.015" y="8.4" font-family="'MyriadPro-Regular'" font-size="7">18 de Marzo</tspan></text>
<text transform="matrix(1 0 0 1 318.417 216.9199)" font-family="'MyriadPro-Regular'" font-size="7">Martn Carrera</text>
<text transform="matrix(1 0 0 1 203.541 205.0327)" font-family="'MyriadPro-Regular'" font-size="7">La Raza</text>
<text transform="matrix(1 0 0 1 306.8906 242.6021)" font-family="'MyriadPro-Regular'" font-size="7">Consulado</text>
<text transform="matrix(1 0 0 1 453.4717 157.0015)" font-family="'MyriadPro-Regular'" font-size="7">Ciudad Azteca</text>
<text transform="matrix(1 0 0 1 384.7666 283.4922)" font-family="'MyriadPro-Regular'" font-size="7">Oceana</text>
<text transform="matrix(1 0 0 1 310.9805 321.4648)" font-family="'MyriadPro-Regular'" font-size="7">San Lzaro</text>
<text transform="matrix(1 0 0 1 293.0781 290.5718)" font-family="'MyriadPro-Regular'" font-size="7">Morelos</text>
<text transform="matrix(0.9115 0.4113 -0.4113 0.9115 285.478 337.8804)" font-family="'MyriadPro-Regular'" font-size="7">Candelaria</text>
<text transform="matrix(1 0 0 1 286.2686 374.3984)" font-family="'MyriadPro-Regular'" font-size="7">Jamaica</text>
<text transform="matrix(1 0 0 1 291.4434 407.0859)" font-family="'MyriadPro-Regular'" font-size="7">Santa Anita</text>
<text transform="matrix(0.9094 -0.416 0.416 0.9094 202.1548 407.7495)" font-family="'MyriadPro-Regular'" font-size="7">Chabacano</text>
<text transform="matrix(1 -0.0036 0.0036 1 248.623 345.48)"><tspan x="0" y="0" font-family="'MyriadPro-Regular'" font-size="7">Pino </tspan><tspan x="-2.45" y="8.4" font-family="'MyriadPro-Regular'" font-size="7">Surez</tspan></text>
<text transform="matrix(1 0 0 1 235.9673 305.229)" font-family="'MyriadPro-Regular'" font-size="7">Bellas Artes</text>
<text transform="matrix(1 0 0 1 170.4746 301.8247)" font-family="'MyriadPro-Regular'" font-size="7">Hidalgo</text>
<text transform="matrix(1 0 0 1 236.7764 264.4712)"><tspan x="0" y="0" font-family="'MyriadPro-Regular'" font-size="7">Garibaldi/</tspan><tspan x="1.092" y="8.4" font-family="'MyriadPro-Regular'" font-size="7">Lagunilla</tspan></text>
<text transform="matrix(0.3562 -0.9344 0.9344 0.3562 206.8252 266.21)" font-family="'MyriadPro-Regular'" font-size="7">Guerrero</text>
<text transform="matrix(1 0 0 1 157.395 255.3369)" font-family="'MyriadPro-Regular'" font-size="7">Buenavista</text>
<text transform="matrix(0.9939 -0.1103 0.1103 0.9939 161.5708 335.7021)" font-family="'MyriadPro-Regular'" font-size="7">Belderas</text>
<text transform="matrix(1 0 0 1 206.2617 345.4541)"><tspan x="0" y="0" font-family="'MyriadPro-Regular'" font-size="7">Salto</tspan><tspan x="2.765" y="8.4" font-family="'MyriadPro-Regular'" font-size="7">del</tspan><tspan x="-0.402" y="16.8" font-family="'MyriadPro-Regular'" font-size="7">Agua</tspan></text>
<text transform="matrix(1 0 0 1 140.7954 379.3325)" font-family="'MyriadPro-Regular'" font-size="7">Centro Mdico</text>
<g>
	<g>
		<path fill-rule="evenodd" clip-rule="evenodd" d="M514.127,712.081c-0.414,0-0.828,0-1.241,0
			c-0.429-0.076-0.866-0.122-1.284-0.236c-3.102-0.844-5.082-2.822-5.925-5.924c-0.114-0.42-0.159-0.856-0.237-1.285
			c0-0.414,0-0.827,0-1.241c0.027-0.163,0.06-0.326,0.082-0.491c0.442-3.216,2.777-5.859,5.918-6.678
			c0.474-0.124,0.964-0.187,1.446-0.277c0.413,0,0.827,0,1.241,0c0.436,0.079,0.881,0.125,1.307,0.242
			c3.088,0.852,5.064,2.826,5.902,5.92c0.113,0.418,0.16,0.855,0.236,1.284c0,0.414,0,0.827,0,1.241
			c-0.027,0.163-0.061,0.326-0.082,0.49c-0.42,3.183-2.781,5.865-5.895,6.673C515.115,711.924,514.617,711.989,514.127,712.081z
			 M513.512,710.604c3.623-0.004,6.594-2.979,6.584-6.594c-0.01-3.633-2.979-6.595-6.594-6.584c-3.633,0.01-6.588,2.971-6.584,6.594
			C506.922,707.645,509.889,710.607,513.512,710.604z"/>
		<path fill-rule="evenodd" clip-rule="evenodd" fill="#FFFFFF" d="M513.512,710.604c-3.623,0.003-6.59-2.96-6.594-6.584
			c-0.004-3.623,2.951-6.584,6.584-6.594c3.615-0.011,6.584,2.951,6.594,6.584C520.105,707.625,517.135,710.601,513.512,710.604z"/>
	</g>
	
		<text transform="matrix(1 0 0 1 509.3926 706.4736)" stroke="#000000" stroke-miterlimit="10" font-family="'GreekC'" font-size="12">p</text>
</g>
<text transform="matrix(1 0 0 1 114.6372 564.665)" font-family="'MyriadPro-Regular'" font-size="7">14 min</text>
<text transform="matrix(1 0 0 1 139.7744 456.2051)" font-family="'MyriadPro-Regular'" font-size="7">11 min</text>
<text transform="matrix(1 0 0 1 229.0942 553.7227)" font-family="'MyriadPro-Regular'" font-size="7">14 min</text>
</svg>
