<?xml version="1.0" encoding="utf-8"?>
<!-- Generator: Adobe Illustrator 16.0.0, SVG Export Plug-In . SVG Version: 6.00 Build 0)  -->
<!DOCTYPE svg PUBLIC "-//W3C//DTD SVG 1.1//EN" "http://www.w3.org/Graphics/SVG/1.1/DTD/svg11.dtd">
<svg version="1.1" id="Capa_1" xmlns="http://www.w3.org/2000/svg" xmlns:xlink="http://www.w3.org/1999/xlink" x="0px" y="0px"
	 width="595.28px" height="841.89px" viewBox="0 0 595.28 841.89" enable-background="new 0 0 595.28 841.89" xml:space="preserve">
<line stroke="#000000" stroke-width="4" stroke-miterlimit="10" x1="193.56" y1="328.933" x2="247.589" y2="326.417"/>
<path fill-rule="evenodd" clip-rule="evenodd" fill="#EF8239" d="M81.511,535.795c-0.015-2.249,1.861-4.155,4.101-4.169
	c2.213-0.014,4.068,1.913,4.04,4.196c-0.027,2.172-1.766,3.935-3.943,3.998C83.44,539.886,81.525,538.05,81.511,535.795z
	 M87.764,533.147c-1.066-0.067-1.665-0.181-2.247-0.122c-0.616,0.062-1.681-0.402-1.733,0.485c-0.054,0.926,1.081,0.396,1.64,0.65
	c0.199,0.091,0.301,0.167,0.125,0.796c-0.244,0.776-1.071,1.848-1.055,3.192c0.003,0.279,0.124,0.475,0.396,0.565
	c0.313,0.104,0.548-0.085,0.593-0.317C85.826,536.624,86.713,535.064,87.764,533.147z"/>
<path fill-rule="evenodd" clip-rule="evenodd" fill="#C2B028" d="M154.79,641.538c-2.266,0.001-4.062-1.858-4.048-4.191
	c0.013-2.34,1.823-4.097,4.154-4.033c2.206,0.06,3.905,1.789,3.938,4.008C158.867,639.604,157.014,641.538,154.79,641.538z
	 M153.143,635.676c0.224,0.891,3.193-1.693,1.439,1.316c-0.292,0.501,0.376,0.676,0.614,0.989c0.304,0.399,0.335,0.784-0.032,1.145
	c-0.285,0.279-0.597,0.252-0.919,0.023c-0.402-0.286-0.899-0.781-1.197,0.019c-0.226,0.605,0.359,0.897,0.805,1.149
	c0.67,0.38,1.332,0.285,1.961-0.123c0.747-0.484,0.983-1.179,0.799-2.024c-0.122-0.556-0.622-0.986-0.303-1.69
	c0.462-1.022-0.146-1.696-1.063-1.979C154.225,634.185,153.365,634.455,153.143,635.676z"/>
<path fill-rule="evenodd" clip-rule="evenodd" fill="#2380C2" d="M238.745,580.604c-2.177-0.142-3.854-2-3.763-4.17
	c0.095-2.266,2.049-4.042,4.326-3.935c2.305,0.109,3.967,2.003,3.83,4.364C243.002,579.214,241.184,580.762,238.745,580.604z
	 M239.311,577.925c0.432-0.569,0.942-1.146,1.338-1.792c0.502-0.818,0.506-1.664-0.294-2.327c-0.864-0.716-1.768-0.589-2.604,0.063
	c-0.351,0.273-0.586,0.69-0.23,1.109c0.306,0.361,0.612,0.083,0.862-0.143c0.338-0.305,0.678-0.579,1.082-0.128
	c0.35,0.392,0.21,0.819-0.041,1.185c-0.243,0.353-0.562,0.651-0.839,0.98c-0.536,0.637-1.597,1.173-1.188,2.101
	c0.416,0.945,1.532,0.373,2.336,0.456c0.39,0.04,0.881,0.096,1.086-0.417C240.812,577.947,239.585,578.727,239.311,577.925z"/>
<path fill-rule="evenodd" clip-rule="evenodd" fill="#8F368C" d="M571.395,585.193c0.127,0.248,0.146,0.521-0.051,0.712
	c-1.495,1.444-3.889,1.466-5.42,0.063c-1.624-1.486-1.806-3.979-0.413-5.643c1.375-1.643,3.961-1.922,5.641-0.608
	c1.686,1.316,2.069,3.577,0.889,5.336c-0.149,0.224-0.422,0.267-0.69,0.187c-0.195-1.921-1.119-3.593-1.888-5.305
	c-0.362-0.806-1.274-0.855-1.619-0.095c-0.756,1.664-1.734,3.302-1.782,5.359c0.442-0.119,0.738-0.112,0.905-0.257
	c1.648-1.427,1.657-1.449,3.249-0.053C570.591,585.22,570.957,585.265,571.395,585.193z"/>
<path fill-rule="evenodd" clip-rule="evenodd" fill="#23A568" d="M462.355,583.305c-0.045,2.316-1.91,4.086-4.217,3.998
	c-2.19-0.083-3.94-1.868-3.955-4.035c-0.017-2.262,1.891-4.187,4.125-4.164C460.594,579.125,462.399,581.001,462.355,583.305z
	 M459.921,582.304c0.086-1.373-0.42-2.067-1.535-2.132c-1.119-0.063-2.006,0.716-1.774,1.901c0.164,0.838-0.16,1.492-0.209,2.232
	c-0.088,1.308,0.768,2.089,2.075,1.987c1.173-0.093,1.841-0.893,1.713-2.088C460.122,583.563,459.393,583.012,459.921,582.304z"/>
<path fill-rule="evenodd" clip-rule="evenodd" fill="#F5F3EF" d="M307.782,441.787c-0.381,0.108-0.46,0.463-0.638,0.75
	c-1.226,1.978-1.722,2.125-4.014,1.273c-0.317-0.117-0.665-0.154-0.998-0.228c-0.612-0.54-0.647-1.233-0.523-1.969
	c0.36-0.045,0.644-0.244,0.786-0.552c0.744-1.601,1.971-1.921,3.536-1.374c0.308,0.107,0.604,0.28,0.862-0.079
	c-0.001-0.001-0.017-0.027-0.017-0.027c-0.34,0.65,0.068,0.901,0.585,1.094C307.786,440.938,307.841,441.342,307.782,441.787z"/>
<path fill-rule="evenodd" clip-rule="evenodd" fill="#F5F3EF" d="M495.733,460.489c0.16-0.034,0.415-0.017,0.469-0.112
	c1.126-2.008,2.834-2.057,4.748-1.44l-0.019-0.042c-0.127,0.568,0.03,0.972,0.646,1.108c0.372,0.235,0.427,0.6,0.407,0.995
	c-0.083,0.019-0.205,0.01-0.242,0.063c-2.16,3.007-2.293,3.039-5.439,1.304C495.692,461.867,495.677,461.189,495.733,460.489z"/>
<path fill-rule="evenodd" clip-rule="evenodd" fill="#F5F3EF" d="M446.096,568.552c1.18,2.396,1.065,2.896-1.006,4.395
	c-0.708,0.107-1.469-0.141-2.136,0.293c-0.253,0.349-0.507,0.696-0.761,1.046c-0.157-0.425-0.061-1.026-0.755-1.073
	c0.001-0.332,0.003-0.664,0.004-0.996c0.248-0.021,0.496-0.043,0.745-0.064c-0.847-2.72,0.768-3.878,2.963-4.667
	c0.146,0.141,0.293,0.28,0.438,0.421c0.189,0.22,0.379,0.438,0.568,0.658L446.096,568.552z"/>
<path fill-rule="evenodd" clip-rule="evenodd" fill="#F5F3EF" d="M133.98,491.777c-1.959-2.492-1.956-2.529,0.491-5.675
	c0.638-0.06,1.28-0.132,1.671,0.554c0.272,0.313,0.611,0.478,1.03,0.466l-0.04-0.015c1.119,2.206,0.184,3.816-1.51,5.207
	C135.002,492.358,134.37,492.438,133.98,491.777z"/>
<path fill-rule="evenodd" clip-rule="evenodd" fill="#F5F3EF" d="M521.797,696.994c-0.132,0.093-0.319,0.156-0.386,0.283
	c-1.346,2.566-1.343,2.567-4.291,2.247c0.001,0,0.023,0.046,0.023,0.046c-0.083-0.334-0.348-0.459-0.638-0.556
	c-0.674-0.328-0.989-0.862-0.926-1.613c0.138-0.092,0.364-0.157,0.4-0.279c0.662-2.217,2.274-2.604,4.279-2.259l-0.024-0.041
	c0.058,0.377,0.337,0.494,0.659,0.561C521.546,695.724,521.864,696.251,521.797,696.994z"/>
<path fill-rule="evenodd" clip-rule="evenodd" fill="#F5F3EF" d="M279.539,529.178c0.047,0.162,0.06,0.347,0.146,0.482
	c1.622,2.528,1.479,3.196-1.07,4.938c-0.398,0.599-0.768,0.509-1.12-0.046c-2.379-2.03-2.383-2.792-0.031-5.638
	C278.17,528.887,278.905,528.634,279.539,529.178z"/>
<path fill-rule="evenodd" clip-rule="evenodd" fill="#F5F3EF" d="M92.385,449.745c0.308-0.146,0.633-0.264,0.919-0.442
	c2.089-1.309,2.826-1.176,4.237,0.769c0.143,0.196,0.338,0.354,0.509,0.53c0.543,0.389,0.435,0.725-0.082,1.029
	c-2.408,2.467-3.433,2.38-5.692-0.487C92.245,450.672,92.142,450.195,92.385,449.745z"/>
<path fill-rule="evenodd" clip-rule="evenodd" fill="#F5F3EF" d="M550.431,575.174c0.216,0.27,0.475,0.516,0.641,0.813
	c1.302,2.32,0.232,3.831-2.824,4.006c-0.002,0.001-0.103,0.071-0.1,0.071c-1.92-2.312-1.908-2.902,0.172-4.887
	c0.311-0.296,0.276-0.582,0.19-0.918C549.298,574.255,550.065,574.292,550.431,575.174z"/>
<path fill-rule="evenodd" clip-rule="evenodd" fill="#F5F3EF" d="M140.283,525.198c-2.945-0.015-2.945-0.015-4.196-3.166
	c0.005-0.661,0.276-1.159,0.887-1.449c0.425-0.05,0.849-0.112,1.274-0.147c2.087-0.176,2.664,0.259,3.143,2.419
	c0.076,0.342,0.091,0.671,0.459,0.831c-0.003,0.523-0.174,0.918-0.763,0.991c-0.356,0.072-0.735,0.11-0.834,0.563L140.283,525.198z"
	/>
<path fill-rule="evenodd" clip-rule="evenodd" fill="#F5F3EF" d="M182.542,504.327c0.001,0.084-0.017,0.177,0.008,0.253
	c1.077,3.252,0.296,4.36-3.127,4.435l0.023,0.043c-0.143-0.159-0.286-0.317-0.428-0.477c-0.446-0.021-0.877-0.077-1.15-0.497
	c0.104-0.126,0.296-0.25,0.299-0.379c0.077-3.175,0.297-3.436,3.353-3.87l-0.028-0.042c0.187,0.533,0.625,0.57,1.09,0.553
	L182.542,504.327z"/>
<path fill-rule="evenodd" clip-rule="evenodd" fill="#F5F3EF" d="M314.021,466.39c-0.435,0.234-0.391,0.731-0.601,1.087
	c-1.178,2-2.672,2.213-4.406,0.625c-0.346-0.316-0.434-0.997-1.144-0.754c-0.005-0.215-0.01-0.431-0.015-0.646
	c0.223-0.104,0.536-0.148,0.653-0.324c1.692-2.531,1.687-2.535,4.539-1.686l-0.025-0.05c0.034,0.377,0.161,0.653,0.619,0.567
	C314.087,465.501,314.102,465.93,314.021,466.39z"/>
<path fill-rule="evenodd" clip-rule="evenodd" fill="#F5F3EF" d="M196.771,516.935c0.088,0.143,0.163,0.296,0.268,0.425
	c1.972,2.412,1.802,3.412-0.882,5.173c-0.057,0.462-0.114,0.924-0.17,1.386c-0.305-0.122-0.609-0.243-0.914-0.365
	c-0.011-0.333-0.021-0.666-0.032-0.999c-0.047-0.07-0.085-0.148-0.142-0.21c-2.253-2.45-2.149-3.398,0.594-5.421
	C195.92,516.927,196.346,516.931,196.771,516.935z"/>
<path fill-rule="evenodd" clip-rule="evenodd" fill="#D1CECF" d="M532.554,549.929l0.029,0.081
	c-0.172,0.151-0.344,0.302-0.517,0.452c-0.289-0.252-0.579-0.505-0.869-0.757c0.028-0.189,0.058-0.38,0.086-0.57
	c0.173,0.035,0.345,0.069,0.518,0.104C532.051,549.469,532.303,549.698,532.554,549.929z"/>
<path fill-rule="evenodd" clip-rule="evenodd" fill="#8F368C" d="M501.577,460.003c-0.615-0.137-0.772-0.54-0.646-1.108
	C501.442,459.092,501.381,459.622,501.577,460.003z"/>
<path fill-rule="evenodd" clip-rule="evenodd" fill="#23A568" d="M307.362,440.676c-0.517-0.192-0.925-0.443-0.585-1.094
	C307.224,439.813,307.216,440.285,307.362,440.676z"/>
<path fill-rule="evenodd" clip-rule="evenodd" fill="#8F368C" d="M517.648,520.515c0.338,0.152,0.627,0.477,0.273,0.706
	c-0.309,0.201-0.515-0.224-0.585-0.557C517.441,520.624,517.547,520.573,517.648,520.515z"/>
<path fill-rule="evenodd" clip-rule="evenodd" fill="#787475" d="M545.406,567.476c0.208-0.012,0.415-0.022,0.623-0.033
	c0.15,0.311-0.031,0.483-0.29,0.509C545.431,567.98,545.35,567.753,545.406,567.476z"/>
<path fill-rule="evenodd" clip-rule="evenodd" fill="#2380C2" d="M218.03,572.168c0.586,0.264,0.485,0.822,0.56,1.306
	C218.345,573.063,217.741,572.807,218.03,572.168z"/>
<path fill-rule="evenodd" clip-rule="evenodd" fill="#23A568" d="M446.157,568.563c-0.189-0.22-0.379-0.438-0.568-0.658
	C445.77,568.132,446.157,568.18,446.157,568.563z"/>
<path fill-rule="evenodd" clip-rule="evenodd" fill="#C2B028" d="M179.018,508.581c0.143,0.159,0.285,0.317,0.428,0.477
	C179.129,509.055,179.082,508.811,179.018,508.581z"/>
<path fill-rule="evenodd" clip-rule="evenodd" fill="#23A568" d="M313.642,465.209c-0.458,0.086-0.585-0.19-0.619-0.567
	C313.517,464.517,313.494,464.956,313.642,465.209z"/>
<path fill-rule="evenodd" clip-rule="evenodd" fill="#787475" d="M534.853,582.111c-0.175-0.003-0.35-0.005-0.524-0.008
	c-0.001-0.248,0.066-0.466,0.365-0.38C534.776,581.747,534.801,581.976,534.853,582.111z"/>
<path fill-rule="evenodd" clip-rule="evenodd" fill="#C2B028" d="M493.188,661.95c0.11-0.02,0.222-0.021,0.332-0.005
	C493.415,662.317,493.305,662.324,493.188,661.95z"/>
<path fill-rule="evenodd" clip-rule="evenodd" fill="#F5F3EF" d="M219.586,574.438c0.114,0.11,0.227,0.22,0.339,0.329
	C219.775,574.696,219.663,574.586,219.586,574.438z"/>
<path fill-rule="evenodd" clip-rule="evenodd" fill="#C2B028" d="M140.254,525.24c0.099-0.453,0.478-0.491,0.834-0.563
	C140.875,524.959,140.747,525.37,140.254,525.24z"/>
<path fill-rule="evenodd" clip-rule="evenodd" fill="#C2B028" d="M520.895,695.383c-0.322-0.066-0.602-0.184-0.659-0.561
	C520.628,694.807,520.726,695.137,520.895,695.383z"/>
<path fill-rule="evenodd" clip-rule="evenodd" fill="#C2B028" d="M516.506,699.015c0.29,0.097,0.555,0.222,0.638,0.556
	C516.758,699.583,516.669,699.256,516.506,699.015z"/>
<path fill-rule="evenodd" clip-rule="evenodd" fill="#2380C2" d="M223.283,570.649c-0.482-0.232-0.336-0.456,0.01-0.676
	C223.29,570.198,223.287,570.424,223.283,570.649z"/>
<path fill-rule="evenodd" clip-rule="evenodd" fill="#FEFEFE" d="M87.565,512.698c1.347,0.023,2.375,1.144,2.329,2.537
	c-0.043,1.283-1.01,2.214-2.329,2.241c-1.387,0.028-2.532-1.047-2.521-2.367C85.054,513.811,86.241,512.676,87.565,512.698z"/>
<path fill-rule="evenodd" clip-rule="evenodd" fill="#F5F3EF" d="M130.223,631.279c-1.395,0.049-2.535-0.984-2.571-2.331
	c-0.036-1.348,1.045-2.481,2.403-2.52c1.365-0.039,2.542,1.028,2.589,2.347C132.69,630.112,131.609,631.23,130.223,631.279z"/>
<path fill-rule="evenodd" clip-rule="evenodd" fill="#F5F3EF" d="M313.35,487.51c-0.251-0.111-0.273-0.324-0.249-0.559
	c0.068-0.051,0.17-0.087,0.2-0.155c1.399-3.08,2.015-3.302,4.976-1.787c0.045,0.588,0.188,1.187,0.116,1.76
	c-0.261,2.091-2.12,2.912-3.905,1.741C314.069,488.235,313.727,487.846,313.35,487.51z"/>
<path fill-rule="evenodd" clip-rule="evenodd" fill="#F5F3EF" d="M87.764,533.147c-1.051,1.917-1.938,3.477-2.281,5.25
	c-0.045,0.232-0.281,0.422-0.593,0.317c-0.272-0.091-0.393-0.286-0.396-0.565c-0.016-1.345,0.811-2.416,1.055-3.192
	c0.176-0.629,0.075-0.705-0.125-0.796c-0.559-0.255-1.694,0.275-1.64-0.65c0.052-0.888,1.117-0.424,1.733-0.485
	C86.099,532.967,86.698,533.08,87.764,533.147z"/>
<path fill-rule="evenodd" clip-rule="evenodd" fill="#FEFEFE" d="M414.957,574.916c-0.035,0.439-0.131,0.867-0.552,1.09
	c-0.546,0.29-0.893,1.252-1.711,0.665c-0.649-0.466-0.517-1.24-0.368-1.891c0.142-0.628,0.509-1.108,1.286-0.674
	c0.367,0.205,0.747,0.389,1.12,0.582C414.801,574.771,414.876,574.847,414.957,574.916z"/>
<path fill-rule="evenodd" clip-rule="evenodd" fill="#F5F3EF" d="M146.506,639.746c0.222-1.221,1.082-1.491,2.104-1.176
	c0.917,0.283,1.525,0.957,1.063,1.979c-0.318,0.704,0.182,1.135,0.303,1.69c0.185,0.846-0.052,1.54-0.799,2.024
	c-0.629,0.408-1.291,0.503-1.961,0.123c-0.446-0.252-1.031-0.544-0.805-1.149c0.298-0.8,0.795-0.305,1.197-0.019
	c0.322,0.229,0.634,0.256,0.919-0.023c0.367-0.36,0.335-0.745,0.032-1.145c-0.238-0.313-0.905-0.488-0.614-0.989
	C149.7,638.053,146.73,640.637,146.506,639.746z"/>
<path fill-rule="evenodd" clip-rule="evenodd" fill="#F5F3EF" d="M239.311,577.925c0.275,0.802,1.501,0.022,1.508,1.087
	c-0.205,0.513-0.696,0.457-1.086,0.417c-0.805-0.083-1.921,0.489-2.336-0.456c-0.408-0.928,0.653-1.464,1.188-2.101
	c0.277-0.329,0.597-0.628,0.839-0.98c0.251-0.365,0.391-0.793,0.041-1.185c-0.404-0.451-0.744-0.177-1.082,0.128
	c-0.25,0.226-0.557,0.504-0.862,0.143c-0.356-0.419-0.121-0.836,0.23-1.109c0.836-0.651,1.739-0.778,2.604-0.063
	c0.801,0.663,0.796,1.509,0.294,2.327C240.253,576.779,239.742,577.355,239.311,577.925z"/>
<path fill-rule="evenodd" clip-rule="evenodd" fill="#FEFEFE" d="M527.144,522.381c-0.368,0.322-0.687,0.802-1.234,0.759
	c-0.581-0.047-0.467-0.571-0.452-0.951c0.021-0.52,0.313-0.734,0.821-0.552C526.654,521.772,527.088,521.858,527.144,522.381z"/>
<path fill-rule="evenodd" clip-rule="evenodd" fill="#F5F3EF" d="M571.395,585.193c-0.438,0.071-0.804,0.026-1.18-0.304
	c-1.592-1.396-1.601-1.374-3.249,0.053c-0.167,0.145-0.463,0.138-0.905,0.257c0.048-2.058,1.026-3.695,1.782-5.359
	c0.345-0.761,1.257-0.711,1.619,0.095c0.769,1.712,1.692,3.384,1.888,5.305L571.395,585.193z M568.609,581.348
	c-0.483,0.402-0.849,0.864-0.464,1.47c0.197,0.31,0.647,0.286,0.875,0.004C569.531,582.188,569.064,581.765,568.609,581.348z"/>
<path fill-rule="evenodd" clip-rule="evenodd" fill="#F5F3EF" d="M459.921,582.304c-0.528,0.708,0.201,1.259,0.27,1.901
	c0.128,1.195-0.54,1.995-1.713,2.088c-1.308,0.102-2.163-0.68-2.075-1.987c0.049-0.74,0.373-1.395,0.209-2.232
	c-0.231-1.186,0.655-1.965,1.774-1.901C459.501,580.236,460.007,580.931,459.921,582.304z M458.163,583.692
	c-0.46,0.084-0.581,0.434-0.537,0.889c0.036,0.38,0.268,0.623,0.628,0.624c0.479,0.002,0.772-0.325,0.763-0.779
	C459.008,583.97,458.715,583.684,458.163,583.692z M458.294,582.493c0.384-0.12,0.564-0.389,0.501-0.745
	c-0.062-0.345-0.277-0.622-0.687-0.538c-0.377,0.077-0.541,0.369-0.486,0.731C457.678,582.311,457.924,582.509,458.294,582.493z"/>
<path fill-rule="evenodd" clip-rule="evenodd" fill="#FEFEFE" d="M319.247,508.16c0.158-0.339,0.181-0.458,0.223-0.465
	c0.769-0.133,1.546-0.741,2.299,0c0.057,0.056-0.025,0.363-0.129,0.451C320.891,508.771,320.124,508.584,319.247,508.16z"/>
<path fill-rule="evenodd" clip-rule="evenodd" fill="#FEFEFE" d="M551.771,566.589c0.346,0.441,0.794,1.117,0.183,1.342
	c-0.801,0.294-0.375-0.565-0.442-0.927C551.49,566.893,551.668,566.744,551.771,566.589z"/>
<path fill-rule="evenodd" clip-rule="evenodd" fill="#FEFEFE" d="M531.283,549.135c-0.028,0.19-0.058,0.381-0.086,0.57
	c-0.373-0.039-0.84,0.123-0.987-0.413c-0.034-0.125,0.013-0.351,0.104-0.418C530.724,548.568,531.036,548.763,531.283,549.135z"/>
<path fill-rule="evenodd" clip-rule="evenodd" fill="#FEFEFE" d="M530.544,550.653c0.287,0.104,0.678,0.153,0.617,0.622
	c-0.036,0.271-0.229,0.418-0.521,0.416c-0.458-0.002-0.581-0.356-0.618-0.685C529.989,550.729,530.239,550.618,530.544,550.653z"/>
<path fill-rule="evenodd" clip-rule="evenodd" fill="#D1CECF" d="M532.583,550.01c0.232,0.26,0.483,0.551,0.056,0.805
	c-0.089,0.053-0.376-0.227-0.571-0.353C532.239,550.312,532.411,550.161,532.583,550.01z"/>
<path fill-rule="evenodd" clip-rule="evenodd" fill="#D1CECF" d="M538.998,565.38c0.441,0.139,1.027-0.121,1.284,0.521
	c0.169,0.423,0.155,0.791-0.091,1.178c-0.155,0.244-0.364,0.348-0.612,0.278c-0.503-0.139-0.525-0.58-0.546-0.999
	c-0.017-0.331-0.012-0.663-0.017-0.995L538.998,565.38z"/>
<path fill-rule="evenodd" clip-rule="evenodd" fill="#C2B028" d="M136.143,486.656c0.374,0.089,0.774,0.117,1.03,0.466
	C136.754,487.134,136.415,486.97,136.143,486.656z"/>
<path fill-rule="evenodd" clip-rule="evenodd" fill="#C2B028" d="M181.491,503.793c0.39,0.133,0.852,0.122,1.09,0.553
	C182.115,504.363,181.677,504.326,181.491,503.793z"/>
<path fill-rule="evenodd" clip-rule="evenodd" fill="#ABA7A8" d="M197.654,525.176c0.144,0.089,0.287,0.179,0.431,0.269
	c-0.436,0.388-0.279-0.194-0.435-0.267L197.654,525.176z"/>
<path fill-rule="evenodd" clip-rule="evenodd" fill="#ABA7A8" d="M334.285,530.974c-0.08,0.256-0.259,0.411-0.516,0.348
	c-0.087-0.021-0.19-0.254-0.172-0.371c0.042-0.258,0.254-0.409,0.508-0.358C334.188,530.608,334.228,530.841,334.285,530.974z"/>
<path fill-rule="evenodd" clip-rule="evenodd" fill="#D1CECF" d="M543.56,583.055c-0.076,0.361-0.295,0.566-0.665,0.609
	c-0.466,0.054-0.852-0.061-0.832-0.604c0.012-0.318,0.158-0.657,0.583-0.668C543.111,582.381,543.412,582.616,543.56,583.055z"/>
<path fill-rule="evenodd" clip-rule="evenodd" fill="#F5F3EF" d="M439.297,574.371c-0.027,0.251-0.055,0.503-0.082,0.755
	c-0.312,0.048-0.676,0.27-0.89-0.118c-0.171-0.309-0.14-0.739,0.114-0.936C438.754,573.828,439.02,574.224,439.297,574.371z"/>
<path fill-rule="evenodd" clip-rule="evenodd" fill="#F5F3EF" d="M218.978,496.574c2.183-1.911,2.177-1.901,4.973-0.206
	c0.346,0.21,0.634-0.127,0.882-0.366c-0.088,0.87,0.328,1.834-0.477,2.571c-0.342,0.232-0.679,0.471-1.025,0.695
	c-1.505,0.978-2.284,0.924-3.601-0.311c-0.361-0.338-0.561-0.864-1.159-0.886C218.571,497.536,218.431,496.962,218.978,496.574z"/>
<path fill-rule="evenodd" clip-rule="evenodd" fill="#F5F3EF" d="M234.832,424.985c-0.073-0.17-0.059-0.332,0.044-0.485
	c0.044,0.119,0.104,0.234,0.124,0.357C235.005,424.89,234.891,424.942,234.832,424.985z"/>
<path fill-rule="evenodd" clip-rule="evenodd" fill="#F5F3EF" d="M224.174,500.575c-0.16-0.201-0.062-0.347,0.103-0.479
	C224.299,500.269,224.265,500.428,224.174,500.575z"/>
<path fill-rule="evenodd" clip-rule="evenodd" fill="#F5F3EF" d="M228.724,426.642c0.145,0.381,0.042,0.708-0.218,1
	C228.466,427.283,228.478,426.938,228.724,426.642z"/>
<path fill-rule="evenodd" clip-rule="evenodd" fill="#F5F3EF" d="M219.242,493.5c0.207,0.343,0.073,0.628-0.156,0.895
	C219.138,494.097,219.19,493.798,219.242,493.5z"/>
<path fill-rule="evenodd" clip-rule="evenodd" fill="#FEFEFE" d="M166.378,492.86c-0.171,0.187-0.324,0.396-0.518,0.555
	c-0.437,0.357-1.057,0.448-1.395,0.105c-0.48-0.485,0.118-0.899,0.423-1.255c0.496-0.58,1.035-0.958,1.501,0.05
	C166.386,492.497,166.382,492.679,166.378,492.86z"/>
<path fill-rule="evenodd" clip-rule="evenodd" fill="#EC729F" d="M568.609,581.348c0.455,0.417,0.922,0.841,0.411,1.474
	c-0.228,0.282-0.678,0.306-0.875-0.004C567.761,582.212,568.126,581.75,568.609,581.348z"/>
<path fill-rule="evenodd" clip-rule="evenodd" fill="#23A568" d="M458.163,583.692c0.552-0.009,0.845,0.277,0.854,0.733
	c0.01,0.454-0.283,0.781-0.763,0.779c-0.36-0.001-0.592-0.244-0.628-0.624C457.582,584.126,457.703,583.776,458.163,583.692z"/>
<path fill-rule="evenodd" clip-rule="evenodd" fill="#83C8BA" d="M458.294,582.493c-0.37,0.016-0.616-0.183-0.672-0.552
	c-0.055-0.362,0.109-0.654,0.486-0.731c0.409-0.084,0.625,0.193,0.687,0.538C458.858,582.104,458.678,582.373,458.294,582.493z"/>
<path fill-rule="evenodd" clip-rule="evenodd" fill="#FEFEFE" d="M228.636,464.683c0.037,1.243-0.927,2.338-2.147,2.441
	c-1.247,0.105-2.764-1.329-2.718-2.569c0.039-1.046,1.306-2.241,2.424-2.289C227.581,462.208,228.593,463.21,228.636,464.683z"/>
<path fill-rule="evenodd" clip-rule="evenodd" fill="#F5F3EF" d="M228.26,496.008c0.393,0.064,0.742,0.125,0.681,0.582
	c-0.034,0.256-0.195,0.437-0.494,0.438c-0.343,0.002-0.687-0.036-0.764-0.434C227.589,496.107,228.046,496.15,228.26,496.008z"/>
<path fill-rule="evenodd" clip-rule="evenodd" fill="#D1CECF" d="M176.42,422.56c0.06,0,0.135-0.023,0.172,0.004
	c0.148,0.111,0.114,0.24-0.098,0.335c-0.024,0.011-0.129-0.104-0.155-0.174C176.324,422.684,176.392,422.612,176.42,422.56z"/>
<line stroke="#000000" stroke-width="4" stroke-miterlimit="10" x1="333.042" y1="538.085" x2="445.086" y2="572.947"/>
<line stroke="#000000" stroke-width="4" stroke-miterlimit="10" x1="154.788" y1="497.659" x2="132.643" y2="628.775"/>
<line stroke="#000000" stroke-width="4" stroke-miterlimit="10" x1="217.237" y1="523.809" x2="222.59" y2="569.108"/>
<line stroke="#000000" stroke-width="4" stroke-miterlimit="10" x1="220.108" y1="520.233" x2="321.229" y2="534.834"/>
<line stroke="#000000" stroke-width="4" stroke-miterlimit="10" x1="93.313" y1="484.1" x2="87.856" y2="517.477"/>
<line stroke="#000000" stroke-width="4" stroke-miterlimit="10" x1="94.217" y1="400.706" x2="94.769" y2="473.959"/>
<line stroke="#000000" stroke-width="4" stroke-miterlimit="10" x1="90.269" y1="395.902" x2="61.345" y2="405.85"/>
<line stroke="#000000" stroke-width="4" stroke-miterlimit="10" x1="82.974" y1="229.213" x2="94.557" y2="394.693"/>
<line stroke="#000000" stroke-width="4" stroke-miterlimit="10" x1="80.308" y1="226.021" x2="20.64" y2="223.816"/>
<line stroke="#000000" stroke-width="4" stroke-miterlimit="10" x1="375.995" y1="273.65" x2="413.301" y2="357.633"/>
<line stroke="#000000" stroke-width="4" stroke-miterlimit="10" x1="305.145" y1="240.353" x2="376.155" y2="267.849"/>
<line stroke="#000000" stroke-width="4" stroke-miterlimit="10" x1="236.58" y1="198.616" x2="294.078" y2="236.57"/>
<line stroke="#000000" stroke-width="4" stroke-miterlimit="10" x1="477.433" y1="163.972" x2="382.091" y2="269.37"/>
<line stroke="#000000" stroke-width="4" stroke-miterlimit="10" x1="302.646" y1="317.43" x2="411.108" y2="363.479"/>
<line stroke="#000000" stroke-width="4" stroke-miterlimit="10" x1="419.059" y1="364.224" x2="548.773" y2="576.839"/>
<line stroke="#000000" stroke-width="4" stroke-miterlimit="10" x1="184.933" y1="388.433" x2="155.717" y2="491.571"/>
<line stroke="#000000" stroke-width="4" stroke-miterlimit="10" x1="240.389" y1="384.053" x2="221.224" y2="518.356"/>
<line stroke="#000000" stroke-width="4" stroke-miterlimit="10" x1="283.81" y1="381.341" x2="414.187" y2="365.643"/>
<line stroke="#000000" stroke-width="4" stroke-miterlimit="10" x1="281.893" y1="326.86" x2="279.176" y2="375.379"/>
<line stroke="#000000" stroke-width="4" stroke-miterlimit="10" x1="299.426" y1="310.432" x2="372.043" y2="273.034"/>
<line stroke="#000000" stroke-width="4" stroke-miterlimit="10" x1="87.604" y1="226.022" x2="205.076" y2="292.92"/>
<line stroke="#000000" stroke-width="4" stroke-miterlimit="10" x1="198.706" y1="328.011" x2="97.324" y2="394.688"/>
<line stroke="#000000" stroke-width="4" stroke-miterlimit="10" x1="205.187" y1="295.93" x2="187.674" y2="382.616"/>
<line stroke="#000000" stroke-width="4" stroke-miterlimit="10" x1="97.324" y1="394.688" x2="181.964" y2="385.546"/>
<line stroke="#000000" stroke-width="4" stroke-miterlimit="10" x1="245.668" y1="330.976" x2="238.546" y2="377.061"/>
<line stroke="#000000" stroke-width="4" stroke-miterlimit="10" x1="287.451" y1="291.083" x2="280.448" y2="321.706"/>
<line stroke="#000000" stroke-width="4" stroke-miterlimit="10" x1="287.272" y1="282.609" x2="297.398" y2="243.372"/>
<line stroke="#000000" stroke-width="4" stroke-miterlimit="10" x1="231.974" y1="272.188" x2="285.846" y2="286.824"/>
<line stroke="#000000" stroke-width="4" stroke-miterlimit="10" x1="300.931" y1="237.602" x2="319.317" y2="183.331"/>
<line stroke="#000000" stroke-width="4" stroke-miterlimit="10" x1="76.577" y1="132.705" x2="85.879" y2="223.101"/>
<line stroke="#000000" stroke-width="4" stroke-miterlimit="10" x1="239.522" y1="198.616" x2="216.138" y2="268.063"/>
<line stroke="#000000" stroke-width="4" stroke-miterlimit="10" x1="223.953" y1="328.332" x2="237.52" y2="377.061"/>
<line stroke="#000000" stroke-width="4" stroke-miterlimit="10" x1="235.747" y1="379.713" x2="187.428" y2="384.754"/>
<line stroke="#000000" stroke-width="4" stroke-miterlimit="10" x1="158" y1="498.447" x2="214.199" y2="523.427"/>
<line stroke="#000000" stroke-width="4" stroke-miterlimit="10" x1="95.319" y1="478.78" x2="150.513" y2="492.389"/>
<line stroke="#000000" stroke-width="4" stroke-miterlimit="10" x1="279.373" y1="381.179" x2="241.531" y2="379.983"/>
<line stroke="#000000" stroke-width="4" stroke-miterlimit="10" x1="278.615" y1="390.648" x2="238.486" y2="381.91"/>
<line stroke="#000000" stroke-width="4" stroke-miterlimit="10" x1="279.867" y1="378.253" x2="280.486" y2="391.222"/>
<line stroke="#000000" stroke-width="4" stroke-miterlimit="10" x1="227.308" y1="300.768" x2="224.761" y2="324.531"/>
<line stroke="#000000" stroke-width="4" stroke-miterlimit="10" x1="230.84" y1="273.951" x2="228.293" y2="297.714"/>
<line stroke="#000000" stroke-width="4" stroke-miterlimit="10" x1="213.059" y1="271.579" x2="203.862" y2="293.638"/>
<line stroke="#000000" stroke-width="4" stroke-miterlimit="10" x1="226.117" y1="296.825" x2="249.391" y2="324.527"/>
<line stroke="#000000" stroke-width="4" stroke-miterlimit="10" x1="181.902" y1="264.752" x2="214.474" y2="268.947"/>
<line stroke="#000000" stroke-width="4" stroke-miterlimit="10" x1="217.665" y1="271.231" x2="226.935" y2="272.424"/>
<line stroke="#000000" stroke-width="4" stroke-miterlimit="10" x1="250.646" y1="326.523" x2="280.448" y2="321.706"/>
<line stroke="#000000" stroke-width="4" stroke-miterlimit="10" x1="284.647" y1="322.755" x2="299.822" y2="317.938"/>
<line stroke="#000000" stroke-width="4" stroke-miterlimit="10" x1="288.785" y1="290.441" x2="296.851" y2="312.14"/>
<line stroke="#000000" stroke-width="4" stroke-miterlimit="10" x1="211.026" y1="293.736" x2="223.727" y2="297.349"/>
<line stroke="#000000" stroke-width="4" stroke-miterlimit="10" x1="325.756" y1="540.897" x2="516.01" y2="696.963"/>
<line stroke="#000000" stroke-width="4" stroke-miterlimit="10" x1="283.32" y1="397.761" x2="325.087" y2="535.459"/>
<g>
	<g>
		<path fill-rule="evenodd" clip-rule="evenodd" d="M155.408,501.802c-0.414,0-0.828,0-1.241,0
			c-0.429-0.076-0.866-0.122-1.284-0.236c-3.102-0.844-5.082-2.822-5.925-5.924c-0.114-0.42-0.16-0.856-0.237-1.285
			c0-0.414,0-0.827,0-1.241c0.027-0.163,0.059-0.326,0.082-0.491c0.442-3.216,2.777-5.859,5.918-6.678
			c0.474-0.124,0.964-0.187,1.446-0.277c0.414,0,0.827,0,1.241,0c0.436,0.079,0.881,0.125,1.307,0.242
			c3.088,0.852,5.063,2.826,5.901,5.92c0.113,0.418,0.16,0.855,0.237,1.284c0,0.414,0,0.827,0,1.241
			c-0.028,0.163-0.061,0.326-0.082,0.49c-0.421,3.183-2.782,5.865-5.896,6.673C156.396,501.645,155.898,501.71,155.408,501.802z
			 M154.793,500.325c3.623-0.004,6.594-2.979,6.583-6.594c-0.01-3.633-2.978-6.595-6.594-6.584c-3.632,0.01-6.588,2.971-6.584,6.594
			C148.203,497.365,151.17,500.328,154.793,500.325z"/>
		<path fill-rule="evenodd" clip-rule="evenodd" fill="#FFFFFF" d="M154.793,500.325c-3.623,0.003-6.59-2.96-6.594-6.584
			c-0.004-3.623,2.952-6.584,6.584-6.594c3.616-0.011,6.584,2.951,6.594,6.584C161.387,497.346,158.416,500.321,154.793,500.325z"/>
	</g>
	<text transform="matrix(1 0 0 1 151.1802 498.1943)" font-family="'MyriadPro-Regular'" font-size="12">B</text>
</g>
<g>
	<g>
		<path fill-rule="evenodd" clip-rule="evenodd" d="M86.747,528.3c-0.414,0-0.828,0-1.241,0c-0.429-0.076-0.866-0.122-1.284-0.236
			c-3.102-0.844-5.082-2.822-5.925-5.924c-0.114-0.42-0.16-0.856-0.237-1.285c0-0.414,0-0.827,0-1.241
			c0.027-0.163,0.059-0.326,0.082-0.491c0.442-3.216,2.777-5.859,5.918-6.678c0.474-0.124,0.964-0.187,1.446-0.277
			c0.414,0,0.827,0,1.241,0c0.436,0.079,0.881,0.125,1.307,0.242c3.088,0.852,5.064,2.826,5.902,5.92
			c0.113,0.418,0.16,0.855,0.236,1.284c0,0.414,0,0.827,0,1.241c-0.027,0.163-0.061,0.326-0.082,0.49
			c-0.42,3.183-2.781,5.865-5.895,6.673C87.735,528.143,87.237,528.208,86.747,528.3z M86.132,526.823
			c3.623-0.004,6.594-2.979,6.584-6.594c-0.01-3.633-2.979-6.595-6.594-6.584c-3.632,0.01-6.588,2.971-6.584,6.594
			C79.542,523.863,82.509,526.826,86.132,526.823z"/>
		<path fill-rule="evenodd" clip-rule="evenodd" fill="#FFFFFF" d="M86.132,526.823c-3.623,0.003-6.59-2.96-6.594-6.584
			c-0.004-3.623,2.952-6.584,6.584-6.594c3.616-0.011,6.584,2.951,6.594,6.584C92.726,523.844,89.755,526.819,86.132,526.823z"/>
	</g>
	<text transform="matrix(1 0 0 1 82.519 524.6924)" font-family="'MyriadPro-Regular'" font-size="12">B</text>
</g>
<g>
	<g>
		<path fill-rule="evenodd" clip-rule="evenodd" d="M94.934,487.847c-0.414,0-0.828,0-1.241,0c-0.429-0.076-0.866-0.122-1.284-0.236
			c-3.102-0.844-5.082-2.822-5.925-5.924c-0.114-0.42-0.16-0.856-0.237-1.285c0-0.414,0-0.827,0-1.241
			c0.027-0.163,0.059-0.326,0.082-0.491c0.442-3.216,2.777-5.859,5.918-6.678c0.474-0.124,0.964-0.187,1.446-0.277
			c0.414,0,0.827,0,1.241,0c0.436,0.079,0.881,0.125,1.307,0.242c3.088,0.852,5.064,2.826,5.902,5.92
			c0.113,0.418,0.16,0.855,0.236,1.284c0,0.414,0,0.827,0,1.241c-0.027,0.163-0.061,0.326-0.082,0.49
			c-0.42,3.183-2.781,5.865-5.895,6.673C95.922,487.689,95.423,487.755,94.934,487.847z M94.318,486.37
			c3.623-0.004,6.594-2.979,6.584-6.594c-0.01-3.633-2.979-6.595-6.594-6.584c-3.632,0.01-6.588,2.971-6.584,6.594
			C87.728,483.41,90.695,486.373,94.318,486.37z"/>
		<path fill-rule="evenodd" clip-rule="evenodd" fill="#FFFFFF" d="M94.318,486.37c-3.623,0.003-6.59-2.96-6.594-6.584
			c-0.004-3.623,2.952-6.584,6.584-6.594c3.616-0.011,6.584,2.951,6.594,6.584C100.912,483.391,97.941,486.366,94.318,486.37z"/>
	</g>
	<text transform="matrix(1 0 0 1 90.7056 484.2393)" font-family="'MyriadPro-Regular'" font-size="12">B</text>
</g>
<g>
	<g>
		<path fill-rule="evenodd" clip-rule="evenodd" d="M131.156,640.126c-0.414,0-0.828,0-1.241,0
			c-0.429-0.076-0.866-0.122-1.284-0.236c-3.102-0.844-5.082-2.822-5.925-5.924c-0.114-0.42-0.16-0.856-0.237-1.285
			c0-0.414,0-0.827,0-1.241c0.027-0.163,0.059-0.326,0.082-0.491c0.442-3.216,2.777-5.859,5.918-6.678
			c0.474-0.124,0.964-0.187,1.446-0.277c0.414,0,0.827,0,1.241,0c0.436,0.079,0.881,0.125,1.307,0.242
			c3.088,0.852,5.064,2.826,5.902,5.92c0.113,0.418,0.16,0.855,0.236,1.284c0,0.414,0,0.827,0,1.241
			c-0.027,0.163-0.061,0.326-0.082,0.49c-0.42,3.183-2.781,5.865-5.895,6.673C132.145,639.969,131.646,640.034,131.156,640.126z
			 M130.541,638.649c3.623-0.004,6.594-2.979,6.584-6.594c-0.01-3.633-2.979-6.595-6.594-6.584c-3.632,0.01-6.588,2.971-6.584,6.594
			C123.951,635.689,126.918,638.652,130.541,638.649z"/>
		<path fill-rule="evenodd" clip-rule="evenodd" fill="#FFFFFF" d="M130.541,638.649c-3.623,0.003-6.59-2.96-6.594-6.584
			c-0.004-3.623,2.952-6.584,6.584-6.594c3.616-0.011,6.584,2.951,6.594,6.584C137.135,635.67,134.164,638.646,130.541,638.649z"/>
	</g>
	<text transform="matrix(1 0 0 1 126.9282 636.5186)" font-family="'MyriadPro-Regular'" font-size="12">B</text>
</g>
<g>
	<g>
		<path fill-rule="evenodd" clip-rule="evenodd" d="M218.574,531.209c-0.414,0-0.828,0-1.241,0
			c-0.429-0.076-0.866-0.122-1.284-0.236c-3.102-0.844-5.082-2.822-5.925-5.924c-0.114-0.42-0.16-0.856-0.237-1.285
			c0-0.414,0-0.827,0-1.241c0.027-0.163,0.059-0.326,0.082-0.491c0.442-3.216,2.777-5.859,5.918-6.678
			c0.474-0.124,0.964-0.187,1.446-0.277c0.414,0,0.827,0,1.241,0c0.436,0.079,0.881,0.125,1.307,0.242
			c3.088,0.852,5.064,2.826,5.902,5.92c0.113,0.418,0.16,0.855,0.236,1.284c0,0.414,0,0.827,0,1.241
			c-0.027,0.163-0.061,0.326-0.082,0.49c-0.42,3.183-2.781,5.865-5.895,6.673C219.563,531.052,219.064,531.117,218.574,531.209z
			 M217.959,529.732c3.623-0.004,6.594-2.979,6.584-6.594c-0.01-3.633-2.979-6.595-6.594-6.584c-3.632,0.01-6.588,2.971-6.584,6.594
			C211.369,526.772,214.336,529.735,217.959,529.732z"/>
		<path fill-rule="evenodd" clip-rule="evenodd" fill="#FFFFFF" d="M217.959,529.732c-3.623,0.003-6.59-2.96-6.594-6.584
			c-0.004-3.623,2.952-6.584,6.584-6.594c3.616-0.011,6.584,2.951,6.594,6.584C224.553,526.753,221.582,529.729,217.959,529.732z"/>
	</g>
	<text transform="matrix(1 0 0 1 214.3462 527.6016)" font-family="'MyriadPro-Regular'" font-size="12">B</text>
</g>
<g>
	<g>
		<path fill-rule="evenodd" clip-rule="evenodd" d="M223.211,578.378c-0.414,0-0.828,0-1.241,0
			c-0.429-0.076-0.866-0.122-1.284-0.236c-3.102-0.844-5.082-2.822-5.925-5.924c-0.114-0.42-0.16-0.856-0.237-1.285
			c0-0.414,0-0.827,0-1.241c0.027-0.163,0.059-0.326,0.082-0.491c0.442-3.216,2.777-5.859,5.918-6.678
			c0.474-0.124,0.964-0.187,1.446-0.277c0.414,0,0.827,0,1.241,0c0.436,0.079,0.881,0.125,1.307,0.242
			c3.088,0.852,5.064,2.826,5.902,5.92c0.113,0.418,0.16,0.855,0.236,1.284c0,0.414,0,0.827,0,1.241
			c-0.027,0.163-0.061,0.326-0.082,0.49c-0.42,3.183-2.781,5.865-5.895,6.673C224.199,578.221,223.701,578.286,223.211,578.378z
			 M222.596,576.901c3.623-0.004,6.594-2.979,6.584-6.594c-0.01-3.633-2.979-6.595-6.594-6.584c-3.632,0.01-6.588,2.971-6.584,6.594
			C216.005,573.941,218.973,576.904,222.596,576.901z"/>
		<path fill-rule="evenodd" clip-rule="evenodd" fill="#FFFFFF" d="M222.596,576.901c-3.623,0.003-6.59-2.96-6.594-6.584
			c-0.004-3.623,2.952-6.584,6.584-6.594c3.616-0.011,6.584,2.951,6.594,6.584C229.189,573.922,226.219,576.897,222.596,576.901z"/>
	</g>
	<text transform="matrix(1 0 0 1 218.9829 574.7705)" font-family="'MyriadPro-Regular'" font-size="12">B</text>
</g>
<g>
	<g>
		<path fill-rule="evenodd" clip-rule="evenodd" d="M326.377,546.151c-0.414,0-0.828,0-1.241,0
			c-0.429-0.076-0.866-0.122-1.284-0.236c-3.102-0.844-5.082-2.822-5.925-5.924c-0.114-0.42-0.159-0.856-0.237-1.285
			c0-0.414,0-0.827,0-1.241c0.027-0.163,0.06-0.326,0.082-0.491c0.442-3.216,2.777-5.859,5.918-6.678
			c0.474-0.124,0.964-0.187,1.446-0.277c0.413,0,0.827,0,1.241,0c0.436,0.079,0.881,0.125,1.307,0.242
			c3.088,0.852,5.064,2.826,5.902,5.92c0.113,0.418,0.16,0.855,0.236,1.284c0,0.414,0,0.827,0,1.241
			c-0.027,0.163-0.061,0.326-0.082,0.49c-0.42,3.183-2.781,5.865-5.895,6.673C327.365,545.994,326.867,546.06,326.377,546.151z
			 M325.762,544.675c3.623-0.004,6.594-2.979,6.584-6.594c-0.01-3.633-2.979-6.595-6.594-6.584c-3.633,0.01-6.588,2.971-6.584,6.594
			C319.172,541.715,322.139,544.678,325.762,544.675z"/>
		<path fill-rule="evenodd" clip-rule="evenodd" fill="#FFFFFF" d="M325.762,544.675c-3.623,0.003-6.59-2.96-6.594-6.584
			c-0.004-3.623,2.951-6.584,6.584-6.594c3.615-0.011,6.584,2.951,6.594,6.584C332.355,541.695,329.385,544.671,325.762,544.675z"/>
	</g>
	<text transform="matrix(1 0 0 1 322.1484 542.5439)" font-family="'MyriadPro-Regular'" font-size="12">B</text>
</g>
<g>
	<g>
		<path fill-rule="evenodd" clip-rule="evenodd" d="M447.47,582.326c-0.414,0-0.827,0-1.241,0c-0.429-0.076-0.865-0.122-1.284-0.236
			c-3.103-0.844-5.081-2.822-5.925-5.924c-0.113-0.42-0.16-0.856-0.236-1.285c0-0.414,0-0.827,0-1.241
			c0.027-0.163,0.059-0.326,0.081-0.491c0.442-3.216,2.777-5.859,5.918-6.678c0.474-0.124,0.964-0.187,1.446-0.277
			c0.414,0,0.827,0,1.241,0c0.437,0.079,0.881,0.125,1.307,0.242c3.088,0.852,5.064,2.826,5.902,5.92
			c0.113,0.418,0.16,0.855,0.236,1.284c0,0.414,0,0.827,0,1.241c-0.027,0.163-0.061,0.326-0.082,0.49
			c-0.42,3.183-2.781,5.865-5.895,6.673C448.458,582.169,447.959,582.234,447.47,582.326z M446.854,580.85
			c3.623-0.004,6.594-2.979,6.584-6.594c-0.01-3.633-2.979-6.595-6.595-6.584c-3.631,0.01-6.588,2.971-6.584,6.594
			C440.264,577.89,443.231,580.853,446.854,580.85z"/>
		<path fill-rule="evenodd" clip-rule="evenodd" fill="#FFFFFF" d="M446.854,580.85c-3.623,0.003-6.591-2.96-6.595-6.584
			c-0.004-3.623,2.953-6.584,6.584-6.594c3.616-0.011,6.585,2.951,6.595,6.584C453.448,577.87,450.478,580.846,446.854,580.85z"/>
	</g>
	<text transform="matrix(1 0 0 1 443.2422 578.7188)" font-family="'MyriadPro-Regular'" font-size="12">B</text>
</g>
<g>
	<g>
		<path fill-rule="evenodd" clip-rule="evenodd" d="M519.31,707.736c-0.414,0-0.827,0-1.241,0c-0.429-0.076-0.865-0.122-1.284-0.236
			c-3.103-0.844-5.081-2.822-5.925-5.924c-0.113-0.42-0.16-0.856-0.236-1.285c0-0.414,0-0.827,0-1.241
			c0.027-0.163,0.059-0.326,0.081-0.491c0.442-3.216,2.777-5.859,5.918-6.678c0.474-0.124,0.964-0.187,1.446-0.277
			c0.414,0,0.827,0,1.241,0c0.437,0.079,0.881,0.125,1.307,0.242c3.088,0.852,5.064,2.826,5.902,5.92
			c0.113,0.418,0.16,0.855,0.236,1.284c0,0.414,0,0.827,0,1.241c-0.027,0.163-0.061,0.326-0.082,0.49
			c-0.42,3.183-2.781,5.865-5.895,6.673C520.298,707.579,519.799,707.645,519.31,707.736z M518.694,706.26
			c3.623-0.004,6.594-2.979,6.584-6.594c-0.01-3.633-2.979-6.595-6.595-6.584c-3.631,0.01-6.588,2.971-6.584,6.594
			C512.104,703.3,515.071,706.263,518.694,706.26z"/>
		<path fill-rule="evenodd" clip-rule="evenodd" fill="#FFFFFF" d="M518.694,706.26c-3.623,0.003-6.591-2.96-6.595-6.584
			c-0.004-3.623,2.953-6.584,6.584-6.594c3.616-0.011,6.585,2.951,6.595,6.584C525.288,703.28,522.317,706.256,518.694,706.26z"/>
	</g>
	<text transform="matrix(1 0 0 1 515.082 704.1289)" font-family="'MyriadPro-Regular'" font-size="12">B</text>
</g>
<g>
	<g>
		<path fill-rule="evenodd" clip-rule="evenodd" d="M549.394,583.465c-0.414,0-0.827,0-1.241,0
			c-0.429-0.076-0.865-0.122-1.284-0.236c-3.103-0.844-5.081-2.822-5.925-5.924c-0.113-0.42-0.16-0.856-0.236-1.285
			c0-0.414,0-0.827,0-1.241c0.027-0.163,0.059-0.326,0.081-0.491c0.442-3.216,2.777-5.859,5.918-6.678
			c0.474-0.124,0.964-0.187,1.446-0.277c0.414,0,0.827,0,1.241,0c0.437,0.079,0.881,0.125,1.307,0.242
			c3.088,0.852,5.064,2.826,5.902,5.92c0.113,0.418,0.16,0.855,0.236,1.284c0,0.414,0,0.827,0,1.241
			c-0.027,0.163-0.061,0.326-0.082,0.49c-0.42,3.183-2.781,5.865-5.895,6.673C550.382,583.308,549.883,583.373,549.394,583.465z
			 M548.778,581.988c3.623-0.004,6.594-2.979,6.584-6.594c-0.01-3.633-2.979-6.595-6.595-6.584c-3.631,0.01-6.588,2.971-6.584,6.594
			C542.188,579.028,545.155,581.991,548.778,581.988z"/>
		<path fill-rule="evenodd" clip-rule="evenodd" fill="#FFFFFF" d="M548.778,581.988c-3.623,0.003-6.591-2.96-6.595-6.584
			c-0.004-3.623,2.953-6.584,6.584-6.594c3.616-0.011,6.585,2.951,6.595,6.584C555.372,579.009,552.401,581.984,548.778,581.988z"/>
	</g>
	<text transform="matrix(1 0 0 1 545.166 579.8574)" font-family="'MyriadPro-Regular'" font-size="12">B</text>
</g>
<g>
	<g>
		<path fill-rule="evenodd" clip-rule="evenodd" d="M283.94,402.754c-0.414,0-0.828,0-1.241,0c-0.429-0.076-0.866-0.122-1.284-0.236
			c-3.102-0.844-5.082-2.822-5.925-5.924c-0.114-0.42-0.16-0.856-0.237-1.285c0-0.414,0-0.827,0-1.241
			c0.027-0.163,0.059-0.326,0.082-0.491c0.442-3.216,2.777-5.859,5.918-6.678c0.474-0.124,0.964-0.187,1.446-0.277
			c0.414,0,0.827,0,1.241,0c0.436,0.079,0.881,0.125,1.307,0.242c3.088,0.852,5.064,2.826,5.902,5.92
			c0.113,0.418,0.16,0.855,0.236,1.284c0,0.414,0,0.827,0,1.241c-0.027,0.163-0.061,0.326-0.082,0.49
			c-0.42,3.183-2.781,5.865-5.895,6.673C284.929,402.597,284.43,402.663,283.94,402.754z M283.325,401.278
			c3.623-0.004,6.594-2.979,6.584-6.594c-0.01-3.633-2.979-6.595-6.594-6.584c-3.632,0.01-6.588,2.971-6.584,6.594
			C276.735,398.318,279.702,401.281,283.325,401.278z"/>
		<path fill-rule="evenodd" clip-rule="evenodd" fill="#FFFFFF" d="M283.325,401.278c-3.623,0.003-6.59-2.96-6.594-6.584
			c-0.004-3.623,2.952-6.584,6.584-6.594c3.616-0.011,6.584,2.951,6.594,6.584C289.919,398.298,286.948,401.274,283.325,401.278z"/>
	</g>
	<text transform="matrix(1 0 0 1 279.7124 399.147)" font-family="'MyriadPro-Regular'" font-size="12">B</text>
</g>
<g>
	<g>
		<path fill-rule="evenodd" clip-rule="evenodd" d="M415.577,371.545c-0.414,0-0.827,0-1.241,0
			c-0.429-0.076-0.865-0.122-1.284-0.236c-3.103-0.844-5.081-2.822-5.925-5.924c-0.113-0.42-0.16-0.856-0.236-1.285
			c0-0.414,0-0.827,0-1.241c0.027-0.163,0.059-0.326,0.081-0.491c0.442-3.216,2.777-5.859,5.918-6.678
			c0.474-0.124,0.964-0.187,1.446-0.277c0.414,0,0.827,0,1.241,0c0.437,0.079,0.881,0.125,1.307,0.242
			c3.088,0.852,5.064,2.826,5.902,5.92c0.113,0.418,0.16,0.855,0.236,1.284c0,0.414,0,0.827,0,1.241
			c-0.027,0.163-0.061,0.326-0.082,0.49c-0.42,3.183-2.781,5.865-5.895,6.673C416.565,371.388,416.066,371.453,415.577,371.545z
			 M414.962,370.068c3.623-0.004,6.594-2.979,6.584-6.594c-0.01-3.633-2.979-6.595-6.595-6.584c-3.631,0.01-6.588,2.971-6.584,6.594
			C408.371,367.108,411.339,370.071,414.962,370.068z"/>
		<path fill-rule="evenodd" clip-rule="evenodd" fill="#FFFFFF" d="M414.962,370.068c-3.623,0.003-6.591-2.96-6.595-6.584
			c-0.004-3.623,2.953-6.584,6.584-6.594c3.616-0.011,6.585,2.951,6.595,6.584C421.556,367.089,418.585,370.064,414.962,370.068z"/>
	</g>
	<text transform="matrix(1 0 0 1 411.3496 367.9375)" font-family="'MyriadPro-Regular'" font-size="12">B</text>
</g>
<g>
	<g>
		<path fill-rule="evenodd" clip-rule="evenodd" d="M240.144,389.246c-0.414,0-0.828,0-1.241,0
			c-0.429-0.076-0.866-0.122-1.284-0.236c-3.102-0.844-5.082-2.822-5.925-5.924c-0.114-0.42-0.16-0.856-0.237-1.285
			c0-0.414,0-0.827,0-1.241c0.027-0.163,0.059-0.326,0.082-0.491c0.442-3.216,2.777-5.859,5.918-6.678
			c0.474-0.124,0.964-0.187,1.446-0.277c0.414,0,0.827,0,1.241,0c0.436,0.079,0.881,0.125,1.307,0.242
			c3.088,0.852,5.064,2.826,5.902,5.92c0.113,0.418,0.16,0.855,0.236,1.284c0,0.414,0,0.827,0,1.241
			c-0.027,0.163-0.061,0.326-0.082,0.49c-0.42,3.183-2.781,5.865-5.895,6.673C241.132,389.088,240.633,389.154,240.144,389.246z
			 M239.528,387.769c3.623-0.004,6.594-2.979,6.584-6.594c-0.01-3.633-2.979-6.595-6.594-6.584c-3.632,0.01-6.588,2.971-6.584,6.594
			C232.938,384.809,235.905,387.772,239.528,387.769z"/>
		<path fill-rule="evenodd" clip-rule="evenodd" fill="#FFFFFF" d="M239.528,387.769c-3.623,0.003-6.59-2.96-6.594-6.584
			c-0.004-3.623,2.952-6.584,6.584-6.594c3.616-0.011,6.584,2.951,6.594,6.584C246.122,384.79,243.151,387.765,239.528,387.769z"/>
	</g>
	<text transform="matrix(1 0 0 1 235.9155 385.6382)" font-family="'MyriadPro-Regular'" font-size="12">B</text>
</g>
<g>
	<g>
		<path fill-rule="evenodd" clip-rule="evenodd" d="M186.72,393.612c-0.414,0-0.828,0-1.241,0c-0.429-0.076-0.866-0.122-1.284-0.236
			c-3.102-0.844-5.082-2.822-5.925-5.924c-0.114-0.42-0.16-0.856-0.237-1.285c0-0.414,0-0.827,0-1.241
			c0.027-0.163,0.059-0.326,0.082-0.491c0.442-3.216,2.777-5.859,5.918-6.678c0.474-0.124,0.964-0.187,1.446-0.277
			c0.414,0,0.827,0,1.241,0c0.436,0.079,0.881,0.125,1.307,0.242c3.088,0.852,5.064,2.826,5.902,5.92
			c0.113,0.418,0.16,0.855,0.236,1.284c0,0.414,0,0.827,0,1.241c-0.027,0.163-0.061,0.326-0.082,0.49
			c-0.42,3.183-2.781,5.865-5.895,6.673C187.708,393.455,187.209,393.521,186.72,393.612z M186.104,392.136
			c3.623-0.004,6.594-2.979,6.584-6.594c-0.01-3.633-2.979-6.595-6.594-6.584c-3.632,0.01-6.588,2.971-6.584,6.594
			C179.514,389.176,182.481,392.139,186.104,392.136z"/>
		<path fill-rule="evenodd" clip-rule="evenodd" fill="#FFFFFF" d="M186.104,392.136c-3.623,0.003-6.59-2.96-6.594-6.584
			c-0.004-3.623,2.952-6.584,6.584-6.594c3.616-0.011,6.584,2.951,6.594,6.584C192.698,389.156,189.728,392.132,186.104,392.136z"/>
	</g>
	<text transform="matrix(1 0 0 1 182.4917 390.0049)" font-family="'MyriadPro-Regular'" font-size="12">B</text>
</g>
<g>
	<g>
		<path fill-rule="evenodd" clip-rule="evenodd" d="M279.775,386.055c-0.414,0-0.828,0-1.241,0
			c-0.429-0.076-0.866-0.122-1.284-0.236c-3.102-0.844-5.082-2.822-5.925-5.924c-0.114-0.42-0.16-0.856-0.237-1.285
			c0-0.414,0-0.827,0-1.241c0.027-0.163,0.059-0.326,0.082-0.491c0.442-3.216,2.777-5.859,5.918-6.678
			c0.474-0.124,0.964-0.187,1.446-0.277c0.414,0,0.827,0,1.241,0c0.436,0.079,0.881,0.125,1.307,0.242
			c3.088,0.852,5.064,2.826,5.902,5.92c0.113,0.418,0.16,0.855,0.236,1.284c0,0.414,0,0.827,0,1.241
			c-0.027,0.163-0.061,0.326-0.082,0.49c-0.42,3.183-2.781,5.865-5.895,6.673C280.763,385.898,280.265,385.963,279.775,386.055z
			 M279.16,384.579c3.623-0.004,6.594-2.979,6.584-6.594c-0.01-3.633-2.979-6.595-6.594-6.584c-3.632,0.01-6.588,2.971-6.584,6.594
			C272.569,381.619,275.537,384.582,279.16,384.579z"/>
		<path fill-rule="evenodd" clip-rule="evenodd" fill="#FFFFFF" d="M279.16,384.579c-3.623,0.003-6.59-2.96-6.594-6.584
			c-0.004-3.623,2.952-6.584,6.584-6.594c3.616-0.011,6.584,2.951,6.594,6.584C285.753,381.599,282.783,384.575,279.16,384.579z"/>
	</g>
	<text transform="matrix(1 0 0 1 275.5469 382.4478)" font-family="'MyriadPro-Regular'" font-size="12">B</text>
</g>
<g>
	<g>
		<path fill-rule="evenodd" clip-rule="evenodd" d="M300.443,323.708c-0.414,0-0.828,0-1.241,0
			c-0.429-0.076-0.866-0.122-1.284-0.236c-3.102-0.844-5.082-2.822-5.925-5.924c-0.114-0.42-0.16-0.856-0.237-1.285
			c0-0.414,0-0.827,0-1.241c0.027-0.163,0.059-0.326,0.082-0.491c0.442-3.216,2.777-5.859,5.918-6.678
			c0.474-0.124,0.964-0.187,1.446-0.277c0.413,0,0.827,0,1.241,0c0.436,0.079,0.881,0.125,1.307,0.242
			c3.088,0.852,5.064,2.826,5.902,5.92c0.113,0.418,0.16,0.855,0.236,1.284c0,0.414,0,0.827,0,1.241
			c-0.027,0.163-0.061,0.326-0.082,0.49c-0.42,3.183-2.781,5.865-5.895,6.673C301.432,323.551,300.934,323.616,300.443,323.708z
			 M299.828,322.231c3.623-0.004,6.594-2.979,6.584-6.594c-0.01-3.633-2.979-6.595-6.594-6.584c-3.632,0.01-6.588,2.971-6.584,6.594
			C293.238,319.271,296.205,322.234,299.828,322.231z"/>
		<path fill-rule="evenodd" clip-rule="evenodd" fill="#FFFFFF" d="M299.828,322.231c-3.623,0.003-6.59-2.96-6.594-6.584
			c-0.004-3.623,2.952-6.584,6.584-6.594c3.615-0.011,6.584,2.951,6.594,6.584C306.422,319.252,303.451,322.228,299.828,322.231z"/>
	</g>
	<text transform="matrix(1 0 0 1 296.2153 320.1006)" font-family="'MyriadPro-Regular'" font-size="12">B</text>
</g>
<g>
	<g>
		<path fill-rule="evenodd" clip-rule="evenodd" d="M283.94,331.775c-0.414,0-0.828,0-1.241,0c-0.429-0.076-0.866-0.122-1.284-0.236
			c-3.102-0.844-5.082-2.822-5.925-5.924c-0.114-0.42-0.16-0.856-0.237-1.285c0-0.414,0-0.827,0-1.241
			c0.027-0.163,0.059-0.326,0.082-0.491c0.442-3.216,2.777-5.859,5.918-6.678c0.474-0.124,0.964-0.187,1.446-0.277
			c0.414,0,0.827,0,1.241,0c0.436,0.079,0.881,0.125,1.307,0.242c3.088,0.852,5.064,2.826,5.902,5.92
			c0.113,0.418,0.16,0.855,0.236,1.284c0,0.414,0,0.827,0,1.241c-0.027,0.163-0.061,0.326-0.082,0.49
			c-0.42,3.183-2.781,5.865-5.895,6.673C284.929,331.618,284.43,331.683,283.94,331.775z M283.325,330.298
			c3.623-0.004,6.594-2.979,6.584-6.594c-0.01-3.633-2.979-6.595-6.594-6.584c-3.632,0.01-6.588,2.971-6.584,6.594
			C276.735,327.338,279.702,330.301,283.325,330.298z"/>
		<path fill-rule="evenodd" clip-rule="evenodd" fill="#FFFFFF" d="M283.325,330.298c-3.623,0.003-6.59-2.96-6.594-6.584
			c-0.004-3.623,2.952-6.584,6.584-6.594c3.616-0.011,6.584,2.951,6.594,6.584C289.919,327.319,286.948,330.294,283.325,330.298z"/>
	</g>
	<text transform="matrix(1 0 0 1 279.7124 328.1675)" font-family="'MyriadPro-Regular'" font-size="12">B</text>
</g>
<g>
	<g>
		<path fill-rule="evenodd" clip-rule="evenodd" d="M250.012,336.398c-0.414,0-0.828,0-1.241,0
			c-0.429-0.076-0.866-0.122-1.284-0.236c-3.102-0.844-5.082-2.822-5.925-5.924c-0.114-0.42-0.16-0.856-0.237-1.285
			c0-0.414,0-0.827,0-1.241c0.027-0.163,0.059-0.326,0.082-0.491c0.442-3.216,2.777-5.859,5.918-6.678
			c0.474-0.124,0.964-0.187,1.446-0.277c0.414,0,0.827,0,1.241,0c0.436,0.079,0.881,0.125,1.307,0.242
			c3.088,0.852,5.064,2.826,5.902,5.92c0.113,0.418,0.16,0.855,0.236,1.284c0,0.414,0,0.827,0,1.241
			c-0.027,0.163-0.061,0.326-0.082,0.49c-0.42,3.183-2.781,5.865-5.895,6.673C251,336.241,250.501,336.306,250.012,336.398z
			 M249.396,334.921c3.623-0.004,6.594-2.979,6.584-6.594c-0.01-3.633-2.979-6.595-6.594-6.584c-3.632,0.01-6.588,2.971-6.584,6.594
			C242.806,331.961,245.773,334.924,249.396,334.921z"/>
		<path fill-rule="evenodd" clip-rule="evenodd" fill="#FFFFFF" d="M249.396,334.921c-3.623,0.003-6.59-2.96-6.594-6.584
			c-0.004-3.623,2.952-6.584,6.584-6.594c3.616-0.011,6.584,2.951,6.594,6.584C255.99,331.942,253.02,334.917,249.396,334.921z"/>
	</g>
	<text transform="matrix(1 0 0 1 245.7837 332.7905)" font-family="'MyriadPro-Regular'" font-size="12">B</text>
</g>
<g>
	<g>
		<path fill-rule="evenodd" clip-rule="evenodd" d="M225.382,334.59c-0.414,0-0.828,0-1.241,0c-0.429-0.076-0.866-0.122-1.284-0.236
			c-3.102-0.844-5.082-2.822-5.925-5.924c-0.114-0.42-0.16-0.856-0.237-1.285c0-0.414,0-0.827,0-1.241
			c0.027-0.163,0.059-0.326,0.082-0.491c0.442-3.216,2.777-5.859,5.918-6.678c0.474-0.124,0.964-0.187,1.446-0.277
			c0.414,0,0.827,0,1.241,0c0.436,0.079,0.881,0.125,1.307,0.242c3.088,0.852,5.064,2.826,5.902,5.92
			c0.113,0.418,0.16,0.855,0.236,1.284c0,0.414,0,0.827,0,1.241c-0.027,0.163-0.061,0.326-0.082,0.49
			c-0.42,3.183-2.781,5.865-5.895,6.673C226.37,334.433,225.872,334.498,225.382,334.59z M224.767,333.113
			c3.623-0.004,6.594-2.979,6.584-6.594c-0.01-3.633-2.979-6.595-6.594-6.584c-3.632,0.01-6.588,2.971-6.584,6.594
			C218.176,330.153,221.144,333.116,224.767,333.113z"/>
		<path fill-rule="evenodd" clip-rule="evenodd" fill="#FFFFFF" d="M224.767,333.113c-3.623,0.003-6.59-2.96-6.594-6.584
			c-0.004-3.623,2.952-6.584,6.584-6.594c3.616-0.011,6.584,2.951,6.594,6.584C231.36,330.134,228.39,333.109,224.767,333.113z"/>
	</g>
	<text transform="matrix(1 0 0 1 221.1538 330.9824)" font-family="'MyriadPro-Regular'" font-size="12">B</text>
</g>
<g>
	<g>
		<path fill-rule="evenodd" clip-rule="evenodd" d="M94.813,405.828c-0.414,0-0.828,0-1.241,0c-0.429-0.076-0.866-0.122-1.284-0.236
			c-3.102-0.844-5.082-2.822-5.925-5.924c-0.114-0.42-0.16-0.856-0.237-1.285c0-0.414,0-0.827,0-1.241
			c0.027-0.163,0.059-0.326,0.082-0.491c0.442-3.216,2.777-5.859,5.918-6.678c0.474-0.124,0.964-0.187,1.446-0.277
			c0.414,0,0.827,0,1.241,0c0.436,0.079,0.881,0.125,1.307,0.242c3.088,0.852,5.064,2.826,5.902,5.92
			c0.113,0.418,0.16,0.855,0.236,1.284c0,0.414,0,0.827,0,1.241c-0.027,0.163-0.061,0.326-0.082,0.49
			c-0.42,3.183-2.781,5.865-5.895,6.673C95.802,405.67,95.303,405.736,94.813,405.828z M94.198,404.351
			c3.623-0.004,6.594-2.979,6.584-6.594c-0.01-3.633-2.979-6.595-6.594-6.584c-3.632,0.01-6.588,2.971-6.584,6.594
			C87.608,401.391,90.575,404.354,94.198,404.351z"/>
		<path fill-rule="evenodd" clip-rule="evenodd" fill="#FFFFFF" d="M94.198,404.351c-3.623,0.003-6.59-2.96-6.594-6.584
			c-0.004-3.623,2.952-6.584,6.584-6.594c3.616-0.011,6.584,2.951,6.594,6.584C100.792,401.372,97.821,404.347,94.198,404.351z"/>
	</g>
	<text transform="matrix(1 0 0 1 90.5854 402.2202)" font-family="'MyriadPro-Regular'" font-size="12">B</text>
</g>
<g>
	<g>
		<path fill-rule="evenodd" clip-rule="evenodd" d="M55.908,413.917c-0.414,0-0.828,0-1.241,0c-0.429-0.076-0.866-0.122-1.284-0.236
			c-3.102-0.844-5.082-2.822-5.925-5.924c-0.114-0.42-0.16-0.856-0.237-1.285c0-0.414,0-0.827,0-1.241
			c0.027-0.163,0.059-0.326,0.082-0.491c0.442-3.216,2.777-5.859,5.918-6.678c0.474-0.124,0.964-0.187,1.446-0.277
			c0.414,0,0.827,0,1.241,0c0.436,0.079,0.881,0.125,1.307,0.242c3.088,0.852,5.064,2.826,5.902,5.92
			c0.113,0.418,0.16,0.855,0.236,1.284c0,0.414,0,0.827,0,1.241c-0.027,0.163-0.061,0.326-0.082,0.49
			c-0.42,3.183-2.781,5.865-5.895,6.673C56.896,413.759,56.398,413.825,55.908,413.917z M55.293,412.44
			c3.623-0.004,6.594-2.979,6.584-6.594c-0.01-3.633-2.979-6.595-6.594-6.584c-3.632,0.01-6.588,2.971-6.584,6.594
			C48.703,409.48,51.67,412.443,55.293,412.44z"/>
		<path fill-rule="evenodd" clip-rule="evenodd" fill="#FFFFFF" d="M55.293,412.44c-3.623,0.003-6.59-2.96-6.594-6.584
			c-0.004-3.623,2.952-6.584,6.584-6.594c3.616-0.011,6.584,2.951,6.594,6.584C61.887,409.46,58.916,412.436,55.293,412.44z"/>
	</g>
	<text transform="matrix(1 0 0 1 51.6802 410.3091)" font-family="'MyriadPro-Regular'" font-size="12">B</text>
</g>
<g>
	<g>
		<path fill-rule="evenodd" clip-rule="evenodd" d="M287.693,297.243c-0.414,0-0.828,0-1.241,0
			c-0.429-0.076-0.866-0.122-1.284-0.236c-3.102-0.844-5.082-2.822-5.925-5.924c-0.114-0.42-0.16-0.856-0.237-1.285
			c0-0.414,0-0.827,0-1.241c0.027-0.163,0.059-0.326,0.082-0.491c0.442-3.216,2.777-5.859,5.918-6.678
			c0.474-0.124,0.964-0.187,1.446-0.277c0.414,0,0.827,0,1.241,0c0.436,0.079,0.881,0.125,1.307,0.242
			c3.088,0.852,5.064,2.826,5.902,5.92c0.113,0.418,0.16,0.855,0.236,1.284c0,0.414,0,0.827,0,1.241
			c-0.027,0.163-0.061,0.326-0.082,0.49c-0.42,3.183-2.781,5.865-5.895,6.673C288.682,297.086,288.183,297.151,287.693,297.243z
			 M287.078,295.767c3.623-0.004,6.594-2.979,6.584-6.594c-0.01-3.633-2.979-6.595-6.594-6.584c-3.632,0.01-6.588,2.971-6.584,6.594
			C280.488,292.807,283.455,295.77,287.078,295.767z"/>
		<path fill-rule="evenodd" clip-rule="evenodd" fill="#FFFFFF" d="M287.078,295.767c-3.623,0.003-6.59-2.96-6.594-6.584
			c-0.004-3.623,2.952-6.584,6.584-6.594c3.616-0.011,6.584,2.951,6.594,6.584C293.672,292.787,290.701,295.763,287.078,295.767z"/>
	</g>
	<text transform="matrix(1 0 0 1 283.4653 293.6357)" font-family="'MyriadPro-Regular'" font-size="12">B</text>
</g>
<g>
	<g>
		<path fill-rule="evenodd" clip-rule="evenodd" d="M376.616,279.894c-0.414,0-0.827,0-1.241,0
			c-0.429-0.076-0.865-0.122-1.284-0.236c-3.103-0.844-5.081-2.822-5.925-5.924c-0.113-0.42-0.16-0.856-0.236-1.285
			c0-0.414,0-0.827,0-1.241c0.027-0.163,0.059-0.326,0.081-0.491c0.442-3.216,2.777-5.859,5.918-6.678
			c0.474-0.124,0.964-0.187,1.446-0.277c0.414,0,0.827,0,1.241,0c0.437,0.079,0.881,0.125,1.307,0.242
			c3.088,0.852,5.064,2.826,5.902,5.92c0.113,0.418,0.16,0.855,0.236,1.284c0,0.414,0,0.827,0,1.241
			c-0.027,0.163-0.061,0.326-0.082,0.49c-0.42,3.183-2.781,5.865-5.895,6.673C377.604,279.737,377.105,279.802,376.616,279.894z
			 M376.001,278.417c3.623-0.004,6.594-2.979,6.584-6.594c-0.01-3.633-2.979-6.595-6.595-6.584c-3.631,0.01-6.588,2.971-6.584,6.594
			C369.41,275.458,372.378,278.42,376.001,278.417z"/>
		<path fill-rule="evenodd" clip-rule="evenodd" fill="#FFFFFF" d="M376.001,278.417c-3.623,0.003-6.591-2.96-6.595-6.584
			c-0.004-3.623,2.953-6.584,6.584-6.594c3.616-0.011,6.585,2.951,6.595,6.584C382.595,275.438,379.624,278.414,376.001,278.417z"/>
	</g>
	<text transform="matrix(1 0 0 1 372.3887 276.2866)" font-family="'MyriadPro-Regular'" font-size="12">B</text>
</g>
<g>
	<g>
		<path fill-rule="evenodd" clip-rule="evenodd" d="M298.409,245.668c-0.414,0-0.828,0-1.241,0
			c-0.429-0.076-0.866-0.122-1.284-0.236c-3.102-0.844-5.082-2.822-5.925-5.924c-0.114-0.42-0.16-0.856-0.237-1.285
			c0-0.414,0-0.827,0-1.241c0.027-0.163,0.059-0.326,0.082-0.491c0.442-3.216,2.777-5.859,5.918-6.678
			c0.474-0.124,0.964-0.187,1.446-0.277c0.414,0,0.827,0,1.241,0c0.436,0.079,0.88,0.125,1.306,0.242
			c3.088,0.852,5.064,2.826,5.902,5.92c0.113,0.418,0.16,0.855,0.236,1.284c0,0.414,0,0.827,0,1.241
			c-0.027,0.163-0.061,0.326-0.082,0.49c-0.42,3.183-2.781,5.865-5.895,6.673C299.396,245.511,298.898,245.577,298.409,245.668z
			 M297.793,244.192c3.623-0.004,6.593-2.979,6.583-6.594c-0.01-3.633-2.979-6.595-6.594-6.584c-3.632,0.01-6.588,2.971-6.584,6.594
			C291.203,241.232,294.17,244.195,297.793,244.192z"/>
		<path fill-rule="evenodd" clip-rule="evenodd" fill="#FFFFFF" d="M297.793,244.192c-3.623,0.003-6.59-2.96-6.594-6.584
			c-0.004-3.623,2.952-6.584,6.584-6.594c3.615-0.011,6.584,2.951,6.594,6.584C304.387,241.212,301.416,244.188,297.793,244.192z"/>
	</g>
	<text transform="matrix(1 0 0 1 294.1807 242.061)" font-family="'MyriadPro-Regular'" font-size="12">B</text>
</g>
<g>
	<g>
		<path fill-rule="evenodd" clip-rule="evenodd" d="M230.382,281.49c-0.414,0-0.828,0-1.241,0c-0.429-0.076-0.866-0.122-1.284-0.236
			c-3.102-0.844-5.082-2.822-5.925-5.924c-0.114-0.42-0.16-0.856-0.237-1.285c0-0.414,0-0.827,0-1.241
			c0.027-0.163,0.059-0.326,0.082-0.491c0.442-3.216,2.777-5.859,5.918-6.678c0.474-0.124,0.964-0.187,1.446-0.277
			c0.414,0,0.827,0,1.241,0c0.436,0.079,0.881,0.125,1.307,0.242c3.088,0.852,5.064,2.826,5.902,5.92
			c0.113,0.418,0.16,0.855,0.236,1.284c0,0.414,0,0.827,0,1.241c-0.027,0.163-0.061,0.326-0.082,0.49
			c-0.42,3.183-2.781,5.865-5.895,6.673C231.371,281.333,230.872,281.398,230.382,281.49z M229.767,280.014
			c3.623-0.004,6.594-2.979,6.584-6.594c-0.01-3.633-2.979-6.595-6.594-6.584c-3.632,0.01-6.588,2.971-6.584,6.594
			C223.177,277.054,226.144,280.017,229.767,280.014z"/>
		<path fill-rule="evenodd" clip-rule="evenodd" fill="#FFFFFF" d="M229.767,280.014c-3.623,0.003-6.59-2.96-6.594-6.584
			c-0.004-3.623,2.952-6.584,6.584-6.594c3.616-0.011,6.584,2.951,6.594,6.584C236.361,277.034,233.39,280.01,229.767,280.014z"/>
	</g>
	<text transform="matrix(1 0 0 1 226.1543 277.8828)" font-family="'MyriadPro-Regular'" font-size="12">B</text>
</g>
<g>
	<g>
		<path fill-rule="evenodd" clip-rule="evenodd" d="M322.77,185.969c-0.414,0-0.828,0-1.241,0c-0.429-0.076-0.866-0.122-1.284-0.236
			c-3.102-0.844-5.082-2.822-5.925-5.924c-0.114-0.42-0.159-0.856-0.237-1.285c0-0.414,0-0.827,0-1.241
			c0.027-0.163,0.06-0.326,0.082-0.491c0.442-3.216,2.777-5.859,5.918-6.678c0.474-0.124,0.964-0.187,1.446-0.277
			c0.413,0,0.827,0,1.241,0c0.436,0.079,0.881,0.125,1.307,0.242c3.088,0.852,5.064,2.826,5.902,5.92
			c0.113,0.418,0.16,0.855,0.236,1.284c0,0.414,0,0.827,0,1.241c-0.027,0.163-0.061,0.326-0.082,0.49
			c-0.42,3.183-2.781,5.865-5.895,6.673C323.758,185.812,323.26,185.877,322.77,185.969z M322.154,184.493
			c3.623-0.004,6.594-2.979,6.584-6.594c-0.01-3.633-2.979-6.595-6.594-6.584c-3.633,0.01-6.588,2.971-6.584,6.594
			C315.564,181.533,318.531,184.496,322.154,184.493z"/>
		<path fill-rule="evenodd" clip-rule="evenodd" fill="#FFFFFF" d="M322.154,184.493c-3.623,0.003-6.59-2.96-6.594-6.584
			c-0.004-3.623,2.951-6.584,6.584-6.594c3.615-0.011,6.584,2.951,6.594,6.584C328.748,181.513,325.777,184.489,322.154,184.493z"/>
	</g>
	<text transform="matrix(1 0 0 1 318.541 182.3618)" font-family="'MyriadPro-Regular'" font-size="12">B</text>
</g>
<g>
	<g>
		<path fill-rule="evenodd" clip-rule="evenodd" d="M478.054,169.837c-0.414,0-0.827,0-1.241,0
			c-0.429-0.076-0.865-0.122-1.284-0.236c-3.103-0.844-5.081-2.822-5.925-5.924c-0.113-0.42-0.16-0.856-0.236-1.285
			c0-0.414,0-0.827,0-1.241c0.027-0.163,0.059-0.326,0.081-0.491c0.442-3.216,2.777-5.859,5.918-6.678
			c0.474-0.124,0.964-0.187,1.446-0.277c0.414,0,0.827,0,1.241,0c0.437,0.079,0.881,0.125,1.307,0.242
			c3.088,0.852,5.064,2.826,5.902,5.92c0.113,0.418,0.16,0.855,0.236,1.284c0,0.414,0,0.827,0,1.241
			c-0.027,0.163-0.061,0.326-0.082,0.49c-0.42,3.183-2.781,5.865-5.895,6.673C479.042,169.68,478.543,169.745,478.054,169.837z
			 M477.438,168.36c3.623-0.004,6.594-2.979,6.584-6.594c-0.01-3.633-2.979-6.595-6.595-6.584c-3.631,0.01-6.588,2.971-6.584,6.594
			C470.848,165.4,473.815,168.363,477.438,168.36z"/>
		<path fill-rule="evenodd" clip-rule="evenodd" fill="#FFFFFF" d="M477.438,168.36c-3.623,0.003-6.591-2.96-6.595-6.584
			c-0.004-3.623,2.953-6.584,6.584-6.594c3.616-0.011,6.585,2.951,6.595,6.584C484.032,165.381,481.062,168.356,477.438,168.36z"/>
	</g>
	<text transform="matrix(1 0 0 1 473.8262 166.2295)" font-family="'MyriadPro-Regular'" font-size="12">B</text>
</g>
<g>
	<g>
		<path fill-rule="evenodd" clip-rule="evenodd" d="M212.208,277.013c-0.414,0-0.828,0-1.241,0
			c-0.429-0.076-0.866-0.122-1.284-0.236c-3.102-0.844-5.082-2.822-5.925-5.924c-0.114-0.42-0.16-0.856-0.237-1.285
			c0-0.414,0-0.827,0-1.241c0.027-0.163,0.059-0.326,0.082-0.491c0.442-3.216,2.777-5.859,5.918-6.678
			c0.474-0.124,0.964-0.187,1.446-0.277c0.414,0,0.827,0,1.241,0c0.436,0.079,0.881,0.125,1.307,0.242
			c3.088,0.852,5.064,2.826,5.902,5.92c0.113,0.418,0.16,0.855,0.236,1.284c0,0.414,0,0.827,0,1.241
			c-0.027,0.163-0.061,0.326-0.082,0.49c-0.42,3.183-2.781,5.865-5.895,6.673C213.197,276.856,212.698,276.921,212.208,277.013z
			 M211.593,275.537c3.623-0.004,6.594-2.979,6.584-6.594c-0.01-3.633-2.979-6.595-6.594-6.584c-3.632,0.01-6.588,2.971-6.584,6.594
			C205.003,272.577,207.97,275.54,211.593,275.537z"/>
		<path fill-rule="evenodd" clip-rule="evenodd" fill="#FFFFFF" d="M211.593,275.537c-3.623,0.003-6.59-2.96-6.594-6.584
			c-0.004-3.623,2.952-6.584,6.584-6.594c3.616-0.011,6.584,2.951,6.594,6.584C218.187,272.557,215.216,275.533,211.593,275.537z"/>
	</g>
	<text transform="matrix(1 0 0 1 207.9805 273.4058)" font-family="'MyriadPro-Regular'" font-size="12">B</text>
</g>
<g>
	<g>
		<path fill-rule="evenodd" clip-rule="evenodd" d="M227.929,307.392c-0.414,0-0.828,0-1.241,0
			c-0.429-0.076-0.866-0.122-1.284-0.236c-3.102-0.844-5.082-2.822-5.925-5.924c-0.114-0.42-0.16-0.856-0.237-1.285
			c0-0.414,0-0.827,0-1.241c0.027-0.163,0.059-0.326,0.082-0.491c0.442-3.216,2.777-5.859,5.918-6.678
			c0.474-0.124,0.964-0.187,1.446-0.277c0.414,0,0.827,0,1.241,0c0.436,0.079,0.881,0.125,1.307,0.242
			c3.088,0.852,5.064,2.826,5.902,5.92c0.113,0.418,0.16,0.855,0.236,1.284c0,0.414,0,0.827,0,1.241
			c-0.027,0.163-0.061,0.326-0.082,0.49c-0.42,3.183-2.781,5.865-5.895,6.673C228.917,307.234,228.418,307.3,227.929,307.392z
			 M227.313,305.915c3.623-0.004,6.594-2.979,6.584-6.594c-0.01-3.633-2.979-6.595-6.594-6.584c-3.632,0.01-6.588,2.971-6.584,6.594
			C220.723,302.955,223.69,305.918,227.313,305.915z"/>
		<path fill-rule="evenodd" clip-rule="evenodd" fill="#FFFFFF" d="M227.313,305.915c-3.623,0.003-6.59-2.96-6.594-6.584
			c-0.004-3.623,2.952-6.584,6.584-6.594c3.616-0.011,6.584,2.951,6.594,6.584C233.907,302.936,230.937,305.911,227.313,305.915z"/>
	</g>
	<text transform="matrix(1 0 0 1 223.7007 303.7842)" font-family="'MyriadPro-Regular'" font-size="12">B</text>
</g>
<g>
	<g>
		<path fill-rule="evenodd" clip-rule="evenodd" d="M207.393,301.803c-0.414,0-0.828,0-1.241,0
			c-0.429-0.076-0.866-0.122-1.284-0.236c-3.102-0.844-5.082-2.822-5.925-5.924c-0.114-0.42-0.16-0.856-0.237-1.285
			c0-0.414,0-0.827,0-1.241c0.027-0.163,0.059-0.326,0.082-0.491c0.442-3.216,2.777-5.859,5.918-6.678
			c0.474-0.124,0.964-0.187,1.446-0.277c0.414,0,0.827,0,1.241,0c0.436,0.079,0.881,0.125,1.307,0.242
			c3.088,0.852,5.064,2.826,5.902,5.92c0.113,0.418,0.16,0.855,0.236,1.284c0,0.414,0,0.827,0,1.241
			c-0.027,0.163-0.061,0.326-0.082,0.49c-0.42,3.183-2.781,5.865-5.895,6.673C208.381,301.646,207.882,301.711,207.393,301.803z
			 M206.777,300.326c3.623-0.004,6.594-2.979,6.584-6.594c-0.01-3.633-2.979-6.595-6.594-6.584c-3.632,0.01-6.588,2.971-6.584,6.594
			C200.187,297.366,203.154,300.329,206.777,300.326z"/>
		<path fill-rule="evenodd" clip-rule="evenodd" fill="#FFFFFF" d="M206.777,300.326c-3.623,0.003-6.59-2.96-6.594-6.584
			c-0.004-3.623,2.952-6.584,6.584-6.594c3.616-0.011,6.584,2.951,6.594,6.584C213.371,297.347,210.4,300.322,206.777,300.326z"/>
	</g>
	<text transform="matrix(1 0 0 1 203.1646 298.1953)" font-family="'MyriadPro-Regular'" font-size="12">B</text>
</g>
<g>
	<g>
		<path fill-rule="evenodd" clip-rule="evenodd" d="M83.595,234.088c-0.414,0-0.828,0-1.241,0c-0.429-0.076-0.866-0.122-1.284-0.236
			c-3.102-0.844-5.082-2.822-5.925-5.924c-0.114-0.42-0.16-0.856-0.237-1.285c0-0.414,0-0.827,0-1.241
			c0.027-0.163,0.059-0.326,0.082-0.491c0.442-3.216,2.777-5.859,5.918-6.678c0.474-0.124,0.964-0.187,1.446-0.277
			c0.414,0,0.827,0,1.241,0c0.436,0.079,0.881,0.125,1.307,0.242c3.088,0.852,5.064,2.826,5.902,5.92
			c0.113,0.418,0.16,0.855,0.236,1.284c0,0.414,0,0.827,0,1.241c-0.027,0.163-0.061,0.326-0.082,0.49
			c-0.42,3.183-2.781,5.865-5.895,6.673C84.583,233.931,84.084,233.996,83.595,234.088z M82.979,232.611
			c3.623-0.004,6.594-2.979,6.584-6.594c-0.01-3.633-2.979-6.595-6.594-6.584c-3.632,0.01-6.588,2.971-6.584,6.594
			C76.389,229.651,79.356,232.614,82.979,232.611z"/>
		<path fill-rule="evenodd" clip-rule="evenodd" fill="#FFFFFF" d="M82.979,232.611c-3.623,0.003-6.59-2.96-6.594-6.584
			c-0.004-3.623,2.952-6.584,6.584-6.594c3.616-0.011,6.584,2.951,6.594,6.584C89.573,229.632,86.603,232.607,82.979,232.611z"/>
	</g>
	<text transform="matrix(1 0 0 1 79.3667 230.4805)" font-family="'MyriadPro-Regular'" font-size="12">B</text>
</g>
<g>
	<g>
		<path fill-rule="evenodd" clip-rule="evenodd" d="M176.958,270.425c-0.414,0-0.828,0-1.241,0
			c-0.429-0.076-0.866-0.122-1.284-0.236c-3.102-0.844-5.082-2.822-5.925-5.924c-0.114-0.42-0.16-0.856-0.237-1.285
			c0-0.414,0-0.827,0-1.241c0.027-0.163,0.059-0.326,0.082-0.491c0.442-3.216,2.777-5.859,5.918-6.678
			c0.474-0.124,0.964-0.187,1.446-0.277c0.414,0,0.827,0,1.241,0c0.436,0.079,0.881,0.125,1.307,0.242
			c3.088,0.852,5.064,2.826,5.902,5.92c0.113,0.418,0.16,0.855,0.236,1.284c0,0.414,0,0.827,0,1.241
			c-0.027,0.163-0.061,0.326-0.082,0.49c-0.42,3.183-2.781,5.865-5.895,6.673C177.946,270.268,177.448,270.333,176.958,270.425z
			 M176.343,268.949c3.623-0.004,6.594-2.979,6.584-6.594c-0.01-3.633-2.979-6.595-6.594-6.584c-3.632,0.01-6.588,2.971-6.584,6.594
			C169.752,265.989,172.72,268.952,176.343,268.949z"/>
		<path fill-rule="evenodd" clip-rule="evenodd" fill="#FFFFFF" d="M176.343,268.949c-3.623,0.003-6.59-2.96-6.594-6.584
			c-0.004-3.623,2.952-6.584,6.584-6.594c3.616-0.011,6.584,2.951,6.594,6.584C182.937,265.969,179.966,268.945,176.343,268.949z"/>
	</g>
	<text transform="matrix(1 0 0 1 172.73 266.8179)" font-family="'MyriadPro-Regular'" font-size="12">B</text>
</g>
<g>
	<g>
		<path fill-rule="evenodd" clip-rule="evenodd" d="M239.488,209.418c-0.414,0-0.828,0-1.241,0
			c-0.429-0.076-0.866-0.122-1.284-0.236c-3.102-0.844-5.082-2.822-5.925-5.924c-0.114-0.42-0.16-0.856-0.237-1.285
			c0-0.414,0-0.827,0-1.241c0.027-0.163,0.059-0.326,0.082-0.491c0.442-3.216,2.777-5.859,5.918-6.678
			c0.474-0.124,0.964-0.187,1.446-0.277c0.414,0,0.827,0,1.241,0c0.436,0.079,0.881,0.125,1.307,0.242
			c3.088,0.852,5.064,2.826,5.902,5.92c0.113,0.418,0.16,0.855,0.236,1.284c0,0.414,0,0.827,0,1.241
			c-0.027,0.163-0.061,0.326-0.082,0.49c-0.42,3.183-2.781,5.865-5.895,6.673C240.476,209.261,239.978,209.326,239.488,209.418z
			 M238.873,207.941c3.623-0.004,6.594-2.979,6.584-6.594c-0.01-3.633-2.979-6.595-6.594-6.584c-3.632,0.01-6.588,2.971-6.584,6.594
			C232.282,204.981,235.25,207.944,238.873,207.941z"/>
		<path fill-rule="evenodd" clip-rule="evenodd" fill="#FFFFFF" d="M238.873,207.941c-3.623,0.003-6.59-2.96-6.594-6.584
			c-0.004-3.623,2.952-6.584,6.584-6.594c3.616-0.011,6.584,2.951,6.594,6.584C245.466,204.962,242.496,207.938,238.873,207.941z"/>
	</g>
	<text transform="matrix(1 0 0 1 235.2598 205.8105)" font-family="'MyriadPro-Regular'" font-size="12">B</text>
</g>
<g>
	<g>
		<path fill-rule="evenodd" clip-rule="evenodd" d="M18.408,231.883c-0.414,0-0.828,0-1.241,0c-0.429-0.076-0.866-0.122-1.284-0.236
			c-3.102-0.844-5.082-2.822-5.925-5.924c-0.114-0.42-0.16-0.856-0.237-1.285c0-0.414,0-0.827,0-1.241
			c0.027-0.163,0.059-0.326,0.082-0.491c0.442-3.216,2.777-5.859,5.918-6.678c0.474-0.124,0.964-0.187,1.446-0.277
			c0.414,0,0.827,0,1.241,0c0.436,0.079,0.881,0.125,1.307,0.242c3.088,0.852,5.064,2.826,5.902,5.92
			c0.113,0.418,0.16,0.855,0.236,1.284c0,0.414,0,0.827,0,1.241c-0.027,0.163-0.061,0.326-0.082,0.49
			c-0.42,3.183-2.781,5.865-5.895,6.673C19.396,231.726,18.898,231.791,18.408,231.883z M17.793,230.406
			c3.623-0.004,6.594-2.979,6.584-6.594c-0.01-3.633-2.979-6.595-6.594-6.584c-3.632,0.01-6.588,2.971-6.584,6.594
			C11.203,227.446,14.17,230.409,17.793,230.406z"/>
		<path fill-rule="evenodd" clip-rule="evenodd" fill="#FFFFFF" d="M17.793,230.406c-3.623,0.003-6.59-2.96-6.594-6.584
			c-0.004-3.623,2.952-6.584,6.584-6.594c3.616-0.011,6.584,2.951,6.594,6.584C24.387,227.427,21.416,230.402,17.793,230.406z"/>
	</g>
	<text transform="matrix(1 0 0 1 14.1802 228.2754)" font-family="'MyriadPro-Regular'" font-size="12">B</text>
</g>
<g>
	<g>
		<path fill-rule="evenodd" clip-rule="evenodd" d="M77.006,140.771c-0.414,0-0.828,0-1.241,0c-0.429-0.076-0.866-0.122-1.284-0.236
			c-3.102-0.844-5.082-2.822-5.925-5.924c-0.114-0.42-0.16-0.856-0.237-1.285c0-0.414,0-0.827,0-1.241
			c0.027-0.163,0.059-0.326,0.082-0.491c0.442-3.216,2.777-5.859,5.918-6.678c0.474-0.124,0.964-0.187,1.446-0.277
			c0.414,0,0.827,0,1.241,0c0.436,0.079,0.881,0.125,1.307,0.242c3.088,0.852,5.064,2.826,5.902,5.92
			c0.113,0.418,0.16,0.855,0.236,1.284c0,0.414,0,0.827,0,1.241c-0.027,0.163-0.061,0.326-0.082,0.49
			c-0.42,3.183-2.781,5.865-5.895,6.673C77.994,140.614,77.496,140.679,77.006,140.771z M76.391,139.294
			c3.623-0.004,6.594-2.979,6.584-6.594c-0.01-3.633-2.979-6.595-6.594-6.584c-3.632,0.01-6.588,2.971-6.584,6.594
			C69.8,136.334,72.768,139.297,76.391,139.294z"/>
		<path fill-rule="evenodd" clip-rule="evenodd" fill="#FFFFFF" d="M76.391,139.294c-3.623,0.003-6.59-2.96-6.594-6.584
			c-0.004-3.623,2.952-6.584,6.584-6.594c3.616-0.011,6.584,2.951,6.594,6.584C82.984,136.315,80.014,139.291,76.391,139.294z"/>
	</g>
	<text transform="matrix(1 0 0 1 72.7778 137.1636)" font-family="'MyriadPro-Regular'" font-size="12">B</text>
</g>
<g>
	<g>
		<path fill-rule="evenodd" clip-rule="evenodd" d="M198.809,336.234c-0.414,0-0.827,0-1.241,0
			c-0.429-0.076-0.866-0.122-1.284-0.236c-3.102-0.844-5.082-2.822-5.925-5.924c-0.114-0.42-0.16-0.856-0.237-1.285
			c0-0.414,0-0.827,0-1.241c0.027-0.163,0.059-0.326,0.082-0.491c0.442-3.216,2.777-5.859,5.918-6.678
			c0.474-0.124,0.964-0.187,1.446-0.277c0.414,0,0.827,0,1.241,0c0.437,0.079,0.881,0.125,1.307,0.242
			c3.088,0.852,5.064,2.826,5.902,5.92c0.113,0.418,0.16,0.855,0.236,1.284c0,0.414,0,0.827,0,1.241
			c-0.027,0.163-0.061,0.326-0.082,0.49c-0.42,3.183-2.781,5.865-5.895,6.673C199.797,336.077,199.298,336.142,198.809,336.234z
			 M198.193,334.757c3.623-0.004,6.594-2.979,6.584-6.594c-0.01-3.633-2.979-6.595-6.595-6.584c-3.631,0.01-6.587,2.971-6.583,6.594
			C191.603,331.797,194.57,334.76,198.193,334.757z"/>
		<path fill-rule="evenodd" clip-rule="evenodd" fill="#FFFFFF" d="M198.193,334.757c-3.623,0.003-6.59-2.96-6.594-6.584
			c-0.004-3.623,2.952-6.584,6.583-6.594c3.616-0.011,6.585,2.951,6.595,6.584C204.787,331.778,201.816,334.753,198.193,334.757z"/>
	</g>
	<text transform="matrix(1 0 0 1 194.5806 332.6265)" font-family="'MyriadPro-Regular'" font-size="12">B</text>
</g>
</svg>
