<?xml version="1.0" encoding="utf-8"?>
<!-- Generator: Adobe Illustrator 16.0.0, SVG Export Plug-In . SVG Version: 6.00 Build 0)  -->
<!DOCTYPE svg PUBLIC "-//W3C//DTD SVG 1.1//EN" "http://www.w3.org/Graphics/SVG/1.1/DTD/svg11.dtd">
<svg version="1.1" id="Capa_1" xmlns="http://www.w3.org/2000/svg" xmlns:xlink="http://www.w3.org/1999/xlink" x="0px" y="0px"
	 width="595.28px" height="841.89px" viewBox="0 0 595.28 841.89" enable-background="new 0 0 595.28 841.89" xml:space="preserve">
<line fill-rule="evenodd" clip-rule="evenodd" fill="none" stroke="#DB604F" stroke-width="3.2" stroke-miterlimit="10" x1="318.84" y1="260.886" x2="331.141" y2="252.749"/>
<line fill-rule="evenodd" clip-rule="evenodd" fill="none" stroke="#C3B224" stroke-width="3.2" stroke-miterlimit="10" x1="301.768" y1="207.16" x2="261.914" y2="257.625"/>
<line fill-rule="evenodd" clip-rule="evenodd" fill="none" stroke="#E2779B" stroke-width="3.2" stroke-miterlimit="10" x1="225.588" y1="357.688" x2="268.811" y2="355.677"/>
<path fill-rule="evenodd" clip-rule="evenodd" fill="#C3B224" d="M191.687,606.132c-2.892,0.001-5.183-2.684-5.165-6.053
	c0.016-3.381,2.327-5.917,5.3-5.825c2.816,0.086,4.984,2.583,5.025,5.788C196.89,603.339,194.525,606.132,191.687,606.132z
	 M189.586,597.665c0.285,1.286,4.074-2.446,1.836,1.9c-0.372,0.724,0.48,0.978,0.784,1.43c0.387,0.576,0.428,1.133-0.041,1.652
	c-0.364,0.403-0.763,0.364-1.173,0.033c-0.514-0.413-1.148-1.128-1.528,0.027c-0.289,0.875,0.458,1.297,1.027,1.659
	c0.855,0.55,1.699,0.413,2.503-0.178c0.952-0.7,1.255-1.702,1.019-2.923c-0.155-0.803-0.794-1.425-0.387-2.442
	c0.589-1.477-0.187-2.449-1.356-2.858C190.966,595.512,189.869,595.901,189.586,597.665z"/>
<path fill-rule="evenodd" clip-rule="evenodd" fill="#4381BA" d="M267.145,556.787c-3.164-0.201-5.601-2.828-5.467-5.896
	c0.138-3.204,2.977-5.716,6.285-5.563c3.35,0.154,5.764,2.832,5.566,6.17C273.331,554.822,270.689,557.011,267.145,556.787z
	 M267.967,552.999c0.627-0.806,1.368-1.619,1.944-2.535c0.73-1.155,0.736-2.352-0.428-3.288c-1.256-1.014-2.568-0.834-3.783,0.088
	c-0.509,0.386-0.851,0.976-0.334,1.568c0.444,0.51,0.889,0.116,1.253-0.202c0.492-0.431,0.985-0.818,1.572-0.182
	c0.508,0.554,0.305,1.159-0.06,1.676c-0.352,0.498-0.816,0.92-1.22,1.386c-0.778,0.9-2.32,1.658-1.727,2.971
	c0.604,1.336,2.226,0.526,3.395,0.644c0.567,0.058,1.28,0.137,1.579-0.588C270.148,553.03,268.366,554.132,267.967,552.999z"/>
<path fill-rule="evenodd" clip-rule="evenodd" fill="#8F4288" d="M529.865,558.13c0.184,0.36,0.211,0.758-0.074,1.035
	c-2.176,2.101-5.656,2.132-7.883,0.091c-2.361-2.162-2.627-5.786-0.602-8.206c2-2.389,5.762-2.795,8.205-0.885
	c2.451,1.914,3.008,5.202,1.291,7.76c-0.217,0.325-0.613,0.388-1.004,0.271c-0.283-2.794-1.627-5.226-2.746-7.715
	c-0.525-1.172-1.854-1.244-2.354-0.138c-1.1,2.42-2.523,4.802-2.592,7.794c0.643-0.173,1.072-0.163,1.316-0.373
	c2.396-2.075,2.41-2.108,4.725-0.077C528.695,558.168,529.229,558.233,529.865,558.13z"/>
<path fill-rule="evenodd" clip-rule="evenodd" fill="#36A46F" d="M447.486,553.041c-0.064,3.279-2.705,5.785-5.971,5.66
	c-3.1-0.117-5.578-2.645-5.598-5.713c-0.025-3.201,2.676-5.927,5.838-5.895C444.992,547.124,447.549,549.78,447.486,553.041z
	 M444.039,551.624c0.123-1.943-0.594-2.926-2.172-3.018c-1.586-0.09-2.842,1.014-2.514,2.691c0.232,1.187-0.227,2.113-0.295,3.161
	c-0.125,1.851,1.086,2.957,2.938,2.813c1.66-0.132,2.605-1.264,2.424-2.956C444.324,553.406,443.291,552.627,444.039,551.624z"/>
<path fill-rule="evenodd" clip-rule="evenodd" fill="#F6F3EF" d="M488.178,652.138c-0.105,0.075-0.256,0.125-0.309,0.227
	c-1.076,2.053-1.074,2.054-3.434,1.798c0.002,0,0.02,0.036,0.02,0.036c-0.066-0.267-0.279-0.366-0.512-0.444
	c-0.539-0.263-0.791-0.689-0.74-1.29c0.111-0.074,0.291-0.126,0.32-0.224c0.529-1.773,1.818-2.084,3.422-1.808l-0.018-0.032
	c0.047,0.302,0.27,0.396,0.527,0.448C487.977,651.122,488.23,651.544,488.178,652.138z"/>
<path fill-rule="evenodd" clip-rule="evenodd" fill="#F6F3EF" d="M511.086,554.682c0.172,0.216,0.379,0.413,0.512,0.651
	c1.041,1.855,0.186,3.063-2.26,3.204c0,0.001-0.082,0.057-0.08,0.057c-1.535-1.849-1.525-2.321,0.139-3.909
	c0.248-0.237,0.221-0.466,0.152-0.735C510.178,553.946,510.793,553.977,511.086,554.682z"/>
<path fill-rule="evenodd" clip-rule="evenodd" fill="#D3CFD1" d="M496.783,534.485l0.023,0.065
	c-0.137,0.121-0.275,0.242-0.414,0.362c-0.23-0.202-0.463-0.404-0.695-0.606c0.023-0.151,0.047-0.304,0.068-0.456
	c0.139,0.028,0.277,0.055,0.416,0.083C496.381,534.117,496.582,534.301,496.783,534.485z"/>
<path fill-rule="evenodd" clip-rule="evenodd" fill="#8F4288" d="M472.002,462.545c-0.492-0.109-0.617-0.433-0.518-0.887
	C471.895,461.816,471.846,462.24,472.002,462.545z"/>
<path fill-rule="evenodd" clip-rule="evenodd" fill="#8F4288" d="M484.857,510.955c0.271,0.122,0.502,0.382,0.221,0.564
	c-0.248,0.161-0.412-0.179-0.469-0.446C484.693,511.042,484.777,511.001,484.857,510.955z"/>
<path fill-rule="evenodd" clip-rule="evenodd" fill="#7D7778" d="M507.064,548.523c0.166-0.01,0.332-0.018,0.498-0.026
	c0.121,0.249-0.023,0.387-0.23,0.407C507.086,548.927,507.02,548.745,507.064,548.523z"/>
<path fill-rule="evenodd" clip-rule="evenodd" fill="#4381BA" d="M245.164,552.276c0.469,0.212,0.388,0.658,0.448,1.045
	C245.416,552.992,244.933,552.789,245.164,552.276z"/>
<path fill-rule="evenodd" clip-rule="evenodd" fill="#36A46F" d="M427.666,549.393c-0.152-0.176-0.305-0.35-0.455-0.526
	C427.355,549.049,427.666,549.087,427.666,549.393z"/>
<path fill-rule="evenodd" clip-rule="evenodd" fill="#C3B224" d="M213.954,501.407c0.115,0.128,0.228,0.254,0.343,0.382
	C214.043,501.787,214.006,501.592,213.954,501.407z"/>
<path fill-rule="evenodd" clip-rule="evenodd" fill="#7D7778" d="M498.623,560.231c-0.141-0.003-0.281-0.004-0.42-0.007
	c0-0.198,0.053-0.372,0.293-0.304C498.561,559.94,498.582,560.124,498.623,560.231z"/>
<path fill-rule="evenodd" clip-rule="evenodd" fill="#C3B224" d="M465.291,624.103c0.088-0.016,0.178-0.017,0.266-0.004
	C465.473,624.396,465.385,624.401,465.291,624.103z"/>
<path fill-rule="evenodd" clip-rule="evenodd" fill="#F6F3EF" d="M246.409,554.093c0.091,0.088,0.181,0.176,0.271,0.264
	C246.56,554.3,246.47,554.212,246.409,554.093z"/>
<path fill-rule="evenodd" clip-rule="evenodd" fill="#C3B224" d="M487.457,650.849c-0.26-0.052-0.482-0.146-0.527-0.448
	C487.242,650.389,487.32,650.652,487.457,650.849z"/>
<path fill-rule="evenodd" clip-rule="evenodd" fill="#C3B224" d="M483.945,653.755c0.232,0.078,0.443,0.178,0.51,0.444
	C484.146,654.209,484.074,653.947,483.945,653.755z"/>
<path fill-rule="evenodd" clip-rule="evenodd" fill="#4381BA" d="M249.366,551.062c-0.385-0.185-0.268-0.365,0.008-0.541
	C249.372,550.701,249.37,550.882,249.366,551.062z"/>
<path fill-rule="evenodd" clip-rule="evenodd" fill="#FDFDFD" d="M140.792,504.701c1.078,0.019,1.9,0.915,1.863,2.029
	c-0.034,1.026-0.808,1.771-1.863,1.793c-1.109,0.022-2.025-0.838-2.017-1.894C138.783,505.592,139.733,504.684,140.792,504.701z"/>
<path fill-rule="evenodd" clip-rule="evenodd" fill="#F6F3EF" d="M174.918,599.565c-1.116,0.039-2.027-0.787-2.056-1.864
	c-0.029-1.078,0.836-1.984,1.922-2.017c1.092-0.031,2.034,0.823,2.071,1.878C176.892,598.633,176.027,599.526,174.918,599.565z"/>
<path fill-rule="evenodd" clip-rule="evenodd" fill="#F6F3EF" d="M529.865,558.13c-0.637,0.104-1.17,0.038-1.717-0.441
	c-2.314-2.031-2.326-1.999-4.725,0.076c-0.242,0.21-0.674,0.2-1.316,0.374c0.068-2.993,1.492-5.374,2.592-7.795
	c0.502-1.106,1.828-1.033,2.354,0.138c1.119,2.49,2.463,4.922,2.746,7.716L529.865,558.13z M525.814,552.537
	c-0.703,0.585-1.234,1.257-0.674,2.137c0.285,0.45,0.939,0.417,1.271,0.006C527.154,553.76,526.475,553.143,525.814,552.537z"/>
<path fill-rule="evenodd" clip-rule="evenodd" fill="#FDFDFD" d="M495.766,533.851c-0.021,0.152-0.045,0.305-0.068,0.456
	c-0.299-0.031-0.672,0.098-0.789-0.33c-0.027-0.1,0.01-0.281,0.082-0.335C495.318,533.396,495.568,533.553,495.766,533.851z"/>
<path fill-rule="evenodd" clip-rule="evenodd" fill="#D3CFD1" d="M496.807,534.551c0.186,0.208,0.387,0.44,0.045,0.644
	c-0.072,0.042-0.301-0.182-0.457-0.281C496.531,534.793,496.67,534.672,496.807,534.551z"/>
<path fill-rule="evenodd" clip-rule="evenodd" fill="#C3B224" d="M179.654,483.867c0.3,0.071,0.62,0.094,0.824,0.373
	C180.143,484.25,179.872,484.119,179.654,483.867z"/>
<path fill-rule="evenodd" clip-rule="evenodd" fill="#AFA9AA" d="M228.863,514.684c0.115,0.071,0.23,0.144,0.345,0.215
	c-0.349,0.311-0.223-0.154-0.348-0.214L228.863,514.684z"/>
<path fill-rule="evenodd" clip-rule="evenodd" fill="#AFA9AA" d="M338.168,519.321c-0.064,0.205-0.207,0.329-0.412,0.279
	c-0.07-0.017-0.152-0.204-0.137-0.297c0.031-0.207,0.201-0.327,0.404-0.287C338.09,519.028,338.123,519.216,338.168,519.321z"/>
<path fill-rule="evenodd" clip-rule="evenodd" fill="#F6F3EF" d="M258.606,434.53c-0.059-0.136-0.048-0.266,0.035-0.388
	c0.035,0.095,0.083,0.188,0.099,0.286C258.744,434.455,258.653,434.497,258.606,434.53z"/>
<path fill-rule="evenodd" clip-rule="evenodd" fill="#F6F3EF" d="M250.079,495.003c-0.128-0.161-0.049-0.278,0.083-0.383
	C250.179,494.758,250.152,494.885,250.079,495.003z"/>
<path fill-rule="evenodd" clip-rule="evenodd" fill="#E2779B" d="M525.814,552.537c0.662,0.605,1.34,1.223,0.598,2.143
	c-0.332,0.411-0.986,0.445-1.271-0.005C524.58,553.794,525.111,553.122,525.814,552.537z"/>
<path fill-rule="evenodd" clip-rule="evenodd" fill="#36A46F" d="M441.551,553.591c0.781-0.013,1.195,0.393,1.209,1.038
	c0.014,0.643-0.402,1.105-1.08,1.103c-0.51-0.001-0.838-0.346-0.889-0.883C440.729,554.204,440.898,553.709,441.551,553.591z"/>
<path fill-rule="evenodd" clip-rule="evenodd" fill="#8FC3BC" d="M441.736,551.893c-0.523,0.022-0.873-0.259-0.951-0.781
	c-0.078-0.513,0.154-0.927,0.688-1.036c0.58-0.118,0.887,0.274,0.973,0.762C442.535,551.342,442.279,551.723,441.736,551.893z"/>
<path fill-rule="evenodd" clip-rule="evenodd" fill="#D3CFD1" d="M211.876,432.591c0.048,0,0.108-0.019,0.138,0.003
	c0.118,0.089,0.091,0.192-0.079,0.268c-0.019,0.01-0.103-0.083-0.124-0.139C211.799,432.689,211.854,432.633,211.876,432.591z"/>
<line fill-rule="evenodd" clip-rule="evenodd" fill="none" stroke="#36A46F" stroke-width="3.2" stroke-miterlimit="10" x1="337.174" y1="525.011" x2="426.809" y2="552.9"/>
<line fill-rule="evenodd" clip-rule="evenodd" fill="none" stroke="#C3B224" stroke-width="3.2" stroke-miterlimit="10" x1="194.57" y1="492.67" x2="176.854" y2="597.563"/>
<line fill-rule="evenodd" clip-rule="evenodd" fill="none" stroke="#4381BA" stroke-width="3.2" stroke-miterlimit="10" x1="246.274" y1="513.169" x2="249.39" y2="549.829"/>
<line fill-rule="evenodd" clip-rule="evenodd" fill="none" stroke="#DDCF87" stroke-width="3.2" stroke-miterlimit="10" x1="246.826" y1="510.729" x2="327.723" y2="522.41"/>
<line fill-rule="evenodd" clip-rule="evenodd" fill="none" stroke="#E68138" stroke-width="3.2" stroke-miterlimit="10" x1="145.391" y1="481.822" x2="141.025" y2="508.524"/>
<line fill-rule="evenodd" clip-rule="evenodd" fill="none" stroke="#E68138" stroke-width="3.2" stroke-miterlimit="10" x1="146.114" y1="415.107" x2="146.555" y2="473.71"/>
<line fill-rule="evenodd" clip-rule="evenodd" fill="none" stroke="#E2779B" stroke-width="3.2" stroke-miterlimit="10" x1="142.956" y1="411.265" x2="119.816" y2="419.223"/>
<line fill-rule="evenodd" clip-rule="evenodd" fill="none" stroke="#E68138" stroke-width="3.2" stroke-miterlimit="10" x1="137.119" y1="277.913" x2="146.386" y2="410.297"/>
<line fill-rule="evenodd" clip-rule="evenodd" fill="none" stroke="#4381BA" stroke-width="3.2" stroke-miterlimit="10" x1="134.986" y1="275.36" x2="87.252" y2="273.596"/>
<line fill-rule="evenodd" clip-rule="evenodd" fill="none" stroke="#FBDC2A" stroke-width="3.2" stroke-miterlimit="10" x1="371.537" y1="313.463" x2="401.381" y2="380.648"/>
<line fill-rule="evenodd" clip-rule="evenodd" fill="none" stroke="#FBDC2A" stroke-width="3.2" stroke-miterlimit="10" x1="314.855" y1="286.825" x2="371.664" y2="308.822"/>
<line fill-rule="evenodd" clip-rule="evenodd" fill="none" stroke="#FBDC2A" stroke-width="3.2" stroke-miterlimit="10" x1="257.858" y1="252.18" x2="306.002" y2="283.799"/>
<line fill-rule="evenodd" clip-rule="evenodd" fill="none" stroke="#36A46F" stroke-width="3.2" stroke-miterlimit="10" x1="452.686" y1="225.721" x2="376.414" y2="310.039"/>
<line fill-rule="evenodd" clip-rule="evenodd" fill="none" stroke="#E2779B" stroke-width="3.2" stroke-miterlimit="10" x1="312.857" y1="348.487" x2="399.627" y2="385.326"/>
<line fill-rule="evenodd" clip-rule="evenodd" fill="none" stroke="#8F4288" stroke-width="3.2" stroke-miterlimit="10" x1="405.986" y1="385.922" x2="509.758" y2="556.014"/>
<line fill-rule="evenodd" clip-rule="evenodd" fill="none" stroke="#C3B224" stroke-width="3.2" stroke-miterlimit="10" x1="218.686" y1="405.289" x2="195.314" y2="487.8"/>
<line fill-rule="evenodd" clip-rule="evenodd" fill="none" stroke="#4381BA" stroke-width="3.2" stroke-miterlimit="10" x1="263.051" y1="401.785" x2="247.719" y2="509.228"/>
<line fill-rule="evenodd" clip-rule="evenodd" fill="none" stroke="#6C3E0D" stroke-width="3.2" stroke-miterlimit="10" x1="297.788" y1="399.616" x2="402.09" y2="387.057"/>
<line fill-rule="evenodd" clip-rule="evenodd" fill="none" stroke="#8EC3BC" stroke-width="3.2" stroke-miterlimit="10" x1="296.254" y1="356.031" x2="294.081" y2="394.846"/>
<line fill-rule="evenodd" clip-rule="evenodd" fill="none" stroke="#36A46F" stroke-width="3.2" stroke-miterlimit="10" x1="310.281" y1="342.889" x2="368.375" y2="312.97"/>
<line fill-rule="evenodd" clip-rule="evenodd" fill="none" stroke="#4381BA" stroke-width="3.2" stroke-miterlimit="10" x1="140.823" y1="275.361" x2="234.801" y2="328.879"/>
<line fill-rule="evenodd" clip-rule="evenodd" fill="none" stroke="#E2779B" stroke-width="3.2" stroke-miterlimit="10" x1="229.705" y1="356.952" x2="148.599" y2="410.292"/>
<line fill-rule="evenodd" clip-rule="evenodd" fill="none" stroke="#C3B224" stroke-width="3.2" stroke-miterlimit="10" x1="234.89" y1="331.287" x2="220.879" y2="400.636"/>
<line fill-rule="evenodd" clip-rule="evenodd" fill="none" stroke="#6C3E0D" stroke-width="3.2" stroke-miterlimit="10" x1="148.599" y1="410.292" x2="216.311" y2="402.979"/>
<line fill-rule="evenodd" clip-rule="evenodd" fill="none" stroke="#4381BA" stroke-width="3.2" stroke-miterlimit="10" x1="267.274" y1="359.324" x2="261.577" y2="396.192"/>
<line fill-rule="evenodd" clip-rule="evenodd" fill="none" stroke="#8EC3BC" stroke-width="3.2" stroke-miterlimit="10" x1="300.701" y1="327.409" x2="295.098" y2="351.908"/>
<line fill-rule="evenodd" clip-rule="evenodd" fill="none" stroke="#8EC3BC" stroke-width="3.2" stroke-miterlimit="10" x1="300.559" y1="320.63" x2="308.658" y2="289.241"/>
<line fill-rule="evenodd" clip-rule="evenodd" fill="none" stroke="#36A46F" stroke-width="3.2" stroke-miterlimit="10" x1="256.319" y1="312.292" x2="299.417" y2="324.001"/>
<line fill-rule="evenodd" clip-rule="evenodd" fill="none" stroke="#8EC3BC" stroke-width="3.2" stroke-miterlimit="10" x1="311.484" y1="284.625" x2="324.334" y2="246.701"/>
<line fill-rule="evenodd" clip-rule="evenodd" fill="none" stroke="#E68138" stroke-width="3.2" stroke-miterlimit="10" x1="132.002" y1="178.146" x2="139.443" y2="273.023"/>
<line fill-rule="evenodd" clip-rule="evenodd" fill="none" stroke="#C3B224" stroke-width="3.2" stroke-miterlimit="10" x1="262.334" y1="254.569" x2="243.65" y2="308.993"/>
<line fill-rule="evenodd" clip-rule="evenodd" fill="none" stroke="#36A46F" stroke-width="3.2" stroke-miterlimit="10" x1="249.902" y1="357.208" x2="260.756" y2="396.192"/>
<line fill-rule="evenodd" clip-rule="evenodd" fill="none" stroke="#6C3E0D" stroke-width="3.2" stroke-miterlimit="10" x1="259.338" y1="398.313" x2="220.682" y2="402.346"/>
<line fill-rule="evenodd" clip-rule="evenodd" fill="none" stroke="#DDCF87" stroke-width="3.2" stroke-miterlimit="10" x1="197.14" y1="493.301" x2="244.53" y2="510.729"/>
<line fill-rule="evenodd" clip-rule="evenodd" fill="none" stroke="#DDCF87" stroke-width="3.2" stroke-miterlimit="10" x1="146.995" y1="477.566" x2="191.15" y2="488.454"/>
<line fill-rule="evenodd" clip-rule="evenodd" fill="none" stroke="#6C3E0D" stroke-width="3.2" stroke-miterlimit="10" x1="294.238" y1="399.486" x2="263.965" y2="398.529"/>
<line fill-rule="evenodd" clip-rule="evenodd" fill="none" stroke="#36A46F" stroke-width="3.2" stroke-miterlimit="10" x1="297.396" y1="412.237" x2="261.529" y2="400.584"/>
<line fill-rule="evenodd" clip-rule="evenodd" fill="none" stroke="#8FC3BC" stroke-width="3.2" stroke-miterlimit="10" x1="294.634" y1="397.145" x2="295.129" y2="407.521"/>
<line fill-rule="evenodd" clip-rule="evenodd" fill="none" stroke="#36A46F" stroke-width="3.2" stroke-miterlimit="10" x1="252.586" y1="335.157" x2="250.549" y2="354.167"/>
<line fill-rule="evenodd" clip-rule="evenodd" fill="none" stroke="#36A46F" stroke-width="3.2" stroke-miterlimit="10" x1="255.412" y1="313.704" x2="253.374" y2="332.714"/>
<line fill-rule="evenodd" clip-rule="evenodd" fill="none" stroke="#C3B224" stroke-width="3.2" stroke-miterlimit="10" x1="241.187" y1="311.806" x2="233.83" y2="329.453"/>
<line fill-rule="evenodd" clip-rule="evenodd" fill="none" stroke="#4381BA" stroke-width="3.2" stroke-miterlimit="10" x1="251.634" y1="332.002" x2="270.253" y2="354.165"/>
<line fill-rule="evenodd" clip-rule="evenodd" fill="none" stroke="#36A46F" stroke-width="3.2" stroke-miterlimit="10" x1="216.262" y1="306.345" x2="242.319" y2="309.701"/>
<line fill-rule="evenodd" clip-rule="evenodd" fill="none" stroke="#36A46F" stroke-width="3.2" stroke-miterlimit="10" x1="244.872" y1="311.528" x2="252.288" y2="312.481"/>
<line fill-rule="evenodd" clip-rule="evenodd" fill="none" stroke="#E2779B" stroke-width="3.2" stroke-miterlimit="10" x1="271.257" y1="355.761" x2="295.098" y2="351.908"/>
<line fill-rule="evenodd" clip-rule="evenodd" fill="none" stroke="#E2779B" stroke-width="3.2" stroke-miterlimit="10" x1="298.458" y1="352.747" x2="310.598" y2="348.893"/>
<line fill-rule="evenodd" clip-rule="evenodd" fill="none" stroke="#36A46F" stroke-width="3.2" stroke-miterlimit="10" x1="302.482" y1="326.896" x2="314.9" y2="347.477"/>
<line fill-rule="evenodd" clip-rule="evenodd" fill="none" stroke="#4381BA" stroke-width="3.2" stroke-miterlimit="10" x1="239.561" y1="329.532" x2="249.722" y2="332.422"/>
<line fill-rule="evenodd" clip-rule="evenodd" fill="none" stroke="#DDCF87" stroke-width="3.2" stroke-miterlimit="10" x1="331.346" y1="527.261" x2="483.549" y2="652.112"/>
<line fill-rule="evenodd" clip-rule="evenodd" fill="none" stroke="#36A46F" stroke-width="3.2" stroke-miterlimit="10" x1="297.396" y1="412.751" x2="330.811" y2="522.91"/>
<g>
	<g>
		<path fill-rule="evenodd" clip-rule="evenodd" fill="#010101" d="M140.138,517.183c-0.331,0-0.663,0-0.993,0
			c-0.343-0.061-0.693-0.098-1.027-0.188c-2.481-0.676-4.065-2.258-4.74-4.739c-0.091-0.336-0.128-0.686-0.19-1.028
			c0-0.331,0-0.662,0-0.993c0.022-0.13,0.047-0.261,0.066-0.393c0.354-2.572,2.221-4.688,4.734-5.342
			c0.379-0.1,0.771-0.15,1.157-0.223c0.331,0,0.662,0,0.993,0c0.349,0.064,0.705,0.101,1.045,0.194
			c2.471,0.682,4.051,2.261,4.722,4.736c0.09,0.334,0.128,0.684,0.189,1.026c0,0.331,0,0.662,0,0.993
			c-0.021,0.13-0.049,0.261-0.065,0.393c-0.336,2.546-2.225,4.691-4.716,5.338C140.928,517.057,140.53,517.108,140.138,517.183z
			 M139.646,516.001c2.898-0.003,5.275-2.384,5.268-5.275c-0.008-2.906-2.383-5.276-5.275-5.267
			c-2.906,0.008-5.271,2.377-5.267,5.274C134.374,513.633,136.748,516.004,139.646,516.001z"/>
		<path fill-rule="evenodd" clip-rule="evenodd" fill="#FFFFFF" d="M139.646,516.001c-2.898,0.003-5.272-2.368-5.275-5.268
			c-0.003-2.897,2.361-5.267,5.267-5.274c2.893-0.01,5.267,2.36,5.275,5.267C144.921,513.617,142.544,515.998,139.646,516.001z"/>
	</g>
	<g>
		<text transform="matrix(1 0 0 1 136.7554 514.2969)" fill="#010101" font-family="'DejaVuSans'" font-size="9.6">b</text>
	</g>
</g>
<g>
	<g>
		<path fill-rule="evenodd" clip-rule="evenodd" fill="#010101" d="M175.665,606.644c-0.331,0-0.663,0-0.993,0
			c-0.343-0.061-0.693-0.098-1.027-0.188c-2.481-0.676-4.066-2.259-4.74-4.739c-0.091-0.336-0.128-0.686-0.189-1.028
			c0-0.331,0-0.662,0-0.993c0.021-0.13,0.047-0.261,0.065-0.393c0.354-2.573,2.222-4.688,4.734-5.342
			c0.379-0.1,0.771-0.15,1.157-0.223c0.331,0,0.662,0,0.993,0c0.349,0.063,0.705,0.101,1.045,0.194
			c2.471,0.681,4.052,2.261,4.722,4.736c0.09,0.334,0.128,0.684,0.189,1.026c0,0.331,0,0.662,0,0.993
			c-0.022,0.13-0.049,0.261-0.066,0.393c-0.336,2.546-2.225,4.691-4.716,5.338C176.456,606.518,176.057,606.569,175.665,606.644z
			 M175.173,605.462c2.898-0.003,5.275-2.383,5.267-5.275c-0.008-2.906-2.383-5.275-5.275-5.267
			c-2.906,0.008-5.271,2.377-5.267,5.274C169.901,603.094,172.274,605.465,175.173,605.462z"/>
		<path fill-rule="evenodd" clip-rule="evenodd" fill="#FFFFFF" d="M175.173,605.462c-2.899,0.003-5.272-2.368-5.275-5.268
			c-0.003-2.897,2.361-5.267,5.267-5.274c2.893-0.009,5.267,2.36,5.275,5.267C180.448,603.079,178.071,605.46,175.173,605.462z"/>
	</g>
	<g>
		<text transform="matrix(1 0 0 1 170.6826 602.958)" fill="#010101" font-family="'DejaVuSans'" font-size="9.6">a</text>
	</g>
</g>
<g>
	<g>
		<path fill-rule="evenodd" clip-rule="evenodd" fill="#010101" d="M245.933,518.134c-0.331,0-0.663,0-0.993,0
			c-0.343-0.062-0.693-0.097-1.027-0.189c-2.482-0.675-4.066-2.257-4.74-4.738c-0.091-0.336-0.128-0.686-0.19-1.028
			c0-0.331,0-0.661,0-0.993c0.022-0.13,0.047-0.26,0.066-0.392c0.353-2.573,2.221-4.688,4.734-5.344
			c0.379-0.099,0.771-0.148,1.157-0.221c0.331,0,0.662,0,0.993,0c0.349,0.063,0.705,0.101,1.045,0.193
			c2.471,0.682,4.052,2.261,4.722,4.735c0.09,0.335,0.128,0.685,0.189,1.027c0,0.332,0,0.662,0,0.993
			c-0.022,0.131-0.049,0.261-0.066,0.392c-0.336,2.547-2.225,4.692-4.716,5.339C246.723,518.009,246.325,518.061,245.933,518.134z
			 M245.441,516.953c2.898-0.004,5.275-2.384,5.267-5.275c-0.008-2.906-2.383-5.276-5.275-5.267
			c-2.906,0.008-5.271,2.377-5.267,5.274C240.169,514.585,242.542,516.956,245.441,516.953z"/>
		<path fill-rule="evenodd" clip-rule="evenodd" fill="#FFFFFF" d="M245.441,516.953c-2.899,0.003-5.272-2.368-5.275-5.268
			c-0.004-2.897,2.361-5.267,5.267-5.274c2.893-0.01,5.267,2.36,5.275,5.267C250.716,514.568,248.339,516.949,245.441,516.953z"/>
	</g>
	<g>
		<text transform="matrix(1 0 0 1 242.5513 515.248)" fill="#010101" font-family="'DejaVuSans'" font-size="9.6">R</text>
	</g>
</g>
<g>
	<g>
		<path fill-rule="evenodd" clip-rule="evenodd" fill="#010101" d="M510.256,561.314c-0.332,0-0.662,0-0.994,0
			c-0.342-0.061-0.691-0.098-1.027-0.188c-2.48-0.675-4.064-2.257-4.738-4.739c-0.092-0.336-0.129-0.685-0.189-1.028
			c0-0.331,0-0.662,0-0.993c0.021-0.13,0.047-0.261,0.064-0.393c0.354-2.572,2.223-4.687,4.734-5.342
			c0.379-0.1,0.771-0.15,1.156-0.223c0.332,0,0.662,0,0.994,0c0.35,0.064,0.705,0.101,1.045,0.194
			c2.471,0.683,4.051,2.261,4.721,4.736c0.092,0.334,0.129,0.684,0.189,1.026c0,0.331,0,0.662,0,0.993
			c-0.021,0.13-0.049,0.262-0.064,0.393c-0.336,2.546-2.225,4.691-4.717,5.338C511.047,561.188,510.646,561.24,510.256,561.314z
			 M509.762,560.133c2.9-0.003,5.277-2.383,5.268-5.275c-0.008-2.905-2.383-5.275-5.275-5.267c-2.904,0.008-5.271,2.377-5.268,5.274
			C504.49,557.765,506.863,560.136,509.762,560.133z"/>
		<path fill-rule="evenodd" clip-rule="evenodd" fill="#FFFFFF" d="M509.762,560.133c-2.898,0.003-5.271-2.368-5.275-5.268
			c-0.004-2.897,2.363-5.267,5.268-5.274c2.893-0.009,5.268,2.361,5.275,5.267C515.039,557.75,512.662,560.13,509.762,560.133z"/>
	</g>
	<g>
		<text transform="matrix(1 0 0 1 506.873 558.4287)" fill="#010101" font-family="'DejaVuSans'" font-size="9.6">l</text>
	</g>
</g>
<g>
	<g>
		<path fill-rule="evenodd" clip-rule="evenodd" fill="#010101" d="M403.203,391.779c-0.332,0-0.662,0-0.994,0
			c-0.344-0.061-0.691-0.098-1.027-0.189c-2.482-0.675-4.064-2.257-4.74-4.739c-0.09-0.336-0.127-0.685-0.188-1.028
			c0-0.331,0-0.662,0-0.993c0.02-0.13,0.047-0.261,0.064-0.393c0.354-2.572,2.221-4.687,4.734-5.342
			c0.379-0.099,0.77-0.15,1.156-0.222c0.332,0,0.662,0,0.994,0c0.348,0.064,0.703,0.1,1.045,0.194
			c2.471,0.682,4.051,2.261,4.721,4.736c0.09,0.334,0.129,0.684,0.189,1.027c0,0.331,0,0.662,0,0.993
			c-0.021,0.13-0.049,0.261-0.066,0.392c-0.336,2.546-2.225,4.692-4.715,5.338C403.992,391.653,403.594,391.705,403.203,391.779z
			 M402.711,390.597c2.896-0.003,5.273-2.383,5.266-5.275c-0.008-2.906-2.383-5.276-5.275-5.267
			c-2.904,0.008-5.271,2.377-5.268,5.275C397.438,388.229,399.811,390.6,402.711,390.597z"/>
		<path fill-rule="evenodd" clip-rule="evenodd" fill="#FFFFFF" d="M402.711,390.597c-2.9,0.003-5.273-2.368-5.277-5.267
			c-0.004-2.898,2.363-5.267,5.268-5.275c2.893-0.009,5.268,2.361,5.275,5.267C407.984,388.214,405.607,390.594,402.711,390.597z"/>
	</g>
	<g>
		<text transform="matrix(1 0 0 1 399.0195 388.8926)" fill="#010101" font-family="'DejaVuSans'" font-size="9.6">w</text>
	</g>
</g>
<g>
	<g>
		<path fill-rule="evenodd" clip-rule="evenodd" fill="#010101" d="M115.466,425.677c-0.331,0-0.662,0-0.993,0
			c-0.343-0.062-0.693-0.098-1.027-0.189c-2.482-0.675-4.066-2.258-4.74-4.738c-0.091-0.336-0.128-0.686-0.189-1.028
			c0-0.332,0-0.662,0-0.993c0.021-0.131,0.047-0.261,0.065-0.393c0.354-2.573,2.222-4.687,4.734-5.342
			c0.379-0.1,0.771-0.15,1.157-0.222c0.332,0,0.662,0,0.993,0c0.349,0.063,0.705,0.1,1.046,0.194c2.47,0.681,4.051,2.26,4.722,4.736
			c0.09,0.334,0.128,0.684,0.188,1.027c0,0.331,0,0.661,0,0.993c-0.021,0.13-0.049,0.26-0.065,0.392
			c-0.336,2.546-2.225,4.692-4.716,5.339C116.257,425.55,115.858,425.603,115.466,425.677z M114.975,424.495
			c2.898-0.004,5.275-2.384,5.267-5.275c-0.008-2.907-2.383-5.276-5.275-5.267c-2.905,0.008-5.27,2.376-5.267,5.275
			C109.703,422.127,112.076,424.497,114.975,424.495z"/>
		<path fill-rule="evenodd" clip-rule="evenodd" fill="#FFFFFF" d="M114.975,424.495c-2.898,0.002-5.272-2.368-5.275-5.268
			c-0.003-2.899,2.362-5.267,5.267-5.275c2.893-0.009,5.268,2.36,5.275,5.267C120.25,422.11,117.873,424.491,114.975,424.495z"/>
	</g>
	<g>
		<text transform="matrix(1 0 0 1 111.2842 421.1895)" fill="#010101" font-family="'DejaVuSans'" font-size="9.6">g</text>
	</g>
</g>
<g>
	<g>
		<path fill-rule="evenodd" clip-rule="evenodd" fill="#010101" d="M85.466,280.049c-0.331,0-0.662,0-0.993,0
			c-0.343-0.06-0.693-0.097-1.027-0.188c-2.482-0.676-4.066-2.258-4.74-4.74c-0.091-0.336-0.128-0.684-0.189-1.028
			c0-0.331,0-0.661,0-0.992c0.021-0.131,0.047-0.261,0.065-0.393c0.354-2.573,2.222-4.687,4.734-5.343
			c0.379-0.099,0.771-0.149,1.157-0.221c0.332,0,0.662,0,0.993,0c0.349,0.063,0.705,0.1,1.046,0.193
			c2.47,0.682,4.051,2.261,4.722,4.736c0.09,0.335,0.128,0.684,0.188,1.028c0,0.331,0,0.661,0,0.992
			c-0.021,0.131-0.049,0.261-0.065,0.392c-0.336,2.547-2.225,4.692-4.716,5.339C86.257,279.924,85.858,279.976,85.466,280.049z
			 M84.975,278.868c2.898-0.003,5.275-2.383,5.267-5.275c-0.008-2.907-2.383-5.276-5.275-5.268c-2.905,0.008-5.27,2.377-5.267,5.276
			C79.703,276.5,82.076,278.87,84.975,278.868z"/>
		<path fill-rule="evenodd" clip-rule="evenodd" fill="#FFFFFF" d="M84.975,278.868c-2.898,0.002-5.272-2.368-5.275-5.267
			c-0.003-2.899,2.362-5.268,5.267-5.276c2.893-0.008,5.268,2.361,5.275,5.268C90.25,276.485,87.873,278.865,84.975,278.868z"/>
	</g>
	<g>
		<text transform="matrix(1 0 0 1 82.0845 275.5625)" fill="#010101" font-family="'DejaVuSans'" font-size="9.6">e</text>
	</g>
</g>
<g>
	<g>
		<path fill-rule="evenodd" clip-rule="evenodd" fill="#010101" d="M138.416,283.565c-0.332,0-0.662,0-0.993,0
			c-0.343-0.061-0.692-0.097-1.027-0.189c-2.482-0.675-4.066-2.257-4.74-4.739c-0.091-0.336-0.128-0.685-0.189-1.028
			c0-0.331,0-0.661,0-0.993c0.021-0.13,0.047-0.26,0.065-0.392c0.354-2.573,2.222-4.688,4.734-5.343
			c0.379-0.099,0.771-0.149,1.157-0.221c0.332,0,0.662,0,0.993,0c0.35,0.063,0.705,0.1,1.045,0.193
			c2.47,0.682,4.051,2.261,4.722,4.736c0.09,0.335,0.128,0.684,0.189,1.027c0,0.332,0,0.662,0,0.993
			c-0.022,0.131-0.049,0.261-0.066,0.392c-0.336,2.547-2.225,4.692-4.716,5.339C139.207,283.44,138.807,283.493,138.416,283.565z
			 M137.923,282.385c2.898-0.003,5.275-2.383,5.267-5.275c-0.008-2.906-2.383-5.276-5.276-5.267
			c-2.905,0.008-5.27,2.377-5.267,5.275C132.651,280.017,135.025,282.388,137.923,282.385z"/>
		<path fill-rule="evenodd" clip-rule="evenodd" fill="#FFFFFF" d="M137.923,282.385c-2.898,0.003-5.272-2.368-5.275-5.267
			c-0.003-2.898,2.362-5.267,5.267-5.275c2.893-0.009,5.268,2.361,5.276,5.267C143.199,280,140.822,282.382,137.923,282.385z"/>
	</g>
	<g>
		<text transform="matrix(1 0 0 1 135.0332 280.6807)" fill="#010101" font-family="'DejaVuSans'" font-size="9.6">E</text>
	</g>
</g>
<path fill-rule="evenodd" clip-rule="evenodd" fill="#E68138" d="M101.67,511.893c-0.025-2.896,3.13-5.351,6.898-5.368
	c3.722-0.018,6.842,2.463,6.794,5.403c-0.045,2.796-2.97,5.064-6.633,5.147C104.916,517.158,101.695,514.795,101.67,511.893z
	 M112.188,508.482c-1.793-0.086-2.799-0.231-3.779-0.157c-1.035,0.08-2.826-0.517-2.914,0.625c-0.091,1.192,1.817,0.511,2.757,0.839
	c0.334,0.115,0.506,0.215,0.21,1.023c-0.411,1-1.801,2.38-1.775,4.111c0.005,0.358,0.209,0.611,0.667,0.728
	c0.525,0.135,0.921-0.109,0.998-0.409C108.929,512.96,110.421,510.952,112.188,508.482z"/>
<path fill-rule="evenodd" clip-rule="evenodd" fill="#DDCF87" d="M498.979,652.816c-0.053-3.361,2.393-4.46,4.977-4.919
	c2.713-0.48,5.543-0.41,6.822,2.888c-1.412-0.289-2.842-0.86-4.227-0.019c-0.357,0.217-0.688,0.695-0.762,1.103
	c-0.113,0.591,0.459,0.675,0.92,0.795c2.412,0.629,2.396,0.623,1.063,2.339c-1.004,1.293-2.922,2.11-2.432,4.252
	c1.564,0.578,3.025,0.418,4.459,0.26c0.723-0.078,1.266-0.916,0.666-1.31c-1.465-0.96-1.395-1.712-0.301-2.896
	c1.236-1.344,0.926-2.999,0.535-4.604c2.396,2.425,2.926,4.831,1.664,7.579c-1.41,3.079-4.48,4.792-7.869,4.397
	c-3.215-0.376-5.818-2.603-6.402-5.69c-0.279-1.485-0.863-3.174,0.934-4.266c3.021,1.169,1.221,4.825,3.506,7.161
	c1.143-3.466,0.861-6.27,0.393-9.148C500.859,650.605,500.158,652.134,498.979,652.816z"/>
<path fill-rule="evenodd" clip-rule="evenodd" fill="#F6F3EF" d="M510.697,650.706c0.393,1.604,0.703,3.26-0.533,4.603
	c-1.094,1.186-1.164,1.938,0.301,2.896c0.6,0.394,0.057,1.231-0.666,1.311c-1.434,0.157-2.895,0.317-4.459-0.26
	c-0.49-2.142,1.428-2.96,2.432-4.253c1.334-1.716,1.348-1.71-1.063-2.339c-0.461-0.12-1.033-0.204-0.92-0.794
	c0.074-0.408,0.404-0.886,0.76-1.103c1.387-0.843,2.816-0.271,4.229,0.018L510.697,650.706z"/>
<path fill-rule="evenodd" clip-rule="evenodd" fill="#F6F3EF" d="M498.979,652.816c1.18-0.683,1.881-2.211,3.945-2.078
	c0.469,2.88,0.748,5.683-0.395,9.148c-2.283-2.335-0.484-5.992-3.504-7.16C499.025,652.729,498.979,652.816,498.979,652.816z"/>
<path fill-rule="evenodd" clip-rule="evenodd" fill="#E2779B" d="M99.851,411.054c3.514-0.095,6.949,3.142,6.997,6.596
	c0.054,3.716-2.899,6.683-6.707,6.733c-3.628,0.05-6.478-2.646-6.608-6.255C93.395,414.297,96.205,411.151,99.851,411.054z
	 M97.101,415.961c2.229,0.678,2.755,2.18,2.503,4.103c-0.072,0.543-0.022,1.154,0.167,1.66c0.116,0.309,0.582,0.613,0.933,0.674
	c0.386,0.068,0.909-0.166,0.94-0.631c0.212-2.988,0.678-6.001-0.417-9.092C99.523,413.445,98.557,414.637,97.101,415.961z"/>
<path fill-rule="evenodd" clip-rule="evenodd" fill="#6C3E0D" d="M444.293,369.24c1.078,0.154,2.174,0.242,3.23,0.475
	c2.926,0.643,5.045,3.14,5.057,5.867c0.014,2.716-2.178,5.274-5.033,5.885c-3.096,0.661-5.969-0.472-7.453-2.94
	c-1.453-2.413-0.969-5.515,1.268-7.376c0.887-0.741,1.961-1.291,2.949-1.926C444.311,369.225,444.293,369.24,444.293,369.24z
	 M446.582,377.596c-0.23,0.892-0.951,0.767-1.613,0.647c-0.641-0.117-1.467-0.531-1.648,0.36c-0.127,0.628,0.477,1.135,1.234,1.313
	c1.813,0.428,3.383-0.235,3.998-1.844c0.611-1.602,0.629-3.254,0.074-4.894c-0.473-1.4-1.527-2.085-3.098-2.038
	c-1.588,0.049-2.633,0.819-2.857,2.27c-0.232,1.493,0.127,2.787,1.91,3.391C445.254,377.03,446.326,376.46,446.582,377.596z"/>
<path fill-rule="evenodd" clip-rule="evenodd" fill="#8FC3BC" d="M311.793,412.277c-2.797-0.073-5.064-2.392-5.078-5.194
	c-0.018-2.944,2.35-5.269,5.342-5.248c3.066,0.022,5.254,2.277,5.189,5.35C317.184,410.213,314.887,412.356,311.793,412.277z
	 M314.488,408.409c-0.678-0.989-0.549-2.145-0.584-3.278c-0.021-0.654,0.146-1.481-0.654-1.758c-0.949-0.328-1.359,0.5-1.816,1.13
	c-0.197,0.274-0.363,0.572-0.539,0.863c-0.627,1.042-1.748,1.938-1.447,3.307c0.283,1.292,1.861,0.376,2.492,1.258
	c0.402,0.56,0.898,1.21,1.592,0.582C314.086,410.009,314.523,409.299,314.488,408.409z"/>
<path fill-rule="evenodd" clip-rule="evenodd" fill="#36A46F" d="M463.934,220.006c5.152-1.907,8.189-0.188,8.969,5.077
	c-0.771,0.09-1.545,0.179-2.314,0.27c-0.168-0.167-0.469-0.322-0.484-0.5c-0.326-4.051-0.32-4.053-4.389-4.136
	c-0.611-0.012-1.219-0.015-1.83-0.022l0.051,0.052C463.896,220.5,463.896,220.253,463.934,220.006z"/>
<path fill-rule="evenodd" clip-rule="evenodd" fill="#D3CFD1" d="M470.586,225.353c0.771-0.09,1.545-0.18,2.316-0.27
	c-0.49,3.881-1.979,5.661-5.293,6.03c-1.629,0.182-3.307,0.078-3.678-2.107c0,0-0.033,0.031-0.033,0.031
	c1.104,0.021,2.209,0.083,3.314,0.053C470.342,229.006,470.521,228.792,470.586,225.353z"/>
<path fill-rule="evenodd" clip-rule="evenodd" fill="#D3CFD1" d="M463.932,229.005c-2.479-0.909-2.85-1.534-2.691-4.534
	c1.498,1.582,1.941,0.163,2.514-0.885c0.049,1.817,0.096,3.633,0.145,5.45L463.932,229.005z"/>
<path fill-rule="evenodd" clip-rule="evenodd" fill="#36A46F" d="M463.754,223.587c-0.572,1.047-1.016,2.466-2.514,0.885
	c0.127-1.527,0.646-2.856,1.928-3.798c0.256,0.024,0.512,0.049,0.768,0.073l-0.051-0.052
	C463.842,221.659,463.799,222.623,463.754,223.587z"/>
<path fill-rule="evenodd" clip-rule="evenodd" fill="#D3CFD1" d="M467.127,228.155c-1.002,0.014-1.662-0.352-1.619-1.477
	c0.035-0.912,0.594-1.284,1.43-1.287c0.912-0.002,1.818,0.25,1.896,1.285C468.916,227.746,468.033,228.045,467.127,228.155z"/>
<path fill-rule="evenodd" clip-rule="evenodd" fill="#36A46F" d="M467.012,222.208c0.732,0.028,1.439,0.177,1.381,0.945
	c-0.068,0.915-0.887,1.054-1.656,1.062c-0.689,0.008-1.27-0.299-1.26-1.026C465.484,222.115,466.373,222.241,467.012,222.208z"/>
<line fill-rule="evenodd" clip-rule="evenodd" fill="none" stroke="#D3CFD1" stroke-width="1.6" stroke-miterlimit="10" x1="213.375" y1="307.144" x2="239.434" y2="310.5"/>
<g>
	<g>
		<path fill-rule="evenodd" clip-rule="evenodd" fill="#010101" d="M212.306,310.883c-0.331,0-0.662,0-0.992,0
			c-0.344-0.061-0.693-0.098-1.028-0.189c-2.481-0.675-4.065-2.257-4.74-4.739c-0.091-0.336-0.128-0.685-0.189-1.028
			c0-0.331,0-0.662,0-0.993c0.021-0.13,0.047-0.261,0.065-0.393c0.354-2.572,2.222-4.687,4.735-5.342
			c0.379-0.099,0.771-0.15,1.157-0.222c0.331,0,0.661,0,0.992,0c0.349,0.064,0.705,0.1,1.046,0.194
			c2.47,0.682,4.051,2.261,4.722,4.736c0.09,0.334,0.128,0.684,0.188,1.027c0,0.331,0,0.662,0,0.993
			c-0.021,0.13-0.048,0.261-0.065,0.392c-0.336,2.546-2.225,4.692-4.716,5.338C213.097,310.757,212.698,310.809,212.306,310.883z
			 M211.814,309.702c2.899-0.003,5.276-2.383,5.268-5.275c-0.008-2.906-2.384-5.276-5.276-5.267
			c-2.905,0.008-5.27,2.377-5.267,5.275C206.542,307.333,208.916,309.705,211.814,309.702z"/>
		<path fill-rule="evenodd" clip-rule="evenodd" fill="#FFFFFF" d="M211.814,309.702c-2.898,0.003-5.272-2.368-5.275-5.267
			c-0.003-2.898,2.362-5.267,5.267-5.275c2.893-0.009,5.268,2.361,5.276,5.267C217.09,307.318,214.713,309.699,211.814,309.702z"/>
	</g>
	<g>
		<text transform="matrix(1 0 0 1 208.9243 307.9966)" fill="#010101" font-family="'DejaVuSans'" font-size="9.6">d</text>
	</g>
</g>
<line fill-rule="evenodd" clip-rule="evenodd" fill="none" stroke="#D3CFD1" stroke-width="1.6" stroke-miterlimit="10" x1="244.829" y1="312.826" x2="255.412" y2="314.504"/>
<line fill-rule="evenodd" clip-rule="evenodd" fill="none" stroke="#D3CFD1" stroke-width="1.6" stroke-miterlimit="10" x1="255.782" y1="314.477" x2="296.254" y2="324.261"/>
<line fill-rule="evenodd" clip-rule="evenodd" fill="none" stroke="#D3CFD1" stroke-width="1.6" stroke-miterlimit="10" x1="302.574" y1="328.912" x2="312.002" y2="348.487"/>
<line fill-rule="evenodd" clip-rule="evenodd" fill="none" stroke="#D3CFD1" stroke-width="1.6" stroke-miterlimit="10" x1="312.857" y1="343.083" x2="370.207" y2="314.502"/>
<line fill-rule="evenodd" clip-rule="evenodd" fill="none" stroke="#D3CFD1" stroke-width="1.6" stroke-miterlimit="10" x1="376.809" y1="312.001" x2="452.688" y2="227.525"/>
<g>
	<g>
		<path fill-rule="evenodd" clip-rule="evenodd" fill="#010101" d="M453.184,230.413c-0.332,0-0.662,0-0.994,0
			c-0.342-0.061-0.691-0.098-1.025-0.189c-2.482-0.675-4.066-2.258-4.74-4.739c-0.09-0.336-0.129-0.685-0.189-1.028
			c0-0.332,0-0.662,0-0.993c0.021-0.131,0.047-0.261,0.064-0.393c0.354-2.573,2.223-4.687,4.734-5.342
			c0.381-0.1,0.771-0.15,1.156-0.222c0.332,0,0.662,0,0.994,0c0.35,0.063,0.705,0.1,1.045,0.194c2.471,0.681,4.051,2.26,4.721,4.736
			c0.092,0.334,0.129,0.684,0.189,1.027c0,0.331,0,0.661,0,0.993c-0.02,0.13-0.049,0.26-0.064,0.392
			c-0.336,2.546-2.225,4.692-4.717,5.338C453.975,230.287,453.574,230.339,453.184,230.413z M452.689,229.23
			c2.9-0.003,5.277-2.383,5.27-5.275c-0.01-2.907-2.385-5.276-5.277-5.267c-2.904,0.008-5.27,2.376-5.268,5.275
			C447.418,226.863,449.793,229.232,452.689,229.23z"/>
		<path fill-rule="evenodd" clip-rule="evenodd" fill="#FFFFFF" d="M452.689,229.23c-2.896,0.002-5.271-2.368-5.275-5.267
			c-0.002-2.899,2.363-5.267,5.268-5.275c2.893-0.009,5.268,2.36,5.277,5.267C457.967,226.848,455.59,229.228,452.689,229.23z"/>
	</g>
	<g>
		<text transform="matrix(1 0 0 1 449.8008 227.5269)" fill="#010101" font-family="'DejaVuSans'" font-size="9.6">k</text>
	</g>
</g>
<path fill-rule="evenodd" clip-rule="evenodd" fill="#FBDC2A" d="M420.742,375.468c-0.029,3.24-2.941,5.562-6.873,5.478
	c-3.863-0.081-6.854-2.62-6.715-5.698c0.135-2.915,3.197-5.318,6.777-5.319C417.881,369.928,420.771,372.28,420.742,375.468z
	 M416.891,371.948c-1.365-0.604-2.715-0.559-3.928-0.286c-1.748,0.393-1.617,1.794-1.734,2.878
	c-0.164,1.534,1.287,1.104,2.398,1.078c1.291-0.029,1.895,0.562,1.584,1.544c-0.273,0.873-1.109,0.935-2.025,0.576
	c-0.26-0.102-0.49-0.28-0.762-0.325c-0.42-0.071-0.959-0.046-1.09,0.315c-0.098,0.27,0.027,0.694,0.256,0.92
	c0.947,0.945,2.275,0.917,3.566,0.675c1.465-0.274,1.998-1.162,2.178-2.302c0.322-2.051-1.533-2.784-3.398-3.436
	C414.725,372.605,416.455,373.47,416.891,371.948z"/>
<line fill-rule="evenodd" clip-rule="evenodd" fill="none" stroke="#DB604F" stroke-width="3.2" stroke-miterlimit="10" x1="117.822" y1="194.254" x2="288.542" y2="225.387"/>
<line fill-rule="evenodd" clip-rule="evenodd" fill="none" stroke="#DB604F" stroke-width="3.2" stroke-miterlimit="10" x1="284.725" y1="225.213" x2="320.695" y2="262.077"/>
<g>
	<g>
		<path fill-rule="evenodd" clip-rule="evenodd" fill="#010101" d="M132.499,201.889c-0.331,0-0.663,0-0.993,0
			c-0.343-0.06-0.693-0.097-1.027-0.188c-2.481-0.676-4.065-2.258-4.74-4.74c-0.091-0.336-0.128-0.684-0.19-1.028
			c0-0.331,0-0.661,0-0.992c0.021-0.131,0.047-0.261,0.066-0.393c0.354-2.573,2.221-4.687,4.734-5.343
			c0.379-0.099,0.771-0.149,1.157-0.221c0.331,0,0.662,0,0.993,0c0.349,0.063,0.705,0.1,1.045,0.193
			c2.471,0.682,4.051,2.261,4.722,4.736c0.09,0.335,0.128,0.684,0.189,1.028c0,0.331,0,0.661,0,0.992
			c-0.021,0.131-0.049,0.261-0.065,0.392c-0.336,2.547-2.225,4.692-4.716,5.339C133.29,201.764,132.891,201.815,132.499,201.889z
			 M132.006,200.708c2.898-0.004,5.275-2.384,5.268-5.276c-0.008-2.906-2.383-5.276-5.275-5.267
			c-2.906,0.008-5.271,2.377-5.267,5.275C126.734,198.341,129.108,200.709,132.006,200.708z"/>
		<path fill-rule="evenodd" clip-rule="evenodd" fill="#FFFFFF" d="M132.006,200.708c-2.898,0.002-5.272-2.368-5.275-5.268
			c-0.003-2.898,2.361-5.267,5.267-5.275c2.893-0.009,5.267,2.361,5.275,5.267C137.282,198.325,134.905,200.705,132.006,200.708z"/>
	</g>
</g>
<line fill-rule="evenodd" clip-rule="evenodd" fill="none" stroke="#FBDC2A" stroke-width="3.2" stroke-miterlimit="10" x1="240.01" y1="188.943" x2="262.334" y2="254.569"/>
<g>
	<g>
		<path fill-rule="evenodd" clip-rule="evenodd" fill="#010101" d="M240.507,195.396c-0.331,0-0.662,0-0.993,0
			c-0.343-0.061-0.692-0.098-1.027-0.189c-2.481-0.675-4.065-2.258-4.74-4.739c-0.091-0.336-0.128-0.685-0.189-1.028
			c0-0.331,0-0.662,0-0.993c0.021-0.13,0.047-0.261,0.065-0.393c0.354-2.573,2.222-4.687,4.735-5.342
			c0.379-0.099,0.771-0.15,1.156-0.222c0.332,0,0.662,0,0.993,0c0.349,0.063,0.705,0.1,1.046,0.194
			c2.47,0.681,4.051,2.261,4.721,4.736c0.091,0.334,0.128,0.684,0.189,1.027c0,0.331,0,0.662,0,0.993
			c-0.021,0.13-0.049,0.261-0.065,0.392c-0.336,2.546-2.225,4.692-4.716,5.338C241.298,195.27,240.899,195.323,240.507,195.396z
			 M240.015,194.215c2.899-0.003,5.275-2.383,5.267-5.275c-0.008-2.907-2.383-5.276-5.275-5.267
			c-2.905,0.008-5.27,2.376-5.267,5.275C234.742,191.847,237.117,194.217,240.015,194.215z"/>
		<path fill-rule="evenodd" clip-rule="evenodd" fill="#FFFFFF" d="M240.015,194.215c-2.898,0.002-5.272-2.368-5.275-5.267
			s2.362-5.267,5.267-5.275c2.893-0.009,5.267,2.36,5.275,5.267C245.29,191.831,242.914,194.212,240.015,194.215z"/>
	</g>
</g>
<g>
	<g>
		<path fill-rule="evenodd" clip-rule="evenodd" fill="#010101" d="M303.206,213.613c-0.331,0-0.662,0-0.991,0
			c-0.345-0.06-0.693-0.097-1.029-0.188c-2.48-0.676-4.064-2.258-4.739-4.74c-0.091-0.336-0.128-0.684-0.189-1.028
			c0-0.331,0-0.661,0-0.992c0.021-0.131,0.047-0.261,0.065-0.393c0.354-2.573,2.222-4.687,4.734-5.343
			c0.379-0.099,0.771-0.149,1.158-0.221c0.33,0,0.66,0,0.991,0c0.349,0.063,0.705,0.1,1.046,0.193
			c2.471,0.682,4.053,2.261,4.723,4.736c0.09,0.335,0.127,0.684,0.189,1.028c0,0.331,0,0.661,0,0.992
			c-0.021,0.131-0.051,0.261-0.066,0.392c-0.336,2.547-2.225,4.692-4.715,5.339C303.998,213.488,303.598,213.54,303.206,213.613z
			 M302.715,212.432c2.899-0.003,5.275-2.383,5.268-5.275c-0.008-2.907-2.385-5.276-5.276-5.268
			c-2.905,0.008-5.271,2.377-5.268,5.276C297.442,210.063,299.816,212.434,302.715,212.432z"/>
		<path fill-rule="evenodd" clip-rule="evenodd" fill="#FFFFFF" d="M302.715,212.432c-2.898,0.002-5.272-2.368-5.276-5.267
			c-0.003-2.899,2.362-5.268,5.267-5.276c2.894-0.008,5.269,2.361,5.276,5.268C307.99,210.049,305.614,212.429,302.715,212.432z"/>
	</g>
</g>
<path fill-rule="evenodd" clip-rule="evenodd" fill="#DB604F" d="M108.551,199.576c-3.27,0.013-5.801-2.491-5.818-5.755
	c-0.017-3.229,2.549-5.868,5.742-5.903c3.154-0.035,5.808,2.619,5.827,5.828C114.321,197.012,111.805,199.563,108.551,199.576z
	 M105.836,194.382c0.05,0.319,0.057,1.203,0.343,1.985c0.538,1.469,2.236,2.104,3.625,1.488c1.503-0.668,1.851-2.632,0.871-4.414
	c-0.266-0.483-1.52-0.379-0.76-1.552c0.901-1.395,0.407-2.21-1.082-2.214C106.858,189.669,105.863,191.059,105.836,194.382z"/>
<path fill-rule="evenodd" clip-rule="evenodd" fill="#010101" d="M237.488,188.946c0.038-0.873,0.08-1.741,0.427-2.554
	c0.619-1.449,2.387-1.903,3.563-0.909c0.536,0.454,0.76,1.084,0.884,1.751c0.237,1.283,0.246,2.566-0.097,3.831
	c-0.218,0.803-0.643,1.483-1.485,1.741c-1.094,0.337-2.312,0.051-2.866-1.281C237.568,190.696,237.526,189.82,237.488,188.946z
	 M238.49,188.525c1.028,0,2.024,0,3.029,0c-0.009-0.752-0.061-1.465-0.43-2.105c-0.503-0.873-1.644-0.876-2.148-0.005
	C238.566,187.062,238.525,187.785,238.49,188.525z M238.514,189.384c0.019,0.778,0.062,1.515,0.467,2.165
	c0.486,0.784,1.541,0.798,2.045,0.028c0.433-0.66,0.493-1.411,0.495-2.193C240.513,189.384,239.535,189.384,238.514,189.384z"/>
<text transform="matrix(1 0 0 1 299.417 209.8198)" fill="#010101" font-family="'DejaVuSans'" font-size="9.6">y</text>
<g>
	<g>
		<path fill-rule="evenodd" clip-rule="evenodd" fill="#010101" d="M195.066,498.211c-0.331,0-0.662,0-0.992,0
			c-0.344-0.062-0.693-0.099-1.028-0.189c-2.481-0.675-4.065-2.257-4.74-4.739c-0.091-0.336-0.128-0.685-0.189-1.027
			c0-0.331,0-0.662,0-0.993c0.021-0.13,0.047-0.261,0.065-0.393c0.354-2.572,2.222-4.688,4.735-5.343
			c0.379-0.099,0.771-0.149,1.157-0.222c0.331,0,0.661,0,0.992,0c0.349,0.064,0.705,0.1,1.046,0.194
			c2.47,0.682,4.051,2.261,4.722,4.735c0.09,0.334,0.128,0.685,0.188,1.027c0,0.331,0,0.662,0,0.993
			c-0.021,0.13-0.048,0.261-0.065,0.392c-0.336,2.546-2.225,4.692-4.716,5.338C195.857,498.085,195.458,498.137,195.066,498.211z
			 M194.574,497.028c2.899-0.003,5.276-2.383,5.268-5.274c-0.008-2.906-2.384-5.276-5.276-5.268
			c-2.905,0.009-5.27,2.377-5.267,5.275C189.302,494.661,191.676,497.031,194.574,497.028z"/>
		<path fill-rule="evenodd" clip-rule="evenodd" fill="#FFFFFF" d="M194.574,497.028c-2.898,0.003-5.272-2.367-5.275-5.267
			c-0.003-2.898,2.362-5.267,5.267-5.275c2.893-0.009,5.268,2.361,5.276,5.268C199.85,494.646,197.473,497.025,194.574,497.028z"/>
	</g>
	<g>
		<text transform="matrix(1 0 0 1 191.6841 495.3242)" fill="#010101" font-family="'DejaVuSans'" font-size="9.6">A</text>
	</g>
</g>
<g>
	<g>
		<path fill-rule="evenodd" clip-rule="evenodd" fill="#010101" d="M146.882,484.021c-0.332,0-0.663,0-0.993,0
			c-0.343-0.06-0.693-0.098-1.027-0.188c-2.481-0.677-4.065-2.259-4.74-4.74c-0.091-0.336-0.128-0.686-0.189-1.028
			c0-0.331,0-0.662,0-0.993c0.021-0.13,0.047-0.261,0.065-0.392c0.354-2.574,2.222-4.688,4.734-5.343
			c0.379-0.101,0.771-0.15,1.157-0.222c0.331,0,0.661,0,0.993,0c0.349,0.063,0.705,0.101,1.045,0.193
			c2.471,0.682,4.051,2.261,4.722,4.736c0.09,0.335,0.128,0.684,0.189,1.026c0,0.331,0,0.662,0,0.993
			c-0.022,0.13-0.049,0.262-0.066,0.393c-0.336,2.546-2.225,4.691-4.716,5.338C147.673,483.894,147.274,483.947,146.882,484.021z
			 M146.39,482.84c2.898-0.003,5.275-2.384,5.267-5.275c-0.008-2.907-2.383-5.276-5.275-5.268c-2.906,0.008-5.271,2.377-5.267,5.275
			C141.118,480.471,143.491,482.841,146.39,482.84z"/>
		<path fill-rule="evenodd" clip-rule="evenodd" fill="#FFFFFF" d="M146.39,482.84c-2.898,0.001-5.272-2.369-5.275-5.268
			c-0.003-2.898,2.361-5.268,5.267-5.275c2.893-0.009,5.267,2.36,5.275,5.268C151.665,480.456,149.288,482.837,146.39,482.84z"/>
	</g>
	<text transform="matrix(1 0 0 1 143.4995 481.1348)" fill="#010101" font-family="'DejaVuSans'" font-size="9.6">B</text>
</g>
<g>
	<g>
		<path fill-rule="evenodd" clip-rule="evenodd" fill="#010101" d="M146.882,417.718c-0.331,0-0.662,0-0.993,0
			c-0.343-0.061-0.693-0.097-1.027-0.189c-2.481-0.675-4.065-2.257-4.74-4.739c-0.091-0.336-0.128-0.685-0.189-1.028
			c0-0.331,0-0.661,0-0.993c0.021-0.13,0.047-0.26,0.065-0.392c0.354-2.573,2.222-4.688,4.734-5.343
			c0.379-0.099,0.771-0.149,1.157-0.221c0.331,0,0.662,0,0.993,0c0.349,0.063,0.705,0.1,1.046,0.193
			c2.47,0.682,4.051,2.261,4.722,4.736c0.09,0.335,0.128,0.684,0.188,1.027c0,0.332,0,0.662,0,0.993
			c-0.021,0.131-0.049,0.261-0.065,0.392c-0.336,2.547-2.225,4.692-4.716,5.339C147.673,417.593,147.274,417.645,146.882,417.718z
			 M146.391,416.537c2.898-0.004,5.275-2.384,5.267-5.276c-0.008-2.906-2.383-5.276-5.275-5.267
			c-2.905,0.008-5.27,2.377-5.267,5.275C141.118,414.168,143.491,416.539,146.391,416.537z"/>
		<path fill-rule="evenodd" clip-rule="evenodd" fill="#FFFFFF" d="M146.391,416.537c-2.898,0.002-5.272-2.368-5.275-5.268
			c-0.003-2.898,2.362-5.267,5.267-5.275c2.893-0.009,5.268,2.361,5.275,5.267C151.665,414.153,149.289,416.533,146.391,416.537z"/>
	</g>
	<text transform="matrix(1 0 0 1 143.5 414.8315)" fill="#010101" font-family="'DejaVuSans'" font-size="9.6">C</text>
</g>
<g>
	<text transform="matrix(1 0 0 1 128.3311 196.4834)" fill="#010101" font-family="'DejaVuSans'" font-size="9.6">f</text>
</g>
<g>
	<g>
		<path fill-rule="evenodd" clip-rule="evenodd" fill="#010101" d="M240.863,316.244c-0.331,0-0.662,0-0.993,0
			c-0.343-0.061-0.693-0.098-1.027-0.189c-2.482-0.675-4.066-2.258-4.74-4.739c-0.091-0.336-0.128-0.685-0.19-1.028
			c0-0.332,0-0.662,0-0.993c0.022-0.131,0.048-0.261,0.066-0.393c0.354-2.573,2.222-4.687,4.734-5.342
			c0.38-0.1,0.772-0.15,1.157-0.222c0.331,0,0.662,0,0.993,0c0.349,0.063,0.705,0.1,1.046,0.194c2.47,0.681,4.051,2.26,4.721,4.736
			c0.091,0.334,0.128,0.684,0.189,1.027c0,0.331,0,0.661,0,0.993c-0.022,0.13-0.049,0.26-0.066,0.392
			c-0.336,2.546-2.224,4.692-4.716,5.338C241.653,316.117,241.254,316.169,240.863,316.244z M240.37,315.062
			c2.899-0.003,5.275-2.383,5.267-5.275c-0.008-2.907-2.383-5.276-5.275-5.267c-2.905,0.008-5.27,2.376-5.267,5.275
			C235.098,312.694,237.472,315.063,240.37,315.062z"/>
		<path fill-rule="evenodd" clip-rule="evenodd" fill="#FFFFFF" d="M240.37,315.062c-2.898,0.002-5.272-2.368-5.275-5.267
			c-0.003-2.899,2.362-5.267,5.267-5.275c2.893-0.009,5.267,2.36,5.275,5.267C245.645,312.678,243.269,315.059,240.37,315.062z"/>
	</g>
	<g>
		<text transform="matrix(1 0 0 1 237.48 313.3564)" fill="#010101" font-family="'DejaVuSans'" font-size="9.6">D</text>
	</g>
</g>
<g>
	<g>
		<path fill-rule="evenodd" clip-rule="evenodd" fill="#010101" d="M250.218,224.467c-0.331,0-0.662,0-0.992,0
			c-0.344-0.061-0.693-0.098-1.028-0.189c-2.481-0.675-4.065-2.257-4.74-4.739c-0.091-0.336-0.128-0.685-0.189-1.028
			c0-0.331,0-0.662,0-0.993c0.021-0.13,0.047-0.261,0.065-0.393c0.354-2.572,2.222-4.687,4.735-5.342
			c0.379-0.099,0.771-0.15,1.157-0.222c0.331,0,0.661,0,0.992,0c0.349,0.064,0.705,0.1,1.046,0.194
			c2.47,0.682,4.051,2.261,4.722,4.736c0.09,0.334,0.128,0.684,0.188,1.027c0,0.331,0,0.662,0,0.993
			c-0.021,0.13-0.048,0.261-0.065,0.392c-0.336,2.546-2.225,4.692-4.716,5.338C251.009,224.341,250.61,224.393,250.218,224.467z
			 M249.726,223.286c2.898-0.003,5.275-2.383,5.267-5.275c-0.008-2.906-2.383-5.276-5.275-5.267
			c-2.906,0.008-5.271,2.377-5.268,5.275C244.454,220.917,246.827,223.289,249.726,223.286z"/>
		<path fill-rule="evenodd" clip-rule="evenodd" fill="#FFFFFF" d="M249.726,223.286c-2.899,0.003-5.272-2.368-5.276-5.267
			c-0.003-2.898,2.362-5.267,5.268-5.275c2.892-0.009,5.267,2.361,5.275,5.267C255.001,220.902,252.624,223.283,249.726,223.286z"/>
	</g>
	<text transform="matrix(1 0 0 1 246.8359 221.5806)" fill="#010101" font-family="'DejaVuSans'" font-size="9.6">T</text>
</g>
<g>
	<g>
		<path fill-rule="evenodd" clip-rule="evenodd" fill="#010101" d="M287.145,234.757c-0.331,0-0.663,0-0.993,0
			c-0.343-0.061-0.693-0.098-1.027-0.189c-2.482-0.675-4.066-2.258-4.74-4.739c-0.091-0.336-0.128-0.685-0.19-1.028
			c0-0.332,0-0.662,0-0.993c0.022-0.131,0.047-0.261,0.066-0.393c0.353-2.573,2.221-4.687,4.734-5.342
			c0.379-0.1,0.771-0.15,1.157-0.222c0.331,0,0.662,0,0.993,0c0.349,0.063,0.705,0.1,1.045,0.194
			c2.471,0.681,4.052,2.26,4.722,4.736c0.09,0.334,0.128,0.684,0.189,1.027c0,0.331,0,0.661,0,0.993
			c-0.022,0.13-0.049,0.26-0.066,0.392c-0.336,2.546-2.225,4.692-4.716,5.338C287.935,234.631,287.537,234.683,287.145,234.757z
			 M286.653,233.576c2.898-0.003,5.275-2.383,5.267-5.275c-0.008-2.907-2.383-5.276-5.275-5.268
			c-2.906,0.008-5.271,2.377-5.267,5.276C281.38,231.208,283.754,233.577,286.653,233.576z"/>
		<path fill-rule="evenodd" clip-rule="evenodd" fill="#FFFFFF" d="M286.653,233.576c-2.899,0.002-5.272-2.368-5.275-5.267
			c-0.004-2.899,2.361-5.268,5.267-5.276c2.893-0.008,5.267,2.361,5.275,5.268C291.927,231.191,289.551,233.573,286.653,233.576z"/>
	</g>
	<g>
		<text transform="matrix(1 0 0 1 283.7622 231.8706)" fill="#010101" font-family="'DejaVuSans'" font-size="9.6">Y</text>
	</g>
</g>
<g>
	<g>
		<path fill-rule="evenodd" clip-rule="evenodd" fill="#010101" d="M331.307,531.464c-0.332,0-0.662,0-0.992,0
			c-0.344-0.062-0.691-0.099-1.027-0.189c-2.482-0.675-4.064-2.258-4.74-4.738c-0.09-0.337-0.129-0.686-0.189-1.028
			c0-0.331,0-0.662,0-0.993c0.021-0.13,0.047-0.261,0.064-0.393c0.354-2.573,2.223-4.688,4.734-5.343
			c0.381-0.099,0.771-0.149,1.158-0.222c0.33,0,0.66,0,0.992,0c0.35,0.063,0.705,0.1,1.045,0.194
			c2.471,0.681,4.051,2.261,4.723,4.735c0.09,0.334,0.129,0.685,0.188,1.027c0,0.331,0,0.662,0,0.993
			c-0.021,0.13-0.047,0.261-0.064,0.392c-0.336,2.546-2.225,4.692-4.717,5.338C332.098,531.338,331.697,531.391,331.307,531.464z
			 M330.814,530.282c2.898-0.003,5.275-2.383,5.268-5.274c-0.008-2.907-2.385-5.276-5.275-5.268
			c-2.906,0.009-5.271,2.376-5.268,5.275S327.916,530.285,330.814,530.282z"/>
		<path fill-rule="evenodd" clip-rule="evenodd" fill="#FFFFFF" d="M330.814,530.282c-2.898,0.003-5.271-2.367-5.275-5.267
			s2.361-5.267,5.268-5.275c2.891-0.009,5.268,2.36,5.275,5.268C336.09,527.898,333.713,530.279,330.814,530.282z"/>
	</g>
	<g>
		<text transform="matrix(1 0 0 1 327.124 528.5781)" fill="#010101" font-family="'DejaVuSans'" font-size="9.6">M</text>
	</g>
</g>
<g>
	<g>
		<path fill-rule="evenodd" clip-rule="evenodd" fill="#010101" d="M321.191,264.078c-0.33,0-0.662,0-0.992,0
			c-0.344-0.061-0.691-0.097-1.027-0.189c-2.482-0.675-4.064-2.257-4.74-4.739c-0.09-0.336-0.127-0.685-0.189-1.028
			c0-0.331,0-0.661,0-0.993c0.023-0.13,0.049-0.26,0.066-0.392c0.354-2.573,2.221-4.688,4.734-5.343
			c0.379-0.099,0.771-0.149,1.156-0.221c0.33,0,0.662,0,0.992,0c0.352,0.063,0.705,0.1,1.047,0.193
			c2.471,0.682,4.051,2.261,4.721,4.736c0.092,0.335,0.129,0.684,0.189,1.027c0,0.332,0,0.662,0,0.993
			c-0.021,0.131-0.049,0.261-0.066,0.392c-0.336,2.547-2.225,4.692-4.717,5.339C321.982,263.953,321.584,264.005,321.191,264.078z
			 M320.699,262.896c2.898-0.003,5.275-2.383,5.268-5.275c-0.008-2.906-2.383-5.276-5.275-5.267
			c-2.904,0.008-5.27,2.377-5.268,5.275C315.428,260.529,317.803,262.899,320.699,262.896z"/>
		<path fill-rule="evenodd" clip-rule="evenodd" fill="#FFFFFF" d="M320.699,262.896c-2.896,0.003-5.271-2.368-5.275-5.267
			c-0.002-2.898,2.363-5.267,5.268-5.275c2.893-0.009,5.268,2.361,5.275,5.267C325.975,260.513,323.598,262.894,320.699,262.896z"/>
	</g>
	<g>
		<text transform="matrix(1 0 0 1 317.0098 260.3926)" fill="#010101" font-family="'DejaVuSans'" font-size="9.6">s</text>
	</g>
</g>
<g>
	<g>
		<path fill-rule="evenodd" clip-rule="evenodd" fill="#010101" d="M309.66,291.886c-0.33,0-0.662,0-0.992,0
			c-0.344-0.061-0.693-0.097-1.027-0.189c-2.482-0.675-4.066-2.257-4.74-4.739c-0.092-0.336-0.129-0.685-0.19-1.028
			c0-0.331,0-0.661,0-0.993c0.022-0.13,0.048-0.26,0.066-0.392c0.354-2.573,2.222-4.688,4.733-5.343
			c0.381-0.099,0.771-0.149,1.158-0.221c0.33,0,0.662,0,0.992,0c0.35,0.063,0.705,0.1,1.047,0.193
			c2.469,0.682,4.051,2.261,4.721,4.736c0.09,0.335,0.127,0.684,0.188,1.027c0,0.332,0,0.662,0,0.993
			c-0.021,0.131-0.049,0.261-0.064,0.392c-0.336,2.547-2.225,4.692-4.717,5.339C310.451,291.761,310.053,291.813,309.66,291.886z
			 M309.168,290.705c2.898-0.003,5.275-2.383,5.268-5.275c-0.008-2.906-2.383-5.276-5.275-5.267
			c-2.906,0.008-5.27,2.377-5.268,5.275C303.896,288.337,306.27,290.708,309.168,290.705z"/>
		<path fill-rule="evenodd" clip-rule="evenodd" fill="#FFFFFF" d="M309.168,290.705c-2.898,0.003-5.271-2.368-5.275-5.267
			c-0.002-2.898,2.361-5.267,5.268-5.275c2.893-0.009,5.268,2.361,5.275,5.267C314.443,288.321,312.066,290.702,309.168,290.705z"/>
	</g>
	<g>
		<text transform="matrix(1 0 0 1 306.2773 288.9995)" fill="#010101" font-family="'DejaVuSans'" font-size="9.6">S</text>
	</g>
</g>
<g>
	<g>
		<path fill-rule="evenodd" clip-rule="evenodd" fill="#010101" d="M372.162,317.337c-0.332,0-0.662,0-0.994,0
			c-0.344-0.061-0.691-0.098-1.027-0.189c-2.482-0.675-4.064-2.258-4.74-4.739c-0.09-0.336-0.127-0.685-0.188-1.028
			c0-0.332,0-0.662,0-0.993c0.021-0.131,0.047-0.261,0.064-0.393c0.354-2.573,2.221-4.687,4.734-5.342
			c0.379-0.1,0.77-0.15,1.156-0.222c0.332,0,0.662,0,0.994,0c0.348,0.063,0.703,0.1,1.045,0.194c2.471,0.681,4.051,2.26,4.721,4.736
			c0.09,0.334,0.129,0.684,0.189,1.027c0,0.331,0,0.661,0,0.993c-0.021,0.13-0.049,0.26-0.066,0.392
			c-0.336,2.546-2.225,4.692-4.715,5.338C372.953,317.21,372.553,317.263,372.162,317.337z M371.67,316.156
			c2.896-0.003,5.273-2.383,5.266-5.275c-0.008-2.907-2.383-5.276-5.275-5.268c-2.904,0.008-5.27,2.377-5.268,5.276
			C366.396,313.788,368.77,316.158,371.67,316.156z"/>
		<path fill-rule="evenodd" clip-rule="evenodd" fill="#FFFFFF" d="M371.67,316.156c-2.9,0.002-5.273-2.368-5.277-5.267
			c-0.002-2.899,2.363-5.268,5.268-5.276c2.893-0.008,5.268,2.361,5.275,5.268C376.943,313.771,374.566,316.153,371.67,316.156z"/>
	</g>
	<g>
		<text transform="matrix(1 0 0 1 368.7783 314.4507)" fill="#010101" font-family="'DejaVuSans'" font-size="9.6">F</text>
	</g>
</g>
<g>
	<g>
		<path fill-rule="evenodd" clip-rule="evenodd" fill="#010101" d="M314.6,353.619c-0.332,0-0.662,0-0.994,0
			c-0.342-0.06-0.691-0.097-1.025-0.188c-2.484-0.676-4.066-2.258-4.74-4.74c-0.092-0.336-0.129-0.684-0.189-1.028
			c0-0.331,0-0.661,0-0.992c0.021-0.131,0.047-0.261,0.064-0.393c0.354-2.573,2.221-4.687,4.734-5.343
			c0.379-0.099,0.771-0.149,1.156-0.221c0.332,0,0.662,0,0.994,0c0.35,0.063,0.703,0.1,1.045,0.193
			c2.471,0.682,4.051,2.261,4.723,4.736c0.09,0.335,0.127,0.684,0.188,1.028c0,0.331,0,0.661,0,0.992
			c-0.021,0.131-0.049,0.261-0.066,0.392c-0.336,2.547-2.225,4.692-4.715,5.339C315.389,353.494,314.992,353.547,314.6,353.619z
			 M314.107,352.438c2.898-0.004,5.273-2.384,5.266-5.276c-0.008-2.906-2.383-5.276-5.275-5.267
			c-2.904,0.008-5.27,2.377-5.266,5.275C308.834,350.071,311.209,352.44,314.107,352.438z"/>
		<path fill-rule="evenodd" clip-rule="evenodd" fill="#FFFFFF" d="M314.107,352.438c-2.898,0.002-5.273-2.368-5.275-5.268
			c-0.004-2.898,2.361-5.267,5.266-5.275c2.895-0.009,5.268,2.361,5.275,5.267C319.381,350.055,317.006,352.435,314.107,352.438z"/>
	</g>
	<g>
		<text transform="matrix(1 0 0 1 311.2158 350.7339)" fill="#010101" font-family="'DejaVuSans'" font-size="9.6">G</text>
	</g>
</g>
<g>
	<g>
		<path fill-rule="evenodd" clip-rule="evenodd" fill="#010101" d="M297.578,419.097c-0.332,0-0.662,0-0.993,0
			c-0.343-0.06-0.692-0.097-1.027-0.188c-2.483-0.676-4.065-2.258-4.74-4.74c-0.091-0.336-0.128-0.684-0.189-1.028
			c0-0.331,0-0.661,0-0.992c0.021-0.131,0.047-0.261,0.065-0.393c0.353-2.573,2.221-4.687,4.734-5.343
			c0.379-0.099,0.771-0.149,1.157-0.221c0.331,0,0.661,0,0.993,0c0.349,0.063,0.704,0.1,1.045,0.193
			c2.471,0.682,4.051,2.261,4.723,4.736c0.09,0.335,0.127,0.684,0.188,1.028c0,0.331,0,0.661,0,0.992
			c-0.022,0.131-0.049,0.261-0.065,0.392c-0.336,2.547-2.226,4.692-4.717,5.339C298.368,418.972,297.969,419.025,297.578,419.097z
			 M297.086,417.917c2.898-0.004,5.275-2.384,5.268-5.276c-0.008-2.906-2.383-5.276-5.276-5.267
			c-2.905,0.008-5.271,2.377-5.267,5.275C291.813,415.549,294.187,417.918,297.086,417.917z"/>
		<path fill-rule="evenodd" clip-rule="evenodd" fill="#FFFFFF" d="M297.086,417.917c-2.899,0.002-5.273-2.368-5.276-5.268
			c-0.004-2.898,2.362-5.267,5.267-5.275c2.894-0.009,5.269,2.361,5.276,5.267C302.36,415.533,299.984,417.913,297.086,417.917z"/>
	</g>
	<g>
		<text transform="matrix(1 0 0 1 294.1953 416.2119)" fill="#010101" font-family="'DejaVuSans'" font-size="9.6">H</text>
	</g>
</g>
<g>
	<g>
		<path fill-rule="evenodd" clip-rule="evenodd" fill="#010101" d="M262.83,405.939c-0.331,0-0.661,0-0.992,0
			c-0.344-0.061-0.692-0.098-1.028-0.189c-2.482-0.675-4.064-2.258-4.74-4.739c-0.09-0.336-0.128-0.685-0.188-1.028
			c0-0.331,0-0.662,0-0.993c0.021-0.13,0.047-0.261,0.064-0.393c0.354-2.573,2.222-4.687,4.735-5.342
			c0.379-0.099,0.771-0.15,1.157-0.222c0.331,0,0.661,0,0.992,0c0.35,0.063,0.705,0.1,1.046,0.194
			c2.47,0.681,4.051,2.261,4.722,4.736c0.09,0.334,0.128,0.684,0.188,1.027c0,0.331,0,0.662,0,0.993
			c-0.021,0.13-0.048,0.261-0.065,0.392c-0.336,2.546-2.225,4.692-4.716,5.338C263.621,405.813,263.222,405.866,262.83,405.939z
			 M262.338,404.758c2.899-0.003,5.276-2.383,5.268-5.275c-0.008-2.906-2.384-5.276-5.276-5.267
			c-2.905,0.008-5.271,2.377-5.268,5.275C257.066,402.39,259.44,404.761,262.338,404.758z"/>
		<path fill-rule="evenodd" clip-rule="evenodd" fill="#FFFFFF" d="M262.338,404.758c-2.898,0.003-5.272-2.368-5.276-5.267
			c-0.003-2.898,2.363-5.267,5.268-5.275c2.892-0.009,5.268,2.361,5.276,5.267C267.613,402.375,265.237,404.755,262.338,404.758z"/>
	</g>
	<g>
		<text transform="matrix(1 0 0 1 259.4482 403.0537)" fill="#010101" font-family="'DejaVuSans'" font-size="9.6">I</text>
	</g>
</g>
<g>
	<g>
		<path fill-rule="evenodd" clip-rule="evenodd" fill="#010101" d="M219.183,408.238c-0.331,0-0.661,0-0.993,0
			c-0.343-0.061-0.692-0.097-1.027-0.189c-2.482-0.675-4.065-2.257-4.74-4.739c-0.09-0.336-0.128-0.685-0.189-1.028
			c0-0.331,0-0.661,0-0.993c0.022-0.13,0.048-0.26,0.065-0.392c0.354-2.573,2.222-4.688,4.735-5.343
			c0.379-0.099,0.771-0.149,1.156-0.221c0.332,0,0.662,0,0.993,0c0.35,0.063,0.705,0.1,1.046,0.193
			c2.47,0.682,4.051,2.261,4.721,4.736c0.091,0.335,0.128,0.684,0.189,1.027c0,0.332,0,0.662,0,0.993
			c-0.021,0.131-0.049,0.261-0.065,0.392c-0.336,2.547-2.225,4.692-4.716,5.339C219.974,408.113,219.574,408.165,219.183,408.238z
			 M218.69,407.057c2.899-0.003,5.276-2.383,5.268-5.275c-0.008-2.906-2.384-5.276-5.276-5.267
			c-2.905,0.008-5.271,2.377-5.268,5.275C213.418,404.688,215.792,407.06,218.69,407.057z"/>
		<path fill-rule="evenodd" clip-rule="evenodd" fill="#FFFFFF" d="M218.69,407.057c-2.898,0.003-5.272-2.368-5.276-5.267
			c-0.003-2.898,2.363-5.267,5.268-5.275c2.892-0.009,5.268,2.361,5.276,5.267C223.966,404.673,221.59,407.054,218.69,407.057z"/>
	</g>
	<g>
		<text transform="matrix(1 0 0 1 215.8013 405.3516)" fill="#010101" font-family="'DejaVuSans'" font-size="9.6">J</text>
	</g>
</g>
<g>
	<g>
		<path fill-rule="evenodd" clip-rule="evenodd" fill="#010101" d="M229.201,365.777c-0.331,0-0.662,0-0.993,0
			c-0.343-0.061-0.692-0.098-1.027-0.189c-2.483-0.675-4.065-2.258-4.74-4.739c-0.091-0.336-0.128-0.685-0.189-1.028
			c0-0.332,0-0.662,0-0.993c0.022-0.131,0.047-0.261,0.065-0.393c0.353-2.573,2.221-4.687,4.734-5.342
			c0.379-0.1,0.771-0.15,1.157-0.222c0.331,0,0.662,0,0.993,0c0.349,0.063,0.705,0.1,1.045,0.194
			c2.471,0.681,4.052,2.26,4.722,4.736c0.09,0.334,0.128,0.684,0.189,1.027c0,0.331,0,0.661,0,0.993
			c-0.022,0.13-0.049,0.26-0.066,0.392c-0.336,2.546-2.225,4.692-4.716,5.338C229.991,365.651,229.592,365.704,229.201,365.777z
			 M228.709,364.596c2.898-0.003,5.275-2.383,5.267-5.275c-0.008-2.907-2.383-5.276-5.276-5.268
			c-2.905,0.008-5.27,2.377-5.267,5.276S225.81,364.598,228.709,364.596z"/>
		<path fill-rule="evenodd" clip-rule="evenodd" fill="#FFFFFF" d="M228.709,364.596c-2.899,0.002-5.273-2.368-5.276-5.267
			s2.362-5.268,5.267-5.276c2.893-0.008,5.268,2.361,5.276,5.268C233.984,362.212,231.607,364.593,228.709,364.596z"/>
	</g>
	<g>
		<text transform="matrix(1 0 0 1 225.8184 362.8906)" fill="#010101" font-family="'DejaVuSans'" font-size="9.6">L</text>
	</g>
</g>
<g>
	<g>
		<path fill-rule="evenodd" clip-rule="evenodd" fill="#010101" d="M236.654,335.907c-0.332,0-0.662,0-0.993,0
			c-0.343-0.061-0.692-0.098-1.027-0.189c-2.483-0.675-4.065-2.257-4.74-4.739c-0.091-0.336-0.128-0.685-0.189-1.028
			c0-0.331,0-0.662,0-0.993c0.021-0.13,0.047-0.261,0.065-0.393c0.353-2.572,2.221-4.687,4.734-5.342
			c0.379-0.099,0.771-0.15,1.157-0.222c0.331,0,0.661,0,0.993,0c0.349,0.064,0.704,0.1,1.045,0.194
			c2.471,0.682,4.051,2.261,4.722,4.736c0.09,0.334,0.128,0.684,0.189,1.027c0,0.331,0,0.662,0,0.993
			c-0.022,0.13-0.049,0.261-0.066,0.392c-0.336,2.546-2.225,4.692-4.716,5.338C237.444,335.781,237.045,335.833,236.654,335.907z
			 M236.162,334.725c2.898-0.003,5.275-2.383,5.267-5.275c-0.008-2.906-2.383-5.276-5.276-5.267
			c-2.905,0.008-5.271,2.377-5.267,5.275C230.889,332.356,233.263,334.728,236.162,334.725z"/>
		<path fill-rule="evenodd" clip-rule="evenodd" fill="#FFFFFF" d="M236.162,334.725c-2.899,0.003-5.273-2.368-5.276-5.267
			c-0.004-2.898,2.362-5.267,5.267-5.275c2.893-0.009,5.268,2.361,5.276,5.267C241.437,332.342,239.06,334.722,236.162,334.725z"/>
	</g>
	<g>
		<text transform="matrix(1 0 0 1 233.271 333.0205)" fill="#010101" font-family="'DejaVuSans'" font-size="9.6">O</text>
	</g>
</g>
<g>
	<g>
		<path fill-rule="evenodd" clip-rule="evenodd" fill="#010101" d="M259.771,320.617c-0.332,0-0.662,0-0.993,0
			c-0.343-0.061-0.692-0.098-1.027-0.189c-2.483-0.675-4.065-2.258-4.74-4.739c-0.091-0.336-0.128-0.685-0.189-1.028
			c0-0.332,0-0.662,0-0.993c0.021-0.131,0.047-0.261,0.065-0.393c0.353-2.573,2.221-4.687,4.734-5.342
			c0.379-0.1,0.771-0.15,1.157-0.222c0.331,0,0.661,0,0.993,0c0.349,0.063,0.704,0.1,1.045,0.194
			c2.471,0.681,4.051,2.26,4.722,4.736c0.09,0.334,0.128,0.684,0.189,1.027c0,0.331,0,0.661,0,0.993
			c-0.022,0.13-0.049,0.26-0.066,0.392c-0.336,2.546-2.225,4.692-4.716,5.338C260.56,320.491,260.161,320.543,259.771,320.617z
			 M259.277,319.436c2.898-0.003,5.275-2.383,5.267-5.275c-0.008-2.907-2.383-5.276-5.276-5.268
			c-2.905,0.008-5.27,2.377-5.267,5.276C254.005,317.068,256.378,319.437,259.277,319.436z"/>
		<path fill-rule="evenodd" clip-rule="evenodd" fill="#FFFFFF" d="M259.277,319.436c-2.899,0.002-5.273-2.368-5.276-5.267
			s2.362-5.268,5.267-5.276c2.893-0.008,5.268,2.361,5.276,5.268C264.552,317.052,262.175,319.433,259.277,319.436z"/>
	</g>
	<g>
		<text transform="matrix(1 0 0 1 256.3872 317.7314)" fill="#010101" font-family="'DejaVuSans'" font-size="9.6">P</text>
	</g>
</g>
<g>
	<g>
		<path fill-rule="evenodd" clip-rule="evenodd" fill="#010101" d="M300.838,330.796c-0.33,0-0.66,0-0.992,0
			c-0.344-0.061-0.691-0.098-1.027-0.189c-2.482-0.675-4.064-2.258-4.74-4.739c-0.09-0.336-0.128-0.685-0.188-1.028
			c0-0.331,0-0.662,0-0.993c0.021-0.13,0.047-0.261,0.064-0.393c0.354-2.573,2.222-4.687,4.735-5.342
			c0.379-0.099,0.771-0.15,1.157-0.222c0.332,0,0.662,0,0.992,0c0.35,0.063,0.705,0.1,1.047,0.194
			c2.469,0.681,4.051,2.261,4.721,4.736c0.09,0.334,0.129,0.684,0.189,1.027c0,0.331,0,0.662,0,0.993
			c-0.021,0.13-0.049,0.261-0.066,0.392c-0.336,2.546-2.225,4.692-4.715,5.338C301.629,330.67,301.23,330.723,300.838,330.796z
			 M300.346,329.615c2.898-0.003,5.275-2.383,5.268-5.275c-0.008-2.907-2.383-5.276-5.276-5.267
			c-2.905,0.008-5.271,2.376-5.267,5.275C295.074,327.247,297.447,329.617,300.346,329.615z"/>
		<path fill-rule="evenodd" clip-rule="evenodd" fill="#FFFFFF" d="M300.346,329.615c-2.898,0.002-5.272-2.368-5.275-5.267
			c-0.004-2.899,2.362-5.267,5.267-5.275c2.894-0.009,5.269,2.36,5.276,5.267C305.621,327.23,303.244,329.612,300.346,329.615z"/>
	</g>
	<text transform="matrix(1 0 0 1 297.4561 327.9097)" fill="#010101" font-family="'DejaVuSans'" font-size="9.6">Q</text>
</g>
<g>
	<g>
		<path fill-rule="evenodd" clip-rule="evenodd" fill="#010101" d="M296.49,359.201c-0.331,0-0.661,0-0.992,0
			c-0.344-0.061-0.692-0.098-1.028-0.189c-2.482-0.675-4.064-2.258-4.74-4.739c-0.09-0.336-0.128-0.685-0.188-1.028
			c0-0.332,0-0.662,0-0.993c0.021-0.131,0.047-0.261,0.064-0.393c0.354-2.573,2.222-4.687,4.735-5.342
			c0.379-0.1,0.771-0.15,1.157-0.222c0.331,0,0.661,0,0.992,0c0.35,0.063,0.705,0.1,1.046,0.194c2.47,0.681,4.051,2.26,4.722,4.736
			c0.09,0.334,0.129,0.684,0.188,1.027c0,0.331,0,0.661,0,0.993c-0.021,0.13-0.048,0.26-0.065,0.392
			c-0.336,2.546-2.225,4.692-4.716,5.338C297.281,359.075,296.882,359.126,296.49,359.201z M295.998,358.019
			c2.898-0.003,5.275-2.383,5.268-5.275c-0.008-2.907-2.383-5.276-5.276-5.267c-2.905,0.008-5.271,2.376-5.267,5.275
			C290.725,355.651,293.099,358.021,295.998,358.019z"/>
		<path fill-rule="evenodd" clip-rule="evenodd" fill="#FFFFFF" d="M295.998,358.019c-2.899,0.002-5.273-2.368-5.276-5.267
			c-0.004-2.899,2.362-5.267,5.267-5.275c2.893-0.009,5.269,2.36,5.276,5.267C301.273,355.636,298.896,358.016,295.998,358.019z"/>
	</g>
	<text transform="matrix(1 0 0 1 293.1079 356.3145)" fill="#010101" font-family="'DejaVuSans'" font-size="9.6">U</text>
</g>
<g>
	<g>
		<path fill-rule="evenodd" clip-rule="evenodd" fill="#010101" d="M295.664,401.785c-0.331,0-0.662,0-0.993,0
			c-0.343-0.06-0.692-0.097-1.027-0.188c-2.482-0.676-4.065-2.258-4.74-4.74c-0.09-0.336-0.128-0.684-0.189-1.028
			c0-0.331,0-0.661,0-0.992c0.022-0.131,0.047-0.261,0.065-0.393c0.354-2.573,2.222-4.687,4.734-5.343
			c0.38-0.099,0.772-0.149,1.157-0.221c0.331,0,0.662,0,0.993,0c0.35,0.063,0.705,0.1,1.046,0.193
			c2.47,0.682,4.052,2.261,4.722,4.736c0.09,0.335,0.127,0.684,0.188,1.028c0,0.331,0,0.661,0,0.992
			c-0.022,0.131-0.049,0.261-0.065,0.392c-0.336,2.547-2.225,4.692-4.716,5.339C296.455,401.66,296.056,401.712,295.664,401.785z
			 M295.172,400.604c2.898-0.003,5.275-2.383,5.267-5.275c-0.008-2.907-2.383-5.276-5.276-5.268
			c-2.905,0.008-5.27,2.377-5.267,5.276C289.899,398.236,292.274,400.605,295.172,400.604z"/>
		<path fill-rule="evenodd" clip-rule="evenodd" fill="#FFFFFF" d="M295.172,400.604c-2.898,0.002-5.273-2.368-5.276-5.267
			c-0.003-2.899,2.362-5.268,5.267-5.276c2.893-0.008,5.269,2.361,5.276,5.268C300.447,398.221,298.07,400.601,295.172,400.604z"/>
	</g>
	<g>
		<text transform="matrix(1 0 0 1 292.2822 398.8984)" fill="#010101" font-family="'DejaVuSans'" font-size="9.6">V</text>
	</g>
</g>
<g>
	<g>
		<path fill-rule="evenodd" clip-rule="evenodd" fill="#010101" d="M269.308,362.129c-0.331,0-0.662,0-0.993,0
			c-0.343-0.06-0.692-0.097-1.027-0.188c-2.482-0.676-4.065-2.258-4.74-4.74c-0.09-0.336-0.128-0.684-0.189-1.028
			c0-0.331,0-0.661,0-0.992c0.022-0.131,0.047-0.261,0.065-0.393c0.354-2.573,2.222-4.687,4.734-5.343
			c0.38-0.099,0.772-0.149,1.157-0.221c0.331,0,0.662,0,0.993,0c0.35,0.063,0.705,0.1,1.046,0.193
			c2.47,0.682,4.051,2.261,4.721,4.736c0.091,0.335,0.128,0.684,0.189,1.028c0,0.331,0,0.661,0,0.992
			c-0.022,0.131-0.049,0.261-0.066,0.392c-0.336,2.547-2.224,4.692-4.716,5.339C270.098,362.004,269.699,362.056,269.308,362.129z
			 M268.816,360.948c2.898-0.003,5.275-2.383,5.267-5.275c-0.008-2.907-2.383-5.276-5.276-5.268
			c-2.905,0.008-5.27,2.377-5.267,5.276S265.918,360.95,268.816,360.948z"/>
		<path fill-rule="evenodd" clip-rule="evenodd" fill="#FFFFFF" d="M268.816,360.948c-2.898,0.002-5.273-2.368-5.276-5.267
			s2.362-5.268,5.267-5.276c2.893-0.008,5.268,2.361,5.276,5.268C274.09,358.564,271.714,360.945,268.816,360.948z"/>
	</g>
	<g>
		<text transform="matrix(1 0 0 1 265.9263 359.2427)" fill="#010101" font-family="'DejaVuSans'" font-size="9.6">X</text>
	</g>
</g>
<g>
	<g>
		<path fill-rule="evenodd" clip-rule="evenodd" fill="#010101" d="M254.027,341.178c-0.331,0-0.661,0-0.993,0
			c-0.343-0.061-0.692-0.097-1.027-0.189c-2.482-0.675-4.065-2.257-4.74-4.739c-0.09-0.336-0.128-0.685-0.189-1.028
			c0-0.331,0-0.661,0-0.993c0.022-0.13,0.048-0.26,0.065-0.392c0.354-2.573,2.222-4.688,4.735-5.343
			c0.379-0.099,0.771-0.149,1.156-0.221c0.332,0,0.662,0,0.993,0c0.35,0.063,0.705,0.1,1.046,0.193
			c2.47,0.682,4.051,2.261,4.721,4.736c0.091,0.335,0.128,0.684,0.189,1.027c0,0.332,0,0.662,0,0.993
			c-0.021,0.131-0.049,0.261-0.065,0.392c-0.336,2.547-2.225,4.692-4.716,5.339C254.818,341.053,254.418,341.104,254.027,341.178z
			 M253.535,339.997c2.899-0.003,5.275-2.383,5.267-5.275c-0.008-2.906-2.383-5.276-5.276-5.267
			c-2.904,0.008-5.27,2.377-5.267,5.275C248.262,337.629,250.637,340,253.535,339.997z"/>
		<path fill-rule="evenodd" clip-rule="evenodd" fill="#FFFFFF" d="M253.535,339.997c-2.898,0.003-5.273-2.368-5.276-5.267
			c-0.003-2.898,2.363-5.267,5.267-5.275c2.893-0.009,5.268,2.361,5.276,5.267C258.81,337.613,256.434,339.994,253.535,339.997z"/>
	</g>
	<text transform="matrix(1 0 0 1 250.645 338.2925)" fill="#010101" font-family="'DejaVuSans'" font-size="9.6">Z</text>
</g>
<g>
	<g>
		<path fill-rule="evenodd" clip-rule="evenodd" fill="#010101" d="M262.83,261.021c-0.331,0-0.661,0-0.992,0
			c-0.344-0.06-0.692-0.097-1.028-0.188c-2.482-0.676-4.064-2.258-4.74-4.74c-0.09-0.336-0.128-0.684-0.188-1.028
			c0-0.331,0-0.661,0-0.992c0.021-0.131,0.047-0.261,0.064-0.393c0.354-2.573,2.222-4.687,4.735-5.343
			c0.379-0.099,0.771-0.149,1.157-0.221c0.331,0,0.661,0,0.992,0c0.35,0.063,0.705,0.1,1.046,0.193
			c2.47,0.682,4.051,2.261,4.722,4.736c0.09,0.335,0.128,0.684,0.188,1.028c0,0.331,0,0.661,0,0.992
			c-0.021,0.131-0.048,0.261-0.065,0.392c-0.336,2.547-2.225,4.692-4.716,5.339C263.621,260.896,263.222,260.948,262.83,261.021z
			 M262.338,259.841c2.899-0.004,5.276-2.384,5.268-5.276c-0.008-2.906-2.384-5.276-5.276-5.267
			c-2.905,0.008-5.271,2.377-5.268,5.275C257.066,257.473,259.44,259.843,262.338,259.841z"/>
		<path fill-rule="evenodd" clip-rule="evenodd" fill="#FFFFFF" d="M262.338,259.841c-2.898,0.002-5.272-2.368-5.276-5.268
			c-0.003-2.898,2.363-5.267,5.268-5.275c2.892-0.009,5.268,2.361,5.276,5.267C267.613,257.457,265.237,259.837,262.338,259.841z"/>
	</g>
	<g>
		<text transform="matrix(1 0 0 1 259.4482 258.1357)" fill="#010101" font-family="'DejaVuSans'" font-size="9.6">N</text>
	</g>
</g>
<g>
	<g>
		<path fill-rule="evenodd" clip-rule="evenodd" fill="#010101" d="M250.948,360.621c-0.331,0-0.662,0-0.993,0
			c-0.343-0.06-0.692-0.097-1.027-0.188c-2.482-0.676-4.065-2.258-4.74-4.74c-0.09-0.336-0.128-0.684-0.189-1.028
			c0-0.331,0-0.661,0-0.992c0.022-0.131,0.047-0.261,0.065-0.393c0.354-2.573,2.222-4.687,4.734-5.343
			c0.38-0.099,0.772-0.149,1.157-0.221c0.331,0,0.662,0,0.993,0c0.35,0.063,0.705,0.1,1.046,0.193
			c2.47,0.682,4.051,2.261,4.721,4.736c0.091,0.335,0.128,0.684,0.189,1.028c0,0.331,0,0.661,0,0.992
			c-0.022,0.131-0.049,0.261-0.066,0.392c-0.336,2.547-2.224,4.692-4.716,5.339C251.739,360.495,251.34,360.548,250.948,360.621z
			 M250.456,359.439c2.898-0.003,5.275-2.383,5.267-5.275c-0.008-2.907-2.383-5.276-5.276-5.268
			c-2.905,0.008-5.27,2.377-5.267,5.276C245.183,357.072,247.558,359.442,250.456,359.439z"/>
		<path fill-rule="evenodd" clip-rule="evenodd" fill="#FFFFFF" d="M250.456,359.439c-2.898,0.002-5.273-2.368-5.276-5.267
			c-0.003-2.899,2.362-5.268,5.267-5.276c2.893-0.008,5.268,2.361,5.276,5.268C255.731,357.057,253.354,359.437,250.456,359.439z"/>
	</g>
	<g>
		<text transform="matrix(1 0 0 1 247.5659 357.7349)" fill="#010101" font-family="'DejaVuSans'" font-size="9.6">W</text>
	</g>
</g>
<text transform="matrix(1 0 0 1 157.7271 617.9707)" fill="#CC1417" font-family="'DejaVuSans'" font-size="5.6">Universidad</text>
<text transform="matrix(1 0 0 1 239.1973 564.5996)" fill="#CC1417" font-family="'DejaVuSans'" font-size="5.6">Taxquea</text>
<text transform="matrix(1 0 0 1 477.7109 669.5137)" fill="#CC1417" font-family="'DejaVuSans'" font-size="4.8">Tlhuac</text>
<text transform="matrix(1 0 0 1 503.998 569.1719)" fill="#CC1417" font-family="'DejaVuSans'" font-size="4.8">La Paz</text>
<text transform="matrix(1 0 0 1 414.748 569.1719)" fill="#CC1417" font-family="'DejaVuSans'" font-size="4.8">Const. de 1917</text>
<text transform="matrix(1 0 0 1 413.9473 388.8926)" fill="#CC1417" font-family="'DejaVuSans'" font-size="4.8">Pantitln</text>
<g>
	<g>
		<path fill-rule="evenodd" clip-rule="evenodd" fill="#010101" d="M250.252,557.704c-0.331,0-0.662,0-0.993,0
			c-0.343-0.062-0.693-0.099-1.027-0.189c-2.482-0.675-4.066-2.258-4.74-4.739c-0.091-0.336-0.128-0.685-0.19-1.027
			c0-0.331,0-0.662,0-0.993c0.022-0.13,0.048-0.261,0.066-0.394c0.354-2.572,2.222-4.687,4.734-5.342
			c0.38-0.099,0.772-0.149,1.157-0.222c0.331,0,0.662,0,0.993,0c0.349,0.063,0.705,0.1,1.046,0.193
			c2.47,0.682,4.051,2.262,4.721,4.736c0.091,0.334,0.128,0.685,0.189,1.027c0,0.331,0,0.662,0,0.993
			c-0.022,0.13-0.049,0.261-0.066,0.392c-0.336,2.546-2.224,4.692-4.716,5.338C251.042,557.578,250.644,557.63,250.252,557.704z
			 M249.759,556.522c2.899-0.003,5.275-2.383,5.267-5.274c-0.008-2.907-2.383-5.276-5.275-5.268
			c-2.905,0.008-5.27,2.376-5.267,5.275C244.487,554.154,246.861,556.524,249.759,556.522z"/>
		<path fill-rule="evenodd" clip-rule="evenodd" fill="#FFFFFF" d="M249.759,556.522c-2.898,0.002-5.272-2.368-5.275-5.267
			c-0.003-2.899,2.362-5.268,5.267-5.275c2.893-0.009,5.267,2.36,5.275,5.268C255.034,554.139,252.658,556.52,249.759,556.522z"/>
	</g>
	<g>
		<text transform="matrix(1 0 0 1 247.2651 552.418)" fill="#010101" font-family="'DejaVuSans'" font-size="9.6">r</text>
	</g>
</g>
<g>
	<g>
		<path fill-rule="evenodd" clip-rule="evenodd" fill="#010101" d="M426.59,559.319c-0.332,0-0.662,0-0.994,0
			c-0.342-0.061-0.693-0.097-1.027-0.188c-2.48-0.676-4.064-2.258-4.738-4.739c-0.092-0.336-0.127-0.686-0.191-1.028
			c0-0.331,0-0.661,0-0.993c0.023-0.13,0.049-0.26,0.066-0.392c0.354-2.573,2.223-4.688,4.734-5.343
			c0.379-0.1,0.771-0.149,1.156-0.222c0.332,0,0.662,0,0.994,0c0.348,0.063,0.705,0.101,1.045,0.193
			c2.471,0.682,4.051,2.261,4.721,4.736c0.092,0.335,0.129,0.684,0.189,1.026c0,0.332,0,0.662,0,0.993
			c-0.021,0.131-0.049,0.261-0.066,0.393c-0.336,2.547-2.223,4.691-4.715,5.339C427.379,559.194,426.98,559.246,426.59,559.319z
			 M426.096,558.139c2.9-0.004,5.275-2.384,5.268-5.276c-0.008-2.906-2.383-5.275-5.275-5.267c-2.906,0.008-5.27,2.377-5.268,5.274
			C420.826,555.771,423.197,558.141,426.096,558.139z"/>
		<path fill-rule="evenodd" clip-rule="evenodd" fill="#FFFFFF" d="M426.096,558.139c-2.898,0.002-5.271-2.368-5.275-5.269
			c-0.002-2.897,2.361-5.267,5.268-5.274c2.893-0.009,5.268,2.36,5.275,5.267C431.371,555.755,428.996,558.136,426.096,558.139z"/>
	</g>
	<g>
		<text transform="matrix(1 0 0 1 422.8018 554.833)" fill="#010101" font-family="'DejaVuSans'" font-size="9.6">m</text>
	</g>
</g>
<text transform="matrix(1 0 0 1 337.2637 520.0791)" fill="#CC1417" font-family="'DejaVuSans'" font-size="4.8">Atlalilco</text>
<text transform="matrix(1 0 0 1 251.8901 508.0811)" fill="#CC1417" font-family="'DejaVuSans'" font-size="5.6">Ermita</text>
<text transform="matrix(1 0 0 1 204.4482 487.3623)" fill="#CC1417" font-family="'DejaVuSans'" font-size="6">Zapata</text>
<text transform="matrix(1 0 0 1 116.6064 522.9102)" fill="#CC1417" font-family="'DejaVuSans'" font-size="4.8">Barranca del Muerto</text>
<text transform="matrix(1 0 0 1 114.3311 475.3477)" fill="#CC1417" font-family="'DejaVuSans'" font-size="5">Mixcoac</text>
<text transform="matrix(1 0 0 1 98.2744 433.4766)" fill="#CC1417" font-family="'DejaVuSans'" font-size="5">Observatorio</text>
<text transform="matrix(1 0 0 1 116.4146 403.9707)" fill="#CC1417" font-family="'DejaVuSans'" font-size="5">Tacubaya</text>
<text transform="matrix(1 0 0 1 66.356 262.0767)" fill="#CC1417" font-family="'DejaVuSans'" font-size="5">CuatroCaminos</text>
<text transform="matrix(1 0 0 1 144.6587 273.5967)" fill="#CC1417" font-family="'DejaVuSans'" font-size="4.8">Tacuba</text>
<text transform="matrix(1 0 0 1 140.0376 194.2148)" fill="#CC1417" font-family="'DejaVuSans'" font-size="4.8">El Rosario</text>
<text transform="matrix(1 0 0 1 223.4775 175.8213)" fill="#CC1417" font-family="'DejaVuSans'" font-size="5">Politcnico</text>
<text transform="matrix(1 0 0 1 256.9043 207.0117)"><tspan x="0" y="0" fill="#CC1417" font-family="'DejaVuSans'" font-size="5.6">Instituto </tspan><tspan x="0" y="6.72" fill="#CC1417" font-family="'DejaVuSans'" font-size="5.6">del petrleo</tspan></text>
<text transform="matrix(1 0 0 1 288.2241 199.3467)" fill="#CC1417" font-family="'DejaVuSans'" font-size="4.8">Indios Verdes</text>
<text transform="matrix(1 0 0 1 297.0815 223.3643)"><tspan x="0" y="0" fill="#CC1417" font-family="'DejaVuSans'" font-size="5">Desportivo </tspan><tspan x="0" y="6" fill="#CC1417" font-family="'DejaVuSans'" font-size="5">18 de Marzo</tspan></text>
<text transform="matrix(1 0 0 1 327.1484 243.645)"><tspan x="0" y="0" fill="#CC1417" font-family="'DejaVuSans'" font-size="6">Martn </tspan><tspan x="0" y="7.2" fill="#CC1417" font-family="'DejaVuSans'" font-size="6">Carrera</tspan></text>
<text transform="matrix(1 0 0 1 233.8594 254.5688)" fill="#CC1417" font-family="'DejaVuSans'" font-size="5">La Raza</text>
<g>
	<text transform="matrix(1 0 0 1 318.6523 284.6245)" fill="#CC1417" font-family="'DejaVuSans'" font-size="4.8">Consulado</text>
</g>
<g>
	<text transform="matrix(1 0 0 1 435.918 216.1436)" fill="#CC1417" font-family="'DejaVuSans'" font-size="4.8">Ciudad Azteca</text>
</g>
<text transform="matrix(1 0 0 1 380.9531 317.3369)" fill="#CC1417" font-family="'DejaVuSans'" font-size="4">Oceana</text>
<text transform="matrix(1 0 0 1 321.9238 347.7148)" fill="#CC1417" font-family="'DejaVuSans'" font-size="4">San Lzaro</text>
<text transform="matrix(1 0 0 1 307.6016 322.9995)" fill="#CC1417" font-family="'DejaVuSans'" font-size="4">Morelos</text>
<text transform="matrix(0.9115 0.4113 -0.4113 0.9115 301.5215 360.8467)" fill="#CC1417" font-family="'DejaVuSans'" font-size="4.8">Candelaria</text>
<text transform="matrix(1 0 0 1 303.084 390.5176)" fill="#CC1417" font-family="'DejaVuSans'" font-size="5">Jamaica</text>
<text transform="matrix(1 0 0 1 306.2949 416.2119)" fill="#CC1417" font-family="'DejaVuSans'" font-size="4.8">Santa Anita</text>
<text transform="matrix(0.9094 -0.416 0.416 0.9094 229.5493 421.9648)" fill="#CC1417" font-family="'DejaVuSans'" font-size="6">Chabacano</text>
<text transform="matrix(1 -0.0036 0.0036 1 272.0381 366.9268)" fill="#CC1417" font-family="'DejaVuSans'" font-size="4.8">Pino Surez</text>
<text transform="matrix(1 0 0 1 261.9141 334.7256)" fill="#CC1417" font-family="'DejaVuSans'" font-size="4.8">Bellas Artes</text>
<text transform="matrix(1 0 0 1 209.52 332.0024)" fill="#CC1417" font-family="'DejaVuSans'" font-size="5.6">Hidalgo</text>
<text transform="matrix(1 0 0 1 260.7563 299.1597)"><tspan x="0" y="0" fill="#CC1417" font-family="'DejaVuSans'" font-size="6">Garibaldi/</tspan><tspan x="0" y="7.2" fill="#CC1417" font-family="'DejaVuSans'" font-size="6">Lagunilla</tspan></text>
<text transform="matrix(0.3562 -0.9344 0.9344 0.3562 238.6001 303.5107)" fill="#CC1417" font-family="'DejaVuSans'" font-size="4">Guerrero</text>
<text transform="matrix(1 0 0 1 201.6011 294.8125)" fill="#CC1417" font-family="'DejaVuSans'" font-size="5">Buenavista</text>
<text transform="matrix(0.9939 -0.1103 0.1103 0.9939 202.397 359.1045)" fill="#CC1417" font-family="'DejaVuSans'" font-size="4">Belderas</text>
<text transform="matrix(1 0 0 1 238.1489 366.9058)" fill="#CC1417" font-family="'DejaVuSans'" font-size="4">SaltodelAgua</text>
<text transform="matrix(0.926 -0.3774 0.3774 0.926 176.4346 425.6973)" fill="#CC1417" font-family="'DejaVuSans'" font-size="5">Centro Mdico</text>
<g>
	<g>
		<path fill-rule="evenodd" clip-rule="evenodd" fill="#010101" d="M484.441,660.208c-0.332,0-0.662,0-0.992,0
			c-0.344-0.062-0.693-0.099-1.027-0.189c-2.482-0.675-4.066-2.258-4.74-4.739c-0.092-0.336-0.127-0.685-0.189-1.027
			c0-0.331,0-0.662,0-0.993c0.021-0.13,0.049-0.261,0.066-0.394c0.354-2.572,2.221-4.687,4.734-5.342
			c0.379-0.099,0.77-0.149,1.156-0.222c0.33,0,0.66,0,0.992,0c0.35,0.063,0.705,0.1,1.045,0.194
			c2.473,0.681,4.053,2.261,4.723,4.735c0.09,0.334,0.129,0.685,0.189,1.027c0,0.331,0,0.662,0,0.993
			c-0.021,0.13-0.049,0.261-0.066,0.392c-0.336,2.546-2.225,4.692-4.717,5.338C485.232,660.082,484.834,660.134,484.441,660.208z
			 M483.949,659.025c2.898-0.003,5.275-2.383,5.268-5.274c-0.008-2.906-2.383-5.276-5.275-5.268
			c-2.906,0.008-5.27,2.377-5.268,5.275C478.678,656.658,481.051,659.028,483.949,659.025z"/>
		<path fill-rule="evenodd" clip-rule="evenodd" fill="#FFFFFF" d="M483.949,659.025c-2.898,0.003-5.271-2.368-5.275-5.267
			c-0.002-2.898,2.361-5.268,5.268-5.275c2.893-0.009,5.268,2.361,5.275,5.268C489.225,656.643,486.848,659.023,483.949,659.025z"/>
	</g>
	<g>
		<text transform="matrix(1 0 0 1 480.6533 655.7217)" fill="#010101" font-family="'DejaVuSans'" font-size="9.6">p</text>
	</g>
</g>
<text transform="matrix(1 0 0 1 182.4551 538.4395)"><tspan x="0" y="0" fill="#010101" font-family="'DejaVuSans'" font-size="5.6">15 </tspan><tspan x="8.906" y="0" fill="#010101" font-family="'DejaVuSans'" font-size="2.4">min</tspan></text>
<text transform="matrix(1 0 0 1 199.1172 451.5449)"><tspan x="0" y="0" fill="#010101" font-family="'DejaVuSans'" font-size="5.6">12 </tspan><tspan x="8.906" y="0" fill="#010101" font-family="'DejaVuSans'" font-size="3">min</tspan></text>
<text transform="matrix(1 0 0 1 245.436 538.4395)"><tspan x="0" y="0" fill="#010101" font-family="'DejaVuSans'" font-size="5.6">6 </tspan><tspan x="5.343" y="0" fill="#010101" font-family="'DejaVuSans'" font-size="3">min</tspan></text>
<text transform="matrix(0.8512 0.5249 -0.5249 0.8512 417.4766 600.1914)"><tspan x="0" y="0" fill="#010101" font-family="'DejaVuSans'" font-size="5.6">33 </tspan><tspan x="8.905" y="0" fill="#010101" font-family="'DejaVuSans'" font-size="3">min</tspan></text>
<text transform="matrix(0.9686 0.2488 -0.2488 0.9686 374.2021 538.4395)"><tspan x="0" y="0" fill="#010101" font-family="'DejaVuSans'" font-size="5.6">15 </tspan><tspan x="8.906" y="0" fill="#010101" font-family="'DejaVuSans'" font-size="3">min</tspan></text>
<text transform="matrix(1 0 0 1 140.0376 493.3008)"><tspan x="0" y="0" fill="#010101" font-family="'DejaVuSans'" font-size="5.6">3 </tspan><tspan x="5.343" y="0" fill="#010101" font-family="'DejaVuSans'" font-size="3">min</tspan></text>
<text transform="matrix(1 0 0 1 137.1191 339.9966)"><tspan x="0" y="0" fill="#010101" font-family="'DejaVuSans'" font-size="5.6">18 </tspan><tspan x="8.906" y="0" fill="#010101" font-family="'DejaVuSans'" font-size="3">min</tspan></text>
<text transform="matrix(1 0 0 1 128.3311 240.4395)"><tspan x="0" y="0" fill="#010101" font-family="'DejaVuSans'" font-size="5.6">12 </tspan><tspan x="8.906" y="0" fill="#010101" font-family="'DejaVuSans'" font-size="3">min</tspan></text>
<text transform="matrix(1 0 0 1 227.8848 344.6621)"><tspan x="0" y="0" fill="#010101" font-family="'DejaVuSans'" font-size="5.6">6 </tspan><tspan x="5.343" y="0" fill="#010101" font-family="'DejaVuSans'" font-size="3">min</tspan></text>
<text transform="matrix(1 0 0 1 176.5723 299.1597)"><tspan x="0" y="0" fill="#010101" font-family="'DejaVuSans'" font-size="5.6">21 </tspan><tspan x="8.906" y="0" fill="#010101" font-family="'DejaVuSans'" font-size="3">min</tspan></text>
<text transform="matrix(1 0 0 1 232.167 273.0234)"><tspan x="0" y="0" fill="#010101" font-family="'DejaVuSans'" font-size="5.6">6 </tspan><tspan x="5.343" y="0" fill="#010101" font-family="'DejaVuSans'" font-size="3">min</tspan></text>
<text transform="matrix(1 0 0 1 248.2593 201.8887)"><tspan x="0" y="0" fill="#010101" font-family="'DejaVuSans'" font-size="5.6">3 </tspan><tspan x="5.343" y="0" fill="#010101" font-family="'DejaVuSans'" font-size="3">min</tspan></text>
<text transform="matrix(1 0 0 1 249.2466 451.5449)"><tspan x="0" y="0" fill="#010101" font-family="'DejaVuSans'" font-size="5.6">18 </tspan><tspan x="8.906" y="0" fill="#010101" font-family="'DejaVuSans'" font-size="3">min</tspan></text>
<text transform="matrix(1 0 0 1 259.3291 375.4385)"><tspan x="0" y="0" fill="#010101" font-family="'DejaVuSans'" font-size="5.6">6 </tspan><tspan x="5.343" y="0" fill="#010101" font-family="'DejaVuSans'" font-size="3">min</tspan></text>
<text transform="matrix(1 0 0 1 255.8823 347.0557)"><tspan x="0" y="0" fill="#010101" font-family="'DejaVuSans'" font-size="5.6">18 </tspan><tspan x="8.906" y="0" fill="#010101" font-family="'DejaVuSans'" font-size="3">min</tspan></text>
<text transform="matrix(0.3659 -0.9307 0.9307 0.3659 243.9985 337.0591)"><tspan x="0" y="0" fill="#010101" font-family="'DejaVuSans'" font-size="5">3 </tspan><tspan x="4.77" y="0" fill="#010101" font-family="'DejaVuSans'" font-size="3">min</tspan></text>
<text transform="matrix(0.9838 0.1792 -0.1792 0.9838 213.9536 502.2764)"><tspan x="0" y="0" fill="#010101" font-family="'DejaVuSans'" font-size="5.6">9 </tspan><tspan x="5.343" y="0" fill="#010101" font-family="'DejaVuSans'" font-size="3">min</tspan></text>
<text transform="matrix(0.9864 0.1645 -0.1645 0.9864 162.7656 483.0098)"><tspan x="0" y="0" fill="#010101" font-family="'DejaVuSans'" font-size="5.6">9 </tspan><tspan x="5.343" y="0" fill="#010101" font-family="'DejaVuSans'" font-size="3">min</tspan></text>
<text transform="matrix(0.9718 0.2356 -0.2356 0.9718 272.5034 407.0566)"><tspan x="0" y="0" fill="#010101" font-family="'DejaVuSans'" font-size="5.6">6 </tspan><tspan x="5.343" y="0" fill="#010101" font-family="'DejaVuSans'" font-size="3">min</tspan></text>
<text transform="matrix(0.9983 -0.0584 0.0584 0.9983 250.5498 383.292)"><tspan x="0" y="0" fill="#010101" font-family="'DejaVuSans'" font-size="5.6">9 </tspan><tspan x="5.343" y="0" fill="#010101" font-family="'DejaVuSans'" font-size="3">min</tspan></text>
<text transform="matrix(1 0 0 1 245.2822 347.4766)"><tspan x="0" y="0" fill="#010101" font-family="'DejaVuSans'" font-size="5.6">6 </tspan><tspan x="5.343" y="0" fill="#010101" font-family="'DejaVuSans'" font-size="3">min</tspan></text>
<text transform="matrix(0.9771 -0.2128 0.2128 0.9771 252.0444 324.7202)"><tspan x="0" y="0" fill="#010101" font-family="'DejaVuSans'" font-size="5">3 </tspan><tspan x="4.77" y="0" fill="#010101" font-family="'DejaVuSans'" font-size="3">min</tspan></text>
<text transform="matrix(1 0 0 1 138.4546 448.5449)"><tspan x="0" y="0" fill="#010101" font-family="'DejaVuSans'" font-size="5.6">12 </tspan><tspan x="8.906" y="0" fill="#010101" font-family="'DejaVuSans'" font-size="3">min</tspan></text>
<text transform="matrix(1 0 0 1 306.2959 457.5449)"><tspan x="0" y="0" fill="#010101" font-family="'DejaVuSans'" font-size="5.6">18 </tspan><tspan x="8.906" y="0" fill="#010101" font-family="'DejaVuSans'" font-size="3">min</tspan></text>
<text transform="matrix(0.9983 -0.0584 0.0584 0.9983 218.6875 388.0537)"><tspan x="0" y="0" fill="#010101" font-family="'DejaVuSans'" font-size="5.6">9 </tspan><tspan x="5.343" y="0" fill="#010101" font-family="'DejaVuSans'" font-size="3">min</tspan></text>
<text transform="matrix(1 0 0 1 107.3179 275.3608)"><tspan x="0" y="0" fill="#010101" font-family="'DejaVuSans'" font-size="5.6">6 </tspan><tspan x="5.343" y="0" fill="#010101" font-family="'DejaVuSans'" font-size="3">min</tspan></text>
<text transform="matrix(1 0 0 1 282.4219 519.0088)"><tspan x="0" y="0" fill="#010101" font-family="'DejaVuSans'" font-size="5.6">6 </tspan><tspan x="5.343" y="0" fill="#010101" font-family="'DejaVuSans'" font-size="3">min</tspan></text>
<text transform="matrix(1 0 0 1 180.4546 207.1602)"><tspan x="0" y="0" fill="#010101" font-family="'DejaVuSans'" font-size="5.6">18 </tspan><tspan x="8.906" y="0" fill="#010101" font-family="'DejaVuSans'" font-size="3">min</tspan></text>
<text transform="matrix(1 0 0 1 300.2656 245.645)"><tspan x="0" y="0" fill="#010101" font-family="'DejaVuSans'" font-size="5.6">6 </tspan><tspan x="5.343" y="0" fill="#010101" font-family="'DejaVuSans'" font-size="3">min</tspan></text>
<text transform="matrix(1 0 0 1 265.7261 220.7017)"><tspan x="0" y="0" fill="#010101" font-family="'DejaVuSans'" font-size="5.6">6 </tspan><tspan x="5.343" y="0" fill="#010101" font-family="'DejaVuSans'" font-size="3">min</tspan></text>
<text transform="matrix(0.9985 0.0541 -0.0541 0.9985 413.9453 257.6255)"><tspan x="0" y="0" fill="#010101" font-family="'DejaVuSans'" font-size="5.6">33 </tspan><tspan x="8.907" y="0" fill="#010101" font-family="'DejaVuSans'" font-size="3">min</tspan></text>
<text transform="matrix(1 0 0 1 337.4082 326.8955)"><tspan x="0" y="0" fill="#010101" font-family="'DejaVuSans'" font-size="5.6">15 </tspan><tspan x="8.905" y="0" fill="#010101" font-family="'DejaVuSans'" font-size="3">min</tspan></text>
<text transform="matrix(1 0 0 1 304.6084 335.1567)"><tspan x="0" y="0" fill="#010101" font-family="'DejaVuSans'" font-size="5.6">3 </tspan><tspan x="5.343" y="0" fill="#010101" font-family="'DejaVuSans'" font-size="3">min</tspan></text>
<text transform="matrix(1 0 0 1 275.2642 320.6172)"><tspan x="0" y="0" fill="#010101" font-family="'DejaVuSans'" font-size="5.6">15 </tspan><tspan x="8.906" y="0" fill="#010101" font-family="'DejaVuSans'" font-size="3">min</tspan></text>
<text transform="matrix(0.8982 -0.4396 0.4396 0.8982 249.2466 310.8857)"><tspan x="0" y="0" fill="#010101" font-family="'DejaVuSans'" font-size="5">3 </tspan><tspan x="4.77" y="0" fill="#010101" font-family="'DejaVuSans'" font-size="3">min</tspan></text>
<text transform="matrix(0.9771 -0.2128 0.2128 0.9771 220.8794 303.3384)"><tspan x="0" y="0" fill="#010101" font-family="'DejaVuSans'" font-size="5">3 </tspan><tspan x="4.77" y="0" fill="#010101" font-family="'DejaVuSans'" font-size="3">min</tspan></text>
<text transform="matrix(0.9983 -0.0584 0.0584 0.9983 383.9219 349.2231)"><tspan x="0" y="0" fill="#010101" font-family="'DejaVuSans'" font-size="5.6">9 </tspan><tspan x="5.343" y="0" fill="#010101" font-family="'DejaVuSans'" font-size="3">min</tspan></text>
<text transform="matrix(0.9983 -0.0584 0.0584 0.9983 339.3281 299.1592)"><tspan x="0" y="0" fill="#010101" font-family="'DejaVuSans'" font-size="5.6">9 </tspan><tspan x="5.343" y="0" fill="#010101" font-family="'DejaVuSans'" font-size="3">min</tspan></text>
<text transform="matrix(0.9983 -0.0584 0.0584 0.9983 283.7627 271.8423)"><tspan x="0" y="0" fill="#010101" font-family="'DejaVuSans'" font-size="5.6">9 </tspan><tspan x="5.343" y="0" fill="#010101" font-family="'DejaVuSans'" font-size="3">min</tspan></text>
<text transform="matrix(1 0 0 1 259.3384 237.8564)"><tspan x="0" y="0" fill="#010101" font-family="'DejaVuSans'" font-size="5.6">6 </tspan><tspan x="5.343" y="0" fill="#010101" font-family="'DejaVuSans'" font-size="3">min</tspan></text>
<text transform="matrix(1 0 0 1 444.3037 462.5449)"><tspan x="0" y="0" fill="#010101" font-family="'DejaVuSans'" font-size="5.6">27 </tspan><tspan x="8.906" y="0" fill="#010101" font-family="'DejaVuSans'" font-size="3">min</tspan></text>
<text transform="matrix(1 0 0 1 349.9385 366.9268)"><tspan x="0" y="0" fill="#010101" font-family="'DejaVuSans'" font-size="5.6">6 </tspan><tspan x="5.343" y="0" fill="#010101" font-family="'DejaVuSans'" font-size="3">min</tspan></text>
<text transform="matrix(0.8574 0.5146 -0.5146 0.8574 302.2539 351.043)"><tspan x="0" y="0" fill="#010101" font-family="'DejaVuSans'" font-size="5.6">3 </tspan><tspan x="5.343" y="0" fill="#010101" font-family="'DejaVuSans'" font-size="3">min</tspan></text>
<text transform="matrix(1 0 0 1 277.8677 356.689)"><tspan x="0" y="0" fill="#010101" font-family="'DejaVuSans'" font-size="5.6">6 </tspan><tspan x="5.343" y="0" fill="#010101" font-family="'DejaVuSans'" font-size="3">min</tspan></text>
<text transform="matrix(1 0 0 1 236.3291 358.4385)"><tspan x="0" y="0" fill="#010101" font-family="'DejaVuSans'" font-size="5.6">3 </tspan><tspan x="5.343" y="0" fill="#010101" font-family="'DejaVuSans'" font-size="3">min</tspan></text>
<text transform="matrix(1 0 0 1 255.3291 362.4385)"><tspan x="0" y="0" fill="#010101" font-family="'DejaVuSans'" font-size="5.6">6 </tspan><tspan x="5.343" y="0" fill="#010101" font-family="'DejaVuSans'" font-size="3">min</tspan></text>
<text transform="matrix(1 0 0 1 180.4546 388.0542)"><tspan x="0" y="0" fill="#010101" font-family="'DejaVuSans'" font-size="5.6">18 </tspan><tspan x="8.906" y="0" fill="#010101" font-family="'DejaVuSans'" font-size="3">min</tspan></text>
<text transform="matrix(0.9771 -0.2128 0.2128 0.9771 128.1172 417.7183)"><tspan x="0" y="0" fill="#010101" font-family="'DejaVuSans'" font-size="5">3 </tspan><tspan x="4.77" y="0" fill="#010101" font-family="'DejaVuSans'" font-size="3">min</tspan></text>
<text transform="matrix(0.999 0.0436 -0.0436 0.999 288.2134 404.9673)"><tspan x="0" y="0" fill="#010101" font-family="'DejaVuSans'" font-size="5">3 </tspan><tspan x="4.77" y="0" fill="#010101" font-family="'DejaVuSans'" font-size="3">min</tspan></text>
<text transform="matrix(1 0 0 1 286.6943 377.7578)"><tspan x="0" y="0" fill="#010101" font-family="'DejaVuSans'" font-size="5.6">6 </tspan><tspan x="5.343" y="0" fill="#010101" font-family="'DejaVuSans'" font-size="3">min</tspan></text>
<text transform="matrix(1 0 0 1 288.542 339.9966)"><tspan x="0" y="0" fill="#010101" font-family="'DejaVuSans'" font-size="5.6">3 </tspan><tspan x="5.343" y="0" fill="#010101" font-family="'DejaVuSans'" font-size="3">min</tspan></text>
<text transform="matrix(1 0 0 1 297.5278 303.6157)"><tspan x="0" y="0" fill="#010101" font-family="'DejaVuSans'" font-size="5.6">6 </tspan><tspan x="5.343" y="0" fill="#010101" font-family="'DejaVuSans'" font-size="3">min</tspan></text>
<text transform="matrix(0.9983 -0.0584 0.0584 0.9983 307.1904 273.5962)"><tspan x="0" y="0" fill="#010101" font-family="'DejaVuSans'" font-size="5.6">9 </tspan><tspan x="5.343" y="0" fill="#010101" font-family="'DejaVuSans'" font-size="3">min</tspan></text>
<text transform="matrix(1 0 0 1 337.4082 394.8457)"><tspan x="0" y="0" fill="#010101" font-family="'DejaVuSans'" font-size="5.6">15 </tspan><tspan x="8.905" y="0" fill="#010101" font-family="'DejaVuSans'" font-size="3">min</tspan></text>
<text transform="matrix(0.9771 -0.2128 0.2128 0.9771 273.8677 400.2466)"><tspan x="0" y="0" fill="#010101" font-family="'DejaVuSans'" font-size="5">3 </tspan><tspan x="4.77" y="0" fill="#010101" font-family="'DejaVuSans'" font-size="3">min</tspan></text>
<text transform="matrix(1 0 0 1 237.48 401.6157)"><tspan x="0" y="0" fill="#010101" font-family="'DejaVuSans'" font-size="5.6">6 </tspan><tspan x="5.343" y="0" fill="#010101" font-family="'DejaVuSans'" font-size="3">min</tspan></text>
<text transform="matrix(1 0 0 1 180.4546 405.9937)"><tspan x="0" y="0" fill="#010101" font-family="'DejaVuSans'" font-size="5.6">18 </tspan><tspan x="8.906" y="0" fill="#010101" font-family="'DejaVuSans'" font-size="3">min</tspan></text>
<path fill-rule="evenodd" clip-rule="evenodd" fill="#E2779B" d="M428.92,368.774c3.514-0.095,6.949,3.142,6.996,6.596
	c0.055,3.716-2.898,6.683-6.707,6.733c-3.627,0.05-6.477-2.646-6.607-6.255C422.463,372.018,425.273,368.872,428.92,368.774z
	 M426.17,373.682c2.229,0.678,2.754,2.18,2.502,4.103c-0.07,0.543-0.021,1.154,0.168,1.66c0.115,0.309,0.582,0.613,0.934,0.674
	c0.385,0.068,0.908-0.166,0.939-0.631c0.213-2.988,0.678-6.001-0.418-9.092C428.592,371.166,427.625,372.358,426.17,373.682z"/>
<path fill-rule="evenodd" clip-rule="evenodd" fill="#4381BA" d="M68.601,281.086c-3.164-0.201-5.601-2.828-5.467-5.896
	c0.138-3.204,2.977-5.716,6.285-5.563c3.349,0.154,5.763,2.832,5.566,6.17C74.787,279.121,72.146,281.31,68.601,281.086z
	 M69.423,277.298c0.626-0.806,1.368-1.619,1.944-2.535c0.729-1.155,0.735-2.352-0.428-3.288c-1.257-1.014-2.568-0.834-3.783,0.088
	c-0.509,0.386-0.851,0.976-0.334,1.568c0.444,0.51,0.889,0.116,1.253-0.202c0.492-0.431,0.985-0.818,1.572-0.182
	c0.508,0.554,0.305,1.159-0.06,1.676c-0.352,0.498-0.816,0.92-1.22,1.386c-0.778,0.9-2.32,1.658-1.727,2.971
	c0.604,1.336,2.226,0.526,3.395,0.644c0.567,0.058,1.28,0.137,1.579-0.588C71.604,277.329,69.822,278.431,69.423,277.298z"/>
<path fill-rule="evenodd" clip-rule="evenodd" fill="#C3B224" d="M317.25,212.952c-2.893,0.001-5.184-2.684-5.164-6.053
	c0.016-3.381,2.326-5.917,5.299-5.825c2.816,0.086,4.984,2.583,5.025,5.788C322.453,210.159,320.088,212.952,317.25,212.952z
	 M315.148,204.485c0.285,1.286,4.074-2.446,1.838,1.9c-0.373,0.724,0.479,0.978,0.783,1.43c0.387,0.576,0.428,1.133-0.041,1.652
	c-0.363,0.403-0.764,0.364-1.174,0.033c-0.514-0.413-1.146-1.128-1.527,0.027c-0.289,0.875,0.459,1.297,1.027,1.659
	c0.855,0.55,1.699,0.413,2.502-0.178c0.953-0.7,1.256-1.702,1.02-2.923c-0.154-0.803-0.793-1.425-0.387-2.442
	c0.59-1.477-0.188-2.449-1.355-2.858C316.529,202.332,315.432,202.722,315.148,204.485z"/>
<path fill-rule="evenodd" clip-rule="evenodd" fill="#FBDC2A" d="M263.855,184.98c-0.029,3.24-2.942,5.562-6.873,5.478
	c-3.864-0.081-6.854-2.62-6.716-5.698c0.135-2.915,3.197-5.318,6.777-5.319C260.994,179.44,263.884,181.792,263.855,184.98z
	 M260.002,181.46c-1.365-0.604-2.714-0.559-3.927-0.286c-1.748,0.393-1.618,1.794-1.735,2.878c-0.164,1.534,1.287,1.104,2.399,1.078
	c1.29-0.029,1.894,0.562,1.584,1.544c-0.274,0.873-1.11,0.935-2.026,0.576c-0.26-0.102-0.49-0.28-0.761-0.325
	c-0.42-0.071-0.959-0.046-1.09,0.315c-0.098,0.27,0.027,0.694,0.255,0.92c0.948,0.945,2.275,0.917,3.567,0.675
	c1.465-0.274,1.997-1.162,2.177-2.302c0.323-2.051-1.532-2.784-3.397-3.436C257.837,182.118,259.567,182.982,260.002,181.46z"/>
<path fill-rule="evenodd" clip-rule="evenodd" fill="#8FC3BC" d="M356.053,245.66c-2.795-0.073-5.063-2.392-5.078-5.194
	c-0.018-2.944,2.35-5.269,5.344-5.248c3.066,0.022,5.252,2.277,5.189,5.35C361.443,243.596,359.146,245.739,356.053,245.66z
	 M358.75,241.792c-0.68-0.989-0.551-2.145-0.586-3.278c-0.021-0.654,0.148-1.481-0.652-1.758c-0.951-0.328-1.359,0.5-1.816,1.13
	c-0.199,0.274-0.365,0.572-0.541,0.863c-0.627,1.042-1.748,1.938-1.447,3.307c0.285,1.292,1.863,0.376,2.494,1.258
	c0.402,0.56,0.898,1.21,1.59,0.582C358.348,243.392,358.785,242.682,358.75,241.792z"/>
<path fill-rule="evenodd" clip-rule="evenodd" fill="#DB604F" d="M370.242,246.269c-3.27,0.013-5.801-2.491-5.818-5.755
	c-0.018-3.229,2.549-5.868,5.742-5.903c3.152-0.035,5.807,2.619,5.826,5.828C376.012,243.705,373.494,246.256,370.242,246.269z
	 M367.527,241.075c0.051,0.319,0.057,1.203,0.344,1.985c0.537,1.469,2.234,2.104,3.625,1.488c1.502-0.668,1.85-2.632,0.869-4.414
	c-0.266-0.483-1.52-0.379-0.76-1.552c0.902-1.395,0.408-2.21-1.082-2.214C368.549,236.362,367.553,237.751,367.527,241.075z"/>
</svg>
