<?xml version="1.0" encoding="utf-8"?>
<!-- Generator: Adobe Illustrator 16.0.0, SVG Export Plug-In . SVG Version: 6.00 Build 0)  -->
<!DOCTYPE svg PUBLIC "-//W3C//DTD SVG 1.1//EN" "http://www.w3.org/Graphics/SVG/1.1/DTD/svg11.dtd">
<svg version="1.1" id="Capa_1" xmlns="http://www.w3.org/2000/svg" xmlns:xlink="http://www.w3.org/1999/xlink" x="0px" y="0px"
	 width="595.28px" height="841.89px" viewBox="0 0 595.28 841.89" enable-background="new 0 0 595.28 841.89" xml:space="preserve">
<line fill="none" stroke="#DC5D4B" stroke-width="4" stroke-miterlimit="10" x1="307.124" y1="212.929" x2="322.5" y2="202.757"/>
<line fill="none" stroke="#C2B028" stroke-width="4" stroke-miterlimit="10" x1="285.785" y1="145.771" x2="235.968" y2="208.853"/>
<line fill="none" stroke="#EC729F" stroke-width="4" stroke-miterlimit="10" x1="190.56" y1="333.933" x2="244.589" y2="331.417"/>
<path fill-rule="evenodd" clip-rule="evenodd" fill="#C2B028" d="M171.981,646.538c-13.57,0.007-24.321-12.299-24.239-27.738
	c0.079-15.485,10.918-27.111,24.874-26.691c13.21,0.394,23.383,11.84,23.579,26.523C196.396,633.741,185.3,646.538,171.981,646.538z
	 M162.119,607.742c1.342,5.894,19.122-11.207,8.62,8.711c-1.746,3.315,2.251,4.473,3.675,6.547c1.819,2.644,2.009,5.19-0.19,7.575
	c-1.708,1.848-3.576,1.667-5.503,0.154c-2.409-1.894-5.386-5.17-7.169,0.123c-1.354,4.007,2.149,5.939,4.821,7.606
	c4.015,2.515,7.974,1.888,11.743-0.813c4.471-3.206,5.889-7.801,4.784-13.397c-0.728-3.678-3.722-6.527-1.816-11.188
	c2.766-6.767-0.877-11.226-6.365-13.1C168.598,597.873,163.449,599.663,162.119,607.742z"/>
<path fill-rule="evenodd" clip-rule="evenodd" fill="#2380C2" d="M260.955,627.871c-16.75-0.88-29.654-12.425-28.948-25.905
	c0.732-14.074,15.763-25.11,33.279-24.442c17.735,0.68,30.518,12.442,29.466,27.112
	C293.704,619.238,279.718,628.854,260.955,627.871z M265.305,611.23c3.32-3.537,7.25-7.116,10.296-11.133
	c3.862-5.084,3.896-10.338-2.265-14.457c-6.649-4.447-13.599-3.658-20.03,0.389c-2.697,1.698-4.508,4.289-1.77,6.892
	c2.352,2.244,4.707,0.516,6.634-0.886c2.603-1.893,5.218-3.598,8.324-0.795c2.69,2.433,1.619,5.09-0.315,7.359
	c-1.867,2.189-4.324,4.046-6.458,6.091c-4.121,3.955-12.284,7.286-9.144,13.05c3.197,5.872,11.785,2.317,17.975,2.833
	c3.001,0.249,6.777,0.595,8.354-2.591C276.856,611.37,267.419,616.211,265.305,611.23z"/>
<path fill-rule="evenodd" clip-rule="evenodd" fill="#8F368C" d="M576.878,549.199c0.748,1.462,0.857,3.072-0.299,4.194
	c-8.81,8.511-22.913,8.638-31.936,0.368c-9.569-8.757-10.64-23.441-2.434-33.247c8.102-9.678,23.338-11.323,33.235-3.584
	c9.932,7.756,12.192,21.077,5.236,31.44c-0.881,1.317-2.486,1.57-4.068,1.099c-1.15-11.318-6.594-21.169-11.123-31.256
	c-2.135-4.747-7.509-5.041-9.54-0.559c-4.453,9.805-10.219,19.454-10.501,31.578c2.606-0.702,4.35-0.661,5.334-1.513
	c9.713-8.407,9.765-8.539,19.144-0.311C572.143,549.354,574.3,549.619,576.878,549.199z"/>
<path fill-rule="evenodd" clip-rule="evenodd" fill="#23A568" d="M504.197,614.172c-0.259,13.344-11.004,23.538-24.292,23.032
	c-12.619-0.479-22.7-10.763-22.784-23.246c-0.096-13.029,10.891-24.117,23.763-23.988C494.048,590.094,504.45,600.9,504.197,614.172
	z M490.172,608.405c0.495-7.909-2.419-11.909-8.844-12.281c-6.447-0.365-11.556,4.124-10.222,10.954
	c0.945,4.826-0.923,8.596-1.204,12.86c-0.506,7.532,4.422,12.033,11.955,11.448c6.756-0.534,10.604-5.142,9.867-12.028
	C491.331,615.657,487.128,612.484,490.172,608.405z"/>
<path fill-rule="evenodd" clip-rule="evenodd" fill="#F5F3EF" d="M304.782,446.787c-0.381,0.108-0.46,0.463-0.638,0.75
	c-1.226,1.978-1.722,2.125-4.014,1.273c-0.317-0.117-0.665-0.154-0.998-0.228c-0.612-0.54-0.647-1.233-0.523-1.969
	c0.36-0.045,0.644-0.244,0.786-0.552c0.744-1.601,1.971-1.921,3.536-1.374c0.308,0.107,0.604,0.28,0.862-0.079
	c-0.001-0.001-0.017-0.027-0.017-0.027c-0.34,0.65,0.068,0.901,0.585,1.094C304.786,445.938,304.841,446.342,304.782,446.787z"/>
<path fill-rule="evenodd" clip-rule="evenodd" fill="#F5F3EF" d="M492.733,465.489c0.16-0.034,0.415-0.017,0.469-0.112
	c1.126-2.008,2.834-2.057,4.748-1.44l-0.019-0.042c-0.127,0.568,0.03,0.972,0.646,1.108c0.372,0.235,0.427,0.6,0.407,0.995
	c-0.083,0.019-0.205,0.01-0.242,0.063c-2.16,3.007-2.293,3.039-5.439,1.304C492.692,466.867,492.677,466.189,492.733,465.489z"/>
<path fill-rule="evenodd" clip-rule="evenodd" fill="#F5F3EF" d="M443.096,573.552c1.18,2.396,1.065,2.896-1.006,4.395
	c-0.708,0.107-1.469-0.141-2.136,0.293c-0.253,0.349-0.507,0.696-0.761,1.046c-0.157-0.425-0.061-1.026-0.755-1.073
	c0.001-0.332,0.003-0.664,0.004-0.996c0.248-0.021,0.496-0.043,0.745-0.064c-0.847-2.72,0.768-3.878,2.963-4.667
	c0.146,0.141,0.293,0.28,0.438,0.421c0.189,0.22,0.379,0.438,0.568,0.658L443.096,573.552z"/>
<path fill-rule="evenodd" clip-rule="evenodd" fill="#F5F3EF" d="M130.98,496.777c-1.959-2.492-1.956-2.529,0.491-5.675
	c0.638-0.06,1.28-0.132,1.671,0.554c0.272,0.313,0.611,0.478,1.03,0.466l-0.04-0.015c1.119,2.206,0.184,3.816-1.51,5.207
	C132.002,497.358,131.37,497.438,130.98,496.777z"/>
<path fill-rule="evenodd" clip-rule="evenodd" fill="#F5F3EF" d="M518.797,701.994c-0.132,0.093-0.319,0.156-0.386,0.283
	c-1.346,2.566-1.343,2.567-4.291,2.247c0.001,0,0.023,0.046,0.023,0.046c-0.083-0.334-0.348-0.459-0.638-0.556
	c-0.674-0.328-0.989-0.862-0.926-1.613c0.138-0.092,0.364-0.157,0.4-0.279c0.662-2.217,2.274-2.604,4.279-2.259l-0.024-0.041
	c0.058,0.377,0.337,0.494,0.659,0.561C518.546,700.724,518.864,701.251,518.797,701.994z"/>
<path fill-rule="evenodd" clip-rule="evenodd" fill="#F5F3EF" d="M276.539,534.178c0.047,0.162,0.06,0.347,0.146,0.482
	c1.622,2.528,1.479,3.196-1.07,4.938c-0.398,0.599-0.768,0.509-1.12-0.046c-2.379-2.03-2.383-2.792-0.031-5.638
	C275.17,533.887,275.905,533.634,276.539,534.178z"/>
<path fill-rule="evenodd" clip-rule="evenodd" fill="#F5F3EF" d="M89.385,454.745c0.308-0.146,0.633-0.264,0.919-0.442
	c2.089-1.309,2.826-1.176,4.237,0.769c0.143,0.196,0.338,0.354,0.509,0.53c0.543,0.389,0.435,0.725-0.082,1.029
	c-2.408,2.467-3.433,2.38-5.692-0.487C89.245,455.672,89.142,455.195,89.385,454.745z"/>
<path fill-rule="evenodd" clip-rule="evenodd" fill="#F5F3EF" d="M547.431,580.174c0.216,0.27,0.475,0.516,0.641,0.813
	c1.302,2.32,0.232,3.831-2.824,4.006c-0.002,0.001-0.103,0.071-0.1,0.071c-1.92-2.312-1.908-2.902,0.172-4.887
	c0.311-0.296,0.276-0.582,0.19-0.918C546.298,579.255,547.065,579.292,547.431,580.174z"/>
<path fill-rule="evenodd" clip-rule="evenodd" fill="#F5F3EF" d="M137.283,530.198c-2.945-0.015-2.945-0.015-4.196-3.166
	c0.005-0.661,0.276-1.159,0.887-1.449c0.425-0.05,0.849-0.112,1.274-0.147c2.087-0.176,2.664,0.259,3.143,2.419
	c0.076,0.342,0.091,0.671,0.459,0.831c-0.003,0.523-0.174,0.918-0.763,0.991c-0.356,0.072-0.735,0.11-0.834,0.563L137.283,530.198z"
	/>
<path fill-rule="evenodd" clip-rule="evenodd" fill="#F5F3EF" d="M179.542,509.327c0.001,0.084-0.017,0.177,0.008,0.253
	c1.077,3.252,0.296,4.36-3.127,4.435l0.023,0.043c-0.143-0.159-0.286-0.317-0.428-0.477c-0.446-0.021-0.877-0.077-1.15-0.497
	c0.104-0.126,0.296-0.25,0.299-0.379c0.077-3.175,0.297-3.436,3.353-3.87l-0.028-0.042c0.187,0.533,0.625,0.57,1.09,0.553
	L179.542,509.327z"/>
<path fill-rule="evenodd" clip-rule="evenodd" fill="#F5F3EF" d="M311.021,471.39c-0.435,0.234-0.391,0.731-0.601,1.087
	c-1.178,2-2.672,2.213-4.406,0.625c-0.346-0.316-0.434-0.997-1.144-0.754c-0.005-0.215-0.01-0.431-0.015-0.646
	c0.223-0.104,0.536-0.148,0.653-0.324c1.692-2.531,1.687-2.535,4.539-1.686l-0.025-0.05c0.034,0.377,0.161,0.653,0.619,0.567
	C311.087,470.501,311.102,470.93,311.021,471.39z"/>
<path fill-rule="evenodd" clip-rule="evenodd" fill="#F5F3EF" d="M193.771,521.935c0.088,0.143,0.163,0.296,0.268,0.425
	c1.972,2.412,1.802,3.412-0.882,5.173c-0.057,0.462-0.114,0.924-0.17,1.386c-0.305-0.122-0.609-0.243-0.914-0.365
	c-0.011-0.333-0.021-0.666-0.032-0.999c-0.047-0.07-0.085-0.148-0.142-0.21c-2.253-2.45-2.149-3.398,0.594-5.421
	C192.92,521.927,193.346,521.931,193.771,521.935z"/>
<path fill-rule="evenodd" clip-rule="evenodd" fill="#D1CECF" d="M529.554,554.929l0.029,0.081
	c-0.172,0.151-0.344,0.302-0.517,0.452c-0.289-0.252-0.579-0.505-0.869-0.757c0.028-0.189,0.058-0.38,0.086-0.57
	c0.173,0.035,0.345,0.069,0.518,0.104C529.051,554.469,529.303,554.698,529.554,554.929z"/>
<path fill-rule="evenodd" clip-rule="evenodd" fill="#8F368C" d="M498.577,465.003c-0.615-0.137-0.772-0.54-0.646-1.108
	C498.442,464.092,498.381,464.622,498.577,465.003z"/>
<path fill-rule="evenodd" clip-rule="evenodd" fill="#23A568" d="M304.362,445.676c-0.517-0.192-0.925-0.443-0.585-1.094
	C304.224,444.813,304.216,445.285,304.362,445.676z"/>
<path fill-rule="evenodd" clip-rule="evenodd" fill="#8F368C" d="M514.648,525.515c0.338,0.152,0.627,0.477,0.273,0.706
	c-0.309,0.201-0.515-0.224-0.585-0.557C514.441,525.624,514.547,525.573,514.648,525.515z"/>
<path fill-rule="evenodd" clip-rule="evenodd" fill="#787475" d="M542.406,572.476c0.208-0.012,0.415-0.022,0.623-0.033
	c0.15,0.311-0.031,0.483-0.29,0.509C542.431,572.98,542.35,572.753,542.406,572.476z"/>
<path fill-rule="evenodd" clip-rule="evenodd" fill="#2380C2" d="M215.03,577.168c0.586,0.264,0.485,0.822,0.56,1.306
	C215.345,578.063,214.741,577.807,215.03,577.168z"/>
<path fill-rule="evenodd" clip-rule="evenodd" fill="#23A568" d="M443.157,573.563c-0.189-0.22-0.379-0.438-0.568-0.658
	C442.77,573.132,443.157,573.18,443.157,573.563z"/>
<path fill-rule="evenodd" clip-rule="evenodd" fill="#C2B028" d="M176.018,513.581c0.143,0.159,0.285,0.317,0.428,0.477
	C176.129,514.055,176.082,513.811,176.018,513.581z"/>
<path fill-rule="evenodd" clip-rule="evenodd" fill="#23A568" d="M310.642,470.209c-0.458,0.086-0.585-0.19-0.619-0.567
	C310.517,469.517,310.494,469.956,310.642,470.209z"/>
<path fill-rule="evenodd" clip-rule="evenodd" fill="#787475" d="M531.853,587.111c-0.175-0.003-0.35-0.005-0.524-0.008
	c-0.001-0.248,0.066-0.466,0.365-0.38C531.776,586.747,531.801,586.976,531.853,587.111z"/>
<path fill-rule="evenodd" clip-rule="evenodd" fill="#C2B028" d="M490.188,666.95c0.11-0.02,0.222-0.021,0.332-0.005
	C490.415,667.317,490.305,667.324,490.188,666.95z"/>
<path fill-rule="evenodd" clip-rule="evenodd" fill="#F5F3EF" d="M216.586,579.438c0.114,0.11,0.227,0.22,0.339,0.329
	C216.775,579.696,216.663,579.586,216.586,579.438z"/>
<path fill-rule="evenodd" clip-rule="evenodd" fill="#C2B028" d="M137.254,530.24c0.099-0.453,0.478-0.491,0.834-0.563
	C137.875,529.959,137.747,530.37,137.254,530.24z"/>
<path fill-rule="evenodd" clip-rule="evenodd" fill="#C2B028" d="M517.895,700.383c-0.322-0.066-0.602-0.184-0.659-0.561
	C517.628,699.807,517.726,700.137,517.895,700.383z"/>
<path fill-rule="evenodd" clip-rule="evenodd" fill="#C2B028" d="M513.506,704.015c0.29,0.097,0.555,0.222,0.638,0.556
	C513.758,704.583,513.669,704.256,513.506,704.015z"/>
<path fill-rule="evenodd" clip-rule="evenodd" fill="#2380C2" d="M220.283,575.649c-0.482-0.232-0.336-0.456,0.01-0.676
	C220.29,575.198,220.287,575.424,220.283,575.649z"/>
<path fill-rule="evenodd" clip-rule="evenodd" fill="#FEFEFE" d="M84.565,517.698c1.347,0.023,2.375,1.144,2.329,2.537
	c-0.043,1.283-1.01,2.214-2.329,2.241c-1.387,0.028-2.532-1.047-2.521-2.367C82.054,518.811,83.241,517.676,84.565,517.698z"/>
<path fill-rule="evenodd" clip-rule="evenodd" fill="#F5F3EF" d="M127.223,636.279c-1.395,0.049-2.535-0.984-2.571-2.331
	c-0.036-1.348,1.045-2.481,2.403-2.52c1.365-0.039,2.542,1.028,2.589,2.347C129.69,635.112,128.609,636.23,127.223,636.279z"/>
<path fill-rule="evenodd" clip-rule="evenodd" fill="#F5F3EF" d="M310.35,492.51c-0.251-0.111-0.273-0.324-0.249-0.559
	c0.068-0.051,0.17-0.087,0.2-0.155c1.399-3.08,2.015-3.302,4.976-1.787c0.045,0.588,0.188,1.187,0.116,1.76
	c-0.261,2.091-2.12,2.912-3.905,1.741C311.069,493.235,310.727,492.846,310.35,492.51z"/>
<path fill-rule="evenodd" clip-rule="evenodd" fill="#FEFEFE" d="M411.957,579.916c-0.035,0.439-0.131,0.867-0.552,1.09
	c-0.546,0.29-0.893,1.252-1.711,0.665c-0.649-0.466-0.517-1.24-0.368-1.891c0.142-0.628,0.509-1.108,1.286-0.674
	c0.367,0.205,0.747,0.389,1.12,0.582C411.801,579.771,411.876,579.847,411.957,579.916z"/>
<path fill-rule="evenodd" clip-rule="evenodd" fill="#F5F3EF" d="M143.506,644.746c0.222-1.221,1.082-1.491,2.104-1.176
	c0.917,0.283,1.525,0.957,1.063,1.979c-0.318,0.704,0.182,1.135,0.303,1.69c0.185,0.846-0.052,1.54-0.799,2.024
	c-0.629,0.408-1.291,0.503-1.961,0.123c-0.446-0.252-1.031-0.544-0.805-1.149c0.298-0.8,0.795-0.305,1.197-0.019
	c0.322,0.229,0.634,0.256,0.919-0.023c0.367-0.36,0.335-0.745,0.032-1.145c-0.238-0.313-0.905-0.488-0.614-0.989
	C146.7,643.053,143.73,645.637,143.506,644.746z"/>
<path fill-rule="evenodd" clip-rule="evenodd" fill="#F5F3EF" d="M236.311,582.925c0.275,0.802,1.501,0.022,1.508,1.087
	c-0.205,0.513-0.696,0.457-1.086,0.417c-0.805-0.083-1.921,0.489-2.336-0.456c-0.408-0.928,0.653-1.464,1.188-2.101
	c0.277-0.329,0.597-0.628,0.839-0.98c0.251-0.365,0.391-0.793,0.041-1.185c-0.404-0.451-0.744-0.177-1.082,0.128
	c-0.25,0.226-0.557,0.504-0.862,0.143c-0.356-0.419-0.121-0.836,0.23-1.109c0.836-0.651,1.739-0.778,2.604-0.063
	c0.801,0.663,0.796,1.509,0.294,2.327C237.253,581.779,236.742,582.355,236.311,582.925z"/>
<path fill-rule="evenodd" clip-rule="evenodd" fill="#FEFEFE" d="M524.144,527.381c-0.368,0.322-0.687,0.802-1.234,0.759
	c-0.581-0.047-0.467-0.571-0.452-0.951c0.021-0.52,0.313-0.734,0.821-0.552C523.654,526.772,524.088,526.858,524.144,527.381z"/>
<path fill-rule="evenodd" clip-rule="evenodd" fill="#F5F3EF" d="M576.878,549.199c-2.578,0.42-4.735,0.155-6.951-1.789
	c-9.379-8.229-9.431-8.097-19.144,0.311c-0.984,0.852-2.728,0.811-5.334,1.513c0.282-12.124,6.048-21.773,10.501-31.578
	c2.031-4.482,7.405-4.188,9.54,0.559c4.529,10.087,9.973,19.938,11.123,31.256L576.878,549.199z M560.467,526.54
	c-2.848,2.37-5,5.092-2.732,8.659c1.162,1.824,3.814,1.687,5.155,0.023C565.899,531.494,563.148,528.996,560.467,526.54z"/>
<path fill-rule="evenodd" clip-rule="evenodd" fill="#F5F3EF" d="M490.172,608.405c-3.044,4.079,1.159,7.252,1.553,10.953
	c0.737,6.887-3.111,11.494-9.867,12.028c-7.533,0.585-12.461-3.916-11.955-11.448c0.281-4.265,2.149-8.034,1.204-12.86
	c-1.334-6.83,3.774-11.319,10.222-10.954C487.753,596.496,490.667,600.496,490.172,608.405z M480.046,616.405
	c-2.65,0.483-3.348,2.498-3.095,5.119c0.208,2.188,1.542,3.59,3.617,3.595c2.763,0.012,4.45-1.873,4.395-4.489
	C484.912,618.003,483.224,616.354,480.046,616.405z M480.8,609.497c2.211-0.692,3.251-2.239,2.886-4.293
	c-0.354-1.985-1.598-3.583-3.955-3.1c-2.172,0.444-3.116,2.127-2.802,4.214C477.25,608.445,478.667,609.587,480.8,609.497z"/>
<path fill-rule="evenodd" clip-rule="evenodd" fill="#FEFEFE" d="M316.247,513.16c0.158-0.339,0.181-0.458,0.223-0.465
	c0.769-0.133,1.546-0.741,2.299,0c0.057,0.056-0.025,0.363-0.129,0.451C317.891,513.771,317.124,513.584,316.247,513.16z"/>
<path fill-rule="evenodd" clip-rule="evenodd" fill="#FEFEFE" d="M548.771,571.589c0.346,0.441,0.794,1.117,0.183,1.342
	c-0.801,0.294-0.375-0.565-0.442-0.927C548.49,571.893,548.668,571.744,548.771,571.589z"/>
<path fill-rule="evenodd" clip-rule="evenodd" fill="#FEFEFE" d="M528.283,554.135c-0.028,0.19-0.058,0.381-0.086,0.57
	c-0.373-0.039-0.84,0.123-0.987-0.413c-0.034-0.125,0.013-0.351,0.104-0.418C527.724,553.568,528.036,553.763,528.283,554.135z"/>
<path fill-rule="evenodd" clip-rule="evenodd" fill="#FEFEFE" d="M527.544,555.653c0.287,0.104,0.678,0.153,0.617,0.622
	c-0.036,0.271-0.229,0.418-0.521,0.416c-0.458-0.002-0.581-0.356-0.618-0.685C526.989,555.729,527.239,555.618,527.544,555.653z"/>
<path fill-rule="evenodd" clip-rule="evenodd" fill="#D1CECF" d="M529.583,555.01c0.232,0.26,0.483,0.551,0.056,0.805
	c-0.089,0.053-0.376-0.227-0.571-0.353C529.239,555.312,529.411,555.161,529.583,555.01z"/>
<path fill-rule="evenodd" clip-rule="evenodd" fill="#D1CECF" d="M535.998,570.38c0.441,0.139,1.027-0.121,1.284,0.521
	c0.169,0.423,0.155,0.791-0.091,1.178c-0.155,0.244-0.364,0.348-0.612,0.278c-0.503-0.139-0.525-0.58-0.546-0.999
	c-0.017-0.331-0.012-0.663-0.017-0.995L535.998,570.38z"/>
<path fill-rule="evenodd" clip-rule="evenodd" fill="#C2B028" d="M133.143,491.656c0.374,0.089,0.774,0.117,1.03,0.466
	C133.754,492.134,133.415,491.97,133.143,491.656z"/>
<path fill-rule="evenodd" clip-rule="evenodd" fill="#C2B028" d="M178.491,508.793c0.39,0.133,0.852,0.122,1.09,0.553
	C179.115,509.363,178.677,509.326,178.491,508.793z"/>
<path fill-rule="evenodd" clip-rule="evenodd" fill="#ABA7A8" d="M194.654,530.176c0.144,0.089,0.287,0.179,0.431,0.269
	c-0.436,0.388-0.279-0.194-0.435-0.267L194.654,530.176z"/>
<path fill-rule="evenodd" clip-rule="evenodd" fill="#ABA7A8" d="M331.285,535.974c-0.08,0.256-0.259,0.411-0.516,0.348
	c-0.087-0.021-0.19-0.254-0.172-0.371c0.042-0.258,0.254-0.409,0.508-0.358C331.188,535.608,331.228,535.841,331.285,535.974z"/>
<path fill-rule="evenodd" clip-rule="evenodd" fill="#D1CECF" d="M540.56,588.055c-0.076,0.361-0.295,0.566-0.665,0.609
	c-0.466,0.054-0.852-0.061-0.832-0.604c0.012-0.318,0.158-0.657,0.583-0.668C540.111,587.381,540.412,587.616,540.56,588.055z"/>
<path fill-rule="evenodd" clip-rule="evenodd" fill="#F5F3EF" d="M436.297,579.371c-0.027,0.251-0.055,0.503-0.082,0.755
	c-0.312,0.048-0.676,0.27-0.89-0.118c-0.171-0.309-0.14-0.739,0.114-0.936C435.754,578.828,436.02,579.224,436.297,579.371z"/>
<path fill-rule="evenodd" clip-rule="evenodd" fill="#F5F3EF" d="M215.978,501.574c2.183-1.911,2.177-1.901,4.973-0.206
	c0.346,0.21,0.634-0.127,0.882-0.366c-0.088,0.87,0.328,1.834-0.477,2.571c-0.342,0.232-0.679,0.471-1.025,0.695
	c-1.505,0.978-2.284,0.924-3.601-0.311c-0.361-0.338-0.561-0.864-1.159-0.886C215.571,502.536,215.431,501.962,215.978,501.574z"/>
<path fill-rule="evenodd" clip-rule="evenodd" fill="#F5F3EF" d="M231.832,429.985c-0.073-0.17-0.059-0.332,0.044-0.485
	c0.044,0.119,0.104,0.234,0.124,0.357C232.005,429.89,231.891,429.942,231.832,429.985z"/>
<path fill-rule="evenodd" clip-rule="evenodd" fill="#F5F3EF" d="M221.174,505.575c-0.16-0.201-0.062-0.347,0.103-0.479
	C221.299,505.269,221.265,505.428,221.174,505.575z"/>
<path fill-rule="evenodd" clip-rule="evenodd" fill="#F5F3EF" d="M225.724,431.642c0.145,0.381,0.042,0.708-0.218,1
	C225.466,432.283,225.478,431.938,225.724,431.642z"/>
<path fill-rule="evenodd" clip-rule="evenodd" fill="#F5F3EF" d="M216.242,498.5c0.207,0.343,0.073,0.628-0.156,0.895
	C216.138,499.097,216.19,498.798,216.242,498.5z"/>
<path fill-rule="evenodd" clip-rule="evenodd" fill="#FEFEFE" d="M163.378,497.86c-0.171,0.187-0.324,0.396-0.518,0.555
	c-0.437,0.357-1.057,0.448-1.395,0.105c-0.48-0.485,0.118-0.899,0.423-1.255c0.496-0.58,1.035-0.958,1.501,0.05
	C163.386,497.497,163.382,497.679,163.378,497.86z"/>
<path fill-rule="evenodd" clip-rule="evenodd" fill="#EC729F" d="M560.467,526.54c2.682,2.456,5.433,4.954,2.423,8.683
	c-1.341,1.663-3.993,1.801-5.155-0.023C555.467,531.632,557.619,528.91,560.467,526.54z"/>
<path fill-rule="evenodd" clip-rule="evenodd" fill="#23A568" d="M480.046,616.405c3.178-0.051,4.866,1.598,4.917,4.225
	c0.056,2.616-1.632,4.501-4.395,4.489c-2.075-0.005-3.409-1.406-3.617-3.595C476.698,618.903,477.396,616.889,480.046,616.405z"/>
<path fill-rule="evenodd" clip-rule="evenodd" fill="#83C8BA" d="M480.8,609.497c-2.133,0.09-3.55-1.052-3.871-3.179
	c-0.314-2.087,0.63-3.77,2.802-4.214c2.357-0.483,3.601,1.114,3.955,3.1C484.051,607.258,483.011,608.805,480.8,609.497z"/>
<path fill-rule="evenodd" clip-rule="evenodd" fill="#FEFEFE" d="M225.636,469.683c0.037,1.243-0.927,2.338-2.147,2.441
	c-1.247,0.105-2.764-1.329-2.718-2.569c0.039-1.046,1.306-2.241,2.424-2.289C224.581,467.208,225.593,468.21,225.636,469.683z"/>
<path fill-rule="evenodd" clip-rule="evenodd" fill="#F5F3EF" d="M225.26,501.008c0.393,0.064,0.742,0.125,0.681,0.582
	c-0.034,0.256-0.195,0.437-0.494,0.438c-0.343,0.002-0.687-0.036-0.764-0.434C224.589,501.107,225.046,501.15,225.26,501.008z"/>
<path fill-rule="evenodd" clip-rule="evenodd" fill="#D1CECF" d="M173.42,427.56c0.06,0,0.135-0.023,0.172,0.004
	c0.148,0.111,0.114,0.24-0.098,0.335c-0.024,0.011-0.129-0.104-0.155-0.174C173.324,427.684,173.392,427.612,173.42,427.56z"/>
<line fill="none" stroke="#23A568" stroke-width="4" stroke-miterlimit="10" x1="330.042" y1="543.085" x2="442.086" y2="577.947"/>
<line fill="none" stroke="#C2B028" stroke-width="4" stroke-miterlimit="10" x1="151.788" y1="502.659" x2="129.643" y2="633.775"/>
<line fill="none" stroke="#2380C2" stroke-width="4" stroke-miterlimit="10" x1="216.417" y1="528.282" x2="220.313" y2="574.108"/>
<line fill="none" stroke="#C2B028" stroke-width="4" stroke-miterlimit="10" x1="217.108" y1="525.233" x2="318.229" y2="539.834"/>
<line fill="none" stroke="#EF8239" stroke-width="4" stroke-miterlimit="10" x1="90.313" y1="489.1" x2="84.856" y2="522.477"/>
<line fill="none" stroke="#EF8239" stroke-width="4" stroke-miterlimit="10" x1="91.217" y1="405.706" x2="91.769" y2="478.959"/>
<line fill="none" stroke="#EC729F" stroke-width="4" stroke-miterlimit="10" x1="87.269" y1="400.902" x2="58.345" y2="410.85"/>
<line fill="none" stroke="#EF8239" stroke-width="4" stroke-miterlimit="10" x1="79.974" y1="234.213" x2="91.557" y2="399.693"/>
<line stroke="#000000" stroke-width="4" stroke-miterlimit="10" x1="77.308" y1="231.021" x2="17.64" y2="228.816"/>
<line fill="none" stroke="#FEDC32" stroke-width="4" stroke-miterlimit="10" x1="372.995" y1="278.65" x2="410.301" y2="362.633"/>
<line fill="none" stroke="#FEDC32" stroke-width="4" stroke-miterlimit="10" x1="302.145" y1="245.353" x2="373.155" y2="272.849"/>
<line fill="none" stroke="#FEDC32" stroke-width="4" stroke-miterlimit="10" x1="230.897" y1="202.046" x2="291.078" y2="241.57"/>
<line fill="none" stroke="#23A568" stroke-width="4" stroke-miterlimit="10" x1="474.433" y1="168.972" x2="379.091" y2="274.37"/>
<line fill="none" stroke="#EC729F" stroke-width="4" stroke-miterlimit="10" x1="299.646" y1="322.43" x2="408.108" y2="368.479"/>
<line fill="none" stroke="#8F368C" stroke-width="4" stroke-miterlimit="10" x1="416.059" y1="369.224" x2="545.773" y2="581.839"/>
<line fill="none" stroke="#C2B028" stroke-width="4" stroke-miterlimit="10" x1="181.933" y1="393.433" x2="152.717" y2="496.571"/>
<line fill="none" stroke="#2380C2" stroke-width="4" stroke-miterlimit="10" x1="237.389" y1="389.053" x2="218.224" y2="523.356"/>
<line fill="none" stroke="#444041" stroke-width="4" stroke-miterlimit="10" x1="280.81" y1="386.341" x2="411.187" y2="370.643"/>
<line fill="none" stroke="#82C8BA" stroke-width="4" stroke-miterlimit="10" x1="278.893" y1="331.86" x2="276.176" y2="380.379"/>
<line fill="none" stroke="#23A568" stroke-width="4" stroke-miterlimit="10" x1="296.426" y1="315.432" x2="369.043" y2="278.034"/>
<line stroke="#000000" stroke-width="4" stroke-miterlimit="10" x1="84.604" y1="231.022" x2="202.076" y2="297.92"/>
<line fill="none" stroke="#EC729F" stroke-width="4" stroke-miterlimit="10" x1="195.706" y1="333.011" x2="94.324" y2="399.688"/>
<line fill="none" stroke="#C2B028" stroke-width="4" stroke-miterlimit="10" x1="202.187" y1="300.93" x2="184.674" y2="387.616"/>
<line fill="none" stroke="#444041" stroke-width="4" stroke-miterlimit="10" x1="94.324" y1="399.688" x2="178.964" y2="390.546"/>
<line fill="none" stroke="#2380C2" stroke-width="4" stroke-miterlimit="10" x1="242.668" y1="335.976" x2="235.546" y2="382.061"/>
<line fill="none" stroke="#82C8BA" stroke-width="4" stroke-miterlimit="10" x1="284.451" y1="296.083" x2="277.448" y2="326.706"/>
<line fill="none" stroke="#82C8BA" stroke-width="4" stroke-miterlimit="10" x1="284.272" y1="287.609" x2="294.398" y2="248.372"/>
<line fill="none" stroke="#23A568" stroke-width="4" stroke-miterlimit="10" x1="228.974" y1="277.188" x2="282.846" y2="291.824"/>
<line fill="none" stroke="#82C8BA" stroke-width="4" stroke-miterlimit="10" x1="297.931" y1="242.602" x2="313.991" y2="195.197"/>
<line fill="none" stroke="#EF8239" stroke-width="4" stroke-miterlimit="10" x1="73.577" y1="109.504" x2="82.879" y2="228.101"/>
<line fill="none" stroke="#C2B028" stroke-width="4" stroke-miterlimit="10" x1="236.492" y1="205.032" x2="213.138" y2="273.063"/>
<line fill="none" stroke="#23A568" stroke-width="4" stroke-miterlimit="10" x1="220.953" y1="333.332" x2="234.52" y2="382.061"/>
<line fill="none" stroke="#444041" stroke-width="4" stroke-miterlimit="10" x1="232.747" y1="384.713" x2="184.428" y2="389.754"/>
<line fill="none" stroke="#C2B028" stroke-width="4" stroke-miterlimit="10" x1="155" y1="503.447" x2="214.237" y2="525.233"/>
<line fill="none" stroke="#C2B028" stroke-width="4" stroke-miterlimit="10" x1="92.319" y1="483.78" x2="147.513" y2="497.389"/>
<line fill="none" stroke="#444041" stroke-width="4" stroke-miterlimit="10" x1="276.373" y1="386.179" x2="238.531" y2="384.983"/>
<line fill="none" stroke="#23A568" stroke-width="4" stroke-miterlimit="10" x1="280.32" y1="402.118" x2="235.486" y2="387.553"/>
<line fill="none" stroke="#83C8BA" stroke-width="4" stroke-miterlimit="10" x1="276.867" y1="383.253" x2="277.486" y2="396.222"/>
<line stroke="#000000" stroke-width="4" stroke-miterlimit="10" x1="224.308" y1="305.768" x2="221.761" y2="329.531"/>
<line stroke="#000000" stroke-width="4" stroke-miterlimit="10" x1="227.84" y1="278.951" x2="225.293" y2="302.714"/>
<line fill="none" stroke="#C2B028" stroke-width="4" stroke-miterlimit="10" x1="210.059" y1="276.579" x2="200.862" y2="298.638"/>
<line stroke="#000000" stroke-width="4" stroke-miterlimit="10" x1="223.117" y1="301.825" x2="246.391" y2="329.527"/>
<line fill="none" stroke="#23A568" stroke-width="4" stroke-miterlimit="10" x1="178.902" y1="269.752" x2="211.474" y2="273.947"/>
<line fill="none" stroke="#23A568" stroke-width="4" stroke-miterlimit="10" x1="214.665" y1="276.231" x2="223.935" y2="277.424"/>
<line fill="none" stroke="#EC729F" stroke-width="4" stroke-miterlimit="10" x1="247.646" y1="331.523" x2="277.448" y2="326.706"/>
<line fill="none" stroke="#EC729F" stroke-width="4" stroke-miterlimit="10" x1="281.647" y1="327.755" x2="296.822" y2="322.938"/>
<line fill="none" stroke="#23A568" stroke-width="4" stroke-miterlimit="10" x1="285.785" y1="295.441" x2="293.851" y2="317.14"/>
<line stroke="#000000" stroke-width="4" stroke-miterlimit="10" x1="208.026" y1="298.736" x2="220.727" y2="302.349"/>
<line fill="none" stroke="#C2B028" stroke-width="4" stroke-miterlimit="10" x1="322.756" y1="545.897" x2="513.01" y2="701.963"/>
<line fill="none" stroke="#23A568" stroke-width="4" stroke-miterlimit="10" x1="280.32" y1="402.761" x2="322.087" y2="540.459"/>
<g>
	<g>
		<path fill-rule="evenodd" clip-rule="evenodd" d="M152.408,506.802c-0.414,0-0.828,0-1.241,0
			c-0.429-0.076-0.866-0.122-1.284-0.236c-3.102-0.844-5.082-2.822-5.925-5.924c-0.114-0.42-0.16-0.856-0.237-1.285
			c0-0.414,0-0.827,0-1.241c0.027-0.163,0.059-0.326,0.082-0.491c0.442-3.216,2.777-5.859,5.918-6.678
			c0.474-0.124,0.964-0.187,1.446-0.277c0.414,0,0.827,0,1.241,0c0.436,0.079,0.881,0.125,1.307,0.242
			c3.088,0.852,5.063,2.826,5.901,5.92c0.113,0.418,0.16,0.855,0.237,1.284c0,0.414,0,0.827,0,1.241
			c-0.028,0.163-0.061,0.326-0.082,0.49c-0.421,3.183-2.782,5.865-5.896,6.673C153.396,506.645,152.898,506.71,152.408,506.802z
			 M151.793,505.325c3.623-0.004,6.594-2.979,6.583-6.594c-0.01-3.633-2.978-6.595-6.594-6.584c-3.632,0.01-6.588,2.971-6.584,6.594
			C145.203,502.365,148.17,505.328,151.793,505.325z"/>
		<path fill-rule="evenodd" clip-rule="evenodd" fill="#FFFFFF" d="M151.793,505.325c-3.623,0.003-6.59-2.96-6.594-6.584
			c-0.004-3.623,2.952-6.584,6.584-6.594c3.616-0.011,6.584,2.951,6.594,6.584C158.387,502.346,155.416,505.321,151.793,505.325z"/>
	</g>
	<text transform="matrix(1 0 0 1 148.1802 503.1943)" font-family="'MyriadPro-Regular'" font-size="12">Ñ</text>
</g>
<g>
	<g>
		<path fill-rule="evenodd" clip-rule="evenodd" d="M83.747,533.3c-0.414,0-0.828,0-1.241,0c-0.429-0.076-0.866-0.122-1.284-0.236
			c-3.102-0.844-5.082-2.822-5.925-5.924c-0.114-0.42-0.16-0.856-0.237-1.285c0-0.414,0-0.827,0-1.241
			c0.027-0.163,0.059-0.326,0.082-0.491c0.442-3.216,2.777-5.859,5.918-6.678c0.474-0.124,0.964-0.187,1.446-0.277
			c0.414,0,0.827,0,1.241,0c0.436,0.079,0.881,0.125,1.307,0.242c3.088,0.852,5.064,2.826,5.902,5.92
			c0.113,0.418,0.16,0.855,0.236,1.284c0,0.414,0,0.827,0,1.241c-0.027,0.163-0.061,0.326-0.082,0.49
			c-0.42,3.183-2.781,5.865-5.895,6.673C84.735,533.143,84.237,533.208,83.747,533.3z M83.132,531.823
			c3.623-0.004,6.594-2.979,6.584-6.594c-0.01-3.633-2.979-6.595-6.594-6.584c-3.632,0.01-6.588,2.971-6.584,6.594
			C76.542,528.863,79.509,531.826,83.132,531.823z"/>
		<path fill-rule="evenodd" clip-rule="evenodd" fill="#FFFFFF" d="M83.132,531.823c-3.623,0.003-6.59-2.96-6.594-6.584
			c-0.004-3.623,2.952-6.584,6.584-6.594c3.616-0.011,6.584,2.951,6.594,6.584C89.726,528.844,86.755,531.819,83.132,531.823z"/>
	</g>
	<text transform="matrix(1 0 0 1 79.519 529.6924)" font-family="'MyriadPro-Regular'" font-size="12">B</text>
</g>
<g>
	<g>
		<path fill-rule="evenodd" clip-rule="evenodd" d="M91.934,492.847c-0.414,0-0.828,0-1.241,0c-0.429-0.076-0.866-0.122-1.284-0.236
			c-3.102-0.844-5.082-2.822-5.925-5.924c-0.114-0.42-0.16-0.856-0.237-1.285c0-0.414,0-0.827,0-1.241
			c0.027-0.163,0.059-0.326,0.082-0.491c0.442-3.216,2.777-5.859,5.918-6.678c0.474-0.124,0.964-0.187,1.446-0.277
			c0.414,0,0.827,0,1.241,0c0.436,0.079,0.881,0.125,1.307,0.242c3.088,0.852,5.064,2.826,5.902,5.92
			c0.113,0.418,0.16,0.855,0.236,1.284c0,0.414,0,0.827,0,1.241c-0.027,0.163-0.061,0.326-0.082,0.49
			c-0.42,3.183-2.781,5.865-5.895,6.673C92.922,492.689,92.423,492.755,91.934,492.847z M91.318,491.37
			c3.623-0.004,6.594-2.979,6.584-6.594c-0.01-3.633-2.979-6.595-6.594-6.584c-3.632,0.01-6.588,2.971-6.584,6.594
			C84.728,488.41,87.695,491.373,91.318,491.37z"/>
		<path fill-rule="evenodd" clip-rule="evenodd" fill="#FFFFFF" d="M91.318,491.37c-3.623,0.003-6.59-2.96-6.594-6.584
			c-0.004-3.623,2.952-6.584,6.584-6.594c3.616-0.011,6.584,2.951,6.594,6.584C97.912,488.391,94.941,491.366,91.318,491.37z"/>
	</g>
	<text transform="matrix(1 0 0 1 87.7056 489.2393)" font-family="'MyriadPro-Regular'" font-size="12">O</text>
</g>
<g>
	<g>
		<path fill-rule="evenodd" clip-rule="evenodd" d="M128.156,645.126c-0.414,0-0.828,0-1.241,0
			c-0.429-0.076-0.866-0.122-1.284-0.236c-3.102-0.844-5.082-2.822-5.925-5.924c-0.114-0.42-0.16-0.856-0.237-1.285
			c0-0.414,0-0.827,0-1.241c0.027-0.163,0.059-0.326,0.082-0.491c0.442-3.216,2.777-5.859,5.918-6.678
			c0.474-0.124,0.964-0.187,1.446-0.277c0.414,0,0.827,0,1.241,0c0.436,0.079,0.881,0.125,1.307,0.242
			c3.088,0.852,5.064,2.826,5.902,5.92c0.113,0.418,0.16,0.855,0.236,1.284c0,0.414,0,0.827,0,1.241
			c-0.027,0.163-0.061,0.326-0.082,0.49c-0.42,3.183-2.781,5.865-5.895,6.673C129.145,644.969,128.646,645.034,128.156,645.126z
			 M127.541,643.649c3.623-0.004,6.594-2.979,6.584-6.594c-0.01-3.633-2.979-6.595-6.594-6.584c-3.632,0.01-6.588,2.971-6.584,6.594
			C120.951,640.689,123.918,643.652,127.541,643.649z"/>
		<path fill-rule="evenodd" clip-rule="evenodd" fill="#FFFFFF" d="M127.541,643.649c-3.623,0.003-6.59-2.96-6.594-6.584
			c-0.004-3.623,2.952-6.584,6.584-6.594c3.616-0.011,6.584,2.951,6.594,6.584C134.135,640.67,131.164,643.646,127.541,643.649z"/>
	</g>
	<text transform="matrix(1 0 0 1 123.9282 641.5186)" font-family="'MyriadPro-Regular'" font-size="12">A</text>
</g>
<g>
	<g>
		<path fill-rule="evenodd" clip-rule="evenodd" d="M215.991,534.489c-0.414,0-0.828,0-1.241,0
			c-0.429-0.076-0.866-0.122-1.284-0.236c-3.102-0.844-5.082-2.822-5.925-5.924c-0.114-0.42-0.16-0.856-0.237-1.285
			c0-0.414,0-0.827,0-1.241c0.027-0.163,0.059-0.326,0.082-0.491c0.442-3.216,2.777-5.859,5.918-6.678
			c0.474-0.124,0.964-0.187,1.446-0.277c0.414,0,0.827,0,1.241,0c0.436,0.079,0.881,0.125,1.307,0.242
			c3.088,0.852,5.064,2.826,5.902,5.92c0.113,0.418,0.16,0.855,0.236,1.284c0,0.414,0,0.827,0,1.241
			c-0.027,0.163-0.061,0.326-0.082,0.49c-0.42,3.183-2.781,5.865-5.895,6.673C216.979,534.332,216.481,534.397,215.991,534.489z
			 M215.376,533.013c3.623-0.004,6.594-2.979,6.584-6.594c-0.01-3.633-2.979-6.595-6.594-6.584c-3.632,0.01-6.588,2.971-6.584,6.594
			C208.786,530.053,211.753,533.016,215.376,533.013z"/>
		<path fill-rule="evenodd" clip-rule="evenodd" fill="#FFFFFF" d="M215.376,533.013c-3.623,0.003-6.59-2.96-6.594-6.584
			c-0.004-3.623,2.952-6.584,6.584-6.594c3.616-0.011,6.584,2.951,6.594,6.584C221.97,530.033,218.999,533.009,215.376,533.013z"/>
	</g>
	<text transform="matrix(1 0 0 1 211.7632 530.8818)" font-family="'MyriadPro-Regular'" font-size="12">N</text>
</g>
<g>
	<g>
		<path fill-rule="evenodd" clip-rule="evenodd" d="M220.211,583.378c-0.414,0-0.828,0-1.241,0
			c-0.429-0.076-0.866-0.122-1.284-0.236c-3.102-0.844-5.082-2.822-5.925-5.924c-0.114-0.42-0.16-0.856-0.237-1.285
			c0-0.414,0-0.827,0-1.241c0.027-0.163,0.059-0.326,0.082-0.491c0.442-3.216,2.777-5.859,5.918-6.678
			c0.474-0.124,0.964-0.187,1.446-0.277c0.414,0,0.827,0,1.241,0c0.436,0.079,0.881,0.125,1.307,0.242
			c3.088,0.852,5.064,2.826,5.902,5.92c0.113,0.418,0.16,0.855,0.236,1.284c0,0.414,0,0.827,0,1.241
			c-0.027,0.163-0.061,0.326-0.082,0.49c-0.42,3.183-2.781,5.865-5.895,6.673C221.199,583.221,220.701,583.286,220.211,583.378z
			 M219.596,581.901c3.623-0.004,6.594-2.979,6.584-6.594c-0.01-3.633-2.979-6.595-6.594-6.584c-3.632,0.01-6.588,2.971-6.584,6.594
			C213.005,578.941,215.973,581.904,219.596,581.901z"/>
		<path fill-rule="evenodd" clip-rule="evenodd" fill="#FFFFFF" d="M219.596,581.901c-3.623,0.003-6.59-2.96-6.594-6.584
			c-0.004-3.623,2.952-6.584,6.584-6.594c3.616-0.011,6.584,2.951,6.594,6.584C226.189,578.922,223.219,581.897,219.596,581.901z"/>
	</g>
	<text transform="matrix(1 0 0 1 214.9829 579.7705)" font-family="'MyriadPro-Regular'" font-size="12">M</text>
</g>
<g>
	<g>
		<path fill-rule="evenodd" clip-rule="evenodd" d="M323.377,551.151c-0.414,0-0.828,0-1.241,0
			c-0.429-0.076-0.866-0.122-1.284-0.236c-3.102-0.844-5.082-2.822-5.925-5.924c-0.114-0.42-0.159-0.856-0.237-1.285
			c0-0.414,0-0.827,0-1.241c0.027-0.163,0.06-0.326,0.082-0.491c0.442-3.216,2.777-5.859,5.918-6.678
			c0.474-0.124,0.964-0.187,1.446-0.277c0.413,0,0.827,0,1.241,0c0.436,0.079,0.881,0.125,1.307,0.242
			c3.088,0.852,5.064,2.826,5.902,5.92c0.113,0.418,0.16,0.855,0.236,1.284c0,0.414,0,0.827,0,1.241
			c-0.027,0.163-0.061,0.326-0.082,0.49c-0.42,3.183-2.781,5.865-5.895,6.673C324.365,550.994,323.867,551.06,323.377,551.151z
			 M322.762,549.675c3.623-0.004,6.594-2.979,6.584-6.594c-0.01-3.633-2.979-6.595-6.594-6.584c-3.633,0.01-6.588,2.971-6.584,6.594
			C316.172,546.715,319.139,549.678,322.762,549.675z"/>
		<path fill-rule="evenodd" clip-rule="evenodd" fill="#FFFFFF" d="M322.762,549.675c-3.623,0.003-6.59-2.96-6.594-6.584
			c-0.004-3.623,2.951-6.584,6.584-6.594c3.615-0.011,6.584,2.951,6.594,6.584C329.355,546.695,326.385,549.671,322.762,549.675z"/>
	</g>
	<text transform="matrix(1 0 0 1 319.1484 547.5439)" font-family="'MyriadPro-Regular'" font-size="12">X</text>
</g>
<g>
	<g>
		<path fill-rule="evenodd" clip-rule="evenodd" d="M444.47,587.326c-0.414,0-0.827,0-1.241,0c-0.429-0.076-0.865-0.122-1.284-0.236
			c-3.103-0.844-5.081-2.822-5.925-5.924c-0.113-0.42-0.16-0.856-0.236-1.285c0-0.414,0-0.827,0-1.241
			c0.027-0.163,0.059-0.326,0.081-0.491c0.442-3.216,2.777-5.859,5.918-6.678c0.474-0.124,0.964-0.187,1.446-0.277
			c0.414,0,0.827,0,1.241,0c0.437,0.079,0.881,0.125,1.307,0.242c3.088,0.852,5.064,2.826,5.902,5.92
			c0.113,0.418,0.16,0.855,0.236,1.284c0,0.414,0,0.827,0,1.241c-0.027,0.163-0.061,0.326-0.082,0.49
			c-0.42,3.183-2.781,5.865-5.895,6.673C445.458,587.169,444.959,587.234,444.47,587.326z M443.854,585.85
			c3.623-0.004,6.594-2.979,6.584-6.594c-0.01-3.633-2.979-6.595-6.595-6.584c-3.631,0.01-6.588,2.971-6.584,6.594
			C437.264,582.89,440.231,585.853,443.854,585.85z"/>
		<path fill-rule="evenodd" clip-rule="evenodd" fill="#FFFFFF" d="M443.854,585.85c-3.623,0.003-6.591-2.96-6.595-6.584
			c-0.004-3.623,2.953-6.584,6.584-6.594c3.616-0.011,6.585,2.951,6.595,6.584C450.448,582.87,447.478,585.846,443.854,585.85z"/>
	</g>
	<text transform="matrix(1 0 0 1 440.2422 583.7188)" font-family="'MyriadPro-Regular'" font-size="12">K</text>
</g>
<g>
	<g>
		<path fill-rule="evenodd" clip-rule="evenodd" d="M516.31,712.736c-0.414,0-0.827,0-1.241,0c-0.429-0.076-0.865-0.122-1.284-0.236
			c-3.103-0.844-5.081-2.822-5.925-5.924c-0.113-0.42-0.16-0.856-0.236-1.285c0-0.414,0-0.827,0-1.241
			c0.027-0.163,0.059-0.326,0.081-0.491c0.442-3.216,2.777-5.859,5.918-6.678c0.474-0.124,0.964-0.187,1.446-0.277
			c0.414,0,0.827,0,1.241,0c0.437,0.079,0.881,0.125,1.307,0.242c3.088,0.852,5.064,2.826,5.902,5.92
			c0.113,0.418,0.16,0.855,0.236,1.284c0,0.414,0,0.827,0,1.241c-0.027,0.163-0.061,0.326-0.082,0.49
			c-0.42,3.183-2.781,5.865-5.895,6.673C517.298,712.579,516.799,712.645,516.31,712.736z M515.694,711.26
			c3.623-0.004,6.594-2.979,6.584-6.594c-0.01-3.633-2.979-6.595-6.595-6.584c-3.631,0.01-6.588,2.971-6.584,6.594
			C509.104,708.3,512.071,711.263,515.694,711.26z"/>
		<path fill-rule="evenodd" clip-rule="evenodd" fill="#FFFFFF" d="M515.694,711.26c-3.623,0.003-6.591-2.96-6.595-6.584
			c-0.004-3.623,2.953-6.584,6.584-6.594c3.616-0.011,6.585,2.951,6.595,6.584C522.288,708.28,519.317,711.256,515.694,711.26z"/>
	</g>
	<text transform="matrix(1 0 0 1 513.082 709.1289)" font-family="'MyriadPro-Regular'" font-size="12">L</text>
</g>
<g>
	<g>
		<path fill-rule="evenodd" clip-rule="evenodd" d="M546.394,588.465c-0.414,0-0.827,0-1.241,0
			c-0.429-0.076-0.865-0.122-1.284-0.236c-3.103-0.844-5.081-2.822-5.925-5.924c-0.113-0.42-0.16-0.856-0.236-1.285
			c0-0.414,0-0.827,0-1.241c0.027-0.163,0.059-0.326,0.081-0.491c0.442-3.216,2.777-5.859,5.918-6.678
			c0.474-0.124,0.964-0.187,1.446-0.277c0.414,0,0.827,0,1.241,0c0.437,0.079,0.881,0.125,1.307,0.242
			c3.088,0.852,5.064,2.826,5.902,5.92c0.113,0.418,0.16,0.855,0.236,1.284c0,0.414,0,0.827,0,1.241
			c-0.027,0.163-0.061,0.326-0.082,0.49c-0.42,3.183-2.781,5.865-5.895,6.673C547.382,588.308,546.883,588.373,546.394,588.465z
			 M545.778,586.988c3.623-0.004,6.594-2.979,6.584-6.594c-0.01-3.633-2.979-6.595-6.595-6.584c-3.631,0.01-6.588,2.971-6.584,6.594
			C539.188,584.028,542.155,586.991,545.778,586.988z"/>
		<path fill-rule="evenodd" clip-rule="evenodd" fill="#FFFFFF" d="M545.778,586.988c-3.623,0.003-6.591-2.96-6.595-6.584
			c-0.004-3.623,2.953-6.584,6.584-6.594c3.616-0.011,6.585,2.951,6.595,6.584C552.372,584.009,549.401,586.984,545.778,586.988z"/>
	</g>
	<text transform="matrix(1 0 0 1 543.166 584.8574)" font-family="'MyriadPro-Regular'" font-size="12">J</text>
</g>
<g>
	<g>
		<path fill-rule="evenodd" clip-rule="evenodd" d="M280.94,409.754c-0.414,0-0.828,0-1.241,0c-0.429-0.076-0.866-0.122-1.284-0.236
			c-3.102-0.844-5.082-2.822-5.925-5.924c-0.114-0.42-0.16-0.856-0.237-1.285c0-0.414,0-0.827,0-1.241
			c0.027-0.163,0.059-0.326,0.082-0.491c0.442-3.216,2.777-5.859,5.918-6.678c0.474-0.124,0.964-0.187,1.446-0.277
			c0.414,0,0.827,0,1.241,0c0.436,0.079,0.881,0.125,1.307,0.242c3.088,0.852,5.064,2.826,5.902,5.92
			c0.113,0.418,0.16,0.855,0.236,1.284c0,0.414,0,0.827,0,1.241c-0.027,0.163-0.061,0.326-0.082,0.49
			c-0.42,3.183-2.781,5.865-5.895,6.673C281.929,409.597,281.43,409.663,280.94,409.754z M280.325,408.278
			c3.623-0.004,6.594-2.979,6.584-6.594c-0.01-3.633-2.979-6.595-6.594-6.584c-3.632,0.01-6.588,2.971-6.584,6.594
			C273.735,405.318,276.702,408.281,280.325,408.278z"/>
		<path fill-rule="evenodd" clip-rule="evenodd" fill="#FFFFFF" d="M280.325,408.278c-3.623,0.003-6.59-2.96-6.594-6.584
			c-0.004-3.623,2.952-6.584,6.584-6.594c3.616-0.011,6.584,2.951,6.594,6.584C286.919,405.298,283.948,408.274,280.325,408.278z"/>
	</g>
	<text transform="matrix(1 0 0 1 276.7124 406.147)" font-family="'MyriadPro-Regular'" font-size="12">Y</text>
</g>
<g>
	<g>
		<path fill-rule="evenodd" clip-rule="evenodd" d="M412.577,376.545c-0.414,0-0.827,0-1.241,0
			c-0.429-0.076-0.865-0.122-1.284-0.236c-3.103-0.844-5.081-2.822-5.925-5.924c-0.113-0.42-0.16-0.856-0.236-1.285
			c0-0.414,0-0.827,0-1.241c0.027-0.163,0.059-0.326,0.081-0.491c0.442-3.216,2.777-5.859,5.918-6.678
			c0.474-0.124,0.964-0.187,1.446-0.277c0.414,0,0.827,0,1.241,0c0.437,0.079,0.881,0.125,1.307,0.242
			c3.088,0.852,5.064,2.826,5.902,5.92c0.113,0.418,0.16,0.855,0.236,1.284c0,0.414,0,0.827,0,1.241
			c-0.027,0.163-0.061,0.326-0.082,0.49c-0.42,3.183-2.781,5.865-5.895,6.673C413.565,376.388,413.066,376.453,412.577,376.545z
			 M411.962,375.068c3.623-0.004,6.594-2.979,6.584-6.594c-0.01-3.633-2.979-6.595-6.595-6.584c-3.631,0.01-6.588,2.971-6.584,6.594
			C405.371,372.108,408.339,375.071,411.962,375.068z"/>
		<path fill-rule="evenodd" clip-rule="evenodd" fill="#FFFFFF" d="M411.962,375.068c-3.623,0.003-6.591-2.96-6.595-6.584
			c-0.004-3.623,2.953-6.584,6.584-6.594c3.616-0.011,6.585,2.951,6.595,6.584C418.556,372.089,415.585,375.064,411.962,375.068z"/>
	</g>
	<text transform="matrix(1 0 0 1 407.3496 372.9375)" font-family="'MyriadPro-Regular'" font-size="12">W</text>
</g>
<g>
	<g>
		<path fill-rule="evenodd" clip-rule="evenodd" d="M237.144,394.246c-0.414,0-0.828,0-1.241,0
			c-0.429-0.076-0.866-0.122-1.284-0.236c-3.102-0.844-5.082-2.822-5.925-5.924c-0.114-0.42-0.16-0.856-0.237-1.285
			c0-0.414,0-0.827,0-1.241c0.027-0.163,0.059-0.326,0.082-0.491c0.442-3.216,2.777-5.859,5.918-6.678
			c0.474-0.124,0.964-0.187,1.446-0.277c0.414,0,0.827,0,1.241,0c0.436,0.079,0.881,0.125,1.307,0.242
			c3.088,0.852,5.064,2.826,5.902,5.92c0.113,0.418,0.16,0.855,0.236,1.284c0,0.414,0,0.827,0,1.241
			c-0.027,0.163-0.061,0.326-0.082,0.49c-0.42,3.183-2.781,5.865-5.895,6.673C238.132,394.088,237.633,394.154,237.144,394.246z
			 M236.528,392.769c3.623-0.004,6.594-2.979,6.584-6.594c-0.01-3.633-2.979-6.595-6.594-6.584c-3.632,0.01-6.588,2.971-6.584,6.594
			C229.938,389.809,232.905,392.772,236.528,392.769z"/>
		<path fill-rule="evenodd" clip-rule="evenodd" fill="#FFFFFF" d="M236.528,392.769c-3.623,0.003-6.59-2.96-6.594-6.584
			c-0.004-3.623,2.952-6.584,6.584-6.594c3.616-0.011,6.584,2.951,6.594,6.584C243.122,389.79,240.151,392.765,236.528,392.769z"/>
	</g>
	
		<text transform="matrix(1 0 0 1 231.9155 388.6382)" stroke="#000000" stroke-miterlimit="10" font-family="'GreekC'" font-size="12">a</text>
</g>
<g>
	<g>
		<path fill-rule="evenodd" clip-rule="evenodd" d="M183.72,398.612c-0.414,0-0.828,0-1.241,0c-0.429-0.076-0.866-0.122-1.284-0.236
			c-3.102-0.844-5.082-2.822-5.925-5.924c-0.114-0.42-0.16-0.856-0.237-1.285c0-0.414,0-0.827,0-1.241
			c0.027-0.163,0.059-0.326,0.082-0.491c0.442-3.216,2.777-5.859,5.918-6.678c0.474-0.124,0.964-0.187,1.446-0.277
			c0.414,0,0.827,0,1.241,0c0.436,0.079,0.881,0.125,1.307,0.242c3.088,0.852,5.064,2.826,5.902,5.92
			c0.113,0.418,0.16,0.855,0.236,1.284c0,0.414,0,0.827,0,1.241c-0.027,0.163-0.061,0.326-0.082,0.49
			c-0.42,3.183-2.781,5.865-5.895,6.673C184.708,398.455,184.209,398.521,183.72,398.612z M183.104,397.136
			c3.623-0.004,6.594-2.979,6.584-6.594c-0.01-3.633-2.979-6.595-6.594-6.584c-3.632,0.01-6.588,2.971-6.584,6.594
			C176.514,394.176,179.481,397.139,183.104,397.136z"/>
		<path fill-rule="evenodd" clip-rule="evenodd" fill="#FFFFFF" d="M183.104,397.136c-3.623,0.003-6.59-2.96-6.594-6.584
			c-0.004-3.623,2.952-6.584,6.584-6.594c3.616-0.011,6.584,2.951,6.594,6.584C189.698,394.156,186.728,397.132,183.104,397.136z"/>
	</g>
	
		<text transform="matrix(1 0 0 1 179.4917 395.0049)" stroke="#000000" stroke-miterlimit="10" font-family="'GreekC'" font-size="12">b</text>
</g>
<g>
	<g>
		<path fill-rule="evenodd" clip-rule="evenodd" d="M276.775,391.055c-0.414,0-0.828,0-1.241,0
			c-0.429-0.076-0.866-0.122-1.284-0.236c-3.102-0.844-5.082-2.822-5.925-5.924c-0.114-0.42-0.16-0.856-0.237-1.285
			c0-0.414,0-0.827,0-1.241c0.027-0.163,0.059-0.326,0.082-0.491c0.442-3.216,2.777-5.859,5.918-6.678
			c0.474-0.124,0.964-0.187,1.446-0.277c0.414,0,0.827,0,1.241,0c0.436,0.079,0.881,0.125,1.307,0.242
			c3.088,0.852,5.064,2.826,5.902,5.92c0.113,0.418,0.16,0.855,0.236,1.284c0,0.414,0,0.827,0,1.241
			c-0.027,0.163-0.061,0.326-0.082,0.49c-0.42,3.183-2.781,5.865-5.895,6.673C277.763,390.898,277.265,390.963,276.775,391.055z
			 M276.16,389.579c3.623-0.004,6.594-2.979,6.584-6.594c-0.01-3.633-2.979-6.595-6.594-6.584c-3.632,0.01-6.588,2.971-6.584,6.594
			C269.569,386.619,272.537,389.582,276.16,389.579z"/>
		<path fill-rule="evenodd" clip-rule="evenodd" fill="#FFFFFF" d="M276.16,389.579c-3.623,0.003-6.59-2.96-6.594-6.584
			c-0.004-3.623,2.952-6.584,6.584-6.594c3.616-0.011,6.584,2.951,6.594,6.584C282.753,386.599,279.783,389.575,276.16,389.579z"/>
	</g>
	<text transform="matrix(1 0 0 1 272.5469 387.4478)" font-family="'MyriadPro-Regular'" font-size="12">Z</text>
</g>
<g>
	<g>
		<path fill-rule="evenodd" clip-rule="evenodd" d="M277.94,336.775c-0.414,0-0.828,0-1.241,0c-0.429-0.076-0.866-0.122-1.284-0.236
			c-3.102-0.844-5.082-2.822-5.925-5.924c-0.114-0.42-0.16-0.856-0.237-1.285c0-0.414,0-0.827,0-1.241
			c0.027-0.163,0.059-0.326,0.082-0.491c0.442-3.216,2.777-5.859,5.918-6.678c0.474-0.124,0.964-0.187,1.446-0.277
			c0.414,0,0.827,0,1.241,0c0.436,0.079,0.881,0.125,1.307,0.242c3.088,0.852,5.064,2.826,5.902,5.92
			c0.113,0.418,0.16,0.855,0.236,1.284c0,0.414,0,0.827,0,1.241c-0.027,0.163-0.061,0.326-0.082,0.49
			c-0.42,3.183-2.781,5.865-5.895,6.673C278.929,336.618,278.43,336.683,277.94,336.775z M277.325,335.298
			c3.623-0.004,6.594-2.979,6.584-6.594c-0.01-3.633-2.979-6.595-6.594-6.584c-3.632,0.01-6.588,2.971-6.584,6.594
			C270.735,332.338,273.702,335.301,277.325,335.298z"/>
		<path fill-rule="evenodd" clip-rule="evenodd" fill="#FFFFFF" d="M277.325,335.298c-3.623,0.003-6.59-2.96-6.594-6.584
			c-0.004-3.623,2.952-6.584,6.584-6.594c3.616-0.011,6.584,2.951,6.594,6.584C283.919,332.319,280.948,335.294,277.325,335.298z"/>
	</g>
	<text transform="matrix(1 0 0 1 273.7124 333.1675)" font-family="'MyriadPro-Regular'" font-size="12">B</text>
</g>
<g>
	<g>
		<path fill-rule="evenodd" clip-rule="evenodd" d="M247.012,341.398c-0.414,0-0.828,0-1.241,0
			c-0.429-0.076-0.866-0.122-1.284-0.236c-3.102-0.844-5.082-2.822-5.925-5.924c-0.114-0.42-0.16-0.856-0.237-1.285
			c0-0.414,0-0.827,0-1.241c0.027-0.163,0.059-0.326,0.082-0.491c0.442-3.216,2.777-5.859,5.918-6.678
			c0.474-0.124,0.964-0.187,1.446-0.277c0.414,0,0.827,0,1.241,0c0.436,0.079,0.881,0.125,1.307,0.242
			c3.088,0.852,5.064,2.826,5.902,5.92c0.113,0.418,0.16,0.855,0.236,1.284c0,0.414,0,0.827,0,1.241
			c-0.027,0.163-0.061,0.326-0.082,0.49c-0.42,3.183-2.781,5.865-5.895,6.673C248,341.241,247.501,341.306,247.012,341.398z
			 M246.396,339.921c3.623-0.004,6.594-2.979,6.584-6.594c-0.01-3.633-2.979-6.595-6.594-6.584c-3.632,0.01-6.588,2.971-6.584,6.594
			C239.806,336.961,242.773,339.924,246.396,339.921z"/>
		<path fill-rule="evenodd" clip-rule="evenodd" fill="#FFFFFF" d="M246.396,339.921c-3.623,0.003-6.59-2.96-6.594-6.584
			c-0.004-3.623,2.952-6.584,6.584-6.594c3.616-0.011,6.584,2.951,6.594,6.584C252.99,336.942,250.02,339.917,246.396,339.921z"/>
	</g>
	<text transform="matrix(1 0 0 1 242.7837 337.7905)" font-family="'MyriadPro-Regular'" font-size="12">B</text>
</g>
<g>
	<g>
		<path fill-rule="evenodd" clip-rule="evenodd" d="M222.382,339.59c-0.414,0-0.828,0-1.241,0c-0.429-0.076-0.866-0.122-1.284-0.236
			c-3.102-0.844-5.082-2.822-5.925-5.924c-0.114-0.42-0.16-0.856-0.237-1.285c0-0.414,0-0.827,0-1.241
			c0.027-0.163,0.059-0.326,0.082-0.491c0.442-3.216,2.777-5.859,5.918-6.678c0.474-0.124,0.964-0.187,1.446-0.277
			c0.414,0,0.827,0,1.241,0c0.436,0.079,0.881,0.125,1.307,0.242c3.088,0.852,5.064,2.826,5.902,5.92
			c0.113,0.418,0.16,0.855,0.236,1.284c0,0.414,0,0.827,0,1.241c-0.027,0.163-0.061,0.326-0.082,0.49
			c-0.42,3.183-2.781,5.865-5.895,6.673C223.37,339.433,222.872,339.498,222.382,339.59z M221.767,338.113
			c3.623-0.004,6.594-2.979,6.584-6.594c-0.01-3.633-2.979-6.595-6.594-6.584c-3.632,0.01-6.588,2.971-6.584,6.594
			C215.176,335.153,218.144,338.116,221.767,338.113z"/>
		<path fill-rule="evenodd" clip-rule="evenodd" fill="#FFFFFF" d="M221.767,338.113c-3.623,0.003-6.59-2.96-6.594-6.584
			c-0.004-3.623,2.952-6.584,6.584-6.594c3.616-0.011,6.584,2.951,6.594,6.584C228.36,335.134,225.39,338.109,221.767,338.113z"/>
	</g>
	<text transform="matrix(1 0 0 1 218.1538 335.9824)" font-family="'MyriadPro-Regular'" font-size="12">B</text>
</g>
<g>
	<g>
		<path fill-rule="evenodd" clip-rule="evenodd" d="M91.813,410.828c-0.414,0-0.828,0-1.241,0c-0.429-0.076-0.866-0.122-1.284-0.236
			c-3.102-0.844-5.082-2.822-5.925-5.924c-0.114-0.42-0.16-0.856-0.237-1.285c0-0.414,0-0.827,0-1.241
			c0.027-0.163,0.059-0.326,0.082-0.491c0.442-3.216,2.777-5.859,5.918-6.678c0.474-0.124,0.964-0.187,1.446-0.277
			c0.414,0,0.827,0,1.241,0c0.436,0.079,0.881,0.125,1.307,0.242c3.088,0.852,5.064,2.826,5.902,5.92
			c0.113,0.418,0.16,0.855,0.236,1.284c0,0.414,0,0.827,0,1.241c-0.027,0.163-0.061,0.326-0.082,0.49
			c-0.42,3.183-2.781,5.865-5.895,6.673C92.802,410.67,92.303,410.736,91.813,410.828z M91.198,409.351
			c3.623-0.004,6.594-2.979,6.584-6.594c-0.01-3.633-2.979-6.595-6.594-6.584c-3.632,0.01-6.588,2.971-6.584,6.594
			C84.608,406.391,87.575,409.354,91.198,409.351z"/>
		<path fill-rule="evenodd" clip-rule="evenodd" fill="#FFFFFF" d="M91.198,409.351c-3.623,0.003-6.59-2.96-6.594-6.584
			c-0.004-3.623,2.952-6.584,6.584-6.594c3.616-0.011,6.584,2.951,6.594,6.584C97.792,406.372,94.821,409.347,91.198,409.351z"/>
	</g>
	<text transform="matrix(1 0 0 1 87.5854 407.2202)" font-family="'MyriadPro-Regular'" font-size="12">P</text>
</g>
<g>
	<g>
		<path fill-rule="evenodd" clip-rule="evenodd" d="M52.908,418.917c-0.414,0-0.828,0-1.241,0c-0.429-0.076-0.866-0.122-1.284-0.236
			c-3.102-0.844-5.082-2.822-5.925-5.924c-0.114-0.42-0.16-0.856-0.237-1.285c0-0.414,0-0.827,0-1.241
			c0.027-0.163,0.059-0.326,0.082-0.491c0.442-3.216,2.777-5.859,5.918-6.678c0.474-0.124,0.964-0.187,1.446-0.277
			c0.414,0,0.827,0,1.241,0c0.436,0.079,0.881,0.125,1.307,0.242c3.088,0.852,5.064,2.826,5.902,5.92
			c0.113,0.418,0.16,0.855,0.236,1.284c0,0.414,0,0.827,0,1.241c-0.027,0.163-0.061,0.326-0.082,0.49
			c-0.42,3.183-2.781,5.865-5.895,6.673C53.896,418.759,53.398,418.825,52.908,418.917z M52.293,417.44
			c3.623-0.004,6.594-2.979,6.584-6.594c-0.01-3.633-2.979-6.595-6.594-6.584c-3.632,0.01-6.588,2.971-6.584,6.594
			C45.703,414.48,48.67,417.443,52.293,417.44z"/>
		<path fill-rule="evenodd" clip-rule="evenodd" fill="#FFFFFF" d="M52.293,417.44c-3.623,0.003-6.59-2.96-6.594-6.584
			c-0.004-3.623,2.952-6.584,6.584-6.594c3.616-0.011,6.584,2.951,6.594,6.584C58.887,414.46,55.916,417.436,52.293,417.44z"/>
	</g>
	<text transform="matrix(1 0 0 1 48.6802 415.3091)" font-family="'MyriadPro-Regular'" font-size="12">C</text>
</g>
<g>
	<g>
		<path fill-rule="evenodd" clip-rule="evenodd" d="M295.408,250.668c-0.414,0-0.827,0-1.24,0c-0.43-0.076-0.866-0.122-1.285-0.236
			c-3.102-0.844-5.081-2.822-5.924-5.924c-0.114-0.42-0.16-0.856-0.237-1.285c0-0.414,0-0.827,0-1.241
			c0.027-0.163,0.059-0.326,0.082-0.491c0.442-3.216,2.777-5.859,5.917-6.678c0.475-0.124,0.965-0.187,1.447-0.277
			c0.413,0,0.826,0,1.24,0c0.437,0.079,0.881,0.125,1.307,0.242c3.088,0.852,5.064,2.826,5.902,5.92
			c0.113,0.418,0.16,0.855,0.236,1.284c0,0.414,0,0.827,0,1.241c-0.027,0.163-0.061,0.326-0.082,0.49
			c-0.42,3.183-2.781,5.865-5.895,6.673C296.396,250.511,295.898,250.577,295.408,250.668z M294.793,249.192
			c3.623-0.004,6.594-2.979,6.584-6.594c-0.01-3.633-2.979-6.595-6.594-6.584c-3.632,0.01-6.588,2.971-6.584,6.594
			C288.203,246.232,291.17,249.195,294.793,249.192z"/>
		<path fill-rule="evenodd" clip-rule="evenodd" fill="#FFFFFF" d="M294.793,249.192c-3.623,0.003-6.59-2.96-6.594-6.584
			c-0.004-3.623,2.952-6.584,6.584-6.594c3.615-0.011,6.584,2.951,6.594,6.584C301.387,246.212,298.416,249.188,294.793,249.192z"/>
	</g>
	<text transform="matrix(1 0 0 1 291.1807 247.061)" font-family="'MyriadPro-Regular'" font-size="12">U</text>
</g>
<g>
	<g>
		<path fill-rule="evenodd" clip-rule="evenodd" d="M224.929,312.392c-0.414,0-0.828,0-1.241,0
			c-0.429-0.076-0.866-0.122-1.284-0.236c-3.102-0.844-5.082-2.822-5.925-5.924c-0.114-0.42-0.16-0.856-0.237-1.285
			c0-0.414,0-0.827,0-1.241c0.027-0.163,0.059-0.326,0.082-0.491c0.442-3.216,2.777-5.859,5.918-6.678
			c0.474-0.124,0.964-0.187,1.446-0.277c0.414,0,0.827,0,1.241,0c0.436,0.079,0.881,0.125,1.307,0.242
			c3.088,0.852,5.064,2.826,5.902,5.92c0.113,0.418,0.16,0.855,0.236,1.284c0,0.414,0,0.827,0,1.241
			c-0.027,0.163-0.061,0.326-0.082,0.49c-0.42,3.183-2.781,5.865-5.895,6.673C225.917,312.234,225.418,312.3,224.929,312.392z
			 M224.313,310.915c3.623-0.004,6.594-2.979,6.584-6.594c-0.01-3.633-2.979-6.595-6.594-6.584c-3.632,0.01-6.588,2.971-6.584,6.594
			C217.723,307.955,220.69,310.918,224.313,310.915z"/>
		<path fill-rule="evenodd" clip-rule="evenodd" fill="#FFFFFF" d="M224.313,310.915c-3.623,0.003-6.59-2.96-6.594-6.584
			c-0.004-3.623,2.952-6.584,6.584-6.594c3.616-0.011,6.584,2.951,6.594,6.584C230.907,307.936,227.937,310.911,224.313,310.915z"/>
	</g>
	<text transform="matrix(1 0 0 1 220.7007 308.7842)" font-family="'MyriadPro-Regular'" font-size="12">B</text>
</g>
<g>
	<g>
		<path fill-rule="evenodd" clip-rule="evenodd" d="M204.393,306.803c-0.414,0-0.828,0-1.241,0
			c-0.429-0.076-0.866-0.122-1.284-0.236c-3.102-0.844-5.082-2.822-5.925-5.924c-0.114-0.42-0.16-0.856-0.237-1.285
			c0-0.414,0-0.827,0-1.241c0.027-0.163,0.059-0.326,0.082-0.491c0.442-3.216,2.777-5.859,5.918-6.678
			c0.474-0.124,0.964-0.187,1.446-0.277c0.414,0,0.827,0,1.241,0c0.436,0.079,0.881,0.125,1.307,0.242
			c3.088,0.852,5.064,2.826,5.902,5.92c0.113,0.418,0.16,0.855,0.236,1.284c0,0.414,0,0.827,0,1.241
			c-0.027,0.163-0.061,0.326-0.082,0.49c-0.42,3.183-2.781,5.865-5.895,6.673C205.381,306.646,204.882,306.711,204.393,306.803z
			 M203.777,305.326c3.623-0.004,6.594-2.979,6.584-6.594c-0.01-3.633-2.979-6.595-6.594-6.584c-3.632,0.01-6.588,2.971-6.584,6.594
			C197.187,302.366,200.154,305.329,203.777,305.326z"/>
		<path fill-rule="evenodd" clip-rule="evenodd" fill="#FFFFFF" d="M203.777,305.326c-3.623,0.003-6.59-2.96-6.594-6.584
			c-0.004-3.623,2.952-6.584,6.584-6.594c3.616-0.011,6.584,2.951,6.594,6.584C210.371,302.347,207.4,305.322,203.777,305.326z"/>
	</g>
	<text transform="matrix(1 0 0 1 200.1646 303.1953)" font-family="'MyriadPro-Regular'" font-size="12">B</text>
</g>
<g>
	<g>
		<path fill-rule="evenodd" clip-rule="evenodd" d="M80.595,239.088c-0.414,0-0.828,0-1.241,0c-0.429-0.076-0.866-0.122-1.284-0.236
			c-3.102-0.844-5.082-2.822-5.925-5.924c-0.114-0.42-0.16-0.856-0.237-1.285c0-0.414,0-0.827,0-1.241
			c0.027-0.163,0.059-0.326,0.082-0.491c0.442-3.216,2.777-5.859,5.918-6.678c0.474-0.124,0.964-0.187,1.446-0.277
			c0.414,0,0.827,0,1.241,0c0.436,0.079,0.881,0.125,1.307,0.242c3.088,0.852,5.064,2.826,5.902,5.92
			c0.113,0.418,0.16,0.855,0.236,1.284c0,0.414,0,0.827,0,1.241c-0.027,0.163-0.061,0.326-0.082,0.49
			c-0.42,3.183-2.781,5.865-5.895,6.673C81.583,238.931,81.084,238.996,80.595,239.088z M79.979,237.611
			c3.623-0.004,6.594-2.979,6.584-6.594c-0.01-3.633-2.979-6.595-6.594-6.584c-3.632,0.01-6.588,2.971-6.584,6.594
			C73.389,234.651,76.356,237.614,79.979,237.611z"/>
		<path fill-rule="evenodd" clip-rule="evenodd" fill="#FFFFFF" d="M79.979,237.611c-3.623,0.003-6.59-2.96-6.594-6.584
			c-0.004-3.623,2.952-6.584,6.584-6.594c3.616-0.011,6.584,2.951,6.594,6.584C86.573,234.632,83.603,237.607,79.979,237.611z"/>
	</g>
	<text transform="matrix(1.1099 0 0 1 75.4487 235.4805)" font-family="'MyriadPro-Regular'" font-size="12">Q</text>
</g>
<g>
	<g>
		<path fill-rule="evenodd" clip-rule="evenodd" d="M15.408,236.883c-0.414,0-0.828,0-1.241,0c-0.429-0.076-0.866-0.122-1.284-0.236
			c-3.102-0.844-5.082-2.822-5.925-5.924c-0.114-0.42-0.16-0.856-0.237-1.285c0-0.414,0-0.827,0-1.241
			c0.027-0.163,0.059-0.326,0.082-0.491c0.442-3.216,2.777-5.859,5.918-6.678c0.474-0.124,0.964-0.187,1.446-0.277
			c0.414,0,0.827,0,1.241,0c0.436,0.079,0.881,0.125,1.307,0.242c3.088,0.852,5.064,2.826,5.902,5.92
			c0.113,0.418,0.16,0.855,0.236,1.284c0,0.414,0,0.827,0,1.241c-0.027,0.163-0.061,0.326-0.082,0.49
			c-0.42,3.183-2.781,5.865-5.895,6.673C16.396,236.726,15.898,236.791,15.408,236.883z M14.793,235.406
			c3.623-0.004,6.594-2.979,6.584-6.594c-0.01-3.633-2.979-6.595-6.594-6.584c-3.632,0.01-6.588,2.971-6.584,6.594
			C8.203,232.446,11.17,235.409,14.793,235.406z"/>
		<path fill-rule="evenodd" clip-rule="evenodd" fill="#FFFFFF" d="M14.793,235.406c-3.623,0.003-6.59-2.96-6.594-6.584
			c-0.004-3.623,2.952-6.584,6.584-6.594c3.616-0.011,6.584,2.951,6.594,6.584C21.387,232.427,18.416,235.402,14.793,235.406z"/>
	</g>
	<text transform="matrix(1 0 0 1 11.1802 233.2754)" font-family="'MyriadPro-Regular'" font-size="12">D</text>
</g>
<g>
	<g>
		<path fill-rule="evenodd" clip-rule="evenodd" d="M195.809,341.234c-0.414,0-0.827,0-1.241,0
			c-0.429-0.076-0.866-0.122-1.284-0.236c-3.102-0.844-5.082-2.822-5.925-5.924c-0.114-0.42-0.16-0.856-0.237-1.285
			c0-0.414,0-0.827,0-1.241c0.027-0.163,0.059-0.326,0.082-0.491c0.442-3.216,2.777-5.859,5.918-6.678
			c0.474-0.124,0.964-0.187,1.446-0.277c0.414,0,0.827,0,1.241,0c0.437,0.079,0.881,0.125,1.307,0.242
			c3.088,0.852,5.064,2.826,5.902,5.92c0.113,0.418,0.16,0.855,0.236,1.284c0,0.414,0,0.827,0,1.241
			c-0.027,0.163-0.061,0.326-0.082,0.49c-0.42,3.183-2.781,5.865-5.895,6.673C196.797,341.077,196.298,341.142,195.809,341.234z
			 M195.193,339.757c3.623-0.004,6.594-2.979,6.584-6.594c-0.01-3.633-2.979-6.595-6.595-6.584c-3.631,0.01-6.587,2.971-6.583,6.594
			C188.603,336.797,191.57,339.76,195.193,339.757z"/>
		<path fill-rule="evenodd" clip-rule="evenodd" fill="#FFFFFF" d="M195.193,339.757c-3.623,0.003-6.59-2.96-6.594-6.584
			c-0.004-3.623,2.952-6.584,6.583-6.594c3.616-0.011,6.585,2.951,6.595,6.584C201.787,336.778,198.816,339.753,195.193,339.757z"/>
	</g>
	<text transform="matrix(1 0 0 1 191.5806 337.6265)" font-family="'MyriadPro-Regular'" font-size="12">B</text>
</g>
<path fill-rule="evenodd" clip-rule="evenodd" fill="#EF8239" d="M15.365,506.292c-0.104-15.944,13.192-29.457,29.073-29.554
	c15.684-0.098,28.837,13.562,28.637,29.747c-0.188,15.396-12.517,27.893-27.955,28.343C29.042,535.292,15.47,522.276,15.365,506.292
	z M59.693,487.523c-7.561-0.478-11.797-1.28-15.927-0.865c-4.364,0.436-11.914-2.852-12.284,3.441
	c-0.385,6.563,7.66,2.803,11.623,4.609c1.412,0.645,2.133,1.185,0.883,5.643c-1.73,5.504-7.591,13.099-7.48,22.631
	c0.024,1.98,0.88,3.365,2.808,4.009c2.215,0.74,3.887-0.603,4.206-2.25C45.958,512.169,52.244,501.113,59.693,487.523z"/>
<path fill-rule="evenodd" clip-rule="evenodd" fill="#C2B028" d="M437.013,701.633c-0.166-10.523,7.491-13.965,15.579-15.401
	c8.496-1.505,17.36-1.286,21.364,9.042c-4.418-0.907-8.898-2.694-13.235-0.058c-1.114,0.679-2.148,2.178-2.384,3.453
	c-0.351,1.85,1.441,2.113,2.884,2.487c7.548,1.97,7.502,1.953,3.326,7.324c-3.143,4.05-9.151,6.611-7.612,13.315
	c4.895,1.81,9.468,1.31,13.96,0.815c2.263-0.246,3.963-2.872,2.085-4.102c-4.584-3.004-4.366-5.359-0.942-9.07
	c3.872-4.205,2.901-9.393,1.672-14.413c7.508,7.589,9.162,15.126,5.216,23.73c-4.417,9.64-14.033,15.005-24.644,13.77
	c-10.064-1.177-18.216-8.151-20.043-17.819c-0.879-4.652-2.705-9.938,2.924-13.355c9.456,3.659,3.82,15.107,10.973,22.421
	c3.578-10.852,2.699-19.629,1.234-28.643C442.901,694.711,440.707,699.496,437.013,701.633z"/>
<path fill-rule="evenodd" clip-rule="evenodd" fill="#F5F3EF" d="M473.709,695.026c1.229,5.021,2.2,10.208-1.672,14.413
	c-3.424,3.711-3.642,6.066,0.942,9.07c1.878,1.229,0.178,3.855-2.085,4.102c-4.492,0.494-9.065,0.994-13.96-0.815
	c-1.539-6.704,4.47-9.266,7.612-13.315c4.176-5.371,4.222-5.354-3.326-7.324c-1.442-0.374-3.234-0.638-2.884-2.487
	c0.235-1.275,1.27-2.774,2.384-3.453c4.337-2.637,8.817-0.85,13.235,0.058L473.709,695.026z"/>
<path fill-rule="evenodd" clip-rule="evenodd" fill="#F5F3EF" d="M437.013,701.633c3.694-2.137,5.889-6.922,12.356-6.503
	c1.465,9.014,2.344,17.791-1.234,28.643c-7.152-7.313-1.517-18.762-10.973-22.421C437.162,701.357,437.013,701.633,437.013,701.633z
	"/>
<path fill-rule="evenodd" clip-rule="evenodd" fill="#EC729F" d="M30.043,341.771c12.959-0.35,25.631,11.589,25.807,24.326
	c0.198,13.706-10.693,24.645-24.738,24.837c-13.382,0.182-23.891-9.764-24.372-23.073C6.23,353.734,16.594,342.13,30.043,341.771z
	 M19.899,359.872c8.22,2.5,10.161,8.042,9.232,15.131c-0.263,2.003-0.082,4.257,0.619,6.126c0.427,1.139,2.144,2.26,3.439,2.487
	c1.425,0.251,3.353-0.613,3.469-2.33c0.783-11.02,2.5-22.133-1.541-33.535C28.834,350.592,25.269,354.989,19.899,359.872z"/>
<path fill-rule="evenodd" clip-rule="evenodd" fill="#444041" d="M123.731,403.885c3.86,0.597,7.779,0.936,11.566,1.837
	c10.476,2.493,18.061,12.165,18.105,22.731c0.045,10.521-7.798,20.437-18.027,22.801c-11.076,2.56-21.364-1.832-26.681-11.39
	c-5.202-9.35-3.465-21.364,4.538-28.582c3.179-2.869,7.025-5,10.563-7.459C123.79,403.827,123.731,403.885,123.731,403.885z
	 M131.924,436.258c-0.829,3.456-3.403,2.975-5.773,2.504c-2.297-0.454-5.249-2.056-5.901,1.4c-0.457,2.432,1.709,4.397,4.417,5.087
	c6.496,1.658,12.115-0.913,14.316-7.143c2.186-6.202,2.252-12.61,0.27-18.955c-1.692-5.426-5.468-8.079-11.093-7.896
	c-5.687,0.188-9.423,3.174-10.232,8.796c-0.832,5.784,0.457,10.795,6.841,13.137C127.171,434.067,131.005,431.859,131.924,436.258z"
	/>
<path fill-rule="evenodd" clip-rule="evenodd" fill="#83C8BA" d="M332.192,443.563c-14.397-0.366-26.07-11.966-26.147-25.993
	c-0.086-14.732,12.104-26.37,27.511-26.264c15.788,0.109,27.053,11.394,26.719,26.777
	C359.947,433.236,348.123,443.968,332.192,443.563z M346.073,424.211c-3.496-4.951-2.827-10.737-3.014-16.408
	c-0.109-3.271,0.758-7.409-3.367-8.798c-4.891-1.645-6.998,2.506-9.351,5.652c-1.019,1.368-1.873,2.862-2.775,4.318
	c-3.229,5.214-8.997,9.699-7.448,16.55c1.462,6.471,9.585,1.883,12.833,6.298c2.069,2.802,4.627,6.053,8.193,2.911
	C344.004,432.215,346.26,428.661,346.073,424.211z"/>
<path fill-rule="evenodd" clip-rule="evenodd" fill="#F5F3EF" d="M346.073,424.211c0.187,4.45-2.069,8.004-4.929,10.523
	c-3.566,3.142-6.124-0.109-8.193-2.911c-3.248-4.415-11.371,0.173-12.833-6.298c-1.549-6.851,4.219-11.336,7.448-16.55
	c0.902-1.456,1.757-2.95,2.775-4.318c2.353-3.146,4.46-7.297,9.351-5.652c4.125,1.389,3.258,5.526,3.367,8.798
	C343.246,413.474,342.577,419.26,346.073,424.211z"/>
<path fill-rule="evenodd" clip-rule="evenodd" fill="#23A568" d="M401.633,154.286c18.877-6.986,29.999-0.691,32.86,18.6
	c-2.83,0.329-5.66,0.657-8.484,0.986c-0.61-0.608-1.718-1.177-1.77-1.829c-1.194-14.842-1.174-14.848-16.083-15.153
	c-2.235-0.044-4.465-0.054-6.699-0.08l0.186,0.191C401.498,156.096,401.498,155.191,401.633,154.286z"/>
<path fill-rule="evenodd" clip-rule="evenodd" fill="#D1CECF" d="M426.004,173.872c2.829-0.329,5.659-0.657,8.489-0.986
	c-1.801,14.219-7.248,20.74-19.39,22.09c-5.97,0.665-12.115,0.285-13.481-7.721c0,0-0.119,0.116-0.119,0.114
	c4.046,0.075,8.097,0.302,12.142,0.194C425.113,187.257,425.771,186.476,426.004,173.872z"/>
<path fill-rule="evenodd" clip-rule="evenodd" fill="#D1CECF" d="M401.622,187.255c-9.073-3.327-10.435-5.618-9.86-16.609
	c5.489,5.794,7.113,0.595,9.214-3.241c0.176,6.656,0.352,13.311,0.527,19.966L401.622,187.255z"/>
<path fill-rule="evenodd" clip-rule="evenodd" fill="#23A568" d="M400.976,167.405c-2.101,3.836-3.725,9.035-9.214,3.241
	c0.471-5.595,2.375-10.463,7.066-13.914c0.937,0.091,1.873,0.181,2.814,0.269l-0.186-0.191
	C401.296,160.341,401.136,163.874,400.976,167.405z"/>
<path fill-rule="evenodd" clip-rule="evenodd" fill="#D1CECF" d="M401.643,157.001c-0.941-0.088-1.878-0.178-2.814-0.269
	c0.279-1.567,1.227-2.372,2.805-2.447C401.498,155.191,401.498,156.096,401.643,157.001z"/>
<path fill-rule="evenodd" clip-rule="evenodd" fill="#F5F3EF" d="M400.976,167.405c0.16-3.531,0.32-7.064,0.481-10.595
	c2.234,0.026,4.464,0.036,6.699,0.08c14.909,0.305,14.889,0.311,16.083,15.153c0.052,0.651,1.159,1.221,1.77,1.829
	c-0.238,12.604-0.896,13.386-12.364,13.691c-4.045,0.108-8.096-0.119-12.142-0.194C401.327,180.716,401.151,174.061,400.976,167.405
	z M413.334,184.148c3.321-0.409,6.555-1.505,6.255-5.424c-0.29-3.792-3.605-4.715-6.948-4.708c-3.063,0.01-5.11,1.376-5.24,4.715
	C407.24,182.852,409.661,184.192,413.334,184.148z M412.91,162.351c-2.338,0.122-5.593-0.339-5.629,3.593
	c-0.03,2.662,2.09,3.787,4.62,3.758c2.814-0.028,5.814-0.538,6.068-3.89C418.187,163,415.595,162.452,412.91,162.351z"/>
<path fill-rule="evenodd" clip-rule="evenodd" fill="#D1CECF" d="M413.334,184.141c-3.673,0.051-6.094-1.289-5.934-5.409
	c0.13-3.339,2.178-4.705,5.24-4.715c3.343-0.008,6.658,0.916,6.948,4.708C419.889,182.643,416.655,183.739,413.334,184.141z"/>
<path fill-rule="evenodd" clip-rule="evenodd" fill="#23A568" d="M412.91,162.351c2.685,0.101,5.276,0.649,5.06,3.461
	c-0.254,3.353-3.254,3.862-6.068,3.89c-2.53,0.029-4.65-1.097-4.62-3.758C407.317,162.012,410.572,162.472,412.91,162.351z"/>
<line fill="none" stroke="#D1CECF" stroke-width="2" stroke-miterlimit="10" x1="175.294" y1="270.751" x2="207.867" y2="274.946"/>
<g>
	<g>
		<path fill-rule="evenodd" clip-rule="evenodd" d="M173.958,275.425c-0.414,0-0.828,0-1.241,0
			c-0.429-0.076-0.866-0.122-1.284-0.236c-3.102-0.844-5.082-2.822-5.925-5.924c-0.114-0.42-0.16-0.856-0.237-1.285
			c0-0.414,0-0.827,0-1.241c0.027-0.163,0.059-0.326,0.082-0.491c0.442-3.216,2.777-5.859,5.918-6.678
			c0.474-0.124,0.964-0.187,1.446-0.277c0.414,0,0.827,0,1.241,0c0.436,0.079,0.881,0.125,1.307,0.242
			c3.088,0.852,5.064,2.826,5.902,5.92c0.113,0.418,0.16,0.855,0.236,1.284c0,0.414,0,0.827,0,1.241
			c-0.027,0.163-0.061,0.326-0.082,0.49c-0.42,3.183-2.781,5.865-5.895,6.673C174.946,275.268,174.448,275.333,173.958,275.425z
			 M173.343,273.949c3.623-0.004,6.594-2.979,6.584-6.594c-0.01-3.633-2.979-6.595-6.594-6.584c-3.632,0.01-6.588,2.971-6.584,6.594
			C166.752,270.989,169.72,273.952,173.343,273.949z"/>
		<path fill-rule="evenodd" clip-rule="evenodd" fill="#FFFFFF" d="M173.343,273.949c-3.623,0.003-6.59-2.96-6.594-6.584
			c-0.004-3.623,2.952-6.584,6.584-6.594c3.616-0.011,6.584,2.951,6.594,6.584C179.937,270.969,176.966,273.945,173.343,273.949z"/>
	</g>
	<text transform="matrix(1 0 0 1 169.73 271.8179)" font-family="'MyriadPro-Regular'" font-size="12">B</text>
</g>
<line fill="none" stroke="#D1CECF" stroke-width="2" stroke-miterlimit="10" x1="214.611" y1="277.854" x2="227.84" y2="279.951"/>
<g>
	<g>
		<path fill-rule="evenodd" clip-rule="evenodd" d="M209.208,282.013c-0.414,0-0.828,0-1.241,0
			c-0.429-0.076-0.866-0.122-1.284-0.236c-3.102-0.844-5.082-2.822-5.925-5.924c-0.114-0.42-0.16-0.856-0.237-1.285
			c0-0.414,0-0.827,0-1.241c0.027-0.163,0.059-0.326,0.082-0.491c0.442-3.216,2.777-5.859,5.918-6.678
			c0.474-0.124,0.964-0.187,1.446-0.277c0.414,0,0.827,0,1.241,0c0.436,0.079,0.881,0.125,1.307,0.242
			c3.088,0.852,5.064,2.826,5.902,5.92c0.113,0.418,0.16,0.855,0.236,1.284c0,0.414,0,0.827,0,1.241
			c-0.027,0.163-0.061,0.326-0.082,0.49c-0.42,3.183-2.781,5.865-5.895,6.673C210.197,281.856,209.698,281.921,209.208,282.013z
			 M208.593,280.537c3.623-0.004,6.594-2.979,6.584-6.594c-0.01-3.633-2.979-6.595-6.594-6.584c-3.632,0.01-6.588,2.971-6.584,6.594
			C202.003,277.577,204.97,280.54,208.593,280.537z"/>
		<path fill-rule="evenodd" clip-rule="evenodd" fill="#FFFFFF" d="M208.593,280.537c-3.623,0.003-6.59-2.96-6.594-6.584
			c-0.004-3.623,2.952-6.584,6.584-6.594c3.616-0.011,6.584,2.951,6.594,6.584C215.187,277.557,212.216,280.533,208.593,280.537z"/>
	</g>
	<text transform="matrix(1 0 0 1 204.9805 278.4058)" font-family="'MyriadPro-Regular'" font-size="12">B</text>
</g>
<line fill="none" stroke="#D1CECF" stroke-width="2" stroke-miterlimit="10" x1="228.303" y1="279.917" x2="278.893" y2="292.148"/>
<g>
	<g>
		<path fill-rule="evenodd" clip-rule="evenodd" d="M230.382,286.49c-0.414,0-0.828,0-1.241,0c-0.429-0.076-0.866-0.122-1.284-0.236
			c-3.102-0.844-5.082-2.822-5.925-5.924c-0.114-0.42-0.16-0.856-0.237-1.285c0-0.414,0-0.827,0-1.241
			c0.027-0.163,0.059-0.326,0.082-0.491c0.442-3.216,2.777-5.859,5.918-6.678c0.474-0.124,0.964-0.187,1.446-0.277
			c0.414,0,0.827,0,1.241,0c0.436,0.079,0.881,0.125,1.307,0.242c3.088,0.852,5.064,2.826,5.902,5.92
			c0.113,0.418,0.16,0.855,0.236,1.284c0,0.414,0,0.827,0,1.241c-0.027,0.163-0.061,0.326-0.082,0.49
			c-0.42,3.183-2.781,5.865-5.895,6.673C231.371,286.333,230.872,286.398,230.382,286.49z M229.767,285.014
			c3.623-0.004,6.594-2.979,6.584-6.594c-0.01-3.633-2.979-6.595-6.594-6.584c-3.632,0.01-6.588,2.971-6.584,6.594
			C223.177,282.054,226.144,285.017,229.767,285.014z"/>
		<path fill-rule="evenodd" clip-rule="evenodd" fill="#FFFFFF" d="M229.767,285.014c-3.623,0.003-6.59-2.96-6.594-6.584
			c-0.004-3.623,2.952-6.584,6.584-6.594c3.616-0.011,6.584,2.951,6.594,6.584C236.361,282.034,233.39,285.01,229.767,285.014z"/>
	</g>
	<text transform="matrix(1 0 0 1 226.1543 282.8828)" font-family="'MyriadPro-Regular'" font-size="12">B</text>
</g>
<line fill="none" stroke="#D1CECF" stroke-width="2" stroke-miterlimit="10" x1="285.722" y1="297.961" x2="292.661" y2="318.332"/>
<g>
	<g>
		<path fill-rule="evenodd" clip-rule="evenodd" d="M284.693,302.243c-0.414,0-0.828,0-1.241,0
			c-0.429-0.076-0.866-0.122-1.284-0.236c-3.102-0.844-5.082-2.822-5.925-5.924c-0.114-0.42-0.16-0.856-0.237-1.285
			c0-0.414,0-0.827,0-1.241c0.027-0.163,0.059-0.326,0.082-0.491c0.442-3.216,2.777-5.859,5.918-6.678
			c0.474-0.124,0.964-0.187,1.446-0.277c0.414,0,0.827,0,1.241,0c0.436,0.079,0.881,0.125,1.307,0.242
			c3.088,0.852,5.064,2.826,5.902,5.92c0.113,0.418,0.16,0.855,0.236,1.284c0,0.414,0,0.827,0,1.241
			c-0.027,0.163-0.061,0.326-0.082,0.49c-0.42,3.183-2.781,5.865-5.895,6.673C285.682,302.086,285.183,302.151,284.693,302.243z
			 M284.078,300.767c3.623-0.004,6.594-2.979,6.584-6.594c-0.01-3.633-2.979-6.595-6.594-6.584c-3.632,0.01-6.588,2.971-6.584,6.594
			C277.488,297.807,280.455,300.77,284.078,300.767z"/>
		<path fill-rule="evenodd" clip-rule="evenodd" fill="#FFFFFF" d="M284.078,300.767c-3.623,0.003-6.59-2.96-6.594-6.584
			c-0.004-3.623,2.952-6.584,6.584-6.594c3.616-0.011,6.584,2.951,6.594,6.584C290.672,297.787,287.701,300.763,284.078,300.767z"/>
	</g>
	<text transform="matrix(1 0 0 1 280.4653 298.6357)" font-family="'MyriadPro-Regular'" font-size="12">B</text>
</g>
<line fill="none" stroke="#D1CECF" stroke-width="2" stroke-miterlimit="10" x1="299.646" y1="315.676" x2="371.334" y2="279.95"/>
<g>
	<g>
		<path fill-rule="evenodd" clip-rule="evenodd" d="M298.443,327.708c-0.414,0-0.828,0-1.241,0
			c-0.429-0.076-0.866-0.122-1.284-0.236c-3.102-0.844-5.082-2.822-5.925-5.924c-0.114-0.42-0.16-0.856-0.237-1.285
			c0-0.414,0-0.827,0-1.241c0.027-0.163,0.059-0.326,0.082-0.491c0.442-3.216,2.777-5.859,5.918-6.678
			c0.474-0.124,0.964-0.187,1.446-0.277c0.413,0,0.827,0,1.241,0c0.436,0.079,0.881,0.125,1.307,0.242
			c3.088,0.852,5.064,2.826,5.902,5.92c0.113,0.418,0.16,0.855,0.236,1.284c0,0.414,0,0.827,0,1.241
			c-0.027,0.163-0.061,0.326-0.082,0.49c-0.42,3.183-2.781,5.865-5.895,6.673C299.432,327.551,298.934,327.616,298.443,327.708z
			 M297.828,326.231c3.623-0.004,6.594-2.979,6.584-6.594c-0.01-3.633-2.979-6.595-6.594-6.584c-3.633,0.01-6.588,2.971-6.584,6.594
			C291.238,323.271,294.205,326.234,297.828,326.231z"/>
		<path fill-rule="evenodd" clip-rule="evenodd" fill="#FFFFFF" d="M297.828,326.231c-3.623,0.003-6.59-2.96-6.594-6.584
			c-0.004-3.623,2.951-6.584,6.584-6.594c3.615-0.011,6.584,2.951,6.594,6.584C304.422,323.252,301.451,326.228,297.828,326.231z"/>
	</g>
	<text transform="matrix(1 0 0 1 294.2153 324.1006)" font-family="'MyriadPro-Regular'" font-size="12">B</text>
</g>
<line fill="none" stroke="#D1CECF" stroke-width="2" stroke-miterlimit="10" x1="379.585" y1="276.824" x2="474.435" y2="171.228"/>
<g>
	<g>
		<path fill-rule="evenodd" clip-rule="evenodd" d="M475.054,174.837c-0.414,0-0.827,0-1.241,0
			c-0.429-0.076-0.865-0.122-1.284-0.236c-3.103-0.844-5.081-2.822-5.925-5.924c-0.113-0.42-0.16-0.856-0.236-1.285
			c0-0.414,0-0.827,0-1.241c0.027-0.163,0.059-0.326,0.081-0.491c0.442-3.216,2.777-5.859,5.918-6.678
			c0.474-0.124,0.964-0.187,1.446-0.277c0.414,0,0.827,0,1.241,0c0.437,0.079,0.881,0.125,1.307,0.242
			c3.088,0.852,5.064,2.826,5.902,5.92c0.113,0.418,0.16,0.855,0.236,1.284c0,0.414,0,0.827,0,1.241
			c-0.027,0.163-0.061,0.326-0.082,0.49c-0.42,3.183-2.781,5.865-5.895,6.673C476.042,174.68,475.543,174.745,475.054,174.837z
			 M474.438,173.36c3.623-0.004,6.594-2.979,6.584-6.594c-0.01-3.633-2.979-6.595-6.595-6.584c-3.631,0.01-6.588,2.971-6.584,6.594
			C467.848,170.4,470.815,173.363,474.438,173.36z"/>
		<path fill-rule="evenodd" clip-rule="evenodd" fill="#FFFFFF" d="M474.438,173.36c-3.623,0.003-6.591-2.96-6.595-6.584
			c-0.004-3.623,2.953-6.584,6.584-6.594c3.616-0.011,6.585,2.951,6.595,6.584C481.032,170.381,478.062,173.356,474.438,173.36z"/>
	</g>
	<text transform="matrix(1 0 0 1 472.8262 171.2295)" font-family="'MyriadPro-Regular'" font-size="12">I</text>
</g>
<g>
	<g>
		<path fill-rule="evenodd" clip-rule="evenodd" d="M373.616,284.894c-0.414,0-0.827,0-1.241,0
			c-0.429-0.076-0.865-0.122-1.284-0.236c-3.103-0.844-5.081-2.822-5.925-5.924c-0.113-0.42-0.16-0.856-0.236-1.285
			c0-0.414,0-0.827,0-1.241c0.027-0.163,0.059-0.326,0.081-0.491c0.442-3.216,2.777-5.859,5.918-6.678
			c0.474-0.124,0.964-0.187,1.446-0.277c0.414,0,0.827,0,1.241,0c0.437,0.079,0.881,0.125,1.307,0.242
			c3.088,0.852,5.064,2.826,5.902,5.92c0.113,0.418,0.16,0.855,0.236,1.284c0,0.414,0,0.827,0,1.241
			c-0.027,0.163-0.061,0.326-0.082,0.49c-0.42,3.183-2.781,5.865-5.895,6.673C374.604,284.737,374.105,284.802,373.616,284.894z
			 M373.001,283.417c3.623-0.004,6.594-2.979,6.584-6.594c-0.01-3.633-2.979-6.595-6.595-6.584c-3.631,0.01-6.588,2.971-6.584,6.594
			C366.41,280.458,369.378,283.42,373.001,283.417z"/>
		<path fill-rule="evenodd" clip-rule="evenodd" fill="#FFFFFF" d="M373.001,283.417c-3.623,0.003-6.591-2.96-6.595-6.584
			c-0.004-3.623,2.953-6.584,6.584-6.594c3.616-0.011,6.585,2.951,6.595,6.584C379.595,280.438,376.624,283.414,373.001,283.417z"/>
	</g>
	<text transform="matrix(1 0 0 1 369.3887 281.2866)" font-family="'MyriadPro-Regular'" font-size="12">V</text>
</g>
<path fill-rule="evenodd" clip-rule="evenodd" fill="#FEDC32" d="M470.185,329.644c-0.096,13.123-9.563,22.525-22.338,22.188
	c-12.558-0.332-22.278-10.614-21.822-23.077c0.435-11.805,10.389-21.536,22.024-21.542
	C460.882,307.211,470.279,316.735,470.185,329.644z M457.663,315.388c-4.438-2.445-8.819-2.264-12.765-1.159
	c-5.68,1.594-5.261,7.268-5.638,11.657c-0.535,6.215,4.185,4.473,7.796,4.367c4.195-0.12,6.157,2.272,5.149,6.252
	c-0.891,3.535-3.606,3.784-6.586,2.328c-0.844-0.411-1.592-1.132-2.472-1.315c-1.368-0.289-3.118-0.183-3.543,1.275
	c-0.317,1.093,0.091,2.811,0.828,3.726c3.081,3.826,7.393,3.715,11.593,2.734c4.762-1.111,6.496-4.707,7.074-9.326
	c1.05-8.302-4.979-11.274-11.041-13.916C450.626,318.048,456.247,321.553,457.663,315.388z"/>
<line fill="none" stroke="#DC5D4B" stroke-width="4" stroke-miterlimit="10" x1="55.852" y1="129.639" x2="269.253" y2="168.555"/>
<line fill="none" stroke="#DC5D4B" stroke-width="4" stroke-miterlimit="10" x1="264.481" y1="168.337" x2="309.444" y2="214.418"/>
<g>
	<g>
		<path fill-rule="evenodd" clip-rule="evenodd" d="M74.198,139.183c-0.414,0-0.828,0-1.241,0c-0.429-0.076-0.866-0.122-1.284-0.236
			c-3.102-0.844-5.082-2.822-5.925-5.924c-0.114-0.42-0.16-0.856-0.237-1.285c0-0.414,0-0.827,0-1.241
			c0.027-0.163,0.059-0.326,0.082-0.491c0.442-3.216,2.777-5.859,5.918-6.678c0.474-0.124,0.964-0.187,1.446-0.277
			c0.414,0,0.827,0,1.241,0c0.436,0.079,0.881,0.125,1.307,0.242c3.088,0.852,5.064,2.826,5.902,5.92
			c0.113,0.418,0.16,0.855,0.236,1.284c0,0.414,0,0.827,0,1.241c-0.027,0.163-0.061,0.326-0.082,0.49
			c-0.42,3.183-2.781,5.865-5.895,6.673C75.187,139.026,74.688,139.091,74.198,139.183z M73.583,137.707
			c3.623-0.004,6.594-2.979,6.584-6.594c-0.01-3.633-2.979-6.595-6.594-6.584c-3.632,0.01-6.588,2.971-6.584,6.594
			C66.993,134.747,69.96,137.709,73.583,137.707z"/>
		<path fill-rule="evenodd" clip-rule="evenodd" fill="#FFFFFF" d="M73.583,137.707c-3.623,0.003-6.59-2.96-6.594-6.584
			c-0.004-3.623,2.952-6.584,6.584-6.594c3.616-0.011,6.584,2.951,6.594,6.584C80.177,134.727,77.206,137.703,73.583,137.707z"/>
	</g>
	<text transform="matrix(1 0 0 1 69.9702 135.5757)" font-family="'MyriadPro-Regular'" font-size="12">E</text>
</g>
<g>
	<g>
		<path fill-rule="evenodd" clip-rule="evenodd" d="M310.064,218.877c-0.414,0-0.827,0-1.24,0c-0.43-0.076-0.866-0.122-1.285-0.236
			c-3.102-0.844-5.081-2.822-5.924-5.924c-0.114-0.42-0.16-0.856-0.237-1.285c0-0.414,0-0.827,0-1.241
			c0.027-0.163,0.06-0.326,0.081-0.491c0.443-3.216,2.777-5.859,5.918-6.678c0.475-0.124,0.965-0.187,1.447-0.277
			c0.413,0,0.826,0,1.24,0c0.437,0.079,0.881,0.125,1.307,0.242c3.088,0.852,5.064,2.826,5.902,5.92
			c0.113,0.418,0.16,0.855,0.236,1.284c0,0.414,0,0.827,0,1.241c-0.027,0.163-0.061,0.326-0.082,0.49
			c-0.42,3.183-2.781,5.865-5.895,6.673C311.053,218.72,310.555,218.785,310.064,218.877z M309.449,217.4
			c3.623-0.004,6.594-2.979,6.584-6.594c-0.01-3.633-2.979-6.595-6.594-6.584c-3.632,0.01-6.588,2.971-6.584,6.594
			C302.859,214.44,305.826,217.403,309.449,217.4z"/>
		<path fill-rule="evenodd" clip-rule="evenodd" fill="#FFFFFF" d="M309.449,217.4c-3.623,0.003-6.59-2.96-6.594-6.584
			c-0.004-3.623,2.952-6.584,6.584-6.594c3.615-0.011,6.584,2.951,6.594,6.584C316.043,214.421,313.072,217.396,309.449,217.4z"/>
	</g>
	<text transform="matrix(1 0 0 1 305.8369 215.2695)" font-family="'MyriadPro-Regular'" font-size="12">H</text>
</g>
<line fill="none" stroke="#FEDC32" stroke-width="4" stroke-miterlimit="10" x1="208.587" y1="123" x2="236.492" y2="205.032"/>
<g>
	<g>
		<path fill-rule="evenodd" clip-rule="evenodd" d="M236.488,214.418c-0.414,0-0.828,0-1.241,0
			c-0.429-0.076-0.866-0.122-1.284-0.236c-3.102-0.844-5.082-2.822-5.925-5.924c-0.114-0.42-0.16-0.856-0.237-1.285
			c0-0.414,0-0.827,0-1.241c0.027-0.163,0.059-0.326,0.082-0.491c0.442-3.216,2.777-5.859,5.918-6.678
			c0.474-0.124,0.964-0.187,1.446-0.277c0.414,0,0.827,0,1.241,0c0.436,0.079,0.881,0.125,1.307,0.242
			c3.088,0.852,5.064,2.826,5.902,5.92c0.113,0.418,0.16,0.855,0.236,1.284c0,0.414,0,0.827,0,1.241
			c-0.027,0.163-0.061,0.326-0.082,0.49c-0.42,3.183-2.781,5.865-5.895,6.673C237.476,214.261,236.978,214.326,236.488,214.418z
			 M235.873,212.941c3.623-0.004,6.594-2.979,6.584-6.594c-0.01-3.633-2.979-6.595-6.594-6.584c-3.632,0.01-6.588,2.971-6.584,6.594
			C229.282,209.981,232.25,212.944,235.873,212.941z"/>
		<path fill-rule="evenodd" clip-rule="evenodd" fill="#FFFFFF" d="M235.873,212.941c-3.623,0.003-6.59-2.96-6.594-6.584
			c-0.004-3.623,2.952-6.584,6.584-6.594c3.616-0.011,6.584,2.951,6.594,6.584C242.466,209.962,239.496,212.938,235.873,212.941z"/>
	</g>
	<text transform="matrix(1 0 0 1 232.2598 210.8105)" font-family="'MyriadPro-Regular'" font-size="12">T</text>
</g>
<g>
	<g>
		<path fill-rule="evenodd" clip-rule="evenodd" d="M221.574,168.249c-0.414,0-0.828,0-1.241,0
			c-0.429-0.076-0.866-0.122-1.284-0.236c-3.102-0.844-5.082-2.822-5.925-5.924c-0.114-0.42-0.16-0.856-0.237-1.285
			c0-0.414,0-0.827,0-1.241c0.027-0.163,0.059-0.326,0.082-0.491c0.442-3.216,2.777-5.859,5.918-6.678
			c0.474-0.124,0.964-0.187,1.446-0.277c0.414,0,0.827,0,1.241,0c0.436,0.079,0.881,0.125,1.307,0.242
			c3.088,0.852,5.064,2.826,5.902,5.92c0.113,0.418,0.16,0.855,0.236,1.284c0,0.414,0,0.827,0,1.241
			c-0.027,0.163-0.061,0.326-0.082,0.49c-0.42,3.183-2.781,5.865-5.895,6.673C222.562,168.092,222.063,168.157,221.574,168.249z
			 M220.958,166.772c3.623-0.004,6.594-2.979,6.584-6.594c-0.01-3.633-2.979-6.595-6.594-6.584c-3.632,0.01-6.588,2.971-6.584,6.594
			C214.368,163.813,217.335,166.775,220.958,166.772z"/>
		<path fill-rule="evenodd" clip-rule="evenodd" fill="#FFFFFF" d="M220.958,166.772c-3.623,0.003-6.59-2.96-6.594-6.584
			c-0.004-3.623,2.952-6.584,6.584-6.594c3.616-0.011,6.584,2.951,6.594,6.584C227.552,163.793,224.582,166.769,220.958,166.772z"/>
	</g>
	<text transform="matrix(1 0 0 1 217.3457 164.6416)" font-family="'MyriadPro-Regular'" font-size="12">R</text>
</g>
<g>
	<g>
		<path fill-rule="evenodd" clip-rule="evenodd" d="M268.709,175.471c-0.414,0-0.828,0-1.241,0
			c-0.429-0.076-0.866-0.122-1.284-0.236c-3.102-0.844-5.082-2.822-5.925-5.924c-0.114-0.42-0.16-0.856-0.237-1.285
			c0-0.414,0-0.827,0-1.241c0.027-0.163,0.059-0.326,0.082-0.491c0.442-3.216,2.777-5.859,5.918-6.678
			c0.474-0.124,0.964-0.187,1.446-0.277c0.414,0,0.827,0,1.241,0c0.436,0.079,0.881,0.125,1.307,0.242
			c3.088,0.852,5.064,2.826,5.902,5.92c0.113,0.418,0.16,0.855,0.236,1.284c0,0.414,0,0.827,0,1.241
			c-0.027,0.163-0.061,0.326-0.082,0.49c-0.42,3.183-2.781,5.865-5.895,6.673C269.697,175.314,269.199,175.379,268.709,175.471z
			 M268.094,173.995c3.623-0.004,6.594-2.979,6.584-6.594c-0.01-3.633-2.979-6.595-6.594-6.584c-3.632,0.01-6.588,2.971-6.584,6.594
			C261.503,171.035,264.471,173.998,268.094,173.995z"/>
		<path fill-rule="evenodd" clip-rule="evenodd" fill="#FFFFFF" d="M268.094,173.995c-3.623,0.003-6.59-2.96-6.594-6.584
			c-0.004-3.623,2.952-6.584,6.584-6.594c3.616-0.011,6.584,2.951,6.594,6.584C274.688,171.015,271.717,173.991,268.094,173.995z"/>
	</g>
	<text transform="matrix(1 0 0 1 265.481 171.8638)" font-family="'MyriadPro-Regular'" font-size="12">S</text>
</g>
<g>
	<g>
		<path fill-rule="evenodd" clip-rule="evenodd" d="M209.209,131.066c-0.414,0-0.828,0-1.241,0
			c-0.429-0.076-0.866-0.122-1.284-0.236c-3.102-0.844-5.082-2.822-5.925-5.924c-0.114-0.42-0.16-0.856-0.237-1.285
			c0-0.414,0-0.827,0-1.241c0.027-0.163,0.059-0.326,0.082-0.491c0.442-3.216,2.777-5.859,5.918-6.678
			c0.474-0.124,0.964-0.187,1.446-0.277c0.414,0,0.827,0,1.241,0c0.436,0.079,0.881,0.125,1.307,0.242
			c3.088,0.852,5.064,2.826,5.902,5.92c0.113,0.418,0.16,0.855,0.236,1.284c0,0.414,0,0.827,0,1.241
			c-0.027,0.163-0.061,0.326-0.082,0.49c-0.42,3.183-2.781,5.865-5.895,6.673C210.197,130.909,209.699,130.975,209.209,131.066z
			 M208.594,129.59c3.623-0.004,6.594-2.979,6.584-6.594c-0.01-3.633-2.979-6.595-6.594-6.584c-3.632,0.01-6.588,2.971-6.584,6.594
			C202.003,126.63,204.971,129.593,208.594,129.59z"/>
		<path fill-rule="evenodd" clip-rule="evenodd" fill="#FFFFFF" d="M208.594,129.59c-3.623,0.003-6.59-2.96-6.594-6.584
			c-0.004-3.623,2.952-6.584,6.584-6.594c3.616-0.011,6.584,2.951,6.594,6.584C215.188,126.61,212.217,129.586,208.594,129.59z"/>
	</g>
	<text transform="matrix(1 0 0 1 204.981 127.459)" font-family="'MyriadPro-Regular'" font-size="12">F</text>
</g>
<g>
	<g>
		<path fill-rule="evenodd" clip-rule="evenodd" d="M287.583,153.838c-0.414,0-0.828,0-1.241,0
			c-0.429-0.076-0.866-0.122-1.284-0.236c-3.102-0.844-5.082-2.822-5.925-5.924c-0.114-0.42-0.16-0.856-0.237-1.285
			c0-0.414,0-0.827,0-1.241c0.027-0.163,0.059-0.326,0.082-0.491c0.442-3.216,2.777-5.859,5.918-6.678
			c0.474-0.124,0.964-0.187,1.446-0.277c0.414,0,0.827,0,1.241,0c0.436,0.079,0.881,0.125,1.307,0.242
			c3.088,0.852,5.065,2.826,5.903,5.92c0.113,0.418,0.16,0.855,0.236,1.284c0,0.414,0,0.827,0,1.241
			c-0.027,0.163-0.061,0.326-0.082,0.49c-0.42,3.183-2.781,5.865-5.895,6.673C288.572,153.681,288.073,153.746,287.583,153.838z
			 M286.968,152.361c3.624-0.004,6.594-2.979,6.584-6.594c-0.01-3.633-2.979-6.595-6.595-6.584c-3.632,0.01-6.588,2.971-6.584,6.594
			C280.378,149.401,283.345,152.364,286.968,152.361z"/>
		<path fill-rule="evenodd" clip-rule="evenodd" fill="#FFFFFF" d="M286.968,152.361c-3.623,0.003-6.59-2.96-6.594-6.584
			c-0.004-3.623,2.952-6.584,6.584-6.594c3.616-0.011,6.585,2.951,6.595,6.584C293.563,149.382,290.592,152.357,286.968,152.361z"/>
	</g>
	<text transform="matrix(1 0 0 1 283.3555 150.2305)" font-family="'MyriadPro-Regular'" font-size="12">G</text>
</g>
<path fill-rule="evenodd" clip-rule="evenodd" fill="#DC5D4B" d="M33.921,172.763c-10.751,0.043-19.074-8.19-19.133-18.925
	c-0.056-10.618,8.382-19.294,18.882-19.412c10.373-0.115,19.099,8.613,19.162,19.165C52.894,164.331,44.62,172.72,33.921,172.763z
	 M24.996,155.682c0.165,1.05,0.188,3.957,1.129,6.529c1.767,4.83,7.351,6.92,11.921,4.891c4.941-2.194,6.085-8.654,2.862-14.513
	c-0.875-1.59-4.996-1.247-2.5-5.104c2.964-4.586,1.339-7.267-3.557-7.28C28.356,140.187,25.082,144.755,24.996,155.682z"/>
<path fill-rule="evenodd" clip-rule="evenodd" fill="#F5F3EF" d="M24.996,155.682c0.086-10.927,3.36-15.495,9.855-15.477
	c4.896,0.014,6.521,2.694,3.557,7.28c-2.496,3.857,1.625,3.514,2.5,5.104c3.224,5.859,2.079,12.319-2.862,14.513
	c-4.57,2.029-10.154-0.061-11.921-4.891C25.184,159.639,25.161,156.732,24.996,155.682z M37.664,158.483
	c-0.166-1.636-0.324-3.955-2.799-4.229c-3.131-0.348-4.047,2.072-4.034,4.602c0.014,2.147,1.319,3.941,3.563,4.041
	C36.892,163.008,37.6,161.053,37.664,158.483z"/>
</svg>
